<svg width="1161" height="607" xmlns="http://www.w3.org/2000/svg"><defs><pattern id="pat_3001_1" patternUnits="userSpaceOnUse" width="2" height="2"><path d="M0,0h1v1h-1zM1,1h1v1h-1z" style="fill: black;"></path></pattern><pattern id="pat_3002_1" patternUnits="userSpaceOnUse" width="4" height="2"><path d="M1,0h1v1h-1zM3,1h1v1h-1z" style="fill: black;"></path></pattern><pattern id="pat_3003_1" patternUnits="userSpaceOnUse" width="4" height="4"><path d="M2,1h1v1h-1zM0,3h1v1h-1z" style="fill: black;"></path></pattern><pattern id="pat_3004_1" patternUnits="userSpaceOnUse" width="8" height="8"><path d="M8,0L0,8" style="stroke: black; stroke-width: 1;"></path></pattern><pattern id="pat_3005_1" patternUnits="userSpaceOnUse" width="8" height="8"><path d="M0,0L8,8" style="stroke: black; stroke-width: 1;"></path></pattern><pattern id="pat_3006_1" patternUnits="userSpaceOnUse" width="4" height="4"><path d="M1,0v4" style="stroke: black; stroke-width: 1;"></path></pattern><pattern id="pat_3007_1" patternUnits="userSpaceOnUse" width="4" height="4"><path d="M0,1h4" style="stroke: black; stroke-width: 1;"></path></pattern><pattern id="pat_3010_1" patternUnits="userSpaceOnUse" width="10" height="10"><path d="M0,2h10M0,7h10M2,0v2M7,2v5M2,7v3" style="stroke: black; stroke-width: 1;"></path></pattern><pattern id="pat_3021_1" patternUnits="userSpaceOnUse" width="8" height="8"><path d="M8,2h-2v4h-4v2M2,0v2h-2" style="stroke: black; stroke-width: 1; fill: none;"></path></pattern><pattern id="pat_3022_1" patternUnits="userSpaceOnUse" width="8" height="8"><path d="M0,2h2v4h4v2M6,0v2h2" style="stroke: black; stroke-width: 1; fill: none;"></path></pattern></defs><title>12_13_2.root/c1;1</title><path d="M0,0H1161V607H0Z" style="pointer-events: visiblefill; fill: white;"></path><g><g transform="translate(116,61)"><title></title><path d="M0,0H929V486H0Z" style="fill: white; stroke: black; stroke-width: 1; pointer-events: visiblefill; cursor: default;"></path><svg x="0" y="0" overflow="hidden" width="929" height="486" viewBox="0 0 929 486" style="pointer-events: visiblefill; cursor: default;"><g style="cursor: move;"><path d="M77,313l2,-3l2,-3l2,-2l2,-3l2,-3l2,-2l2,-3l2,-3l2,-3l2,-2l2,-3l2,-3l2,-2l2,-3l1,-3l2,-3l2,-2l2,-3l2,-3l2,-3l2,-2l2,-3l2,-3l2,-2l2,-3l2,-3l2,-3l2,-2l2,-3l1,-3l2,-3l2,-2l2,-3l2,-3l2,-2l2,-3l2,-3l2,-3l2,-2l2,-3l2,-3l2,-2l2,-3l2,-3l2,-3l1,-2l2,-3l2,-3l2,-3l2,-2l2,-3l2,-3l2,-2l2,-3l2,-3l2,-3l2,-2l2,-3l2,-3l2,-3l1,-2l2,-3l2,-3l2,-2l2,-3l2,-3l2,-3l2,-2l2,-3l2,-3l2,-2l2,-3l2,-3l2,-3l2,-2l2,-3l1,-3l2,-3l2,-2l2,-3l2,-3l2,-2l2,-3l2,-3l2,-3l2,-2l2,-3l2,-3l2,-3l2,-2l2,-3l1,-3l2,-2l2,-3l2,-3l2,-3l2,-2l2,-3l2,-3l2,-2l2,-1l2,1h4l2,1l2,-1l2,1l1,1h2l2,1h2l2,1h6l2,2l2,-1l2,2l2,-1l2,2h2l2,1l1,1h4l2,1l2,1l2,1h2l2,1l2,1h2l2,1l2,1h2l2,1l2,1l2,1h1l2,1l2,1h2l2,1l2,1l2,1l2,1h2l2,1l2,1l2,1l2,1h2l2,1l1,1l2,1l2,1l2,1l2,1h2l2,1l2,1l2,1l2,1l2,1l2,1l2,1l2,1l2,1l2,1l1,1l2,1l2,1l2,1h2l2,1l2,1l2,1l2,1l2,1l2,1l2,1l2,2l2,1l2,1l1,1l2,1l2,1l2,1l2,1l2,1l2,1l2,1l2,1l2,1l2,1l2,1l2,2l2,1l2,1l2,1l1,1l2,1l2,1l2,2l2,1l2,1l2,1l2,1l2,1l2,2l2,1l2,1l2,1l2,1l2,1l1,2l2,1l2,1l2,1l2,2l2,1l2,1l2,1l2,2l2,1l2,1l2,1l2,2l2,1l2,1l1,1l2,2l2,1l2,1l2,2l2,1l2,1l2,2l2,1l2,1l2,2l2,1l2,1l2,2l2,1l2,1l1,2l2,1l2,2l2,1l2,1l2,2l2,1l2,1l2,2l2,1l2,2l2,1l2,2l2,1l2,1l1,2l2,1l2,2l2,1l2,2l2,1l2,2l2,1l2,2l2,1l2,2l2,1l2,2l2,1l2,2l2,1l1,2l2,1l2,2l2,1l2,2l2,1l2,2l2,1l2,2l2,2l2,1l2,2l2,1l2,2l2,1l1,2l2,2l2,1l2,2l2,1l2,2l2,2l2,1l2,2l2,2l2,1l2,2l2,2l2,1l2,2l2,2l1,1l2,2l2,2l2,1l2,2l2,2l2,1l2,2l2,2l2,1l2,2l2,2l2,2l2,1l2,2l1,2l2,2l2,1l2,2l2,2l2,2l2,1l2,2l2,2l2,2l2,2l2,1l2,2l2,2l2,2l2,2l1,2l2,1l2,2l2,2l2,2l2,2l2,2l2,2l2,1l2,2l2,2l2,2l2,2l2,2l2,2l1,2l2,2l2,1l2,2l2,2l2,2l2,2l2,2l2,2l2,2l2,2l2,2l2,2l2,2l2,2l2,2l1,2l2,2l2,2l2,2l2,2l2,2l2,2l2,2l2,2l2,2l2,2l2,2l2,2l2,2l2,2l1,2l2,2l2,2l2,2l2,2l2,3l2,2l2,2l2,2l2,2l2,2l2,2l2,2l2,2l2,3" style="stroke: black; stroke-width: 1; fill: none;"></path><path d="M76.62,312.92a0.80,0.80,0,1,0,1.60,0a0.80,0.80,0,1,0,-1.60,0zM78.55,310.20a0.80,0.80,0,1,0,1.60,0a0.80,0.80,0,1,0,-1.60,0zM80.49,307.47a0.80,0.80,0,1,0,1.60,0a0.80,0.80,0,1,0,-1.60,0zM82.42,304.75a0.80,0.80,0,1,0,1.60,0a0.80,0.80,0,1,0,-1.60,0zM84.36,302.02a0.80,0.80,0,1,0,1.60,0a0.80,0.80,0,1,0,-1.60,0zM86.29,299.30a0.80,0.80,0,1,0,1.60,0a0.80,0.80,0,1,0,-1.60,0zM88.23,296.58a0.80,0.80,0,1,0,1.60,0a0.80,0.80,0,1,0,-1.60,0zM90.16,293.85a0.80,0.80,0,1,0,1.60,0a0.80,0.80,0,1,0,-1.60,0zM92.10,291.13a0.80,0.80,0,1,0,1.60,0a0.80,0.80,0,1,0,-1.60,0zM94.04,288.40a0.80,0.80,0,1,0,1.60,0a0.80,0.80,0,1,0,-1.60,0zM95.97,285.68a0.80,0.80,0,1,0,1.60,0a0.80,0.80,0,1,0,-1.60,0zM97.91,282.96a0.80,0.80,0,1,0,1.60,0a0.80,0.80,0,1,0,-1.60,0zM99.84,280.23a0.80,0.80,0,1,0,1.60,0a0.80,0.80,0,1,0,-1.60,0zM101.78,277.51a0.80,0.80,0,1,0,1.60,0a0.80,0.80,0,1,0,-1.60,0zM103.71,274.78a0.80,0.80,0,1,0,1.60,0a0.80,0.80,0,1,0,-1.60,0zM105.65,272.06a0.80,0.80,0,1,0,1.60,0a0.80,0.80,0,1,0,-1.60,0zM107.58,269.34a0.80,0.80,0,1,0,1.60,0a0.80,0.80,0,1,0,-1.60,0zM109.52,266.61a0.80,0.80,0,1,0,1.60,0a0.80,0.80,0,1,0,-1.60,0zM111.45,263.89a0.80,0.80,0,1,0,1.60,0a0.80,0.80,0,1,0,-1.60,0zM113.39,261.16a0.80,0.80,0,1,0,1.60,0a0.80,0.80,0,1,0,-1.60,0zM115.32,258.44a0.80,0.80,0,1,0,1.60,0a0.80,0.80,0,1,0,-1.60,0zM117.26,255.72a0.80,0.80,0,1,0,1.60,0a0.80,0.80,0,1,0,-1.60,0zM119.20,252.99a0.80,0.80,0,1,0,1.60,0a0.80,0.80,0,1,0,-1.60,0zM121.13,250.27a0.80,0.80,0,1,0,1.60,0a0.80,0.80,0,1,0,-1.60,0zM123.07,247.54a0.80,0.80,0,1,0,1.60,0a0.80,0.80,0,1,0,-1.60,0zM125.00,244.82a0.80,0.80,0,1,0,1.60,0a0.80,0.80,0,1,0,-1.60,0zM126.94,242.10a0.80,0.80,0,1,0,1.60,0a0.80,0.80,0,1,0,-1.60,0zM128.87,239.37a0.80,0.80,0,1,0,1.60,0a0.80,0.80,0,1,0,-1.60,0zM130.81,236.65a0.80,0.80,0,1,0,1.60,0a0.80,0.80,0,1,0,-1.60,0zM132.74,233.92a0.80,0.80,0,1,0,1.60,0a0.80,0.80,0,1,0,-1.60,0zM134.68,231.20a0.80,0.80,0,1,0,1.60,0a0.80,0.80,0,1,0,-1.60,0zM136.61,228.48a0.80,0.80,0,1,0,1.60,0a0.80,0.80,0,1,0,-1.60,0zM138.55,225.75a0.80,0.80,0,1,0,1.60,0a0.80,0.80,0,1,0,-1.60,0zM140.49,223.03a0.80,0.80,0,1,0,1.60,0a0.80,0.80,0,1,0,-1.60,0zM142.42,220.30a0.80,0.80,0,1,0,1.60,0a0.80,0.80,0,1,0,-1.60,0zM144.36,217.58a0.80,0.80,0,1,0,1.60,0a0.80,0.80,0,1,0,-1.60,0zM146.29,214.86a0.80,0.80,0,1,0,1.60,0a0.80,0.80,0,1,0,-1.60,0zM148.23,212.13a0.80,0.80,0,1,0,1.60,0a0.80,0.80,0,1,0,-1.60,0zM150.16,209.41a0.80,0.80,0,1,0,1.60,0a0.80,0.80,0,1,0,-1.60,0zM152.10,206.68a0.80,0.80,0,1,0,1.60,0a0.80,0.80,0,1,0,-1.60,0zM154.03,203.96a0.80,0.80,0,1,0,1.60,0a0.80,0.80,0,1,0,-1.60,0zM155.97,201.24a0.80,0.80,0,1,0,1.60,0a0.80,0.80,0,1,0,-1.60,0zM157.90,198.51a0.80,0.80,0,1,0,1.60,0a0.80,0.80,0,1,0,-1.60,0zM159.84,195.79a0.80,0.80,0,1,0,1.60,0a0.80,0.80,0,1,0,-1.60,0zM161.77,193.06a0.80,0.80,0,1,0,1.60,0a0.80,0.80,0,1,0,-1.60,0zM163.71,190.34a0.80,0.80,0,1,0,1.60,0a0.80,0.80,0,1,0,-1.60,0zM165.65,187.62a0.80,0.80,0,1,0,1.60,0a0.80,0.80,0,1,0,-1.60,0zM167.58,184.89a0.80,0.80,0,1,0,1.60,0a0.80,0.80,0,1,0,-1.60,0zM169.52,182.17a0.80,0.80,0,1,0,1.60,0a0.80,0.80,0,1,0,-1.60,0zM171.45,179.44a0.80,0.80,0,1,0,1.60,0a0.80,0.80,0,1,0,-1.60,0zM173.39,176.72a0.80,0.80,0,1,0,1.60,0a0.80,0.80,0,1,0,-1.60,0zM175.32,174.00a0.80,0.80,0,1,0,1.60,0a0.80,0.80,0,1,0,-1.60,0zM177.26,171.27a0.80,0.80,0,1,0,1.60,0a0.80,0.80,0,1,0,-1.60,0zM179.19,168.55a0.80,0.80,0,1,0,1.60,0a0.80,0.80,0,1,0,-1.60,0zM181.13,165.82a0.80,0.80,0,1,0,1.60,0a0.80,0.80,0,1,0,-1.60,0zM183.06,163.10a0.80,0.80,0,1,0,1.60,0a0.80,0.80,0,1,0,-1.60,0zM185.00,160.38a0.80,0.80,0,1,0,1.60,0a0.80,0.80,0,1,0,-1.60,0zM186.94,157.65a0.80,0.80,0,1,0,1.60,0a0.80,0.80,0,1,0,-1.60,0zM188.87,154.93a0.80,0.80,0,1,0,1.60,0a0.80,0.80,0,1,0,-1.60,0zM190.81,152.20a0.80,0.80,0,1,0,1.60,0a0.80,0.80,0,1,0,-1.60,0zM192.74,149.48a0.80,0.80,0,1,0,1.60,0a0.80,0.80,0,1,0,-1.60,0zM194.68,146.76a0.80,0.80,0,1,0,1.60,0a0.80,0.80,0,1,0,-1.60,0zM196.61,144.03a0.80,0.80,0,1,0,1.60,0a0.80,0.80,0,1,0,-1.60,0zM198.55,141.31a0.80,0.80,0,1,0,1.60,0a0.80,0.80,0,1,0,-1.60,0zM200.48,138.58a0.80,0.80,0,1,0,1.60,0a0.80,0.80,0,1,0,-1.60,0zM202.42,135.86a0.80,0.80,0,1,0,1.60,0a0.80,0.80,0,1,0,-1.60,0zM204.35,133.14a0.80,0.80,0,1,0,1.60,0a0.80,0.80,0,1,0,-1.60,0zM206.29,130.41a0.80,0.80,0,1,0,1.60,0a0.80,0.80,0,1,0,-1.60,0zM208.22,127.69a0.80,0.80,0,1,0,1.60,0a0.80,0.80,0,1,0,-1.60,0zM210.16,124.96a0.80,0.80,0,1,0,1.60,0a0.80,0.80,0,1,0,-1.60,0zM212.10,122.24a0.80,0.80,0,1,0,1.60,0a0.80,0.80,0,1,0,-1.60,0zM214.03,119.52a0.80,0.80,0,1,0,1.60,0a0.80,0.80,0,1,0,-1.60,0zM215.97,116.79a0.80,0.80,0,1,0,1.60,0a0.80,0.80,0,1,0,-1.60,0zM217.90,114.07a0.80,0.80,0,1,0,1.60,0a0.80,0.80,0,1,0,-1.60,0zM219.84,111.34a0.80,0.80,0,1,0,1.60,0a0.80,0.80,0,1,0,-1.60,0zM221.77,108.62a0.80,0.80,0,1,0,1.60,0a0.80,0.80,0,1,0,-1.60,0zM223.71,105.90a0.80,0.80,0,1,0,1.60,0a0.80,0.80,0,1,0,-1.60,0zM225.64,103.17a0.80,0.80,0,1,0,1.60,0a0.80,0.80,0,1,0,-1.60,0zM227.58,100.45a0.80,0.80,0,1,0,1.60,0a0.80,0.80,0,1,0,-1.60,0zM229.51,97.72a0.80,0.80,0,1,0,1.60,0a0.80,0.80,0,1,0,-1.60,0zM231.45,95.00a0.80,0.80,0,1,0,1.60,0a0.80,0.80,0,1,0,-1.60,0zM233.39,92.28a0.80,0.80,0,1,0,1.60,0a0.80,0.80,0,1,0,-1.60,0zM235.32,89.55a0.80,0.80,0,1,0,1.60,0a0.80,0.80,0,1,0,-1.60,0zM237.26,86.83a0.80,0.80,0,1,0,1.60,0a0.80,0.80,0,1,0,-1.60,0zM239.19,84.10a0.80,0.80,0,1,0,1.60,0a0.80,0.80,0,1,0,-1.60,0zM241.13,81.38a0.80,0.80,0,1,0,1.60,0a0.80,0.80,0,1,0,-1.60,0zM243.06,78.66a0.80,0.80,0,1,0,1.60,0a0.80,0.80,0,1,0,-1.60,0zM245.00,75.93a0.80,0.80,0,1,0,1.60,0a0.80,0.80,0,1,0,-1.60,0zM246.93,73.21a0.80,0.80,0,1,0,1.60,0a0.80,0.80,0,1,0,-1.60,0zM248.87,70.48a0.80,0.80,0,1,0,1.60,0a0.80,0.80,0,1,0,-1.60,0zM250.80,67.76a0.80,0.80,0,1,0,1.60,0a0.80,0.80,0,1,0,-1.60,0zM252.74,65.03a0.80,0.80,0,1,0,1.60,0a0.80,0.80,0,1,0,-1.60,0zM254.67,62.31a0.80,0.80,0,1,0,1.60,0a0.80,0.80,0,1,0,-1.60,0zM256.61,59.58a0.80,0.80,0,1,0,1.60,0a0.80,0.80,0,1,0,-1.60,0zM258.55,56.86a0.80,0.80,0,1,0,1.60,0a0.80,0.80,0,1,0,-1.60,0zM260.48,54.13a0.80,0.80,0,1,0,1.60,0a0.80,0.80,0,1,0,-1.60,0zM262.42,51.35a0.80,0.80,0,1,0,1.60,0a0.80,0.80,0,1,0,-1.60,0zM264.35,48.66a0.80,0.80,0,1,0,1.60,0a0.80,0.80,0,1,0,-1.60,0zM266.29,45.91a0.80,0.80,0,1,0,1.60,0a0.80,0.80,0,1,0,-1.60,0zM268.22,43.16a0.80,0.80,0,1,0,1.60,0a0.80,0.80,0,1,0,-1.60,0zM270.16,40.52a0.80,0.80,0,1,0,1.60,0a0.80,0.80,0,1,0,-1.60,0zM272.09,40.50a0.80,0.80,0,1,0,1.60,0a0.80,0.80,0,1,0,-1.60,0zM274.03,40.62a0.80,0.80,0,1,0,1.60,0a0.80,0.80,0,1,0,-1.60,0zM275.96,40.99a0.80,0.80,0,1,0,1.60,0a0.80,0.80,0,1,0,-1.60,0zM277.90,41.25a0.80,0.80,0,1,0,1.60,0a0.80,0.80,0,1,0,-1.60,0zM279.84,41.74a0.80,0.80,0,1,0,1.60,0a0.80,0.80,0,1,0,-1.60,0zM281.77,41.01a0.80,0.80,0,1,0,1.60,0a0.80,0.80,0,1,0,-1.60,0zM283.71,41.57a0.80,0.80,0,1,0,1.60,0a0.80,0.80,0,1,0,-1.60,0zM285.64,42.79a0.80,0.80,0,1,0,1.60,0a0.80,0.80,0,1,0,-1.60,0zM287.58,43.01a0.80,0.80,0,1,0,1.60,0a0.80,0.80,0,1,0,-1.60,0zM289.51,43.68a0.80,0.80,0,1,0,1.60,0a0.80,0.80,0,1,0,-1.60,0zM291.45,44.06a0.80,0.80,0,1,0,1.60,0a0.80,0.80,0,1,0,-1.60,0zM293.38,44.55a0.80,0.80,0,1,0,1.60,0a0.80,0.80,0,1,0,-1.60,0zM295.32,44.81a0.80,0.80,0,1,0,1.60,0a0.80,0.80,0,1,0,-1.60,0zM297.25,45.48a0.80,0.80,0,1,0,1.60,0a0.80,0.80,0,1,0,-1.60,0zM299.19,45.31a0.80,0.80,0,1,0,1.60,0a0.80,0.80,0,1,0,-1.60,0zM301.13,46.51a0.80,0.80,0,1,0,1.60,0a0.80,0.80,0,1,0,-1.60,0zM303.06,45.85a0.80,0.80,0,1,0,1.60,0a0.80,0.80,0,1,0,-1.60,0zM305.00,47.67a0.80,0.80,0,1,0,1.60,0a0.80,0.80,0,1,0,-1.60,0zM306.93,47.16a0.80,0.80,0,1,0,1.60,0a0.80,0.80,0,1,0,-1.60,0zM308.87,48.71a0.80,0.80,0,1,0,1.60,0a0.80,0.80,0,1,0,-1.60,0zM310.80,49.39a0.80,0.80,0,1,0,1.60,0a0.80,0.80,0,1,0,-1.60,0zM312.74,49.86a0.80,0.80,0,1,0,1.60,0a0.80,0.80,0,1,0,-1.60,0zM314.67,50.57a0.80,0.80,0,1,0,1.60,0a0.80,0.80,0,1,0,-1.60,0zM316.61,51.05a0.80,0.80,0,1,0,1.60,0a0.80,0.80,0,1,0,-1.60,0zM318.54,51.36a0.80,0.80,0,1,0,1.60,0a0.80,0.80,0,1,0,-1.60,0zM320.48,52.40a0.80,0.80,0,1,0,1.60,0a0.80,0.80,0,1,0,-1.60,0zM322.41,52.72a0.80,0.80,0,1,0,1.60,0a0.80,0.80,0,1,0,-1.60,0zM324.35,53.67a0.80,0.80,0,1,0,1.60,0a0.80,0.80,0,1,0,-1.60,0zM326.29,54.29a0.80,0.80,0,1,0,1.60,0a0.80,0.80,0,1,0,-1.60,0zM328.22,54.95a0.80,0.80,0,1,0,1.60,0a0.80,0.80,0,1,0,-1.60,0zM330.16,55.63a0.80,0.80,0,1,0,1.60,0a0.80,0.80,0,1,0,-1.60,0zM332.09,56.29a0.80,0.80,0,1,0,1.60,0a0.80,0.80,0,1,0,-1.60,0zM334.03,56.96a0.80,0.80,0,1,0,1.60,0a0.80,0.80,0,1,0,-1.60,0zM335.96,57.68a0.80,0.80,0,1,0,1.60,0a0.80,0.80,0,1,0,-1.60,0zM337.90,58.35a0.80,0.80,0,1,0,1.60,0a0.80,0.80,0,1,0,-1.60,0zM339.83,59.08a0.80,0.80,0,1,0,1.60,0a0.80,0.80,0,1,0,-1.60,0zM341.77,59.72a0.80,0.80,0,1,0,1.60,0a0.80,0.80,0,1,0,-1.60,0zM343.70,60.52a0.80,0.80,0,1,0,1.60,0a0.80,0.80,0,1,0,-1.60,0zM345.64,61.23a0.80,0.80,0,1,0,1.60,0a0.80,0.80,0,1,0,-1.60,0zM347.57,61.99a0.80,0.80,0,1,0,1.60,0a0.80,0.80,0,1,0,-1.60,0zM349.51,62.74a0.80,0.80,0,1,0,1.60,0a0.80,0.80,0,1,0,-1.60,0zM351.45,63.25a0.80,0.80,0,1,0,1.60,0a0.80,0.80,0,1,0,-1.60,0zM353.38,64.26a0.80,0.80,0,1,0,1.60,0a0.80,0.80,0,1,0,-1.60,0zM355.32,65.03a0.80,0.80,0,1,0,1.60,0a0.80,0.80,0,1,0,-1.60,0zM357.25,65.81a0.80,0.80,0,1,0,1.60,0a0.80,0.80,0,1,0,-1.60,0zM359.19,66.60a0.80,0.80,0,1,0,1.60,0a0.80,0.80,0,1,0,-1.60,0zM361.12,67.39a0.80,0.80,0,1,0,1.60,0a0.80,0.80,0,1,0,-1.60,0zM363.06,68.19a0.80,0.80,0,1,0,1.60,0a0.80,0.80,0,1,0,-1.60,0zM364.99,69.00a0.80,0.80,0,1,0,1.60,0a0.80,0.80,0,1,0,-1.60,0zM366.93,69.82a0.80,0.80,0,1,0,1.60,0a0.80,0.80,0,1,0,-1.60,0zM368.86,70.64a0.80,0.80,0,1,0,1.60,0a0.80,0.80,0,1,0,-1.60,0zM370.80,71.47a0.80,0.80,0,1,0,1.60,0a0.80,0.80,0,1,0,-1.60,0zM372.74,72.31a0.80,0.80,0,1,0,1.60,0a0.80,0.80,0,1,0,-1.60,0zM374.67,73.16a0.80,0.80,0,1,0,1.60,0a0.80,0.80,0,1,0,-1.60,0zM376.61,74.01a0.80,0.80,0,1,0,1.60,0a0.80,0.80,0,1,0,-1.60,0zM378.54,74.87a0.80,0.80,0,1,0,1.60,0a0.80,0.80,0,1,0,-1.60,0zM380.48,75.74a0.80,0.80,0,1,0,1.60,0a0.80,0.80,0,1,0,-1.60,0zM382.41,76.61a0.80,0.80,0,1,0,1.60,0a0.80,0.80,0,1,0,-1.60,0zM384.35,77.49a0.80,0.80,0,1,0,1.60,0a0.80,0.80,0,1,0,-1.60,0zM386.28,78.38a0.80,0.80,0,1,0,1.60,0a0.80,0.80,0,1,0,-1.60,0zM388.22,79.27a0.80,0.80,0,1,0,1.60,0a0.80,0.80,0,1,0,-1.60,0zM390.15,80.17a0.80,0.80,0,1,0,1.60,0a0.80,0.80,0,1,0,-1.60,0zM392.09,81.08a0.80,0.80,0,1,0,1.60,0a0.80,0.80,0,1,0,-1.60,0zM394.03,81.99a0.80,0.80,0,1,0,1.60,0a0.80,0.80,0,1,0,-1.60,0zM395.96,82.91a0.80,0.80,0,1,0,1.60,0a0.80,0.80,0,1,0,-1.60,0zM397.90,83.84a0.80,0.80,0,1,0,1.60,0a0.80,0.80,0,1,0,-1.60,0zM399.83,84.77a0.80,0.80,0,1,0,1.60,0a0.80,0.80,0,1,0,-1.60,0zM401.77,85.71a0.80,0.80,0,1,0,1.60,0a0.80,0.80,0,1,0,-1.60,0zM403.70,86.66a0.80,0.80,0,1,0,1.60,0a0.80,0.80,0,1,0,-1.60,0zM405.64,87.61a0.80,0.80,0,1,0,1.60,0a0.80,0.80,0,1,0,-1.60,0zM407.57,88.57a0.80,0.80,0,1,0,1.60,0a0.80,0.80,0,1,0,-1.60,0zM409.51,89.53a0.80,0.80,0,1,0,1.60,0a0.80,0.80,0,1,0,-1.60,0zM411.44,90.50a0.80,0.80,0,1,0,1.60,0a0.80,0.80,0,1,0,-1.60,0zM413.38,91.48a0.80,0.80,0,1,0,1.60,0a0.80,0.80,0,1,0,-1.60,0zM415.31,92.46a0.80,0.80,0,1,0,1.60,0a0.80,0.80,0,1,0,-1.60,0zM417.25,93.45a0.80,0.80,0,1,0,1.60,0a0.80,0.80,0,1,0,-1.60,0zM419.19,94.45a0.80,0.80,0,1,0,1.60,0a0.80,0.80,0,1,0,-1.60,0zM421.12,95.45a0.80,0.80,0,1,0,1.60,0a0.80,0.80,0,1,0,-1.60,0zM423.06,96.46a0.80,0.80,0,1,0,1.60,0a0.80,0.80,0,1,0,-1.60,0zM424.99,97.47a0.80,0.80,0,1,0,1.60,0a0.80,0.80,0,1,0,-1.60,0zM426.93,98.49a0.80,0.80,0,1,0,1.60,0a0.80,0.80,0,1,0,-1.60,0zM428.86,99.51a0.80,0.80,0,1,0,1.60,0a0.80,0.80,0,1,0,-1.60,0zM430.80,100.55a0.80,0.80,0,1,0,1.60,0a0.80,0.80,0,1,0,-1.60,0zM432.73,101.58a0.80,0.80,0,1,0,1.60,0a0.80,0.80,0,1,0,-1.60,0zM434.67,102.62a0.80,0.80,0,1,0,1.60,0a0.80,0.80,0,1,0,-1.60,0zM436.60,103.67a0.80,0.80,0,1,0,1.60,0a0.80,0.80,0,1,0,-1.60,0zM438.54,104.73a0.80,0.80,0,1,0,1.60,0a0.80,0.80,0,1,0,-1.60,0zM440.47,105.79a0.80,0.80,0,1,0,1.60,0a0.80,0.80,0,1,0,-1.60,0zM442.41,106.85a0.80,0.80,0,1,0,1.60,0a0.80,0.80,0,1,0,-1.60,0zM444.35,107.92a0.80,0.80,0,1,0,1.60,0a0.80,0.80,0,1,0,-1.60,0zM446.28,109.00a0.80,0.80,0,1,0,1.60,0a0.80,0.80,0,1,0,-1.60,0zM448.22,110.08a0.80,0.80,0,1,0,1.60,0a0.80,0.80,0,1,0,-1.60,0zM450.15,111.17a0.80,0.80,0,1,0,1.60,0a0.80,0.80,0,1,0,-1.60,0zM452.09,112.27a0.80,0.80,0,1,0,1.60,0a0.80,0.80,0,1,0,-1.60,0zM454.02,113.36a0.80,0.80,0,1,0,1.60,0a0.80,0.80,0,1,0,-1.60,0zM455.96,114.47a0.80,0.80,0,1,0,1.60,0a0.80,0.80,0,1,0,-1.60,0zM457.89,115.58a0.80,0.80,0,1,0,1.60,0a0.80,0.80,0,1,0,-1.60,0zM459.83,116.70a0.80,0.80,0,1,0,1.60,0a0.80,0.80,0,1,0,-1.60,0zM461.76,117.82a0.80,0.80,0,1,0,1.60,0a0.80,0.80,0,1,0,-1.60,0zM463.70,118.94a0.80,0.80,0,1,0,1.60,0a0.80,0.80,0,1,0,-1.60,0zM465.64,120.08a0.80,0.80,0,1,0,1.60,0a0.80,0.80,0,1,0,-1.60,0zM467.57,121.21a0.80,0.80,0,1,0,1.60,0a0.80,0.80,0,1,0,-1.60,0zM469.51,122.36a0.80,0.80,0,1,0,1.60,0a0.80,0.80,0,1,0,-1.60,0zM471.44,123.51a0.80,0.80,0,1,0,1.60,0a0.80,0.80,0,1,0,-1.60,0zM473.38,124.66a0.80,0.80,0,1,0,1.60,0a0.80,0.80,0,1,0,-1.60,0zM475.31,125.82a0.80,0.80,0,1,0,1.60,0a0.80,0.80,0,1,0,-1.60,0zM477.25,126.98a0.80,0.80,0,1,0,1.60,0a0.80,0.80,0,1,0,-1.60,0zM479.18,128.15a0.80,0.80,0,1,0,1.60,0a0.80,0.80,0,1,0,-1.60,0zM481.12,129.33a0.80,0.80,0,1,0,1.60,0a0.80,0.80,0,1,0,-1.60,0zM483.05,130.51a0.80,0.80,0,1,0,1.60,0a0.80,0.80,0,1,0,-1.60,0zM484.99,131.69a0.80,0.80,0,1,0,1.60,0a0.80,0.80,0,1,0,-1.60,0zM486.93,132.89a0.80,0.80,0,1,0,1.60,0a0.80,0.80,0,1,0,-1.60,0zM488.86,134.08a0.80,0.80,0,1,0,1.60,0a0.80,0.80,0,1,0,-1.60,0zM490.80,135.28a0.80,0.80,0,1,0,1.60,0a0.80,0.80,0,1,0,-1.60,0zM492.73,136.49a0.80,0.80,0,1,0,1.60,0a0.80,0.80,0,1,0,-1.60,0zM494.67,137.70a0.80,0.80,0,1,0,1.60,0a0.80,0.80,0,1,0,-1.60,0zM496.60,138.92a0.80,0.80,0,1,0,1.60,0a0.80,0.80,0,1,0,-1.60,0zM498.54,140.14a0.80,0.80,0,1,0,1.60,0a0.80,0.80,0,1,0,-1.60,0zM500.47,141.37a0.80,0.80,0,1,0,1.60,0a0.80,0.80,0,1,0,-1.60,0zM502.41,142.60a0.80,0.80,0,1,0,1.60,0a0.80,0.80,0,1,0,-1.60,0zM504.34,143.84a0.80,0.80,0,1,0,1.60,0a0.80,0.80,0,1,0,-1.60,0zM506.28,145.08a0.80,0.80,0,1,0,1.60,0a0.80,0.80,0,1,0,-1.60,0zM508.21,146.33a0.80,0.80,0,1,0,1.60,0a0.80,0.80,0,1,0,-1.60,0zM510.15,147.58a0.80,0.80,0,1,0,1.60,0a0.80,0.80,0,1,0,-1.60,0zM512.09,148.84a0.80,0.80,0,1,0,1.60,0a0.80,0.80,0,1,0,-1.60,0zM514.02,150.10a0.80,0.80,0,1,0,1.60,0a0.80,0.80,0,1,0,-1.60,0zM515.96,151.37a0.80,0.80,0,1,0,1.60,0a0.80,0.80,0,1,0,-1.60,0zM517.89,152.64a0.80,0.80,0,1,0,1.60,0a0.80,0.80,0,1,0,-1.60,0zM519.83,153.92a0.80,0.80,0,1,0,1.60,0a0.80,0.80,0,1,0,-1.60,0zM521.76,155.21a0.80,0.80,0,1,0,1.60,0a0.80,0.80,0,1,0,-1.60,0zM523.70,156.49a0.80,0.80,0,1,0,1.60,0a0.80,0.80,0,1,0,-1.60,0zM525.63,157.79a0.80,0.80,0,1,0,1.60,0a0.80,0.80,0,1,0,-1.60,0zM527.57,159.09a0.80,0.80,0,1,0,1.60,0a0.80,0.80,0,1,0,-1.60,0zM529.50,160.39a0.80,0.80,0,1,0,1.60,0a0.80,0.80,0,1,0,-1.60,0zM531.44,161.70a0.80,0.80,0,1,0,1.60,0a0.80,0.80,0,1,0,-1.60,0zM533.38,163.01a0.80,0.80,0,1,0,1.60,0a0.80,0.80,0,1,0,-1.60,0zM535.31,164.33a0.80,0.80,0,1,0,1.60,0a0.80,0.80,0,1,0,-1.60,0zM537.25,165.65a0.80,0.80,0,1,0,1.60,0a0.80,0.80,0,1,0,-1.60,0zM539.18,166.98a0.80,0.80,0,1,0,1.60,0a0.80,0.80,0,1,0,-1.60,0zM541.12,168.32a0.80,0.80,0,1,0,1.60,0a0.80,0.80,0,1,0,-1.60,0zM543.05,169.65a0.80,0.80,0,1,0,1.60,0a0.80,0.80,0,1,0,-1.60,0zM544.99,171.00a0.80,0.80,0,1,0,1.60,0a0.80,0.80,0,1,0,-1.60,0zM546.92,172.35a0.80,0.80,0,1,0,1.60,0a0.80,0.80,0,1,0,-1.60,0zM548.86,173.70a0.80,0.80,0,1,0,1.60,0a0.80,0.80,0,1,0,-1.60,0zM550.79,175.06a0.80,0.80,0,1,0,1.60,0a0.80,0.80,0,1,0,-1.60,0zM552.73,176.42a0.80,0.80,0,1,0,1.60,0a0.80,0.80,0,1,0,-1.60,0zM554.66,177.79a0.80,0.80,0,1,0,1.60,0a0.80,0.80,0,1,0,-1.60,0zM556.60,179.16a0.80,0.80,0,1,0,1.60,0a0.80,0.80,0,1,0,-1.60,0zM558.54,180.54a0.80,0.80,0,1,0,1.60,0a0.80,0.80,0,1,0,-1.60,0zM560.47,181.92a0.80,0.80,0,1,0,1.60,0a0.80,0.80,0,1,0,-1.60,0zM562.41,183.31a0.80,0.80,0,1,0,1.60,0a0.80,0.80,0,1,0,-1.60,0zM564.34,184.70a0.80,0.80,0,1,0,1.60,0a0.80,0.80,0,1,0,-1.60,0zM566.28,186.10a0.80,0.80,0,1,0,1.60,0a0.80,0.80,0,1,0,-1.60,0zM568.21,187.50a0.80,0.80,0,1,0,1.60,0a0.80,0.80,0,1,0,-1.60,0zM570.15,188.91a0.80,0.80,0,1,0,1.60,0a0.80,0.80,0,1,0,-1.60,0zM572.08,190.32a0.80,0.80,0,1,0,1.60,0a0.80,0.80,0,1,0,-1.60,0zM574.02,191.74a0.80,0.80,0,1,0,1.60,0a0.80,0.80,0,1,0,-1.60,0zM575.95,193.16a0.80,0.80,0,1,0,1.60,0a0.80,0.80,0,1,0,-1.60,0zM577.89,194.58a0.80,0.80,0,1,0,1.60,0a0.80,0.80,0,1,0,-1.60,0zM579.83,196.02a0.80,0.80,0,1,0,1.60,0a0.80,0.80,0,1,0,-1.60,0zM581.76,197.45a0.80,0.80,0,1,0,1.60,0a0.80,0.80,0,1,0,-1.60,0zM583.70,198.89a0.80,0.80,0,1,0,1.60,0a0.80,0.80,0,1,0,-1.60,0zM585.63,200.34a0.80,0.80,0,1,0,1.60,0a0.80,0.80,0,1,0,-1.60,0zM587.57,201.79a0.80,0.80,0,1,0,1.60,0a0.80,0.80,0,1,0,-1.60,0zM589.50,203.25a0.80,0.80,0,1,0,1.60,0a0.80,0.80,0,1,0,-1.60,0zM591.44,204.71a0.80,0.80,0,1,0,1.60,0a0.80,0.80,0,1,0,-1.60,0zM593.37,206.17a0.80,0.80,0,1,0,1.60,0a0.80,0.80,0,1,0,-1.60,0zM595.31,207.64a0.80,0.80,0,1,0,1.60,0a0.80,0.80,0,1,0,-1.60,0zM597.24,209.12a0.80,0.80,0,1,0,1.60,0a0.80,0.80,0,1,0,-1.60,0zM599.18,210.60a0.80,0.80,0,1,0,1.60,0a0.80,0.80,0,1,0,-1.60,0zM601.11,212.09a0.80,0.80,0,1,0,1.60,0a0.80,0.80,0,1,0,-1.60,0zM603.05,213.58a0.80,0.80,0,1,0,1.60,0a0.80,0.80,0,1,0,-1.60,0zM604.99,215.07a0.80,0.80,0,1,0,1.60,0a0.80,0.80,0,1,0,-1.60,0zM606.92,216.57a0.80,0.80,0,1,0,1.60,0a0.80,0.80,0,1,0,-1.60,0zM608.86,218.08a0.80,0.80,0,1,0,1.60,0a0.80,0.80,0,1,0,-1.60,0zM610.79,219.59a0.80,0.80,0,1,0,1.60,0a0.80,0.80,0,1,0,-1.60,0zM612.73,221.10a0.80,0.80,0,1,0,1.60,0a0.80,0.80,0,1,0,-1.60,0zM614.66,222.62a0.80,0.80,0,1,0,1.60,0a0.80,0.80,0,1,0,-1.60,0zM616.60,224.14a0.80,0.80,0,1,0,1.60,0a0.80,0.80,0,1,0,-1.60,0zM618.53,225.67a0.80,0.80,0,1,0,1.60,0a0.80,0.80,0,1,0,-1.60,0zM620.47,227.21a0.80,0.80,0,1,0,1.60,0a0.80,0.80,0,1,0,-1.60,0zM622.40,228.75a0.80,0.80,0,1,0,1.60,0a0.80,0.80,0,1,0,-1.60,0zM624.34,230.29a0.80,0.80,0,1,0,1.60,0a0.80,0.80,0,1,0,-1.60,0zM626.27,231.84a0.80,0.80,0,1,0,1.60,0a0.80,0.80,0,1,0,-1.60,0zM628.21,233.39a0.80,0.80,0,1,0,1.60,0a0.80,0.80,0,1,0,-1.60,0zM630.15,234.95a0.80,0.80,0,1,0,1.60,0a0.80,0.80,0,1,0,-1.60,0zM632.08,236.52a0.80,0.80,0,1,0,1.60,0a0.80,0.80,0,1,0,-1.60,0zM634.02,238.09a0.80,0.80,0,1,0,1.60,0a0.80,0.80,0,1,0,-1.60,0zM635.95,239.66a0.80,0.80,0,1,0,1.60,0a0.80,0.80,0,1,0,-1.60,0zM637.89,241.24a0.80,0.80,0,1,0,1.60,0a0.80,0.80,0,1,0,-1.60,0zM639.82,242.82a0.80,0.80,0,1,0,1.60,0a0.80,0.80,0,1,0,-1.60,0zM641.76,244.41a0.80,0.80,0,1,0,1.60,0a0.80,0.80,0,1,0,-1.60,0zM643.69,246.00a0.80,0.80,0,1,0,1.60,0a0.80,0.80,0,1,0,-1.60,0zM645.63,247.60a0.80,0.80,0,1,0,1.60,0a0.80,0.80,0,1,0,-1.60,0zM647.56,249.20a0.80,0.80,0,1,0,1.60,0a0.80,0.80,0,1,0,-1.60,0zM649.50,250.81a0.80,0.80,0,1,0,1.60,0a0.80,0.80,0,1,0,-1.60,0zM651.44,252.43a0.80,0.80,0,1,0,1.60,0a0.80,0.80,0,1,0,-1.60,0zM653.37,254.04a0.80,0.80,0,1,0,1.60,0a0.80,0.80,0,1,0,-1.60,0zM655.31,255.67a0.80,0.80,0,1,0,1.60,0a0.80,0.80,0,1,0,-1.60,0zM657.24,257.30a0.80,0.80,0,1,0,1.60,0a0.80,0.80,0,1,0,-1.60,0zM659.18,258.93a0.80,0.80,0,1,0,1.60,0a0.80,0.80,0,1,0,-1.60,0zM661.11,260.57a0.80,0.80,0,1,0,1.60,0a0.80,0.80,0,1,0,-1.60,0zM663.05,262.21a0.80,0.80,0,1,0,1.60,0a0.80,0.80,0,1,0,-1.60,0zM664.98,263.86a0.80,0.80,0,1,0,1.60,0a0.80,0.80,0,1,0,-1.60,0zM666.92,265.51a0.80,0.80,0,1,0,1.60,0a0.80,0.80,0,1,0,-1.60,0zM668.85,267.17a0.80,0.80,0,1,0,1.60,0a0.80,0.80,0,1,0,-1.60,0zM670.79,268.83a0.80,0.80,0,1,0,1.60,0a0.80,0.80,0,1,0,-1.60,0zM672.73,270.50a0.80,0.80,0,1,0,1.60,0a0.80,0.80,0,1,0,-1.60,0zM674.66,272.17a0.80,0.80,0,1,0,1.60,0a0.80,0.80,0,1,0,-1.60,0zM676.60,273.85a0.80,0.80,0,1,0,1.60,0a0.80,0.80,0,1,0,-1.60,0zM678.53,275.53a0.80,0.80,0,1,0,1.60,0a0.80,0.80,0,1,0,-1.60,0zM680.47,277.22a0.80,0.80,0,1,0,1.60,0a0.80,0.80,0,1,0,-1.60,0zM682.40,278.92a0.80,0.80,0,1,0,1.60,0a0.80,0.80,0,1,0,-1.60,0zM684.34,280.61a0.80,0.80,0,1,0,1.60,0a0.80,0.80,0,1,0,-1.60,0zM686.27,282.32a0.80,0.80,0,1,0,1.60,0a0.80,0.80,0,1,0,-1.60,0zM688.21,284.03a0.80,0.80,0,1,0,1.60,0a0.80,0.80,0,1,0,-1.60,0zM690.14,285.74a0.80,0.80,0,1,0,1.60,0a0.80,0.80,0,1,0,-1.60,0zM692.08,287.46a0.80,0.80,0,1,0,1.60,0a0.80,0.80,0,1,0,-1.60,0zM694.01,289.18a0.80,0.80,0,1,0,1.60,0a0.80,0.80,0,1,0,-1.60,0zM695.95,290.91a0.80,0.80,0,1,0,1.60,0a0.80,0.80,0,1,0,-1.60,0zM697.89,292.64a0.80,0.80,0,1,0,1.60,0a0.80,0.80,0,1,0,-1.60,0zM699.82,294.38a0.80,0.80,0,1,0,1.60,0a0.80,0.80,0,1,0,-1.60,0zM701.76,296.13a0.80,0.80,0,1,0,1.60,0a0.80,0.80,0,1,0,-1.60,0zM703.69,297.88a0.80,0.80,0,1,0,1.60,0a0.80,0.80,0,1,0,-1.60,0zM705.63,299.63a0.80,0.80,0,1,0,1.60,0a0.80,0.80,0,1,0,-1.60,0zM707.56,301.39a0.80,0.80,0,1,0,1.60,0a0.80,0.80,0,1,0,-1.60,0zM709.50,303.15a0.80,0.80,0,1,0,1.60,0a0.80,0.80,0,1,0,-1.60,0zM711.43,304.92a0.80,0.80,0,1,0,1.60,0a0.80,0.80,0,1,0,-1.60,0zM713.37,306.70a0.80,0.80,0,1,0,1.60,0a0.80,0.80,0,1,0,-1.60,0zM715.30,308.48a0.80,0.80,0,1,0,1.60,0a0.80,0.80,0,1,0,-1.60,0zM717.24,310.26a0.80,0.80,0,1,0,1.60,0a0.80,0.80,0,1,0,-1.60,0zM719.18,312.05a0.80,0.80,0,1,0,1.60,0a0.80,0.80,0,1,0,-1.60,0zM721.11,313.85a0.80,0.80,0,1,0,1.60,0a0.80,0.80,0,1,0,-1.60,0zM723.05,315.65a0.80,0.80,0,1,0,1.60,0a0.80,0.80,0,1,0,-1.60,0zM724.98,317.45a0.80,0.80,0,1,0,1.60,0a0.80,0.80,0,1,0,-1.60,0zM726.92,319.26a0.80,0.80,0,1,0,1.60,0a0.80,0.80,0,1,0,-1.60,0zM728.85,321.08a0.80,0.80,0,1,0,1.60,0a0.80,0.80,0,1,0,-1.60,0zM730.79,322.90a0.80,0.80,0,1,0,1.60,0a0.80,0.80,0,1,0,-1.60,0zM732.72,324.72a0.80,0.80,0,1,0,1.60,0a0.80,0.80,0,1,0,-1.60,0zM734.66,326.55a0.80,0.80,0,1,0,1.60,0a0.80,0.80,0,1,0,-1.60,0zM736.59,328.39a0.80,0.80,0,1,0,1.60,0a0.80,0.80,0,1,0,-1.60,0zM738.53,330.23a0.80,0.80,0,1,0,1.60,0a0.80,0.80,0,1,0,-1.60,0zM740.46,332.08a0.80,0.80,0,1,0,1.60,0a0.80,0.80,0,1,0,-1.60,0zM742.40,333.93a0.80,0.80,0,1,0,1.60,0a0.80,0.80,0,1,0,-1.60,0zM744.34,335.78a0.80,0.80,0,1,0,1.60,0a0.80,0.80,0,1,0,-1.60,0zM746.27,337.65a0.80,0.80,0,1,0,1.60,0a0.80,0.80,0,1,0,-1.60,0zM748.21,339.51a0.80,0.80,0,1,0,1.60,0a0.80,0.80,0,1,0,-1.60,0zM750.14,341.38a0.80,0.80,0,1,0,1.60,0a0.80,0.80,0,1,0,-1.60,0zM752.08,343.26a0.80,0.80,0,1,0,1.60,0a0.80,0.80,0,1,0,-1.60,0zM754.01,345.14a0.80,0.80,0,1,0,1.60,0a0.80,0.80,0,1,0,-1.60,0zM755.95,347.03a0.80,0.80,0,1,0,1.60,0a0.80,0.80,0,1,0,-1.60,0zM757.88,348.92a0.80,0.80,0,1,0,1.60,0a0.80,0.80,0,1,0,-1.60,0zM759.82,350.82a0.80,0.80,0,1,0,1.60,0a0.80,0.80,0,1,0,-1.60,0zM761.75,352.72a0.80,0.80,0,1,0,1.60,0a0.80,0.80,0,1,0,-1.60,0zM763.69,354.63a0.80,0.80,0,1,0,1.60,0a0.80,0.80,0,1,0,-1.60,0zM765.63,356.54a0.80,0.80,0,1,0,1.60,0a0.80,0.80,0,1,0,-1.60,0zM767.56,358.46a0.80,0.80,0,1,0,1.60,0a0.80,0.80,0,1,0,-1.60,0zM769.50,360.38a0.80,0.80,0,1,0,1.60,0a0.80,0.80,0,1,0,-1.60,0zM771.43,362.31a0.80,0.80,0,1,0,1.60,0a0.80,0.80,0,1,0,-1.60,0zM773.37,364.24a0.80,0.80,0,1,0,1.60,0a0.80,0.80,0,1,0,-1.60,0zM775.30,366.17a0.80,0.80,0,1,0,1.60,0a0.80,0.80,0,1,0,-1.60,0zM777.24,368.12a0.80,0.80,0,1,0,1.60,0a0.80,0.80,0,1,0,-1.60,0zM779.17,370.06a0.80,0.80,0,1,0,1.60,0a0.80,0.80,0,1,0,-1.60,0zM781.11,372.02a0.80,0.80,0,1,0,1.60,0a0.80,0.80,0,1,0,-1.60,0zM783.04,373.97a0.80,0.80,0,1,0,1.60,0a0.80,0.80,0,1,0,-1.60,0zM784.98,375.94a0.80,0.80,0,1,0,1.60,0a0.80,0.80,0,1,0,-1.60,0zM786.91,377.90a0.80,0.80,0,1,0,1.60,0a0.80,0.80,0,1,0,-1.60,0zM788.85,379.88a0.80,0.80,0,1,0,1.60,0a0.80,0.80,0,1,0,-1.60,0zM790.79,381.85a0.80,0.80,0,1,0,1.60,0a0.80,0.80,0,1,0,-1.60,0zM792.72,383.83a0.80,0.80,0,1,0,1.60,0a0.80,0.80,0,1,0,-1.60,0zM794.66,385.82a0.80,0.80,0,1,0,1.60,0a0.80,0.80,0,1,0,-1.60,0zM796.59,387.81a0.80,0.80,0,1,0,1.60,0a0.80,0.80,0,1,0,-1.60,0zM798.53,389.81a0.80,0.80,0,1,0,1.60,0a0.80,0.80,0,1,0,-1.60,0zM800.46,391.81a0.80,0.80,0,1,0,1.60,0a0.80,0.80,0,1,0,-1.60,0zM802.40,393.82a0.80,0.80,0,1,0,1.60,0a0.80,0.80,0,1,0,-1.60,0zM804.33,395.83a0.80,0.80,0,1,0,1.60,0a0.80,0.80,0,1,0,-1.60,0zM806.27,397.85a0.80,0.80,0,1,0,1.60,0a0.80,0.80,0,1,0,-1.60,0zM808.20,399.87a0.80,0.80,0,1,0,1.60,0a0.80,0.80,0,1,0,-1.60,0zM810.14,401.89a0.80,0.80,0,1,0,1.60,0a0.80,0.80,0,1,0,-1.60,0zM812.08,403.92a0.80,0.80,0,1,0,1.60,0a0.80,0.80,0,1,0,-1.60,0zM814.01,405.96a0.80,0.80,0,1,0,1.60,0a0.80,0.80,0,1,0,-1.60,0zM815.95,408.00a0.80,0.80,0,1,0,1.60,0a0.80,0.80,0,1,0,-1.60,0zM817.88,410.04a0.80,0.80,0,1,0,1.60,0a0.80,0.80,0,1,0,-1.60,0zM819.82,412.09a0.80,0.80,0,1,0,1.60,0a0.80,0.80,0,1,0,-1.60,0zM821.75,414.14a0.80,0.80,0,1,0,1.60,0a0.80,0.80,0,1,0,-1.60,0zM823.69,416.20a0.80,0.80,0,1,0,1.60,0a0.80,0.80,0,1,0,-1.60,0zM825.62,418.27a0.80,0.80,0,1,0,1.60,0a0.80,0.80,0,1,0,-1.60,0zM827.56,420.33a0.80,0.80,0,1,0,1.60,0a0.80,0.80,0,1,0,-1.60,0zM829.49,422.41a0.80,0.80,0,1,0,1.60,0a0.80,0.80,0,1,0,-1.60,0zM831.43,424.48a0.80,0.80,0,1,0,1.60,0a0.80,0.80,0,1,0,-1.60,0zM833.36,426.56a0.80,0.80,0,1,0,1.60,0a0.80,0.80,0,1,0,-1.60,0zM835.30,428.65a0.80,0.80,0,1,0,1.60,0a0.80,0.80,0,1,0,-1.60,0zM837.24,430.74a0.80,0.80,0,1,0,1.60,0a0.80,0.80,0,1,0,-1.60,0zM839.17,432.84a0.80,0.80,0,1,0,1.60,0a0.80,0.80,0,1,0,-1.60,0zM841.11,434.94a0.80,0.80,0,1,0,1.60,0a0.80,0.80,0,1,0,-1.60,0zM843.04,437.04a0.80,0.80,0,1,0,1.60,0a0.80,0.80,0,1,0,-1.60,0zM844.98,439.15a0.80,0.80,0,1,0,1.60,0a0.80,0.80,0,1,0,-1.60,0zM846.91,441.26a0.80,0.80,0,1,0,1.60,0a0.80,0.80,0,1,0,-1.60,0zM848.85,443.38a0.80,0.80,0,1,0,1.60,0a0.80,0.80,0,1,0,-1.60,0zM850.78,445.50a0.80,0.80,0,1,0,1.60,0a0.80,0.80,0,1,0,-1.60,0z" style="stroke: black; fill: black;"></path><path d="M72.41666666666664,307.9206801785249h10v10h-10zM74.35208333333333,305.19666587375053h10v10h-10zM76.2875,302.47265156897623h10v10h-10zM78.22291666666665,299.7486372642019h10v10h-10zM80.15833333333333,297.0246229594274h10v10h-10zM82.09375,294.300608654653h10v10h-10zM84.02916666666665,291.5765943498787h10v10h-10zM85.96458333333334,288.8525800451043h10v10h-10zM87.9,286.1285657403299h10v10h-10zM89.83541666666666,283.40455143555556h10v10h-10zM91.77083333333334,280.6805371307812h10v10h-10zM93.70625000000001,277.9565228260068h10v10h-10zM95.64166666666667,275.2325085212324h10v10h-10zM97.5770833333333,272.508494216458h10v10h-10zM99.51249999999996,269.7844799116836h10v10h-10zM101.44791666666664,267.06046560690925h10v10h-10zM103.38333333333331,264.3364513021349h10v10h-10zM105.31874999999997,261.61243699736053h10v10h-10zM107.25416666666665,258.8884226925861h10v10h-10zM109.18958333333332,256.1644083878117h10v10h-10zM111.12499999999997,253.4403940830374h10v10h-10zM113.06041666666665,250.71637977826296h10v10h-10zM114.99583333333332,247.9923654734886h10v10h-10zM116.93124999999998,245.26835116871422h10v10h-10zM118.86666666666666,242.54433686393992h10v10h-10zM120.80208333333333,239.82032255916548h10v10h-10zM122.73749999999998,237.09630825439106h10v10h-10zM124.67291666666668,234.37229394961673h10v10h-10zM126.60833333333332,231.64827964484238h10v10h-10zM128.54375,228.92426534006793h10v10h-10zM130.47916666666669,226.20025103529358h10v10h-10zM132.41458333333333,223.47623673051925h10v10h-10zM134.35,220.75222242574483h10v10h-10zM136.2854166666667,218.02820812097042h10v10h-10zM138.22083333333333,215.3041938161961h10v10h-10zM140.15625,212.58017951142173h10v10h-10zM142.0916666666667,209.8561652066473h10v10h-10zM144.02708333333334,207.13215090187293h10v10h-10zM145.96249999999998,204.4081365970986h10v10h-10zM147.89791666666665,201.6841222923242h10v10h-10zM149.8333333333333,198.96010798754975h10v10h-10zM151.76874999999998,196.2360936827754h10v10h-10zM153.70416666666665,193.51207937800106h10v10h-10zM155.6395833333333,190.78806507322665h10v10h-10zM157.575,188.06405076845226h10v10h-10zM159.51041666666666,185.34003646367796h10v10h-10zM161.4458333333333,182.61602215890355h10v10h-10zM163.38125,179.8920078541291h10v10h-10zM165.31666666666666,177.16799354935475h10v10h-10zM167.2520833333333,174.44397924458042h10v10h-10zM169.1875,171.719964939806h10v10h-10zM171.12291666666667,168.99595063503162h10v10h-10zM173.0583333333333,166.27193633025732h10v10h-10zM174.99375,163.54792202548288h10v10h-10zM176.92916666666667,160.82390772070846h10v10h-10zM178.86458333333331,158.09989341593408h10v10h-10zM180.8,155.37587911115978h10v10h-10zM182.73541666666668,152.65186480638533h10v10h-10zM184.67083333333332,149.92785050161098h10v10h-10zM186.60625000000002,147.20383619683665h10v10h-10zM188.54166666666669,144.47982189206223h10v10h-10zM190.47708333333333,141.75580758728782h10v10h-10zM192.41250000000002,139.03179328251343h10v10h-10zM194.34791666666663,136.30777897773913h10v10h-10zM196.2833333333333,133.5837646729647h10v10h-10zM198.21874999999997,130.85975036819033h10v10h-10zM200.15416666666664,128.1357360634159h10v10h-10zM202.0895833333333,125.41172175864159h10v10h-10zM204.02499999999998,122.68770745386716h10v10h-10zM205.96041666666665,119.96369314909285h10v10h-10zM207.89583333333331,117.23967884431836h10v10h-10zM209.83124999999998,114.51566453954405h10v10h-10zM211.76666666666665,111.79165023476968h10v10h-10zM213.70208333333332,109.06763592999525h10v10h-10zM215.6375,106.34362162522093h10v10h-10zM217.57291666666666,103.6196073204465h10v10h-10zM219.50833333333333,100.89559301567213h10v10h-10zM221.44375,98.17157871089782h10v10h-10zM223.37916666666666,95.4475644061234h10v10h-10zM225.31458333333333,92.72355010134903h10v10h-10zM227.25,89.9995357965747h10v10h-10zM229.18541666666667,87.27552149180023h10v10h-10zM231.1208333333333,84.55150718702592h10v10h-10zM233.05625000000003,81.82749288225149h10v10h-10zM234.9916666666667,79.10347857747706h10v10h-10zM236.92708333333334,76.37937347222591h10v10h-10zM238.8625,73.65544996792838h10v10h-10zM240.79791666666668,70.93134486267722h10v10h-10zM242.73333333333332,68.2073305579028h10v10h-10zM244.66875,65.48313465217473h10v10h-10zM246.60416666666666,62.75893874644672h10v10h-10zM248.5395833333333,60.032926831182124h10v10h-10zM250.47499999999997,57.30864012497738h10v10h-10zM252.4104166666666,54.57945019302384h10v10h-10zM254.34583333333336,51.85725189778604h10v10h-10zM256.28125,49.13087678061412h10v10h-10zM258.21666666666664,46.347569764472595h10v10h-10zM260.15208333333334,43.664506474746524h10v10h-10zM262.0875,40.908530402129585h10v10h-10zM264.0229166666666,38.163904389115764h10v10h-10zM265.95833333333337,35.51924970108708h10v10h-10zM267.89375,35.499999999999964h10v10h-10zM269.82916666666665,35.62267144419161h10v10h-10zM271.76458333333335,35.98841576484605h10v10h-10zM273.7,36.25364395765422h10v10h-10zM275.63541666666663,36.73779210008945h10v10h-10zM277.5708333333334,36.01329509549635h10v10h-10zM279.50624999999997,36.57471444371032h10v10h-10zM281.44166666666666,37.79280284032862h10v10h-10zM283.3770833333333,38.00681956420705h10v10h-10zM285.3125,38.678016688903405h10v10h-10zM287.24791666666664,39.06010509538644h10v10h-10zM289.1833333333334,39.54724965355688h10v10h-10zM291.11875,39.810480235875005h10v10h-10zM293.0541666666667,40.47740973816055h10v10h-10zM294.9895833333333,40.30525203409884h10v10h-10zM296.925,41.5121719720675h10v10h-10zM298.86041666666665,40.846967678841615h10v10h-10zM300.7958333333334,42.674690476868406h10v10h-10zM302.73125,42.1618493837562h10v10h-10zM304.66666666666663,43.70899870839128h10v10h-10zM306.6020833333333,44.38854947695565h10v10h-10zM308.53749999999997,44.86207396360222h10v10h-10zM310.47291666666666,45.570862485704545h10v10h-10zM312.40833333333336,46.05101540715946h10v10h-10zM314.34375,46.36055423265864h10v10h-10zM316.27916666666664,47.4024897042348h10v10h-10zM318.21458333333334,47.71638695262169h10v10h-10zM320.15,48.67133556739876h10v10h-10zM322.0854166666667,49.291956826503146h10v10h-10zM324.02083333333337,49.950169483013454h10v10h-10zM325.95625,50.62853984537908h10v10h-10zM327.8916666666666,51.294833744326965h10v10h-10zM329.82708333333335,51.96203564804306h10v10h-10zM331.7625,52.67736180447678h10v10h-10zM333.6979166666667,53.354733361597354h10v10h-10zM335.6333333333333,54.08395199098538h10v10h-10zM337.56875,54.715106105401695h10v10h-10zM339.5041666666666,55.52223154390634h10v10h-10zM341.43958333333336,56.23092926553171h10v10h-10zM343.375,56.99301766753077h10v10h-10zM345.3104166666667,57.73776317845614h10v10h-10zM347.24583333333334,58.24915146393912h10v10h-10zM349.18125000000003,59.26030557387135h10v10h-10zM351.1166666666666,60.03174642498344h10v10h-10zM353.0520833333333,60.810723715672026h10v10h-10zM354.9875,61.5976006478446h10v10h-10zM356.92291666666665,62.39174161816308h10v10h-10zM358.85833333333335,63.193691429488666h10v10h-10zM360.79375,64.0031776803908h10v10h-10zM362.72916666666663,64.81992796943905h10v10h-10zM364.6645833333333,65.64366989520278h10v10h-10zM366.6,66.47467585911266h10v10h-10zM368.53541666666666,67.31285506069167h10v10h-10zM370.47083333333336,68.15911550470831h10v10h-10zM372.40625,69.01164118162586h10v10h-10zM374.34166666666664,69.86997808906024h10v10h-10zM376.27708333333334,70.73775824608454h10v10h-10zM378.21250000000003,71.61107723219523h10v10h-10zM380.1479166666667,72.49129705454465h10v10h-10zM382.08333333333337,73.37823611217911h10v10h-10zM384.01874999999995,74.27189440509886h10v10h-10zM385.95416666666665,75.1723627337804h10v10h-10zM387.88958333333335,76.07927789631658h10v10h-10zM389.82500000000005,76.99291229413792h10v10h-10zM391.76041666666663,77.9129935258139h10v10h-10zM393.6958333333334,78.83952159134449h10v10h-10zM395.63124999999997,79.77249649072974h10v10h-10zM397.56666666666666,80.71200902444642h10v10h-10zM399.50208333333336,81.65769599058727h10v10h-10zM401.43750000000006,82.60982979058278h10v10h-10zM403.37291666666664,83.56822882347915h10v10h-10zM405.3083333333334,84.53280228879973h10v10h-10zM407.24375,85.50355018654453h10v10h-10zM409.1791666666666,86.48056331719033h10v10h-10zM411.11458333333337,87.46366007978331h10v10h-10zM413.05000000000007,88.45284047432376h10v10h-10zM414.98541666666665,89.44810450081148h10v10h-10zM416.9208333333333,90.44936135876972h10v10h-10zM418.85625,91.45661104819848h10v10h-10zM420.79166666666663,92.46985356909772h10v10h-10zM422.7270833333334,93.48899812099064h10v10h-10zM424.66249999999997,94.51413550435397h10v10h-10zM426.59791666666666,95.54508411823436h10v10h-10zM428.5333333333333,96.58184396263145h10v10h-10zM430.46875,97.62441503754545h10v10h-10zM432.40416666666664,98.67279734297627h10v10h-10zM434.3395833333334,99.72699087892397h10v10h-10zM436.275,100.78681404443486h10v10h-10zM438.2104166666667,101.85244844046258h10v10h-10zM440.1458333333333,102.92371246605349h10v10h-10zM442.08125,104.0006061212076h10v10h-10zM444.01666666666665,105.08322020640189h10v10h-10zM445.9520833333334,106.17137312068243h10v10h-10zM447.8875,107.2651556645261h10v10h-10zM449.8229166666667,108.36447703745617h10v10h-10zM451.7583333333333,109.4693372394727h10v10h-10zM453.69375,110.5797362705755h10v10h-10zM455.62916666666666,111.69567413076474h10v10h-10zM457.5645833333334,112.81706001956361h10v10h-10zM459.5,113.9438939369719h10v10h-10zM461.43541666666664,115.07617588298986h10v10h-10zM463.37083333333334,116.21390585761726h10v10h-10zM465.30625,117.3570838608542h10v10h-10zM467.2416666666666,118.50552829174705h10v10h-10zM469.1770833333333,119.65942075124951h10v10h-10zM471.11250000000007,120.81867043888468h10v10h-10zM473.0479166666666,121.98318655417569h10v10h-10zM474.9833333333334,123.15305989759946h10v10h-10zM476.91874999999993,124.32829046915597h10v10h-10zM478.8541666666667,125.50869666789151h10v10h-10zM480.7895833333334,126.69446009475985h10v10h-10zM482.725,127.88539914880715h10v10h-10zM484.66041666666666,129.08160463051044h10v10h-10zM486.59583333333336,130.28307653986963h10v10h-10zM488.53125,131.48972407640778h10v10h-10zM490.46666666666664,132.70163804060198h10v10h-10zM492.40208333333334,133.91863683149836h10v10h-10zM494.3375000000001,135.14090205005056h10v10h-10zM496.2729166666666,136.36825209530508h10v10h-10zM498.2083333333334,137.60077776773866h10v10h-10zM500.14374999999995,138.83838826687452h10v10h-10zM502.0791666666667,140.08117439318943h10v10h-10zM504.0145833333334,141.32904534620653h10v10h-10zM505.94999999999993,142.58200112592593h10v10h-10zM507.88541666666674,143.84013253282444h10v10h-10zM509.8208333333333,145.10325796594825h10v10h-10zM511.75625,146.37146822577438h10v10h-10zM513.6916666666667,147.64476331230273h10v10h-10zM515.6270833333333,148.92305242505654h10v10h-10zM517.5625,150.20642636451254h10v10h-10zM519.4979166666667,151.49488513067084h10v10h-10zM521.4333333333333,152.78824712257776h10v10h-10zM523.36875,154.08669394118687h10v10h-10zM525.3041666666667,155.3901347860214h10v10h-10zM527.2395833333334,156.69856965708135h10v10h-10zM529.175,158.01199855436676h10v10h-10zM531.1104166666668,159.33042147787756h10v10h-10zM533.0458333333332,160.6537476271369h10v10h-10zM534.98125,161.98215860309855h10v10h-10zM536.9166666666667,163.3154728048088h10v10h-10zM538.8520833333333,164.6536902322676h10v10h-10zM540.7875,165.99699248642867h10v10h-10zM542.7229166666667,167.34510716586158h10v10h-10zM544.6583333333333,168.69821587151975h10v10h-10zM546.59375,170.0562278029267h10v10h-10zM548.5291666666667,171.4192337605589h10v10h-10zM550.4645833333334,172.78714294393976h10v10h-10zM552.4,174.15995535306925h10v10h-10zM554.3354166666667,175.5376709879473h10v10h-10zM556.2708333333333,176.92028984857396h10v10h-10zM558.2062500000001,178.30790273542604h10v10h-10zM560.1416666666668,179.70032804754985h10v10h-10zM562.0770833333332,181.09774738589908h10v10h-10zM564.0125,182.49997914952013h10v10h-10zM565.9479166666667,183.90711413888977h10v10h-10zM567.8833333333333,185.31915235400797h10v10h-10zM569.81875,186.7360937948748h10v10h-10zM571.7541666666667,188.1579384614902h10v10h-10zM573.6895833333333,189.58468635385418h10v10h-10zM575.625,191.01624667149h10v10h-10zM577.5604166666667,192.45280101535116h10v10h-10zM579.4958333333333,193.8941677844841h10v10h-10zM581.43125,195.34043777936563h10v10h-10zM583.3666666666668,196.79152019951894h10v10h-10zM585.3020833333333,198.24759664589766h10v10h-10zM587.2375000000001,199.70848551754816h10v10h-10zM589.1729166666667,201.1742776149473h10v10h-10zM591.1083333333333,202.64497293809495h10v10h-10zM593.04375,204.12048068651436h10v10h-10zM594.9791666666666,205.60098246115928h10v10h-10zM596.9145833333333,207.0862966610759h10v10h-10zM598.85,208.57651408674113h10v10h-10zM600.7854166666667,210.07154393767817h10v10h-10zM602.7208333333333,211.57156781484056h10v10h-10zM604.65625,213.0764041172748h10v10h-10zM606.5916666666668,214.5862344459344h10v10h-10zM608.5270833333333,216.10087719986575h10v10h-10zM610.4625,217.6204231795457h10v10h-10zM612.3979166666667,219.1448723849743h10v10h-10zM614.3333333333334,220.67422481615142h10v10h-10zM616.2687500000001,222.2084804730772h10v10h-10zM618.2041666666667,223.74763935575155h10v10h-10zM620.1395833333333,225.2917014641745h10v10h-10zM622.0749999999999,226.840666798346h10v10h-10zM624.0104166666667,228.39453535826615h10v10h-10zM625.9458333333333,229.9533979444117h10v10h-10zM627.88125,231.51716375630585h10v10h-10zM629.8166666666667,233.08583279394858h10v10h-10zM631.7520833333333,234.65940505733997h10v10h-10zM633.6875,236.23788054647983h10v10h-10zM635.6229166666667,237.82135006184524h10v10h-10zM637.5583333333333,239.4098136034359h10v10h-10zM639.4937500000001,241.00318037077534h10v10h-10zM641.4291666666667,242.60145036386334h10v10h-10zM643.3645833333333,244.20471438317665h10v10h-10zM645.3,245.81288162823867h10v10h-10zM647.2354166666668,247.42613370000285h10v10h-10zM649.1708333333333,249.04428899751565h10v10h-10zM651.1062499999999,250.667347520777h10v10h-10zM653.0416666666667,252.29549087074065h10v10h-10zM654.9770833333333,253.928537446453h10v10h-10zM656.9125,255.56666884886738h10v10h-10zM658.8479166666667,257.20970347703053h10v10h-10zM660.7833333333333,258.85773213141897h10v10h-10zM662.7187500000001,260.51084561250974h10v10h-10zM664.6541666666667,262.16886231934905h10v10h-10zM666.5895833333333,263.8319638528907h10v10h-10zM668.525,265.5000594126577h10v10h-10zM670.4604166666668,267.173239799127h10v10h-10zM672.3958333333334,268.8513234113447h10v10h-10zM674.33125,270.5345826507417h10v10h-10zM676.2666666666668,272.2227451158872h10v10h-10zM678.2020833333332,273.91599240773496h10v10h-10zM680.1375,275.614324526285h10v10h-10zM682.0729166666667,277.31765067106033h10v10h-10zM684.0083333333332,279.02606164253797h10v10h-10zM685.94375,280.739557440718h10v10h-10zM687.8791666666667,282.4581380656001h10v10h-10zM689.8145833333333,284.1817127167077h10v10h-10zM691.75,285.91037219451744h10v10h-10zM693.6854166666667,287.6441164990295h10v10h-10zM695.6208333333334,289.3829456302439h10v10h-10zM697.55625,291.1268595881604h10v10h-10zM699.4916666666667,292.87585837277925h10v10h-10zM701.4270833333333,294.62994198410036h10v10h-10zM703.3625000000001,296.3891104221236h10v10h-10zM705.2979166666668,298.153454487326h10v10h-10zM707.2333333333332,299.92279257875373h10v10h-10zM709.16875,301.6973062973605h10v10h-10zM711.1041666666667,303.4769048426697h10v10h-10zM713.0395833333333,305.26158821468107h10v10h-10zM714.975,307.05135641339467h10v10h-10zM716.9104166666667,308.8463002392873h10v10h-10zM718.8458333333334,310.6463288918822h10v10h-10zM720.78125,312.4514423711793h10v10h-10zM722.7166666666667,314.2616406771788h10v10h-10zM724.6520833333333,316.0770146103572h10v10h-10zM726.5875,317.89747337023795h10v10h-10zM728.5229166666668,319.7231077572977h10v10h-10zM730.4583333333333,321.5537361705829h10v10h-10zM732.39375,323.38963101152405h10v10h-10zM734.3291666666667,325.23051987869053h10v10h-10zM736.2645833333333,327.07649357255934h10v10h-10zM738.2,328.9276428936072h10v10h-10zM740.1354166666666,330.7838770413572h10v10h-10zM742.0708333333333,332.6452868162864h10v10h-10zM744.00625,334.51169061744093h10v10h-10zM745.9416666666667,336.3832700457746h10v10h-10zM747.8770833333333,338.2598435003337h10v10h-10zM749.8125,340.14159258207184h10v10h-10zM751.7479166666668,342.02833569003536h10v10h-10zM753.6833333333333,343.92025442517803h10v10h-10zM755.61875,345.8172579870229h10v10h-10zM757.5541666666667,347.71925557509326h10v10h-10zM759.4895833333334,349.62633798986576h10v10h-10zM761.4250000000001,351.5385052313405h10v10h-10zM763.3604166666667,353.4556664990407h10v10h-10zM765.2958333333333,355.3779125934432h10v10h-10zM767.23125,357.3051527140711h10v10h-10zM769.1666666666667,359.23747766140116h10v10h-10zM771.1020833333333,361.17479663495675h10v10h-10zM773.0374999999999,363.1171096347377h10v10h-10zM774.9729166666666,365.06441666074403h10v10h-10zM776.9083333333333,367.01671771297583h10v10h-10zM778.84375,368.9739219909563h10v10h-10zM780.7791666666667,370.9362110956389h10v10h-10zM782.7145833333334,372.90340342607016h10v10h-10zM784.6500000000001,374.87549898224995h10v10h-10zM786.5854166666667,376.8525885646552h10v10h-10zM788.5208333333333,378.8345813728091h10v10h-10zM790.45625,380.8214774067115h10v10h-10zM792.3916666666668,382.8132766663625h10v10h-10zM794.3270833333333,384.8098883512853h10v10h-10zM796.2624999999999,386.8114032619567h10v10h-10zM798.1979166666669,388.81773059789987h10v10h-10zM800.1333333333333,390.8289611595916h10v10h-10zM802.06875,392.84500414655514h10v10h-10zM804.0041666666667,394.86576875831355h10v10h-10zM805.9395833333332,396.89134579534374h10v10h-10zM807.8750000000001,398.92173525764576h10v10h-10zM809.8104166666667,400.95684634474276h10v10h-10zM811.7458333333333,402.99667905663466h10v10h-10zM813.6812500000001,405.0412333933215h10v10h-10zM815.6166666666668,407.0905093548032h10v10h-10zM817.5520833333334,409.144416140603h10v10h-10zM819.4875,411.20295375072106h10v10h-10zM821.4229166666667,413.26621298563396h10v10h-10zM823.3583333333332,415.3340122443882h10v10h-10zM825.29375,417.40644232746064h10v10h-10zM827.2291666666667,419.48341243437426h10v10h-10zM829.1645833333332,421.56492256512917h10v10h-10zM831.1000000000001,423.6510635202022h10v10h-10zM833.0354166666667,425.74165369863977h10v10h-10zM834.9708333333333,427.8366931004417h10v10h-10zM836.90625,429.93618172560815h10v10h-10zM838.8416666666666,432.0402103746158h10v10h-10zM840.7770833333334,434.14859744651125h10v10h-10zM842.7125,436.26134294129423h10v10h-10zM844.6479166666667,438.37853765944175h10v10h-10zM846.5833333333334,440.50000000000006h10v10h-10z" style="fill: none; pointer-events: visiblefill;"></path></g></svg><g><g transform="translate(0,486)"><path d="M0,0h929M0,-8V0M19,-8V0M39,-8V0M58,-8V0M77,-15V0M97,-8V0M116,-8V0M135,-8V0M155,-8V0M174,-15V0M194,-8V0M213,-8V0M232,-8V0M252,-8V0M271,-15V0M290,-8V0M310,-8V0M329,-8V0M348,-8V0M368,-15V0M387,-8V0M406,-8V0M426,-8V0M445,-8V0M465,-15V0M484,-8V0M503,-8V0M523,-8V0M542,-8V0M561,-15V0M581,-8V0M600,-8V0M619,-8V0M639,-8V0M658,-15V0M677,-8V0M697,-8V0M716,-8V0M735,-8V0M755,-15V0M774,-8V0M794,-8V0M813,-8V0M832,-8V0M852,-15V0M871,-8V0M890,-8V0M910,-8V0M929,-8V0" style="stroke: black; stroke-width: 1;"></path><g font-family="Arial" font-size="21" xml:space="preserve" fill="black" text-anchor="middle"><text dy=".8em" transform="translate(77,4)">-2</text><text dy=".8em" transform="translate(174,4)">-1.5</text><text dy=".8em" transform="translate(271,4)">-1</text><text dy=".8em" transform="translate(368,4)">-0.5</text><text dy=".8em" transform="translate(465,4)">0</text><text dy=".8em" transform="translate(561,4)">0.5</text><text dy=".8em" transform="translate(658,4)">1</text><text dy=".8em" transform="translate(755,4)">1.5</text><text dy=".8em" transform="translate(852,4)">2</text></g><rect x="0" y="0" width="929" height="24" style="opacity: 0; cursor: crosshair;"></rect><g font-family="Arial" font-size="21" xml:space="preserve" transform="translate(929,34)" style="cursor: move;"><text fill="black" text-anchor="end" dominant-baseline="middle">Delta</text></g></g><g><path d="M0,0v486M14,485H0M14,476H0M14,467H0M14,458H0M28,449H0M14,440H0M14,431H0M14,422H0M14,413H0M28,404H0M14,395H0M14,386H0M14,376H0M14,367H0M28,358H0M14,349H0M14,340H0M14,331H0M14,322H0M28,313H0M14,304H0M14,295H0M14,286H0M14,277H0M28,268H0M14,258H0M14,249H0M14,240H0M14,231H0M28,222H0M14,213H0M14,204H0M14,195H0M14,186H0M28,177H0M14,168H0M14,159H0M14,149H0M14,140H0M28,131H0M14,122H0M14,113H0M14,104H0M14,95H0M28,86H0M14,77H0M14,68H0M14,59H0M14,50H0M28,41H0M14,31H0M14,22H0M14,13H0M14,4H0" style="stroke: black; stroke-width: 1;"></path><g font-family="Arial" font-size="21" xml:space="preserve" fill="black" text-anchor="end"><text dominant-baseline="middle" transform="translate(-4,449)">-7.5</text><text dominant-baseline="middle" transform="translate(-4,404)">-7</text><text dominant-baseline="middle" transform="translate(-4,358)">-6.5</text><text dominant-baseline="middle" transform="translate(-4,313)">-6</text><text dominant-baseline="middle" transform="translate(-4,268)">-5.5</text><text dominant-baseline="middle" transform="translate(-4,222)">-5</text><text dominant-baseline="middle" transform="translate(-4,177)">-4.5</text><text dominant-baseline="middle" transform="translate(-4,131)">-4</text><text dominant-baseline="middle" transform="translate(-4,86)">-3.5</text><text dominant-baseline="middle" transform="translate(-4,41)">-3</text></g><rect x="-39" y="0" width="39" height="486" style="opacity: 0; cursor: crosshair;"></rect><g font-family="Arial" font-size="21" xml:space="preserve" transform="translate(-64)" style="cursor: move;"><text fill="black" text-anchor="end" dominant-baseline="middle" transform="rotate(270)">Total Ground Energy</text></g></g><path d="M77,0v486M174,0v486M271,0v486M368,0v486M465,0v486M561,0v486M658,0v486M755,0v486M852,0v486" style="stroke: black; stroke-width: 1; stroke-dasharray: 1, 2;"></path><path d="M0,449h929M0,404h929M0,358h929M0,313h929M0,268h929M0,222h929M0,177h929M0,131h929M0,86h929M0,41h929" style="stroke: black; stroke-width: 1; stroke-dasharray: 1, 2;"></path></g><path d="M2,2h15v-5h-20v20h5Z" style="opacity: 0; cursor: nw-resize;"></path><path d="M927,2h-15v-5h20v20h-5 Z" style="opacity: 0; cursor: ne-resize;"></path><path d="M2,484h15v5h-20v-20h5Z" style="opacity: 0; cursor: sw-resize;"></path><path d="M927,484h-15v5h20v-20h-5Z" style="opacity: 0; cursor: se-resize;"></path><path d="M-3,18h5v450h-5Z" style="opacity: 0; cursor: w-resize;"></path><path d="M932,18h-5v450h5Z" style="opacity: 0; cursor: e-resize;"></path><path d="M18,-3v5h893v-5Z" style="opacity: 0; cursor: n-resize;"></path><path d="M18,489v-5h893v5Z" style="opacity: 0; cursor: s-resize;"></path></g><g transform="translate(116,3)" font-family="Arial" font-size="30" xml:space="preserve" style="cursor: move;"><path d="M0,0H929V40H0Z" style="fill: none; pointer-events: visiblefill;"></path><text fill="black" text-anchor="middle" dy=".8em" transform="translate(465)">Lanczos alogrithm, num = 12, error = 1e-13</text><path d="M2,2h15v-5h-20v20h5Z" style="opacity: 0; cursor: nw-resize;"></path><path d="M927,2h-15v-5h20v20h-5 Z" style="opacity: 0; cursor: ne-resize;"></path><path d="M2,38h15v5h-20v-20h5Z" style="opacity: 0; cursor: sw-resize;"></path><path d="M927,38h-15v5h20v-20h-5Z" style="opacity: 0; cursor: se-resize;"></path><path d="M-3,18h5v4h-5Z" style="opacity: 0; cursor: w-resize;"></path><path d="M932,18h-5v4h5Z" style="opacity: 0; cursor: e-resize;"></path><path d="M18,-3v5h893v-5Z" style="opacity: 0; cursor: n-resize;"></path><path d="M18,43v-5h893v5Z" style="opacity: 0; cursor: s-resize;"></path></g></g></svg>