<svg width="1161" height="607" xmlns="http://www.w3.org/2000/svg"><defs><pattern id="pat_3001_1" patternUnits="userSpaceOnUse" width="2" height="2"><path d="M0,0h1v1h-1zM1,1h1v1h-1z" style="fill: black;"></path></pattern><pattern id="pat_3002_1" patternUnits="userSpaceOnUse" width="4" height="2"><path d="M1,0h1v1h-1zM3,1h1v1h-1z" style="fill: black;"></path></pattern><pattern id="pat_3003_1" patternUnits="userSpaceOnUse" width="4" height="4"><path d="M2,1h1v1h-1zM0,3h1v1h-1z" style="fill: black;"></path></pattern><pattern id="pat_3004_1" patternUnits="userSpaceOnUse" width="8" height="8"><path d="M8,0L0,8" style="stroke: black; stroke-width: 1;"></path></pattern><pattern id="pat_3005_1" patternUnits="userSpaceOnUse" width="8" height="8"><path d="M0,0L8,8" style="stroke: black; stroke-width: 1;"></path></pattern><pattern id="pat_3006_1" patternUnits="userSpaceOnUse" width="4" height="4"><path d="M1,0v4" style="stroke: black; stroke-width: 1;"></path></pattern><pattern id="pat_3007_1" patternUnits="userSpaceOnUse" width="4" height="4"><path d="M0,1h4" style="stroke: black; stroke-width: 1;"></path></pattern><pattern id="pat_3010_1" patternUnits="userSpaceOnUse" width="10" height="10"><path d="M0,2h10M0,7h10M2,0v2M7,2v5M2,7v3" style="stroke: black; stroke-width: 1;"></path></pattern><pattern id="pat_3021_1" patternUnits="userSpaceOnUse" width="8" height="8"><path d="M8,2h-2v4h-4v2M2,0v2h-2" style="stroke: black; stroke-width: 1; fill: none;"></path></pattern><pattern id="pat_3022_1" patternUnits="userSpaceOnUse" width="8" height="8"><path d="M0,2h2v4h4v2M6,0v2h2" style="stroke: black; stroke-width: 1; fill: none;"></path></pattern></defs><title>12_13.root/c1;1</title><path d="M0,0H1161V607H0Z" style="pointer-events: visiblefill; fill: white;"></path><g><g transform="translate(116,61)"><title></title><path d="M0,0H929V486H0Z" style="fill: white; stroke: black; stroke-width: 1; pointer-events: visiblefill; cursor: default;"></path><svg x="0" y="0" overflow="hidden" width="929" height="486" viewBox="0 0 929 486" style="pointer-events: visiblefill; cursor: default;"><g style="cursor: move;"><path d="M77,224l3,-3l3,-3l2,-4l3,-3l2,-3l3,-4l2,-3l3,-3l3,-3l2,-4l3,-3l2,-3l3,-4l3,-3l2,-3l3,-3l2,-4l3,-3l2,-3l3,-4l3,-3l2,-3l3,-3l2,-4l3,-3l3,-3l2,-4l3,-3l2,-3l3,-3l2,-4l3,-3l3,-3l2,-3l3,-4l2,-3l3,-3l2,-4l3,-3l3,-3l2,-3l3,-4l2,-3l3,-3l3,-4l2,-3l3,-3l2,-4l3,-3l2,-3h6l2,1h8l3,1l2,1h8l2,2h3l3,1l2,1h8l2,2l3,1l3,1l2,-1l3,2l2,1h3l3,1l2,1l3,1l2,1h3l2,1l3,1l3,1l2,1h3l2,1l3,1l3,1l2,1l3,1l2,1l3,1l2,1l3,1h3l2,1l3,1l2,1l3,1l2,1l3,1l3,1l2,1l3,1l2,1l3,1l3,1l2,1l3,2l2,1l3,1l2,1l3,1l3,1l2,1l3,1l2,1l3,1l3,2l2,1l3,1l2,1l3,1l2,1l3,2l3,1l2,1l3,1l2,1l3,2l2,1l3,1l3,1l2,2l3,1l2,1l3,1l3,2l2,1l3,1l2,2l3,1l2,1l3,1l3,2l2,1l3,1l2,2l3,1l3,2l2,1l3,1l2,2l3,1l2,1l3,2l3,1l2,2l3,1l2,1l3,2l2,1l3,2l3,1l2,2l3,1l2,2l3,1l3,2l2,1l3,2l2,1l3,2l2,1l3,2l3,1l2,2l3,1l2,2l3,1l2,2l3,1l3,2l2,1l3,2l2,2l3,1l3,2l2,1l3,2l2,2l3,1l2,2l3,2l3,1l2,2l3,1l2,2l3,2l3,1l2,2l3,2l2,1l3,2l2,2l3,2l3,1l2,2l3,2l2,1l3,2l2,2l3,2l3,1l2,2l3,2l2,2l3,1l3,2l2,2l3,2l2,2l3,1l2,2l3,2l3,2l2,2l3,2l2,1l3,2l3,2l2,2l3,2l2,2l3,1l2,2l3,2l3,2l2,2l3,2l2,2l3,2l2,2l3,2l3,2l2,1l3,2l2,2l3,2l3,2l2,2l3,2l2,2l3,2l2,2l3,2l3,2l2,2l3,2l2,2l3,2l3,2l2,2l3,2l2,2l3,3l2,2l3,2l3,2l2,2l3,2l2,2l3,2l2,2l3,2l3,2l2,3l3,2l2,2l3,2l3,2l2,2l3,2l2,3l3,2l2,2l3,2l3,2l2,3l3,2l2,2l3,2l3,2l2,3l3,2l2,2l3,2l2,3l3,2l3,2" style="stroke: black; stroke-width: 1; fill: none;"></path><path d="M76.62,224.17a0.80,0.80,0,1,0,1.60,0a0.80,0.80,0,1,0,-1.60,0zM79.20,220.89a0.80,0.80,0,1,0,1.60,0a0.80,0.80,0,1,0,-1.60,0zM81.78,217.60a0.80,0.80,0,1,0,1.60,0a0.80,0.80,0,1,0,-1.60,0zM84.36,214.32a0.80,0.80,0,1,0,1.60,0a0.80,0.80,0,1,0,-1.60,0zM86.94,211.03a0.80,0.80,0,1,0,1.60,0a0.80,0.80,0,1,0,-1.60,0zM89.52,207.75a0.80,0.80,0,1,0,1.60,0a0.80,0.80,0,1,0,-1.60,0zM92.10,204.47a0.80,0.80,0,1,0,1.60,0a0.80,0.80,0,1,0,-1.60,0zM94.68,201.18a0.80,0.80,0,1,0,1.60,0a0.80,0.80,0,1,0,-1.60,0zM97.26,197.90a0.80,0.80,0,1,0,1.60,0a0.80,0.80,0,1,0,-1.60,0zM99.84,194.61a0.80,0.80,0,1,0,1.60,0a0.80,0.80,0,1,0,-1.60,0zM102.42,191.33a0.80,0.80,0,1,0,1.60,0a0.80,0.80,0,1,0,-1.60,0zM105.00,188.05a0.80,0.80,0,1,0,1.60,0a0.80,0.80,0,1,0,-1.60,0zM107.58,184.76a0.80,0.80,0,1,0,1.60,0a0.80,0.80,0,1,0,-1.60,0zM110.16,181.48a0.80,0.80,0,1,0,1.60,0a0.80,0.80,0,1,0,-1.60,0zM112.74,178.19a0.80,0.80,0,1,0,1.60,0a0.80,0.80,0,1,0,-1.60,0zM115.32,174.91a0.80,0.80,0,1,0,1.60,0a0.80,0.80,0,1,0,-1.60,0zM117.91,171.62a0.80,0.80,0,1,0,1.60,0a0.80,0.80,0,1,0,-1.60,0zM120.49,168.34a0.80,0.80,0,1,0,1.60,0a0.80,0.80,0,1,0,-1.60,0zM123.07,165.06a0.80,0.80,0,1,0,1.60,0a0.80,0.80,0,1,0,-1.60,0zM125.65,161.77a0.80,0.80,0,1,0,1.60,0a0.80,0.80,0,1,0,-1.60,0zM128.23,158.49a0.80,0.80,0,1,0,1.60,0a0.80,0.80,0,1,0,-1.60,0zM130.81,155.20a0.80,0.80,0,1,0,1.60,0a0.80,0.80,0,1,0,-1.60,0zM133.39,151.92a0.80,0.80,0,1,0,1.60,0a0.80,0.80,0,1,0,-1.60,0zM135.97,148.64a0.80,0.80,0,1,0,1.60,0a0.80,0.80,0,1,0,-1.60,0zM138.55,145.35a0.80,0.80,0,1,0,1.60,0a0.80,0.80,0,1,0,-1.60,0zM141.13,142.07a0.80,0.80,0,1,0,1.60,0a0.80,0.80,0,1,0,-1.60,0zM143.71,138.78a0.80,0.80,0,1,0,1.60,0a0.80,0.80,0,1,0,-1.60,0zM146.29,135.50a0.80,0.80,0,1,0,1.60,0a0.80,0.80,0,1,0,-1.60,0zM148.87,132.22a0.80,0.80,0,1,0,1.60,0a0.80,0.80,0,1,0,-1.60,0zM151.45,128.93a0.80,0.80,0,1,0,1.60,0a0.80,0.80,0,1,0,-1.60,0zM154.03,125.65a0.80,0.80,0,1,0,1.60,0a0.80,0.80,0,1,0,-1.60,0zM156.61,122.36a0.80,0.80,0,1,0,1.60,0a0.80,0.80,0,1,0,-1.60,0zM159.19,119.08a0.80,0.80,0,1,0,1.60,0a0.80,0.80,0,1,0,-1.60,0zM161.78,115.79a0.80,0.80,0,1,0,1.60,0a0.80,0.80,0,1,0,-1.60,0zM164.36,112.51a0.80,0.80,0,1,0,1.60,0a0.80,0.80,0,1,0,-1.60,0zM166.94,109.23a0.80,0.80,0,1,0,1.60,0a0.80,0.80,0,1,0,-1.60,0zM169.52,105.94a0.80,0.80,0,1,0,1.60,0a0.80,0.80,0,1,0,-1.60,0zM172.10,102.66a0.80,0.80,0,1,0,1.60,0a0.80,0.80,0,1,0,-1.60,0zM174.68,99.37a0.80,0.80,0,1,0,1.60,0a0.80,0.80,0,1,0,-1.60,0zM177.26,96.09a0.80,0.80,0,1,0,1.60,0a0.80,0.80,0,1,0,-1.60,0zM179.84,92.81a0.80,0.80,0,1,0,1.60,0a0.80,0.80,0,1,0,-1.60,0zM182.42,89.52a0.80,0.80,0,1,0,1.60,0a0.80,0.80,0,1,0,-1.60,0zM185.00,86.22a0.80,0.80,0,1,0,1.60,0a0.80,0.80,0,1,0,-1.60,0zM187.58,82.95a0.80,0.80,0,1,0,1.60,0a0.80,0.80,0,1,0,-1.60,0zM190.16,79.66a0.80,0.80,0,1,0,1.60,0a0.80,0.80,0,1,0,-1.60,0zM192.74,76.38a0.80,0.80,0,1,0,1.60,0a0.80,0.80,0,1,0,-1.60,0zM195.32,73.04a0.80,0.80,0,1,0,1.60,0a0.80,0.80,0,1,0,-1.60,0zM197.90,69.75a0.80,0.80,0,1,0,1.60,0a0.80,0.80,0,1,0,-1.60,0zM200.48,66.27a0.80,0.80,0,1,0,1.60,0a0.80,0.80,0,1,0,-1.60,0zM203.06,63.07a0.80,0.80,0,1,0,1.60,0a0.80,0.80,0,1,0,-1.60,0zM205.64,59.96a0.80,0.80,0,1,0,1.60,0a0.80,0.80,0,1,0,-1.60,0zM208.22,59.88a0.80,0.80,0,1,0,1.60,0a0.80,0.80,0,1,0,-1.60,0zM210.81,59.96a0.80,0.80,0,1,0,1.60,0a0.80,0.80,0,1,0,-1.60,0zM213.39,60.64a0.80,0.80,0,1,0,1.60,0a0.80,0.80,0,1,0,-1.60,0zM215.97,61.01a0.80,0.80,0,1,0,1.60,0a0.80,0.80,0,1,0,-1.60,0zM218.55,60.96a0.80,0.80,0,1,0,1.60,0a0.80,0.80,0,1,0,-1.60,0zM221.13,61.17a0.80,0.80,0,1,0,1.60,0a0.80,0.80,0,1,0,-1.60,0zM223.71,61.70a0.80,0.80,0,1,0,1.60,0a0.80,0.80,0,1,0,-1.60,0zM226.29,62.86a0.80,0.80,0,1,0,1.60,0a0.80,0.80,0,1,0,-1.60,0zM228.87,62.98a0.80,0.80,0,1,0,1.60,0a0.80,0.80,0,1,0,-1.60,0zM231.45,63.34a0.80,0.80,0,1,0,1.60,0a0.80,0.80,0,1,0,-1.60,0zM234.03,63.30a0.80,0.80,0,1,0,1.60,0a0.80,0.80,0,1,0,-1.60,0zM236.61,64.58a0.80,0.80,0,1,0,1.60,0a0.80,0.80,0,1,0,-1.60,0zM239.19,64.50a0.80,0.80,0,1,0,1.60,0a0.80,0.80,0,1,0,-1.60,0zM241.77,65.90a0.80,0.80,0,1,0,1.60,0a0.80,0.80,0,1,0,-1.60,0zM244.35,66.74a0.80,0.80,0,1,0,1.60,0a0.80,0.80,0,1,0,-1.60,0zM246.93,67.34a0.80,0.80,0,1,0,1.60,0a0.80,0.80,0,1,0,-1.60,0zM249.51,67.04a0.80,0.80,0,1,0,1.60,0a0.80,0.80,0,1,0,-1.60,0zM252.09,66.92a0.80,0.80,0,1,0,1.60,0a0.80,0.80,0,1,0,-1.60,0zM254.67,69.25a0.80,0.80,0,1,0,1.60,0a0.80,0.80,0,1,0,-1.60,0zM257.26,69.81a0.80,0.80,0,1,0,1.60,0a0.80,0.80,0,1,0,-1.60,0zM259.84,70.54a0.80,0.80,0,1,0,1.60,0a0.80,0.80,0,1,0,-1.60,0zM262.42,69.86a0.80,0.80,0,1,0,1.60,0a0.80,0.80,0,1,0,-1.60,0zM265.00,71.65a0.80,0.80,0,1,0,1.60,0a0.80,0.80,0,1,0,-1.60,0zM267.58,72.83a0.80,0.80,0,1,0,1.60,0a0.80,0.80,0,1,0,-1.60,0zM270.16,73.46a0.80,0.80,0,1,0,1.60,0a0.80,0.80,0,1,0,-1.60,0zM272.74,74.13a0.80,0.80,0,1,0,1.60,0a0.80,0.80,0,1,0,-1.60,0zM275.32,74.71a0.80,0.80,0,1,0,1.60,0a0.80,0.80,0,1,0,-1.60,0zM277.90,75.61a0.80,0.80,0,1,0,1.60,0a0.80,0.80,0,1,0,-1.60,0zM280.48,76.56a0.80,0.80,0,1,0,1.60,0a0.80,0.80,0,1,0,-1.60,0zM283.06,77.38a0.80,0.80,0,1,0,1.60,0a0.80,0.80,0,1,0,-1.60,0zM285.64,78.18a0.80,0.80,0,1,0,1.60,0a0.80,0.80,0,1,0,-1.60,0zM288.22,78.97a0.80,0.80,0,1,0,1.60,0a0.80,0.80,0,1,0,-1.60,0zM290.80,79.78a0.80,0.80,0,1,0,1.60,0a0.80,0.80,0,1,0,-1.60,0zM293.38,80.65a0.80,0.80,0,1,0,1.60,0a0.80,0.80,0,1,0,-1.60,0zM295.96,81.50a0.80,0.80,0,1,0,1.60,0a0.80,0.80,0,1,0,-1.60,0zM298.54,82.34a0.80,0.80,0,1,0,1.60,0a0.80,0.80,0,1,0,-1.60,0zM301.12,83.18a0.80,0.80,0,1,0,1.60,0a0.80,0.80,0,1,0,-1.60,0zM303.71,84.08a0.80,0.80,0,1,0,1.60,0a0.80,0.80,0,1,0,-1.60,0zM306.29,84.96a0.80,0.80,0,1,0,1.60,0a0.80,0.80,0,1,0,-1.60,0zM308.87,85.85a0.80,0.80,0,1,0,1.60,0a0.80,0.80,0,1,0,-1.60,0zM311.45,86.75a0.80,0.80,0,1,0,1.60,0a0.80,0.80,0,1,0,-1.60,0zM314.03,87.67a0.80,0.80,0,1,0,1.60,0a0.80,0.80,0,1,0,-1.60,0zM316.61,88.59a0.80,0.80,0,1,0,1.60,0a0.80,0.80,0,1,0,-1.60,0zM319.19,89.52a0.80,0.80,0,1,0,1.60,0a0.80,0.80,0,1,0,-1.60,0zM321.77,90.46a0.80,0.80,0,1,0,1.60,0a0.80,0.80,0,1,0,-1.60,0zM324.35,91.40a0.80,0.80,0,1,0,1.60,0a0.80,0.80,0,1,0,-1.60,0zM326.93,92.36a0.80,0.80,0,1,0,1.60,0a0.80,0.80,0,1,0,-1.60,0zM329.51,93.33a0.80,0.80,0,1,0,1.60,0a0.80,0.80,0,1,0,-1.60,0zM332.09,94.30a0.80,0.80,0,1,0,1.60,0a0.80,0.80,0,1,0,-1.60,0zM334.67,95.29a0.80,0.80,0,1,0,1.60,0a0.80,0.80,0,1,0,-1.60,0zM337.25,96.28a0.80,0.80,0,1,0,1.60,0a0.80,0.80,0,1,0,-1.60,0zM339.83,97.29a0.80,0.80,0,1,0,1.60,0a0.80,0.80,0,1,0,-1.60,0zM342.41,98.30a0.80,0.80,0,1,0,1.60,0a0.80,0.80,0,1,0,-1.60,0zM344.99,99.32a0.80,0.80,0,1,0,1.60,0a0.80,0.80,0,1,0,-1.60,0zM347.57,100.34a0.80,0.80,0,1,0,1.60,0a0.80,0.80,0,1,0,-1.60,0zM350.16,101.38a0.80,0.80,0,1,0,1.60,0a0.80,0.80,0,1,0,-1.60,0zM352.74,102.42a0.80,0.80,0,1,0,1.60,0a0.80,0.80,0,1,0,-1.60,0zM355.32,103.48a0.80,0.80,0,1,0,1.60,0a0.80,0.80,0,1,0,-1.60,0zM357.90,104.54a0.80,0.80,0,1,0,1.60,0a0.80,0.80,0,1,0,-1.60,0zM360.48,105.61a0.80,0.80,0,1,0,1.60,0a0.80,0.80,0,1,0,-1.60,0zM363.06,106.69a0.80,0.80,0,1,0,1.60,0a0.80,0.80,0,1,0,-1.60,0zM365.64,107.77a0.80,0.80,0,1,0,1.60,0a0.80,0.80,0,1,0,-1.60,0zM368.22,108.86a0.80,0.80,0,1,0,1.60,0a0.80,0.80,0,1,0,-1.60,0zM370.80,109.97a0.80,0.80,0,1,0,1.60,0a0.80,0.80,0,1,0,-1.60,0zM373.38,111.08a0.80,0.80,0,1,0,1.60,0a0.80,0.80,0,1,0,-1.60,0zM375.96,112.19a0.80,0.80,0,1,0,1.60,0a0.80,0.80,0,1,0,-1.60,0zM378.54,113.32a0.80,0.80,0,1,0,1.60,0a0.80,0.80,0,1,0,-1.60,0zM381.12,114.45a0.80,0.80,0,1,0,1.60,0a0.80,0.80,0,1,0,-1.60,0zM383.70,115.59a0.80,0.80,0,1,0,1.60,0a0.80,0.80,0,1,0,-1.60,0zM386.28,116.74a0.80,0.80,0,1,0,1.60,0a0.80,0.80,0,1,0,-1.60,0zM388.86,117.89a0.80,0.80,0,1,0,1.60,0a0.80,0.80,0,1,0,-1.60,0zM391.44,119.06a0.80,0.80,0,1,0,1.60,0a0.80,0.80,0,1,0,-1.60,0zM394.02,120.23a0.80,0.80,0,1,0,1.60,0a0.80,0.80,0,1,0,-1.60,0zM396.61,121.40a0.80,0.80,0,1,0,1.60,0a0.80,0.80,0,1,0,-1.60,0zM399.19,122.59a0.80,0.80,0,1,0,1.60,0a0.80,0.80,0,1,0,-1.60,0zM401.77,123.78a0.80,0.80,0,1,0,1.60,0a0.80,0.80,0,1,0,-1.60,0zM404.35,124.98a0.80,0.80,0,1,0,1.60,0a0.80,0.80,0,1,0,-1.60,0zM406.93,126.19a0.80,0.80,0,1,0,1.60,0a0.80,0.80,0,1,0,-1.60,0zM409.51,127.40a0.80,0.80,0,1,0,1.60,0a0.80,0.80,0,1,0,-1.60,0zM412.09,128.63a0.80,0.80,0,1,0,1.60,0a0.80,0.80,0,1,0,-1.60,0zM414.67,129.85a0.80,0.80,0,1,0,1.60,0a0.80,0.80,0,1,0,-1.60,0zM417.25,131.09a0.80,0.80,0,1,0,1.60,0a0.80,0.80,0,1,0,-1.60,0zM419.83,132.33a0.80,0.80,0,1,0,1.60,0a0.80,0.80,0,1,0,-1.60,0zM422.41,133.58a0.80,0.80,0,1,0,1.60,0a0.80,0.80,0,1,0,-1.60,0zM424.99,134.84a0.80,0.80,0,1,0,1.60,0a0.80,0.80,0,1,0,-1.60,0zM427.57,136.10a0.80,0.80,0,1,0,1.60,0a0.80,0.80,0,1,0,-1.60,0zM430.15,137.37a0.80,0.80,0,1,0,1.60,0a0.80,0.80,0,1,0,-1.60,0zM432.73,138.65a0.80,0.80,0,1,0,1.60,0a0.80,0.80,0,1,0,-1.60,0zM435.31,139.94a0.80,0.80,0,1,0,1.60,0a0.80,0.80,0,1,0,-1.60,0zM437.89,141.23a0.80,0.80,0,1,0,1.60,0a0.80,0.80,0,1,0,-1.60,0zM440.47,142.53a0.80,0.80,0,1,0,1.60,0a0.80,0.80,0,1,0,-1.60,0zM443.06,143.83a0.80,0.80,0,1,0,1.60,0a0.80,0.80,0,1,0,-1.60,0zM445.64,145.14a0.80,0.80,0,1,0,1.60,0a0.80,0.80,0,1,0,-1.60,0zM448.22,146.46a0.80,0.80,0,1,0,1.60,0a0.80,0.80,0,1,0,-1.60,0zM450.80,147.79a0.80,0.80,0,1,0,1.60,0a0.80,0.80,0,1,0,-1.60,0zM453.38,149.12a0.80,0.80,0,1,0,1.60,0a0.80,0.80,0,1,0,-1.60,0zM455.96,150.46a0.80,0.80,0,1,0,1.60,0a0.80,0.80,0,1,0,-1.60,0zM458.54,151.80a0.80,0.80,0,1,0,1.60,0a0.80,0.80,0,1,0,-1.60,0zM461.12,153.16a0.80,0.80,0,1,0,1.60,0a0.80,0.80,0,1,0,-1.60,0zM463.70,154.51a0.80,0.80,0,1,0,1.60,0a0.80,0.80,0,1,0,-1.60,0zM466.28,155.88a0.80,0.80,0,1,0,1.60,0a0.80,0.80,0,1,0,-1.60,0zM468.86,157.25a0.80,0.80,0,1,0,1.60,0a0.80,0.80,0,1,0,-1.60,0zM471.44,158.63a0.80,0.80,0,1,0,1.60,0a0.80,0.80,0,1,0,-1.60,0zM474.02,160.01a0.80,0.80,0,1,0,1.60,0a0.80,0.80,0,1,0,-1.60,0zM476.60,161.41a0.80,0.80,0,1,0,1.60,0a0.80,0.80,0,1,0,-1.60,0zM479.18,162.80a0.80,0.80,0,1,0,1.60,0a0.80,0.80,0,1,0,-1.60,0zM481.76,164.21a0.80,0.80,0,1,0,1.60,0a0.80,0.80,0,1,0,-1.60,0zM484.34,165.62a0.80,0.80,0,1,0,1.60,0a0.80,0.80,0,1,0,-1.60,0zM486.93,167.03a0.80,0.80,0,1,0,1.60,0a0.80,0.80,0,1,0,-1.60,0zM489.51,168.46a0.80,0.80,0,1,0,1.60,0a0.80,0.80,0,1,0,-1.60,0zM492.09,169.89a0.80,0.80,0,1,0,1.60,0a0.80,0.80,0,1,0,-1.60,0zM494.67,171.32a0.80,0.80,0,1,0,1.60,0a0.80,0.80,0,1,0,-1.60,0zM497.25,172.77a0.80,0.80,0,1,0,1.60,0a0.80,0.80,0,1,0,-1.60,0zM499.83,174.21a0.80,0.80,0,1,0,1.60,0a0.80,0.80,0,1,0,-1.60,0zM502.41,175.67a0.80,0.80,0,1,0,1.60,0a0.80,0.80,0,1,0,-1.60,0zM504.99,177.13a0.80,0.80,0,1,0,1.60,0a0.80,0.80,0,1,0,-1.60,0zM507.57,178.60a0.80,0.80,0,1,0,1.60,0a0.80,0.80,0,1,0,-1.60,0zM510.15,180.07a0.80,0.80,0,1,0,1.60,0a0.80,0.80,0,1,0,-1.60,0zM512.73,181.55a0.80,0.80,0,1,0,1.60,0a0.80,0.80,0,1,0,-1.60,0zM515.31,183.04a0.80,0.80,0,1,0,1.60,0a0.80,0.80,0,1,0,-1.60,0zM517.89,184.53a0.80,0.80,0,1,0,1.60,0a0.80,0.80,0,1,0,-1.60,0zM520.47,186.03a0.80,0.80,0,1,0,1.60,0a0.80,0.80,0,1,0,-1.60,0zM523.05,187.53a0.80,0.80,0,1,0,1.60,0a0.80,0.80,0,1,0,-1.60,0zM525.63,189.04a0.80,0.80,0,1,0,1.60,0a0.80,0.80,0,1,0,-1.60,0zM528.21,190.56a0.80,0.80,0,1,0,1.60,0a0.80,0.80,0,1,0,-1.60,0zM530.79,192.08a0.80,0.80,0,1,0,1.60,0a0.80,0.80,0,1,0,-1.60,0zM533.38,193.61a0.80,0.80,0,1,0,1.60,0a0.80,0.80,0,1,0,-1.60,0zM535.96,195.15a0.80,0.80,0,1,0,1.60,0a0.80,0.80,0,1,0,-1.60,0zM538.54,196.69a0.80,0.80,0,1,0,1.60,0a0.80,0.80,0,1,0,-1.60,0zM541.12,198.23a0.80,0.80,0,1,0,1.60,0a0.80,0.80,0,1,0,-1.60,0zM543.70,199.79a0.80,0.80,0,1,0,1.60,0a0.80,0.80,0,1,0,-1.60,0zM546.28,201.35a0.80,0.80,0,1,0,1.60,0a0.80,0.80,0,1,0,-1.60,0zM548.86,202.91a0.80,0.80,0,1,0,1.60,0a0.80,0.80,0,1,0,-1.60,0zM551.44,204.48a0.80,0.80,0,1,0,1.60,0a0.80,0.80,0,1,0,-1.60,0zM554.02,206.06a0.80,0.80,0,1,0,1.60,0a0.80,0.80,0,1,0,-1.60,0zM556.60,207.64a0.80,0.80,0,1,0,1.60,0a0.80,0.80,0,1,0,-1.60,0zM559.18,209.23a0.80,0.80,0,1,0,1.60,0a0.80,0.80,0,1,0,-1.60,0zM561.76,210.83a0.80,0.80,0,1,0,1.60,0a0.80,0.80,0,1,0,-1.60,0zM564.34,212.43a0.80,0.80,0,1,0,1.60,0a0.80,0.80,0,1,0,-1.60,0zM566.92,214.04a0.80,0.80,0,1,0,1.60,0a0.80,0.80,0,1,0,-1.60,0zM569.50,215.65a0.80,0.80,0,1,0,1.60,0a0.80,0.80,0,1,0,-1.60,0zM572.08,217.27a0.80,0.80,0,1,0,1.60,0a0.80,0.80,0,1,0,-1.60,0zM574.66,218.90a0.80,0.80,0,1,0,1.60,0a0.80,0.80,0,1,0,-1.60,0zM577.24,220.53a0.80,0.80,0,1,0,1.60,0a0.80,0.80,0,1,0,-1.60,0zM579.83,222.17a0.80,0.80,0,1,0,1.60,0a0.80,0.80,0,1,0,-1.60,0zM582.41,223.81a0.80,0.80,0,1,0,1.60,0a0.80,0.80,0,1,0,-1.60,0zM584.99,225.46a0.80,0.80,0,1,0,1.60,0a0.80,0.80,0,1,0,-1.60,0zM587.57,227.11a0.80,0.80,0,1,0,1.60,0a0.80,0.80,0,1,0,-1.60,0zM590.15,228.77a0.80,0.80,0,1,0,1.60,0a0.80,0.80,0,1,0,-1.60,0zM592.73,230.44a0.80,0.80,0,1,0,1.60,0a0.80,0.80,0,1,0,-1.60,0zM595.31,232.11a0.80,0.80,0,1,0,1.60,0a0.80,0.80,0,1,0,-1.60,0zM597.89,233.79a0.80,0.80,0,1,0,1.60,0a0.80,0.80,0,1,0,-1.60,0zM600.47,235.48a0.80,0.80,0,1,0,1.60,0a0.80,0.80,0,1,0,-1.60,0zM603.05,237.17a0.80,0.80,0,1,0,1.60,0a0.80,0.80,0,1,0,-1.60,0zM605.63,238.86a0.80,0.80,0,1,0,1.60,0a0.80,0.80,0,1,0,-1.60,0zM608.21,240.57a0.80,0.80,0,1,0,1.60,0a0.80,0.80,0,1,0,-1.60,0zM610.79,242.27a0.80,0.80,0,1,0,1.60,0a0.80,0.80,0,1,0,-1.60,0zM613.37,243.99a0.80,0.80,0,1,0,1.60,0a0.80,0.80,0,1,0,-1.60,0zM615.95,245.71a0.80,0.80,0,1,0,1.60,0a0.80,0.80,0,1,0,-1.60,0zM618.53,247.44a0.80,0.80,0,1,0,1.60,0a0.80,0.80,0,1,0,-1.60,0zM621.11,249.17a0.80,0.80,0,1,0,1.60,0a0.80,0.80,0,1,0,-1.60,0zM623.69,250.90a0.80,0.80,0,1,0,1.60,0a0.80,0.80,0,1,0,-1.60,0zM626.28,252.65a0.80,0.80,0,1,0,1.60,0a0.80,0.80,0,1,0,-1.60,0zM628.86,254.40a0.80,0.80,0,1,0,1.60,0a0.80,0.80,0,1,0,-1.60,0zM631.44,256.15a0.80,0.80,0,1,0,1.60,0a0.80,0.80,0,1,0,-1.60,0zM634.02,257.91a0.80,0.80,0,1,0,1.60,0a0.80,0.80,0,1,0,-1.60,0zM636.60,259.68a0.80,0.80,0,1,0,1.60,0a0.80,0.80,0,1,0,-1.60,0zM639.18,261.46a0.80,0.80,0,1,0,1.60,0a0.80,0.80,0,1,0,-1.60,0zM641.76,263.23a0.80,0.80,0,1,0,1.60,0a0.80,0.80,0,1,0,-1.60,0zM644.34,265.02a0.80,0.80,0,1,0,1.60,0a0.80,0.80,0,1,0,-1.60,0zM646.92,266.81a0.80,0.80,0,1,0,1.60,0a0.80,0.80,0,1,0,-1.60,0zM649.50,268.61a0.80,0.80,0,1,0,1.60,0a0.80,0.80,0,1,0,-1.60,0zM652.08,270.41a0.80,0.80,0,1,0,1.60,0a0.80,0.80,0,1,0,-1.60,0zM654.66,272.22a0.80,0.80,0,1,0,1.60,0a0.80,0.80,0,1,0,-1.60,0zM657.24,274.03a0.80,0.80,0,1,0,1.60,0a0.80,0.80,0,1,0,-1.60,0zM659.82,275.85a0.80,0.80,0,1,0,1.60,0a0.80,0.80,0,1,0,-1.60,0zM662.40,277.68a0.80,0.80,0,1,0,1.60,0a0.80,0.80,0,1,0,-1.60,0zM664.98,279.51a0.80,0.80,0,1,0,1.60,0a0.80,0.80,0,1,0,-1.60,0zM667.56,281.35a0.80,0.80,0,1,0,1.60,0a0.80,0.80,0,1,0,-1.60,0zM670.14,283.19a0.80,0.80,0,1,0,1.60,0a0.80,0.80,0,1,0,-1.60,0zM672.73,285.04a0.80,0.80,0,1,0,1.60,0a0.80,0.80,0,1,0,-1.60,0zM675.31,286.90a0.80,0.80,0,1,0,1.60,0a0.80,0.80,0,1,0,-1.60,0zM677.89,288.76a0.80,0.80,0,1,0,1.60,0a0.80,0.80,0,1,0,-1.60,0zM680.47,290.63a0.80,0.80,0,1,0,1.60,0a0.80,0.80,0,1,0,-1.60,0zM683.05,292.50a0.80,0.80,0,1,0,1.60,0a0.80,0.80,0,1,0,-1.60,0zM685.63,294.38a0.80,0.80,0,1,0,1.60,0a0.80,0.80,0,1,0,-1.60,0zM688.21,296.26a0.80,0.80,0,1,0,1.60,0a0.80,0.80,0,1,0,-1.60,0zM690.79,298.16a0.80,0.80,0,1,0,1.60,0a0.80,0.80,0,1,0,-1.60,0zM693.37,300.05a0.80,0.80,0,1,0,1.60,0a0.80,0.80,0,1,0,-1.60,0zM695.95,301.96a0.80,0.80,0,1,0,1.60,0a0.80,0.80,0,1,0,-1.60,0zM698.53,303.86a0.80,0.80,0,1,0,1.60,0a0.80,0.80,0,1,0,-1.60,0zM701.11,305.78a0.80,0.80,0,1,0,1.60,0a0.80,0.80,0,1,0,-1.60,0zM703.69,307.70a0.80,0.80,0,1,0,1.60,0a0.80,0.80,0,1,0,-1.60,0zM706.27,309.63a0.80,0.80,0,1,0,1.60,0a0.80,0.80,0,1,0,-1.60,0zM708.85,311.56a0.80,0.80,0,1,0,1.60,0a0.80,0.80,0,1,0,-1.60,0zM711.43,313.50a0.80,0.80,0,1,0,1.60,0a0.80,0.80,0,1,0,-1.60,0zM714.01,315.44a0.80,0.80,0,1,0,1.60,0a0.80,0.80,0,1,0,-1.60,0zM716.59,317.40a0.80,0.80,0,1,0,1.60,0a0.80,0.80,0,1,0,-1.60,0zM719.18,319.35a0.80,0.80,0,1,0,1.60,0a0.80,0.80,0,1,0,-1.60,0zM721.76,321.32a0.80,0.80,0,1,0,1.60,0a0.80,0.80,0,1,0,-1.60,0zM724.34,323.28a0.80,0.80,0,1,0,1.60,0a0.80,0.80,0,1,0,-1.60,0zM726.92,325.26a0.80,0.80,0,1,0,1.60,0a0.80,0.80,0,1,0,-1.60,0zM729.50,327.24a0.80,0.80,0,1,0,1.60,0a0.80,0.80,0,1,0,-1.60,0zM732.08,329.23a0.80,0.80,0,1,0,1.60,0a0.80,0.80,0,1,0,-1.60,0zM734.66,331.22a0.80,0.80,0,1,0,1.60,0a0.80,0.80,0,1,0,-1.60,0zM737.24,333.22a0.80,0.80,0,1,0,1.60,0a0.80,0.80,0,1,0,-1.60,0zM739.82,335.22a0.80,0.80,0,1,0,1.60,0a0.80,0.80,0,1,0,-1.60,0zM742.40,337.23a0.80,0.80,0,1,0,1.60,0a0.80,0.80,0,1,0,-1.60,0zM744.98,339.25a0.80,0.80,0,1,0,1.60,0a0.80,0.80,0,1,0,-1.60,0zM747.56,341.28a0.80,0.80,0,1,0,1.60,0a0.80,0.80,0,1,0,-1.60,0zM750.14,343.30a0.80,0.80,0,1,0,1.60,0a0.80,0.80,0,1,0,-1.60,0zM752.72,345.34a0.80,0.80,0,1,0,1.60,0a0.80,0.80,0,1,0,-1.60,0zM755.30,347.38a0.80,0.80,0,1,0,1.60,0a0.80,0.80,0,1,0,-1.60,0zM757.88,349.43a0.80,0.80,0,1,0,1.60,0a0.80,0.80,0,1,0,-1.60,0zM760.46,351.48a0.80,0.80,0,1,0,1.60,0a0.80,0.80,0,1,0,-1.60,0zM763.04,353.54a0.80,0.80,0,1,0,1.60,0a0.80,0.80,0,1,0,-1.60,0zM765.63,355.61a0.80,0.80,0,1,0,1.60,0a0.80,0.80,0,1,0,-1.60,0zM768.21,357.68a0.80,0.80,0,1,0,1.60,0a0.80,0.80,0,1,0,-1.60,0zM770.79,359.76a0.80,0.80,0,1,0,1.60,0a0.80,0.80,0,1,0,-1.60,0zM773.37,361.84a0.80,0.80,0,1,0,1.60,0a0.80,0.80,0,1,0,-1.60,0zM775.95,363.93a0.80,0.80,0,1,0,1.60,0a0.80,0.80,0,1,0,-1.60,0zM778.53,366.03a0.80,0.80,0,1,0,1.60,0a0.80,0.80,0,1,0,-1.60,0zM781.11,368.13a0.80,0.80,0,1,0,1.60,0a0.80,0.80,0,1,0,-1.60,0zM783.69,370.24a0.80,0.80,0,1,0,1.60,0a0.80,0.80,0,1,0,-1.60,0zM786.27,372.35a0.80,0.80,0,1,0,1.60,0a0.80,0.80,0,1,0,-1.60,0zM788.85,374.48a0.80,0.80,0,1,0,1.60,0a0.80,0.80,0,1,0,-1.60,0zM791.43,376.60a0.80,0.80,0,1,0,1.60,0a0.80,0.80,0,1,0,-1.60,0zM794.01,378.74a0.80,0.80,0,1,0,1.60,0a0.80,0.80,0,1,0,-1.60,0zM796.59,380.88a0.80,0.80,0,1,0,1.60,0a0.80,0.80,0,1,0,-1.60,0zM799.17,383.02a0.80,0.80,0,1,0,1.60,0a0.80,0.80,0,1,0,-1.60,0zM801.75,385.17a0.80,0.80,0,1,0,1.60,0a0.80,0.80,0,1,0,-1.60,0zM804.33,387.33a0.80,0.80,0,1,0,1.60,0a0.80,0.80,0,1,0,-1.60,0zM806.91,389.49a0.80,0.80,0,1,0,1.60,0a0.80,0.80,0,1,0,-1.60,0zM809.49,391.66a0.80,0.80,0,1,0,1.60,0a0.80,0.80,0,1,0,-1.60,0zM812.08,393.84a0.80,0.80,0,1,0,1.60,0a0.80,0.80,0,1,0,-1.60,0zM814.66,396.02a0.80,0.80,0,1,0,1.60,0a0.80,0.80,0,1,0,-1.60,0zM817.24,398.21a0.80,0.80,0,1,0,1.60,0a0.80,0.80,0,1,0,-1.60,0zM819.82,400.41a0.80,0.80,0,1,0,1.60,0a0.80,0.80,0,1,0,-1.60,0zM822.40,402.61a0.80,0.80,0,1,0,1.60,0a0.80,0.80,0,1,0,-1.60,0zM824.98,404.81a0.80,0.80,0,1,0,1.60,0a0.80,0.80,0,1,0,-1.60,0zM827.56,407.03a0.80,0.80,0,1,0,1.60,0a0.80,0.80,0,1,0,-1.60,0zM830.14,409.25a0.80,0.80,0,1,0,1.60,0a0.80,0.80,0,1,0,-1.60,0zM832.72,411.47a0.80,0.80,0,1,0,1.60,0a0.80,0.80,0,1,0,-1.60,0zM835.30,413.70a0.80,0.80,0,1,0,1.60,0a0.80,0.80,0,1,0,-1.60,0zM837.88,415.94a0.80,0.80,0,1,0,1.60,0a0.80,0.80,0,1,0,-1.60,0zM840.46,418.19a0.80,0.80,0,1,0,1.60,0a0.80,0.80,0,1,0,-1.60,0zM843.04,420.44a0.80,0.80,0,1,0,1.60,0a0.80,0.80,0,1,0,-1.60,0zM845.62,422.69a0.80,0.80,0,1,0,1.60,0a0.80,0.80,0,1,0,-1.60,0zM848.20,424.96a0.80,0.80,0,1,0,1.60,0a0.80,0.80,0,1,0,-1.60,0zM850.78,427.22a0.80,0.80,0,1,0,1.60,0a0.80,0.80,0,1,0,-1.60,0z" style="stroke: black; fill: black;"></path><path d="M72.41666666666667,219.17114572182524h10v10h-10zM74.99722222222223,215.88700566432055h10v10h-10zM77.5777777777778,212.60286560681595h10v10h-10zM80.15833333333336,209.31872554931118h10v10h-10zM82.73888888888891,206.0345854918065h10v10h-10zM85.31944444444446,202.75044543430178h10v10h-10zM87.90000000000002,199.46630537679718h10v10h-10zM90.48055555555558,196.1821653192925h10v10h-10zM93.06111111111113,192.89802526178778h10v10h-10zM95.6416666666667,189.61388520428315h10v10h-10zM98.22222222222226,186.32974514677844h10v10h-10zM100.80277777777782,183.04560508927372h10v10h-10zM103.38333333333337,179.76146503176903h10v10h-10zM105.96388888888887,176.47732497426438h10v10h-10zM108.54444444444442,173.19318491675966h10v10h-10zM111.12499999999999,169.90904485925498h10v10h-10zM113.70555555555555,166.62490480175026h10v10h-10zM116.2861111111111,163.34076474424566h10v10h-10zM118.86666666666666,160.05662468674092h10v10h-10zM121.44722222222221,156.77248462923626h10v10h-10zM124.02777777777777,153.48834457173157h10v10h-10zM126.60833333333332,150.20420451422692h10v10h-10zM129.1888888888889,146.9200644567222h10v10h-10zM131.76944444444445,143.63592439921752h10v10h-10zM134.35,140.3517843417128h10v10h-10zM136.93055555555557,137.06764428420814h10v10h-10zM139.51111111111112,133.7835042267035h10v10h-10zM142.0916666666667,130.49936416919874h10v10h-10zM144.67222222222225,127.21522411169411h10v10h-10zM147.2527777777778,123.9310840541894h10v10h-10zM149.83333333333334,120.64694399668474h10v10h-10zM152.41388888888892,117.36280393918004h10v10h-10zM154.99444444444447,114.07866388167534h10v10h-10zM157.57500000000002,110.79452382417064h10v10h-10zM160.1555555555556,107.51038376666598h10v10h-10zM162.73611111111114,104.22624370916134h10v10h-10zM165.31666666666672,100.94199418032137h10v10h-10zM167.89722222222224,97.65796359415194h10v10h-10zM170.47777777777776,94.37371406531202h10v10h-10zM173.0583333333333,91.08935506513684h10v10h-10zM175.63888888888886,87.80510553629688h10v10h-10zM178.21944444444443,84.5203086507807h10v10h-10zM180.79999999999998,81.21996683565895h10v10h-10zM183.38055555555556,77.9477591536966h10v10h-10zM185.9611111111111,74.65978759945813h10v10h-10zM188.54166666666666,71.37761802598794h10v10h-10zM191.12222222222223,68.04421586762066h10v10h-10zM193.70277777777775,64.7506612752845h10v10h-10zM196.28333333333333,61.265531846260515h10v10h-10zM198.86388888888888,58.06546577422799h10v10h-10zM201.44444444444446,54.96414284659106h10v10h-10zM204.025,54.87755102040816h10v10h-10zM206.60555555555558,54.95680826712926h10v10h-10zM209.18611111111113,55.64406930982977h10v10h-10zM211.76666666666668,56.00828044220702h10v10h-10zM214.34722222222223,55.95639102929847h10v10h-10zM216.92777777777778,56.1748958144578h10v10h-10zM219.50833333333333,56.70243817902826h10v10h-10zM222.08888888888887,57.86009754929867h10v10h-10zM224.66944444444445,57.97515192264659h10v10h-10zM227.25,58.33980094036483h10v10h-10zM229.83055555555555,58.29853024697553h10v10h-10zM232.4111111111111,59.57825015604992h10v10h-10zM234.9916666666667,59.50052550802228h10v10h-10zM237.57222222222225,60.89913128717828h10v10h-10zM240.15277777777777,61.738776428546984h10v10h-10zM242.73333333333332,62.33780357503581h10v10h-10zM245.31388888888893,62.04091731383737h10v10h-10zM247.89444444444447,61.92345457111401h10v10h-10zM250.47499999999997,64.25420876992503h10v10h-10zM253.05555555555554,64.80944738231385h10v10h-10zM255.63611111111112,65.54104431579063h10v10h-10zM258.21666666666664,64.8608989098814h10v10h-10zM260.7972222222222,66.64758057249922h10v10h-10zM263.3777777777778,67.82811945183686h10v10h-10zM265.95833333333337,68.46206795427055h10v10h-10zM268.5388888888889,69.12885785727926h10v10h-10zM271.11944444444447,69.70500549470081h10v10h-10zM273.7,70.60901978119661h10v10h-10zM276.28055555555557,71.56174881187876h10v10h-10zM278.86111111111114,72.38475431028935h10v10h-10zM281.44166666666666,73.17579417880701h10v10h-10zM284.02222222222224,73.97011818738217h10v10h-10zM286.6027777777777,74.78217655226779h10v10h-10zM289.1833333333334,75.65356838085906h10v10h-10zM291.76388888888886,76.49540294893274h10v10h-10zM294.3444444444445,77.34249214109849h10v10h-10zM296.92499999999995,78.18126151178514h10v10h-10zM299.5055555555556,79.07564232077894h10v10h-10zM302.0861111111111,79.96115595161749h10v10h-10zM304.6666666666667,80.85367574791194h10v10h-10zM307.2472222222222,81.74937021292872h10v10h-10zM309.82777777777784,82.66652105965453h10v10h-10zM312.40833333333336,83.58673710376738h10v10h-10zM314.9888888888889,84.51625821137647h10v10h-10zM317.56944444444446,85.4554127964875h10v10h-10zM320.15,86.40474821577688h10v10h-10zM322.73055555555555,87.36262239921574h10v10h-10zM325.31111111111113,88.32706486276965h10v10h-10zM327.89166666666665,89.30333023053053h10v10h-10zM330.47222222222223,90.2886817191172h10v10h-10zM333.05277777777775,91.28322879986482h10v10h-10zM335.6333333333334,92.28511046007426h10v10h-10zM338.2138888888889,93.29596876977418h10v10h-10zM340.7944444444445,94.3155847862942h10v10h-10zM343.375,95.34330168162263h10v10h-10zM345.9555555555555,96.37528795902588h10v10h-10zM348.53611111111115,97.42435176472807h10v10h-10zM351.1166666666667,98.47724706716407h10v10h-10zM353.69722222222225,99.53846219107913h10v10h-10zM356.2777777777777,100.60788766513787h10v10h-10zM358.8583333333334,101.68541401800519h10v10h-10zM361.43888888888887,102.77093177834571h10v10h-10zM364.0194444444445,103.86433147482428h10v10h-10zM366.59999999999997,104.96572257877607h10v10h-10zM369.18055555555554,106.07510509020122h10v10h-10zM371.7611111111111,107.1921505950938h10v10h-10zM374.34166666666664,108.31707803612443h10v10h-10zM376.9222222222222,109.44966847062248h10v10h-10zM379.50277777777774,110.58981242725291h10v10h-10zM382.0833333333333,111.73772884868606h10v10h-10zM384.6638888888889,112.89319879225138h10v10h-10zM387.24444444444447,114.05611278661387h10v10h-10zM389.825,115.22647083177324h10v10h-10zM392.4055555555555,116.40438239906493h10v10h-10zM394.98611111111114,117.58962854581837h10v10h-10zM397.56666666666666,118.78220927203354h10v10h-10zM400.14722222222224,119.98212457771051h10v10h-10zM402.72777777777776,121.18926499151401h10v10h-10zM405.30833333333334,122.40363051344399h10v10h-10zM407.8888888888889,123.62522114350048h10v10h-10zM410.4694444444445,124.8539274103482h10v10h-10zM413.05,126.08985878532246h10v10h-10zM415.63055555555553,127.33279632575278h10v10h-10zM418.21111111111117,128.58274003163905h10v10h-10zM420.7916666666667,129.83968990298138h10v10h-10zM423.37222222222226,131.10364593977965h10v10h-10zM425.9527777777777,132.37460814203394h10v10h-10zM428.53333333333336,133.6523575670738h10v10h-10zM431.1138888888889,134.93711315756963h10v10h-10zM433.69444444444446,136.22865597085092h10v10h-10zM436.275,137.52698600691775h10v10h-10zM438.8555555555555,138.83221273710544h10v10h-10zM441.4361111111111,140.1441172187433h10v10h-10zM444.01666666666665,141.46280892316668h10v10h-10zM446.59722222222223,142.7881783790403h10v10h-10zM449.17777777777775,144.1202255863642h10v10h-10zM451.7583333333333,145.45895054513835h10v10h-10zM454.3388888888889,146.80435325536277h10v10h-10zM456.9194444444445,148.1563242457022h10v10h-10zM459.5,149.51486351615668h10v10h-10zM462.0805555555555,150.8799710667261h10v10h-10zM464.6611111111111,152.25164689741058h10v10h-10zM467.2416666666666,153.62989100821002h10v10h-10zM469.8222222222222,155.01448445645397h10v10h-10zM472.4027777777778,156.40564618481298h10v10h-10zM474.9833333333334,157.80326672195173h10v10h-10zM477.5638888888889,159.20723659653498h10v10h-10zM480.1444444444445,160.617665279898h10v10h-10zM482.725,162.03455277204074h10v10h-10zM485.30555555555554,163.45768013029277h10v10h-10zM487.8861111111111,164.88726629732463h10v10h-10zM490.46666666666664,166.3230923304656h10v10h-10zM493.0472222222222,167.76526770105116h10v10h-10zM495.62777777777774,169.21379240908126h10v10h-10zM498.2083333333333,170.66855698322053h10v10h-10zM500.78888888888883,172.12967089480443h10v10h-10zM503.3694444444444,173.5969152011623h10v10h-10zM505.94999999999993,175.0705088449646h10v10h-10zM508.53055555555557,176.55023288354099h10v10h-10zM511.1111111111111,178.03619678822662h10v10h-10zM513.6916666666667,179.52829108768628h10v10h-10zM516.2722222222222,181.02662525325513h10v10h-10zM518.8527777777779,182.53108981359802h10v10h-10zM521.4333333333333,184.0416847687149h10v10h-10zM524.0138888888889,185.5585195899411h10v10h-10zM526.5944444444444,187.08137533460598h10v10h-10zM529.1750000000001,188.6103614740449h10v10h-10zM531.7555555555556,190.14547800825784h10v10h-10zM534.336111111111,191.68661546590957h10v10h-10zM536.9166666666667,193.23388331833522h10v10h-10zM539.4972222222221,194.78728156553493h10v10h-10zM542.0777777777778,196.34659126483822h10v10h-10zM544.6583333333333,197.91203135891544h10v10h-10zM547.2388888888889,199.48349237643146h10v10h-10zM549.8194444444445,201.06097431738615h10v10h-10zM552.4,202.6444771817797h10v10h-10zM554.9805555555555,204.23400096961197h10v10h-10zM557.5611111111111,205.8294362095477h10v10h-10zM560.1416666666667,207.43100184425757h10v10h-10zM562.7222222222223,209.0384789310708h10v10h-10zM565.3027777777777,210.6518674699876h10v10h-10zM567.8833333333333,212.27138640367843h10v10h-10zM570.463888888889,213.89670731813754h10v10h-10zM573.0444444444445,215.52804915603525h10v10h-10zM575.625,217.1653024460367h10v10h-10zM578.2055555555556,218.80857665947673h10v10h-10zM580.786111111111,220.45776232502033h10v10h-10zM583.3666666666668,222.11285944266746h10v10h-10zM585.9472222222222,223.77386801241806h10v10h-10zM588.5277777777777,225.44078803427223h10v10h-10zM591.1083333333333,227.11372897956508h10v10h-10zM593.688888888889,228.79247190562623h10v10h-10zM596.2694444444445,230.47723575512612h10v10h-10zM598.8499999999999,232.16780158539433h10v10h-10zM601.4305555555555,233.86427886776596h10v10h-10zM604.0111111111112,235.56666760224115h10v10h-10zM606.5916666666667,237.27496778881982h10v10h-10zM609.1722222222222,238.98917942750208h10v10h-10zM611.7527777777777,240.70930251828779h10v10h-10zM614.3333333333333,242.4352275898417h10v10h-10zM616.913888888889,244.16717358483447h10v10h-10zM619.4944444444444,245.90492156059548h10v10h-10zM622.075,247.6485809884599h10v10h-10zM624.6555555555555,249.39804239709267h10v10h-10zM627.2361111111111,251.15352472916408h10v10h-10zM629.8166666666667,252.91480904200387h10v10h-10zM632.3972222222222,254.6820048069472h10v10h-10zM634.9777777777778,256.45511202399405h10v10h-10zM637.5583333333334,258.234021221809h10v10h-10zM640.1388888888889,260.0189513430627h10v10h-10zM642.7194444444444,261.8096834450849h10v10h-10zM645.3,263.6063269992104h10v10h-10zM647.8805555555556,265.4087725341042h10v10h-10zM650.4611111111111,267.2172389924368h10v10h-10zM653.0416666666666,269.0315074315377h10v10h-10zM655.6222222222223,270.85179679407725h10v10h-10zM658.2027777777778,272.67788813738514h10v10h-10zM660.7833333333333,274.50989093279645h10v10h-10zM663.3638888888889,276.3478051803113h10v10h-10zM665.9444444444445,278.1916308799297h10v10h-10zM668.5250000000001,280.04136803165164h10v10h-10zM671.1055555555555,281.8970166354769h10v10h-10zM673.686111111111,283.7585766914059h10v10h-10zM676.2666666666668,285.62604819943823h10v10h-10zM678.8472222222222,287.4994311595742h10v10h-10zM681.4277777777778,289.37883504314885h10v10h-10zM684.0083333333332,291.2641503788271h10v10h-10zM686.588888888889,293.1553771666088h10v10h-10zM689.1694444444445,295.05251540649397h10v10h-10zM691.75,296.95556509848274h10v10h-10zM694.3305555555555,298.8646357139102h10v10h-10zM696.911111111111,300.77972725277635h10v10h-10zM699.4916666666667,302.7007302437462h10v10h-10zM702.0722222222223,304.62764468681945h10v10h-10zM704.6527777777777,306.56058005333136h10v10h-10zM707.2333333333332,308.499426871947h10v10h-10zM709.8138888888889,310.4444040853365h10v10h-10zM712.3944444444445,312.39529275082947h10v10h-10zM714.975,314.35209286842604h10v10h-10zM717.5555555555554,316.31502338079656h10v10h-10zM720.1361111111111,318.28386534527067h10v10h-10zM722.7166666666668,320.2588377045187h10v10h-10zM725.2972222222222,322.2397215158703h10v10h-10zM727.8777777777777,324.2266262506606h10v10h-10zM730.4583333333333,326.219661380225h10v10h-10zM733.038888888889,328.21860796189276h10v10h-10zM735.6194444444445,330.2236849383347h10v10h-10zM738.1999999999999,332.23478283821527h10v10h-10zM740.7805555555556,334.25201113286994h10v10h-10zM743.3611111111111,336.27515087962803h10v10h-10zM745.9416666666667,338.3045304924955h10v10h-10zM748.5222222222222,340.33982155746634h10v10h-10zM751.1027777777776,342.38124301721126h10v10h-10zM753.6833333333333,344.4287948717302h10v10h-10zM756.2638888888889,346.48236764968783h10v10h-10zM758.8444444444444,348.5420708224195h10v10h-10zM761.425,350.6079043899253h10v10h-10zM764.0055555555555,352.67986835220495h10v10h-10zM766.5861111111111,354.7578532379235h10v10h-10zM769.1666666666666,356.84196851841585h10v10h-10zM771.7472222222221,358.9322141936823h10v10h-10zM774.3277777777778,361.0285902637229h10v10h-10zM776.9083333333333,363.13109672853733h10v10h-10zM779.4888888888889,365.23973358812583h10v10h-10zM782.0694444444443,367.35450084248845h10v10h-10zM784.65,369.4753984916249h10v10h-10zM787.2305555555556,371.60253600687076h10v10h-10zM789.811111111111,373.7356944455552h10v10h-10zM792.3916666666667,375.875092750349h10v10h-10zM794.9722222222223,378.0206214499168h10v10h-10zM797.5527777777778,380.1722805442587h10v10h-10zM800.1333333333333,382.3300700333745h10v10h-10zM802.7138888888888,384.49409938859964h10v10h-10zM805.2944444444445,386.66425913859865h10v10h-10zM807.8750000000001,388.84054928337173h10v10h-10zM810.4555555555555,391.0229698229189h10v10h-10zM813.036111111111,393.2116302285752h10v10h-10zM815.6166666666666,395.4064210290056h10v10h-10zM818.1972222222222,397.60745169554525h10v10h-10zM820.7777777777778,399.81450328552364h10v10h-10zM823.3583333333332,402.02790421294657h10v10h-10zM825.9388888888889,404.2473260638082h10v10h-10zM828.5194444444444,406.4728783094439h10v10h-10zM831.1,408.7046704211889h10v10h-10zM833.6805555555555,410.9425929277078h10v10h-10zM836.2611111111111,413.18675530033596h10v10h-10zM838.8416666666667,415.4369385964029h10v10h-10zM841.4222222222223,417.69336175857916h10v10h-10zM844.0027777777777,419.9558058441942h10v10h-10zM846.5833333333333,422.2244897959183h10v10h-10z" style="fill: none; pointer-events: visiblefill;"></path></g></svg><g><g transform="translate(0,486)"><path d="M0,0h929M0,-8V0M26,-8V0M52,-8V0M77,-15V0M103,-8V0M129,-8V0M155,-8V0M181,-8V0M206,-15V0M232,-8V0M258,-8V0M284,-8V0M310,-8V0M335,-15V0M361,-8V0M387,-8V0M413,-8V0M439,-8V0M465,-15V0M490,-8V0M516,-8V0M542,-8V0M568,-8V0M594,-15V0M619,-8V0M645,-8V0M671,-8V0M697,-8V0M723,-15V0M748,-8V0M774,-8V0M800,-8V0M826,-8V0M852,-15V0M877,-8V0M903,-8V0M929,-8V0" style="stroke: black; stroke-width: 1;"></path><g font-family="Arial" font-size="21" xml:space="preserve" fill="black" text-anchor="middle"><text dy=".8em" transform="translate(77,4)">-1.5</text><text dy=".8em" transform="translate(206,4)">-1</text><text dy=".8em" transform="translate(335,4)">-0.5</text><text dy=".8em" transform="translate(465,4)">0</text><text dy=".8em" transform="translate(594,4)">0.5</text><text dy=".8em" transform="translate(723,4)">1</text><text dy=".8em" transform="translate(852,4)">1.5</text></g><rect x="0" y="0" width="929" height="24" style="opacity: 0; cursor: crosshair;"></rect><g font-family="Arial" font-size="21" xml:space="preserve" transform="translate(929,34)" style="cursor: move;"><text fill="black" text-anchor="end" dominant-baseline="middle">Delta</text></g></g><g><path d="M0,0v486M14,476H0M14,465H0M14,454H0M28,443H0M14,432H0M14,421H0M14,410H0M14,399H0M28,388H0M14,377H0M14,366H0M14,356H0M14,345H0M28,334H0M14,323H0M14,312H0M14,301H0M14,290H0M28,279H0M14,268H0M14,257H0M14,246H0M14,235H0M28,224H0M14,213H0M14,202H0M14,191H0M14,180H0M28,169H0M14,158H0M14,148H0M14,137H0M14,126H0M28,115H0M14,104H0M14,93H0M14,82H0M14,71H0M28,60H0M14,49H0M14,38H0M14,27H0M14,16H0M28,5H0" style="stroke: black; stroke-width: 1;"></path><g font-family="Arial" font-size="21" xml:space="preserve" fill="black" text-anchor="end"><text dominant-baseline="middle" transform="translate(-4,443)">-6.5</text><text dominant-baseline="middle" transform="translate(-4,388)">-6</text><text dominant-baseline="middle" transform="translate(-4,334)">-5.5</text><text dominant-baseline="middle" transform="translate(-4,279)">-5</text><text dominant-baseline="middle" transform="translate(-4,224)">-4.5</text><text dominant-baseline="middle" transform="translate(-4,169)">-4</text><text dominant-baseline="middle" transform="translate(-4,115)">-3.5</text><text dominant-baseline="middle" transform="translate(-4,60)">-3</text><text dominant-baseline="middle" transform="translate(-4,5)">-2.5</text></g><rect x="-39" y="0" width="39" height="486" style="opacity: 0; cursor: crosshair;"></rect><g font-family="Arial" font-size="21" xml:space="preserve" transform="translate(-64)" style="cursor: move;"><text fill="black" text-anchor="end" dominant-baseline="middle" transform="rotate(270)">Total Ground Energy</text></g></g><path d="M77,0v486M206,0v486M335,0v486M465,0v486M594,0v486M723,0v486M852,0v486" style="stroke: black; stroke-width: 1; stroke-dasharray: 1, 2;"></path><path d="M0,443h929M0,388h929M0,334h929M0,279h929M0,224h929M0,169h929M0,115h929M0,60h929M0,5h929" style="stroke: black; stroke-width: 1; stroke-dasharray: 1, 2;"></path></g><path d="M2,2h15v-5h-20v20h5Z" style="opacity: 0; cursor: nw-resize;"></path><path d="M927,2h-15v-5h20v20h-5 Z" style="opacity: 0; cursor: ne-resize;"></path><path d="M2,484h15v5h-20v-20h5Z" style="opacity: 0; cursor: sw-resize;"></path><path d="M927,484h-15v5h20v-20h-5Z" style="opacity: 0; cursor: se-resize;"></path><path d="M-3,18h5v450h-5Z" style="opacity: 0; cursor: w-resize;"></path><path d="M932,18h-5v450h5Z" style="opacity: 0; cursor: e-resize;"></path><path d="M18,-3v5h893v-5Z" style="opacity: 0; cursor: n-resize;"></path><path d="M18,489v-5h893v5Z" style="opacity: 0; cursor: s-resize;"></path></g><g transform="translate(116,3)" font-family="Arial" font-size="30" xml:space="preserve" style="cursor: move;"><path d="M0,0H929V40H0Z" style="fill: none; pointer-events: visiblefill;"></path><text fill="black" text-anchor="middle" dy=".8em" transform="translate(465)">Lanczos alogrithm, num = 12, error = 1e-13</text><path d="M2,2h15v-5h-20v20h5Z" style="opacity: 0; cursor: nw-resize;"></path><path d="M927,2h-15v-5h20v20h-5 Z" style="opacity: 0; cursor: ne-resize;"></path><path d="M2,38h15v5h-20v-20h5Z" style="opacity: 0; cursor: sw-resize;"></path><path d="M927,38h-15v5h20v-20h-5Z" style="opacity: 0; cursor: se-resize;"></path><path d="M-3,18h5v4h-5Z" style="opacity: 0; cursor: w-resize;"></path><path d="M932,18h-5v4h5Z" style="opacity: 0; cursor: e-resize;"></path><path d="M18,-3v5h893v-5Z" style="opacity: 0; cursor: n-resize;"></path><path d="M18,43v-5h893v5Z" style="opacity: 0; cursor: s-resize;"></path></g></g></svg>