<svg width="453" height="607" xmlns="http://www.w3.org/2000/svg"><defs><pattern id="pat_3001_1" patternUnits="userSpaceOnUse" width="2" height="2"><path d="M0,0h1v1h-1zM1,1h1v1h-1z" style="fill: black;"></path></pattern><pattern id="pat_3002_1" patternUnits="userSpaceOnUse" width="4" height="2"><path d="M1,0h1v1h-1zM3,1h1v1h-1z" style="fill: black;"></path></pattern><pattern id="pat_3003_1" patternUnits="userSpaceOnUse" width="4" height="4"><path d="M2,1h1v1h-1zM0,3h1v1h-1z" style="fill: black;"></path></pattern><pattern id="pat_3004_1" patternUnits="userSpaceOnUse" width="8" height="8"><path d="M8,0L0,8" style="stroke: black; stroke-width: 1;"></path></pattern><pattern id="pat_3005_1" patternUnits="userSpaceOnUse" width="8" height="8"><path d="M0,0L8,8" style="stroke: black; stroke-width: 1;"></path></pattern><pattern id="pat_3006_1" patternUnits="userSpaceOnUse" width="4" height="4"><path d="M1,0v4" style="stroke: black; stroke-width: 1;"></path></pattern><pattern id="pat_3007_1" patternUnits="userSpaceOnUse" width="4" height="4"><path d="M0,1h4" style="stroke: black; stroke-width: 1;"></path></pattern><pattern id="pat_3010_1" patternUnits="userSpaceOnUse" width="10" height="10"><path d="M0,2h10M0,7h10M2,0v2M7,2v5M2,7v3" style="stroke: black; stroke-width: 1;"></path></pattern><pattern id="pat_3021_1" patternUnits="userSpaceOnUse" width="8" height="8"><path d="M8,2h-2v4h-4v2M2,0v2h-2" style="stroke: black; stroke-width: 1; fill: none;"></path></pattern><pattern id="pat_3022_1" patternUnits="userSpaceOnUse" width="8" height="8"><path d="M0,2h2v4h4v2M6,0v2h2" style="stroke: black; stroke-width: 1; fill: none;"></path></pattern></defs><title>12_13.root/c1;1</title><path d="M0,0H453V607H0Z" style="pointer-events: visiblefill; fill: white;"></path><g><g transform="translate(45,61)"><title></title><path d="M0,0H362V486H0Z" style="fill: white; stroke: black; stroke-width: 1; pointer-events: visiblefill; cursor: default;"></path><svg x="0" y="0" overflow="hidden" width="362" height="486" viewBox="0 0 362 486" style="pointer-events: visiblefill; cursor: default;"><g style="cursor: move;"><path d="M30,222l1,-4l1,-4l1,-3l1,-4l1,-3l1,-4l1,-4l1,-3l1,-4l1,-4l1,-3l1,-4l1,-3l1,-4l1,-4l1,-3l1,-4l1,-4l1,-3l1,-4l1,-3l1,-4l1,-4l1,-3l1,-4l1,-4l1,-3l1,-4l1,-3l1,-4l1,-4l1,-3l1,-4l1,-3l1,-4l1,-4l1,-3l1,-4l1,-4l1,-3l1,-4l1,-3l1,-4l1,-4l1,-3l1,-4l1,-4l1,-3l1,-4l1,-3l1,-1l1,1h1l1,1h2l1,1l1,1h4l1,2h1l1,1l1,1l1,1l1,-1h1l1,3h1l1,1h1l1,1l1,2h1l1,1l1,1l1,1l1,1l1,1l1,1l1,1h1l1,1l1,1l1,1l1,1l1,1l1,1l1,1l1,1l1,1l1,1l1,1l1,1l1,1l1,1l1,1l1,1l1,2l1,1l1,1l1,1l1,1l1,1l1,1l1,1l1,2l1,1l1,1l1,1l1,1l1,2l1,1l1,1l1,1l1,1l1,2l1,1l1,1l1,1l1,2l1,1l1,1l1,2l1,1l1,1l1,2l1,1l1,1l1,2l1,1l1,1l1,2l1,1l1,2l1,1l1,1l1,2l1,1l1,2l1,1l1,2l1,1l1,1l1,2l1,1l1,2l1,1l1,2l1,1l1,2l1,1l1,2l1,1l1,2l1,2l1,1l1,2l1,1l1,2l1,1l1,2l1,2l1,1l1,2l1,1l1,2l1,2l1,1l1,2l1,2l1,1l1,2l1,2l1,1l1,2l1,2l1,1l1,2l1,2l1,1l1,2l1,2l1,2l1,1l1,2l1,2l1,2l1,1l1,2l1,2l1,2l1,2l1,1l1,2l1,2l1,2l1,2l1,2l1,1l1,2l1,2l1,2l1,2l1,2l1,2l1,1l1,2l1,2l1,2l1,2l1,2l1,2l1,2l1,2l1,2l1,2l1,2l1,2l1,2l1,2l1,2l1,2l1,2l1,2l1,2l1,2l1,2l1,2l1,2l1,2l1,2l1,2l1,2l1,2l1,2l1,2l1,2l2,2l1,2l1,3l1,2l1,2l1,2l1,2l1,2l1,2l1,3l1,2l1,2l1,2l1,2l1,2l1,3l1,2l1,2l1,2l1,3l1,2l1,2l1,2l1,2l1,3l1,2l1,2l1,3l1,2l1,2l1,2l1,3l1,2l1,2l1,3l1,2l1,2l1,3l1,2l1,2l1,3l1,2l1,3l1,2l1,2l1,3l1,2l1,3l1,2l1,2l1,3l1,2l1,3l1,2l1,3l1,2l1,3l1,2l1,3l1,2l1,3" style="stroke: black; stroke-width: 1; fill: none;"></path><path d="M29.37,221.63a0.80,0.80,0,1,0,1.60,0a0.80,0.80,0,1,0,-1.60,0zM30.37,218.01a0.80,0.80,0,1,0,1.60,0a0.80,0.80,0,1,0,-1.60,0zM31.38,214.39a0.80,0.80,0,1,0,1.60,0a0.80,0.80,0,1,0,-1.60,0zM32.38,210.77a0.80,0.80,0,1,0,1.60,0a0.80,0.80,0,1,0,-1.60,0zM33.39,207.15a0.80,0.80,0,1,0,1.60,0a0.80,0.80,0,1,0,-1.60,0zM34.39,203.53a0.80,0.80,0,1,0,1.60,0a0.80,0.80,0,1,0,-1.60,0zM35.40,199.91a0.80,0.80,0,1,0,1.60,0a0.80,0.80,0,1,0,-1.60,0zM36.41,196.29a0.80,0.80,0,1,0,1.60,0a0.80,0.80,0,1,0,-1.60,0zM37.41,192.67a0.80,0.80,0,1,0,1.60,0a0.80,0.80,0,1,0,-1.60,0zM38.42,189.05a0.80,0.80,0,1,0,1.60,0a0.80,0.80,0,1,0,-1.60,0zM39.42,185.43a0.80,0.80,0,1,0,1.60,0a0.80,0.80,0,1,0,-1.60,0zM40.43,181.81a0.80,0.80,0,1,0,1.60,0a0.80,0.80,0,1,0,-1.60,0zM41.43,178.18a0.80,0.80,0,1,0,1.60,0a0.80,0.80,0,1,0,-1.60,0zM42.44,174.56a0.80,0.80,0,1,0,1.60,0a0.80,0.80,0,1,0,-1.60,0zM43.44,170.94a0.80,0.80,0,1,0,1.60,0a0.80,0.80,0,1,0,-1.60,0zM44.45,167.32a0.80,0.80,0,1,0,1.60,0a0.80,0.80,0,1,0,-1.60,0zM45.46,163.70a0.80,0.80,0,1,0,1.60,0a0.80,0.80,0,1,0,-1.60,0zM46.46,160.08a0.80,0.80,0,1,0,1.60,0a0.80,0.80,0,1,0,-1.60,0zM47.47,156.46a0.80,0.80,0,1,0,1.60,0a0.80,0.80,0,1,0,-1.60,0zM48.47,152.84a0.80,0.80,0,1,0,1.60,0a0.80,0.80,0,1,0,-1.60,0zM49.48,149.22a0.80,0.80,0,1,0,1.60,0a0.80,0.80,0,1,0,-1.60,0zM50.48,145.60a0.80,0.80,0,1,0,1.60,0a0.80,0.80,0,1,0,-1.60,0zM51.49,141.98a0.80,0.80,0,1,0,1.60,0a0.80,0.80,0,1,0,-1.60,0zM52.49,138.36a0.80,0.80,0,1,0,1.60,0a0.80,0.80,0,1,0,-1.60,0zM53.50,134.74a0.80,0.80,0,1,0,1.60,0a0.80,0.80,0,1,0,-1.60,0zM54.51,131.11a0.80,0.80,0,1,0,1.60,0a0.80,0.80,0,1,0,-1.60,0zM55.51,127.49a0.80,0.80,0,1,0,1.60,0a0.80,0.80,0,1,0,-1.60,0zM56.52,123.87a0.80,0.80,0,1,0,1.60,0a0.80,0.80,0,1,0,-1.60,0zM57.52,120.25a0.80,0.80,0,1,0,1.60,0a0.80,0.80,0,1,0,-1.60,0zM58.53,116.63a0.80,0.80,0,1,0,1.60,0a0.80,0.80,0,1,0,-1.60,0zM59.53,113.01a0.80,0.80,0,1,0,1.60,0a0.80,0.80,0,1,0,-1.60,0zM60.54,109.39a0.80,0.80,0,1,0,1.60,0a0.80,0.80,0,1,0,-1.60,0zM61.54,105.77a0.80,0.80,0,1,0,1.60,0a0.80,0.80,0,1,0,-1.60,0zM62.55,102.15a0.80,0.80,0,1,0,1.60,0a0.80,0.80,0,1,0,-1.60,0zM63.56,98.53a0.80,0.80,0,1,0,1.60,0a0.80,0.80,0,1,0,-1.60,0zM64.56,94.91a0.80,0.80,0,1,0,1.60,0a0.80,0.80,0,1,0,-1.60,0zM65.57,91.29a0.80,0.80,0,1,0,1.60,0a0.80,0.80,0,1,0,-1.60,0zM66.57,87.67a0.80,0.80,0,1,0,1.60,0a0.80,0.80,0,1,0,-1.60,0zM67.58,84.04a0.80,0.80,0,1,0,1.60,0a0.80,0.80,0,1,0,-1.60,0zM68.58,80.42a0.80,0.80,0,1,0,1.60,0a0.80,0.80,0,1,0,-1.60,0zM69.59,76.80a0.80,0.80,0,1,0,1.60,0a0.80,0.80,0,1,0,-1.60,0zM70.59,73.18a0.80,0.80,0,1,0,1.60,0a0.80,0.80,0,1,0,-1.60,0zM71.60,69.54a0.80,0.80,0,1,0,1.60,0a0.80,0.80,0,1,0,-1.60,0zM72.61,65.93a0.80,0.80,0,1,0,1.60,0a0.80,0.80,0,1,0,-1.60,0zM73.61,62.31a0.80,0.80,0,1,0,1.60,0a0.80,0.80,0,1,0,-1.60,0zM74.62,58.69a0.80,0.80,0,1,0,1.60,0a0.80,0.80,0,1,0,-1.60,0zM75.62,55.02a0.80,0.80,0,1,0,1.60,0a0.80,0.80,0,1,0,-1.60,0zM76.63,51.39a0.80,0.80,0,1,0,1.60,0a0.80,0.80,0,1,0,-1.60,0zM77.63,47.54a0.80,0.80,0,1,0,1.60,0a0.80,0.80,0,1,0,-1.60,0zM78.64,44.01a0.80,0.80,0,1,0,1.60,0a0.80,0.80,0,1,0,-1.60,0zM79.64,40.60a0.80,0.80,0,1,0,1.60,0a0.80,0.80,0,1,0,-1.60,0zM80.65,40.50a0.80,0.80,0,1,0,1.60,0a0.80,0.80,0,1,0,-1.60,0zM81.66,40.59a0.80,0.80,0,1,0,1.60,0a0.80,0.80,0,1,0,-1.60,0zM82.66,41.35a0.80,0.80,0,1,0,1.60,0a0.80,0.80,0,1,0,-1.60,0zM83.67,41.75a0.80,0.80,0,1,0,1.60,0a0.80,0.80,0,1,0,-1.60,0zM84.67,41.69a0.80,0.80,0,1,0,1.60,0a0.80,0.80,0,1,0,-1.60,0zM85.68,41.93a0.80,0.80,0,1,0,1.60,0a0.80,0.80,0,1,0,-1.60,0zM86.68,42.51a0.80,0.80,0,1,0,1.60,0a0.80,0.80,0,1,0,-1.60,0zM87.69,43.79a0.80,0.80,0,1,0,1.60,0a0.80,0.80,0,1,0,-1.60,0zM88.69,43.92a0.80,0.80,0,1,0,1.60,0a0.80,0.80,0,1,0,-1.60,0zM89.70,44.32a0.80,0.80,0,1,0,1.60,0a0.80,0.80,0,1,0,-1.60,0zM90.71,44.27a0.80,0.80,0,1,0,1.60,0a0.80,0.80,0,1,0,-1.60,0zM91.71,45.68a0.80,0.80,0,1,0,1.60,0a0.80,0.80,0,1,0,-1.60,0zM92.72,45.60a0.80,0.80,0,1,0,1.60,0a0.80,0.80,0,1,0,-1.60,0zM93.72,47.14a0.80,0.80,0,1,0,1.60,0a0.80,0.80,0,1,0,-1.60,0zM94.73,48.06a0.80,0.80,0,1,0,1.60,0a0.80,0.80,0,1,0,-1.60,0zM95.73,48.72a0.80,0.80,0,1,0,1.60,0a0.80,0.80,0,1,0,-1.60,0zM96.74,48.40a0.80,0.80,0,1,0,1.60,0a0.80,0.80,0,1,0,-1.60,0zM97.74,48.27a0.80,0.80,0,1,0,1.60,0a0.80,0.80,0,1,0,-1.60,0zM98.75,50.84a0.80,0.80,0,1,0,1.60,0a0.80,0.80,0,1,0,-1.60,0zM99.76,51.45a0.80,0.80,0,1,0,1.60,0a0.80,0.80,0,1,0,-1.60,0zM100.76,52.26a0.80,0.80,0,1,0,1.60,0a0.80,0.80,0,1,0,-1.60,0zM101.77,51.51a0.80,0.80,0,1,0,1.60,0a0.80,0.80,0,1,0,-1.60,0zM102.77,53.48a0.80,0.80,0,1,0,1.60,0a0.80,0.80,0,1,0,-1.60,0zM103.78,54.78a0.80,0.80,0,1,0,1.60,0a0.80,0.80,0,1,0,-1.60,0zM104.78,55.48a0.80,0.80,0,1,0,1.60,0a0.80,0.80,0,1,0,-1.60,0zM105.79,56.21a0.80,0.80,0,1,0,1.60,0a0.80,0.80,0,1,0,-1.60,0zM106.79,56.85a0.80,0.80,0,1,0,1.60,0a0.80,0.80,0,1,0,-1.60,0zM107.80,57.84a0.80,0.80,0,1,0,1.60,0a0.80,0.80,0,1,0,-1.60,0zM108.81,58.89a0.80,0.80,0,1,0,1.60,0a0.80,0.80,0,1,0,-1.60,0zM109.81,59.80a0.80,0.80,0,1,0,1.60,0a0.80,0.80,0,1,0,-1.60,0zM110.82,60.67a0.80,0.80,0,1,0,1.60,0a0.80,0.80,0,1,0,-1.60,0zM111.82,61.55a0.80,0.80,0,1,0,1.60,0a0.80,0.80,0,1,0,-1.60,0zM112.83,62.44a0.80,0.80,0,1,0,1.60,0a0.80,0.80,0,1,0,-1.60,0zM113.83,63.41a0.80,0.80,0,1,0,1.60,0a0.80,0.80,0,1,0,-1.60,0zM114.84,64.33a0.80,0.80,0,1,0,1.60,0a0.80,0.80,0,1,0,-1.60,0zM115.84,65.27a0.80,0.80,0,1,0,1.60,0a0.80,0.80,0,1,0,-1.60,0zM116.85,66.19a0.80,0.80,0,1,0,1.60,0a0.80,0.80,0,1,0,-1.60,0zM117.86,67.18a0.80,0.80,0,1,0,1.60,0a0.80,0.80,0,1,0,-1.60,0zM118.86,68.15a0.80,0.80,0,1,0,1.60,0a0.80,0.80,0,1,0,-1.60,0zM119.87,69.14a0.80,0.80,0,1,0,1.60,0a0.80,0.80,0,1,0,-1.60,0zM120.87,70.13a0.80,0.80,0,1,0,1.60,0a0.80,0.80,0,1,0,-1.60,0zM121.88,71.14a0.80,0.80,0,1,0,1.60,0a0.80,0.80,0,1,0,-1.60,0zM122.88,72.15a0.80,0.80,0,1,0,1.60,0a0.80,0.80,0,1,0,-1.60,0zM123.89,73.18a0.80,0.80,0,1,0,1.60,0a0.80,0.80,0,1,0,-1.60,0zM124.89,74.21a0.80,0.80,0,1,0,1.60,0a0.80,0.80,0,1,0,-1.60,0zM125.90,75.26a0.80,0.80,0,1,0,1.60,0a0.80,0.80,0,1,0,-1.60,0zM126.91,76.31a0.80,0.80,0,1,0,1.60,0a0.80,0.80,0,1,0,-1.60,0zM127.91,77.38a0.80,0.80,0,1,0,1.60,0a0.80,0.80,0,1,0,-1.60,0zM128.92,78.45a0.80,0.80,0,1,0,1.60,0a0.80,0.80,0,1,0,-1.60,0zM129.92,79.54a0.80,0.80,0,1,0,1.60,0a0.80,0.80,0,1,0,-1.60,0zM130.93,80.64a0.80,0.80,0,1,0,1.60,0a0.80,0.80,0,1,0,-1.60,0zM131.93,81.74a0.80,0.80,0,1,0,1.60,0a0.80,0.80,0,1,0,-1.60,0zM132.94,82.86a0.80,0.80,0,1,0,1.60,0a0.80,0.80,0,1,0,-1.60,0zM133.94,83.98a0.80,0.80,0,1,0,1.60,0a0.80,0.80,0,1,0,-1.60,0zM134.95,85.11a0.80,0.80,0,1,0,1.60,0a0.80,0.80,0,1,0,-1.60,0zM135.96,86.25a0.80,0.80,0,1,0,1.60,0a0.80,0.80,0,1,0,-1.60,0zM136.96,87.41a0.80,0.80,0,1,0,1.60,0a0.80,0.80,0,1,0,-1.60,0zM137.97,88.57a0.80,0.80,0,1,0,1.60,0a0.80,0.80,0,1,0,-1.60,0zM138.97,89.74a0.80,0.80,0,1,0,1.60,0a0.80,0.80,0,1,0,-1.60,0zM139.98,90.92a0.80,0.80,0,1,0,1.60,0a0.80,0.80,0,1,0,-1.60,0zM140.98,92.11a0.80,0.80,0,1,0,1.60,0a0.80,0.80,0,1,0,-1.60,0zM141.99,93.30a0.80,0.80,0,1,0,1.60,0a0.80,0.80,0,1,0,-1.60,0zM142.99,94.51a0.80,0.80,0,1,0,1.60,0a0.80,0.80,0,1,0,-1.60,0zM144.00,95.72a0.80,0.80,0,1,0,1.60,0a0.80,0.80,0,1,0,-1.60,0zM145.01,96.95a0.80,0.80,0,1,0,1.60,0a0.80,0.80,0,1,0,-1.60,0zM146.01,98.18a0.80,0.80,0,1,0,1.60,0a0.80,0.80,0,1,0,-1.60,0zM147.02,99.42a0.80,0.80,0,1,0,1.60,0a0.80,0.80,0,1,0,-1.60,0zM148.02,100.67a0.80,0.80,0,1,0,1.60,0a0.80,0.80,0,1,0,-1.60,0zM149.03,101.92a0.80,0.80,0,1,0,1.60,0a0.80,0.80,0,1,0,-1.60,0zM150.03,103.19a0.80,0.80,0,1,0,1.60,0a0.80,0.80,0,1,0,-1.60,0zM151.04,104.46a0.80,0.80,0,1,0,1.60,0a0.80,0.80,0,1,0,-1.60,0zM152.04,105.74a0.80,0.80,0,1,0,1.60,0a0.80,0.80,0,1,0,-1.60,0zM153.05,107.03a0.80,0.80,0,1,0,1.60,0a0.80,0.80,0,1,0,-1.60,0zM154.06,108.33a0.80,0.80,0,1,0,1.60,0a0.80,0.80,0,1,0,-1.60,0zM155.06,109.64a0.80,0.80,0,1,0,1.60,0a0.80,0.80,0,1,0,-1.60,0zM156.07,110.95a0.80,0.80,0,1,0,1.60,0a0.80,0.80,0,1,0,-1.60,0zM157.07,112.28a0.80,0.80,0,1,0,1.60,0a0.80,0.80,0,1,0,-1.60,0zM158.08,113.61a0.80,0.80,0,1,0,1.60,0a0.80,0.80,0,1,0,-1.60,0zM159.08,114.95a0.80,0.80,0,1,0,1.60,0a0.80,0.80,0,1,0,-1.60,0zM160.09,116.29a0.80,0.80,0,1,0,1.60,0a0.80,0.80,0,1,0,-1.60,0zM161.09,117.65a0.80,0.80,0,1,0,1.60,0a0.80,0.80,0,1,0,-1.60,0zM162.10,119.01a0.80,0.80,0,1,0,1.60,0a0.80,0.80,0,1,0,-1.60,0zM163.11,120.38a0.80,0.80,0,1,0,1.60,0a0.80,0.80,0,1,0,-1.60,0zM164.11,121.76a0.80,0.80,0,1,0,1.60,0a0.80,0.80,0,1,0,-1.60,0zM165.12,123.15a0.80,0.80,0,1,0,1.60,0a0.80,0.80,0,1,0,-1.60,0zM166.12,124.54a0.80,0.80,0,1,0,1.60,0a0.80,0.80,0,1,0,-1.60,0zM167.13,125.94a0.80,0.80,0,1,0,1.60,0a0.80,0.80,0,1,0,-1.60,0zM168.13,127.35a0.80,0.80,0,1,0,1.60,0a0.80,0.80,0,1,0,-1.60,0zM169.14,128.77a0.80,0.80,0,1,0,1.60,0a0.80,0.80,0,1,0,-1.60,0zM170.14,130.19a0.80,0.80,0,1,0,1.60,0a0.80,0.80,0,1,0,-1.60,0zM171.15,131.62a0.80,0.80,0,1,0,1.60,0a0.80,0.80,0,1,0,-1.60,0zM172.16,133.06a0.80,0.80,0,1,0,1.60,0a0.80,0.80,0,1,0,-1.60,0zM173.16,134.51a0.80,0.80,0,1,0,1.60,0a0.80,0.80,0,1,0,-1.60,0zM174.17,135.96a0.80,0.80,0,1,0,1.60,0a0.80,0.80,0,1,0,-1.60,0zM175.17,137.42a0.80,0.80,0,1,0,1.60,0a0.80,0.80,0,1,0,-1.60,0zM176.18,138.89a0.80,0.80,0,1,0,1.60,0a0.80,0.80,0,1,0,-1.60,0zM177.18,140.37a0.80,0.80,0,1,0,1.60,0a0.80,0.80,0,1,0,-1.60,0zM178.19,141.85a0.80,0.80,0,1,0,1.60,0a0.80,0.80,0,1,0,-1.60,0zM179.19,143.34a0.80,0.80,0,1,0,1.60,0a0.80,0.80,0,1,0,-1.60,0zM180.20,144.84a0.80,0.80,0,1,0,1.60,0a0.80,0.80,0,1,0,-1.60,0zM181.21,146.34a0.80,0.80,0,1,0,1.60,0a0.80,0.80,0,1,0,-1.60,0zM182.21,147.85a0.80,0.80,0,1,0,1.60,0a0.80,0.80,0,1,0,-1.60,0zM183.22,149.37a0.80,0.80,0,1,0,1.60,0a0.80,0.80,0,1,0,-1.60,0zM184.22,150.90a0.80,0.80,0,1,0,1.60,0a0.80,0.80,0,1,0,-1.60,0zM185.23,152.43a0.80,0.80,0,1,0,1.60,0a0.80,0.80,0,1,0,-1.60,0zM186.23,153.98a0.80,0.80,0,1,0,1.60,0a0.80,0.80,0,1,0,-1.60,0zM187.24,155.52a0.80,0.80,0,1,0,1.60,0a0.80,0.80,0,1,0,-1.60,0zM188.24,157.08a0.80,0.80,0,1,0,1.60,0a0.80,0.80,0,1,0,-1.60,0zM189.25,158.64a0.80,0.80,0,1,0,1.60,0a0.80,0.80,0,1,0,-1.60,0zM190.26,160.21a0.80,0.80,0,1,0,1.60,0a0.80,0.80,0,1,0,-1.60,0zM191.26,161.79a0.80,0.80,0,1,0,1.60,0a0.80,0.80,0,1,0,-1.60,0zM192.27,163.37a0.80,0.80,0,1,0,1.60,0a0.80,0.80,0,1,0,-1.60,0zM193.27,164.96a0.80,0.80,0,1,0,1.60,0a0.80,0.80,0,1,0,-1.60,0zM194.28,166.56a0.80,0.80,0,1,0,1.60,0a0.80,0.80,0,1,0,-1.60,0zM195.28,168.16a0.80,0.80,0,1,0,1.60,0a0.80,0.80,0,1,0,-1.60,0zM196.29,169.77a0.80,0.80,0,1,0,1.60,0a0.80,0.80,0,1,0,-1.60,0zM197.29,171.39a0.80,0.80,0,1,0,1.60,0a0.80,0.80,0,1,0,-1.60,0zM198.30,173.01a0.80,0.80,0,1,0,1.60,0a0.80,0.80,0,1,0,-1.60,0zM199.31,174.64a0.80,0.80,0,1,0,1.60,0a0.80,0.80,0,1,0,-1.60,0zM200.31,176.28a0.80,0.80,0,1,0,1.60,0a0.80,0.80,0,1,0,-1.60,0zM201.32,177.93a0.80,0.80,0,1,0,1.60,0a0.80,0.80,0,1,0,-1.60,0zM202.32,179.58a0.80,0.80,0,1,0,1.60,0a0.80,0.80,0,1,0,-1.60,0zM203.33,181.24a0.80,0.80,0,1,0,1.60,0a0.80,0.80,0,1,0,-1.60,0zM204.33,182.90a0.80,0.80,0,1,0,1.60,0a0.80,0.80,0,1,0,-1.60,0zM205.34,184.58a0.80,0.80,0,1,0,1.60,0a0.80,0.80,0,1,0,-1.60,0zM206.34,186.25a0.80,0.80,0,1,0,1.60,0a0.80,0.80,0,1,0,-1.60,0zM207.35,187.94a0.80,0.80,0,1,0,1.60,0a0.80,0.80,0,1,0,-1.60,0zM208.36,189.63a0.80,0.80,0,1,0,1.60,0a0.80,0.80,0,1,0,-1.60,0zM209.36,191.33a0.80,0.80,0,1,0,1.60,0a0.80,0.80,0,1,0,-1.60,0zM210.37,193.04a0.80,0.80,0,1,0,1.60,0a0.80,0.80,0,1,0,-1.60,0zM211.37,194.75a0.80,0.80,0,1,0,1.60,0a0.80,0.80,0,1,0,-1.60,0zM212.38,196.47a0.80,0.80,0,1,0,1.60,0a0.80,0.80,0,1,0,-1.60,0zM213.38,198.20a0.80,0.80,0,1,0,1.60,0a0.80,0.80,0,1,0,-1.60,0zM214.39,199.93a0.80,0.80,0,1,0,1.60,0a0.80,0.80,0,1,0,-1.60,0zM215.39,201.67a0.80,0.80,0,1,0,1.60,0a0.80,0.80,0,1,0,-1.60,0zM216.40,203.41a0.80,0.80,0,1,0,1.60,0a0.80,0.80,0,1,0,-1.60,0zM217.41,205.17a0.80,0.80,0,1,0,1.60,0a0.80,0.80,0,1,0,-1.60,0zM218.41,206.92a0.80,0.80,0,1,0,1.60,0a0.80,0.80,0,1,0,-1.60,0zM219.42,208.69a0.80,0.80,0,1,0,1.60,0a0.80,0.80,0,1,0,-1.60,0zM220.42,210.46a0.80,0.80,0,1,0,1.60,0a0.80,0.80,0,1,0,-1.60,0zM221.43,212.24a0.80,0.80,0,1,0,1.60,0a0.80,0.80,0,1,0,-1.60,0zM222.43,214.03a0.80,0.80,0,1,0,1.60,0a0.80,0.80,0,1,0,-1.60,0zM223.44,215.82a0.80,0.80,0,1,0,1.60,0a0.80,0.80,0,1,0,-1.60,0zM224.44,217.62a0.80,0.80,0,1,0,1.60,0a0.80,0.80,0,1,0,-1.60,0zM225.45,219.42a0.80,0.80,0,1,0,1.60,0a0.80,0.80,0,1,0,-1.60,0zM226.46,221.23a0.80,0.80,0,1,0,1.60,0a0.80,0.80,0,1,0,-1.60,0zM227.46,223.05a0.80,0.80,0,1,0,1.60,0a0.80,0.80,0,1,0,-1.60,0zM228.47,224.88a0.80,0.80,0,1,0,1.60,0a0.80,0.80,0,1,0,-1.60,0zM229.47,226.71a0.80,0.80,0,1,0,1.60,0a0.80,0.80,0,1,0,-1.60,0zM230.48,228.55a0.80,0.80,0,1,0,1.60,0a0.80,0.80,0,1,0,-1.60,0zM231.48,230.39a0.80,0.80,0,1,0,1.60,0a0.80,0.80,0,1,0,-1.60,0zM232.49,232.24a0.80,0.80,0,1,0,1.60,0a0.80,0.80,0,1,0,-1.60,0zM233.49,234.10a0.80,0.80,0,1,0,1.60,0a0.80,0.80,0,1,0,-1.60,0zM234.50,235.96a0.80,0.80,0,1,0,1.60,0a0.80,0.80,0,1,0,-1.60,0zM235.51,237.83a0.80,0.80,0,1,0,1.60,0a0.80,0.80,0,1,0,-1.60,0zM236.51,239.71a0.80,0.80,0,1,0,1.60,0a0.80,0.80,0,1,0,-1.60,0zM237.52,241.59a0.80,0.80,0,1,0,1.60,0a0.80,0.80,0,1,0,-1.60,0zM238.52,243.48a0.80,0.80,0,1,0,1.60,0a0.80,0.80,0,1,0,-1.60,0zM239.53,245.38a0.80,0.80,0,1,0,1.60,0a0.80,0.80,0,1,0,-1.60,0zM240.53,247.28a0.80,0.80,0,1,0,1.60,0a0.80,0.80,0,1,0,-1.60,0zM241.54,249.19a0.80,0.80,0,1,0,1.60,0a0.80,0.80,0,1,0,-1.60,0zM242.54,251.11a0.80,0.80,0,1,0,1.60,0a0.80,0.80,0,1,0,-1.60,0zM243.55,253.03a0.80,0.80,0,1,0,1.60,0a0.80,0.80,0,1,0,-1.60,0zM244.56,254.96a0.80,0.80,0,1,0,1.60,0a0.80,0.80,0,1,0,-1.60,0zM245.56,256.89a0.80,0.80,0,1,0,1.60,0a0.80,0.80,0,1,0,-1.60,0zM246.57,258.84a0.80,0.80,0,1,0,1.60,0a0.80,0.80,0,1,0,-1.60,0zM247.57,260.78a0.80,0.80,0,1,0,1.60,0a0.80,0.80,0,1,0,-1.60,0zM248.58,262.74a0.80,0.80,0,1,0,1.60,0a0.80,0.80,0,1,0,-1.60,0zM249.58,264.70a0.80,0.80,0,1,0,1.60,0a0.80,0.80,0,1,0,-1.60,0zM250.59,266.67a0.80,0.80,0,1,0,1.60,0a0.80,0.80,0,1,0,-1.60,0zM251.59,268.64a0.80,0.80,0,1,0,1.60,0a0.80,0.80,0,1,0,-1.60,0zM252.60,270.62a0.80,0.80,0,1,0,1.60,0a0.80,0.80,0,1,0,-1.60,0zM253.61,272.61a0.80,0.80,0,1,0,1.60,0a0.80,0.80,0,1,0,-1.60,0zM254.61,274.60a0.80,0.80,0,1,0,1.60,0a0.80,0.80,0,1,0,-1.60,0zM255.62,276.60a0.80,0.80,0,1,0,1.60,0a0.80,0.80,0,1,0,-1.60,0zM256.62,278.61a0.80,0.80,0,1,0,1.60,0a0.80,0.80,0,1,0,-1.60,0zM257.63,280.62a0.80,0.80,0,1,0,1.60,0a0.80,0.80,0,1,0,-1.60,0zM258.63,282.64a0.80,0.80,0,1,0,1.60,0a0.80,0.80,0,1,0,-1.60,0zM259.64,284.67a0.80,0.80,0,1,0,1.60,0a0.80,0.80,0,1,0,-1.60,0zM260.64,286.70a0.80,0.80,0,1,0,1.60,0a0.80,0.80,0,1,0,-1.60,0zM261.65,288.74a0.80,0.80,0,1,0,1.60,0a0.80,0.80,0,1,0,-1.60,0zM262.66,290.79a0.80,0.80,0,1,0,1.60,0a0.80,0.80,0,1,0,-1.60,0zM263.66,292.84a0.80,0.80,0,1,0,1.60,0a0.80,0.80,0,1,0,-1.60,0zM264.67,294.90a0.80,0.80,0,1,0,1.60,0a0.80,0.80,0,1,0,-1.60,0zM265.67,296.97a0.80,0.80,0,1,0,1.60,0a0.80,0.80,0,1,0,-1.60,0zM266.68,299.04a0.80,0.80,0,1,0,1.60,0a0.80,0.80,0,1,0,-1.60,0zM267.68,301.12a0.80,0.80,0,1,0,1.60,0a0.80,0.80,0,1,0,-1.60,0zM268.69,303.20a0.80,0.80,0,1,0,1.60,0a0.80,0.80,0,1,0,-1.60,0zM269.69,305.29a0.80,0.80,0,1,0,1.60,0a0.80,0.80,0,1,0,-1.60,0zM270.70,307.39a0.80,0.80,0,1,0,1.60,0a0.80,0.80,0,1,0,-1.60,0zM271.71,309.50a0.80,0.80,0,1,0,1.60,0a0.80,0.80,0,1,0,-1.60,0zM272.71,311.61a0.80,0.80,0,1,0,1.60,0a0.80,0.80,0,1,0,-1.60,0zM273.72,313.73a0.80,0.80,0,1,0,1.60,0a0.80,0.80,0,1,0,-1.60,0zM274.72,315.85a0.80,0.80,0,1,0,1.60,0a0.80,0.80,0,1,0,-1.60,0zM275.73,317.98a0.80,0.80,0,1,0,1.60,0a0.80,0.80,0,1,0,-1.60,0zM276.73,320.12a0.80,0.80,0,1,0,1.60,0a0.80,0.80,0,1,0,-1.60,0zM277.74,322.26a0.80,0.80,0,1,0,1.60,0a0.80,0.80,0,1,0,-1.60,0zM278.74,324.41a0.80,0.80,0,1,0,1.60,0a0.80,0.80,0,1,0,-1.60,0zM279.75,326.57a0.80,0.80,0,1,0,1.60,0a0.80,0.80,0,1,0,-1.60,0zM280.76,328.73a0.80,0.80,0,1,0,1.60,0a0.80,0.80,0,1,0,-1.60,0zM281.76,330.91a0.80,0.80,0,1,0,1.60,0a0.80,0.80,0,1,0,-1.60,0zM282.77,333.08a0.80,0.80,0,1,0,1.60,0a0.80,0.80,0,1,0,-1.60,0zM283.77,335.27a0.80,0.80,0,1,0,1.60,0a0.80,0.80,0,1,0,-1.60,0zM284.78,337.46a0.80,0.80,0,1,0,1.60,0a0.80,0.80,0,1,0,-1.60,0zM285.78,339.65a0.80,0.80,0,1,0,1.60,0a0.80,0.80,0,1,0,-1.60,0zM286.79,341.86a0.80,0.80,0,1,0,1.60,0a0.80,0.80,0,1,0,-1.60,0zM287.79,344.07a0.80,0.80,0,1,0,1.60,0a0.80,0.80,0,1,0,-1.60,0zM288.80,346.29a0.80,0.80,0,1,0,1.60,0a0.80,0.80,0,1,0,-1.60,0zM289.81,348.51a0.80,0.80,0,1,0,1.60,0a0.80,0.80,0,1,0,-1.60,0zM290.81,350.74a0.80,0.80,0,1,0,1.60,0a0.80,0.80,0,1,0,-1.60,0zM291.82,352.98a0.80,0.80,0,1,0,1.60,0a0.80,0.80,0,1,0,-1.60,0zM292.82,355.22a0.80,0.80,0,1,0,1.60,0a0.80,0.80,0,1,0,-1.60,0zM293.83,357.47a0.80,0.80,0,1,0,1.60,0a0.80,0.80,0,1,0,-1.60,0zM294.83,359.73a0.80,0.80,0,1,0,1.60,0a0.80,0.80,0,1,0,-1.60,0zM295.84,361.99a0.80,0.80,0,1,0,1.60,0a0.80,0.80,0,1,0,-1.60,0zM296.84,364.27a0.80,0.80,0,1,0,1.60,0a0.80,0.80,0,1,0,-1.60,0zM297.85,366.54a0.80,0.80,0,1,0,1.60,0a0.80,0.80,0,1,0,-1.60,0zM298.86,368.83a0.80,0.80,0,1,0,1.60,0a0.80,0.80,0,1,0,-1.60,0zM299.86,371.12a0.80,0.80,0,1,0,1.60,0a0.80,0.80,0,1,0,-1.60,0zM300.87,373.42a0.80,0.80,0,1,0,1.60,0a0.80,0.80,0,1,0,-1.60,0zM301.87,375.72a0.80,0.80,0,1,0,1.60,0a0.80,0.80,0,1,0,-1.60,0zM302.88,378.03a0.80,0.80,0,1,0,1.60,0a0.80,0.80,0,1,0,-1.60,0zM303.88,380.35a0.80,0.80,0,1,0,1.60,0a0.80,0.80,0,1,0,-1.60,0zM304.89,382.67a0.80,0.80,0,1,0,1.60,0a0.80,0.80,0,1,0,-1.60,0zM305.89,385.01a0.80,0.80,0,1,0,1.60,0a0.80,0.80,0,1,0,-1.60,0zM306.90,387.34a0.80,0.80,0,1,0,1.60,0a0.80,0.80,0,1,0,-1.60,0zM307.91,389.69a0.80,0.80,0,1,0,1.60,0a0.80,0.80,0,1,0,-1.60,0zM308.91,392.04a0.80,0.80,0,1,0,1.60,0a0.80,0.80,0,1,0,-1.60,0zM309.92,394.40a0.80,0.80,0,1,0,1.60,0a0.80,0.80,0,1,0,-1.60,0zM310.92,396.77a0.80,0.80,0,1,0,1.60,0a0.80,0.80,0,1,0,-1.60,0zM311.93,399.14a0.80,0.80,0,1,0,1.60,0a0.80,0.80,0,1,0,-1.60,0zM312.93,401.52a0.80,0.80,0,1,0,1.60,0a0.80,0.80,0,1,0,-1.60,0zM313.94,403.90a0.80,0.80,0,1,0,1.60,0a0.80,0.80,0,1,0,-1.60,0zM314.94,406.29a0.80,0.80,0,1,0,1.60,0a0.80,0.80,0,1,0,-1.60,0zM315.95,408.69a0.80,0.80,0,1,0,1.60,0a0.80,0.80,0,1,0,-1.60,0zM316.96,411.10a0.80,0.80,0,1,0,1.60,0a0.80,0.80,0,1,0,-1.60,0zM317.96,413.51a0.80,0.80,0,1,0,1.60,0a0.80,0.80,0,1,0,-1.60,0zM318.97,415.93a0.80,0.80,0,1,0,1.60,0a0.80,0.80,0,1,0,-1.60,0zM319.97,418.36a0.80,0.80,0,1,0,1.60,0a0.80,0.80,0,1,0,-1.60,0zM320.98,420.79a0.80,0.80,0,1,0,1.60,0a0.80,0.80,0,1,0,-1.60,0zM321.98,423.23a0.80,0.80,0,1,0,1.60,0a0.80,0.80,0,1,0,-1.60,0zM322.99,425.68a0.80,0.80,0,1,0,1.60,0a0.80,0.80,0,1,0,-1.60,0zM323.99,428.13a0.80,0.80,0,1,0,1.60,0a0.80,0.80,0,1,0,-1.60,0zM325.00,430.59a0.80,0.80,0,1,0,1.60,0a0.80,0.80,0,1,0,-1.60,0zM326.01,433.06a0.80,0.80,0,1,0,1.60,0a0.80,0.80,0,1,0,-1.60,0zM327.01,435.54a0.80,0.80,0,1,0,1.60,0a0.80,0.80,0,1,0,-1.60,0zM328.02,438.02a0.80,0.80,0,1,0,1.60,0a0.80,0.80,0,1,0,-1.60,0zM329.02,440.50a0.80,0.80,0,1,0,1.60,0a0.80,0.80,0,1,0,-1.60,0zM330.03,443.00a0.80,0.80,0,1,0,1.60,0a0.80,0.80,0,1,0,-1.60,0zM331.03,445.50a0.80,0.80,0,1,0,1.60,0a0.80,0.80,0,1,0,-1.60,0z" style="stroke: black; fill: black;"></path><path d="M25.16666666666667,216.63368815831237h10v10h-10zM26.172222222222228,213.01292374491337h10v10h-10zM27.177777777777784,209.39215933151456h10v10h-10zM28.183333333333344,205.7713949181156h10v10h-10zM29.188888888888897,202.15063050471667h10v10h-10zM30.19444444444445,198.52986609131773h10v10h-10zM31.20000000000001,194.90910167791887h10v10h-10zM32.20555555555556,191.28833726451995h10v10h-10zM33.21111111111112,187.66757285112095h10v10h-10zM34.216666666666676,184.04680843772215h10v10h-10zM35.222222222222236,180.42604402432323h10v10h-10zM36.22777777777779,176.80527961092426h10v10h-10zM37.23333333333335,173.18451519752531h10v10h-10zM38.23888888888888,169.56375078412646h10v10h-10zM39.24444444444444,165.94298637072754h10v10h-10zM40.24999999999999,162.3222219573286h10v10h-10zM41.25555555555555,158.70145754392962h10v10h-10zM42.261111111111106,155.08069313053082h10v10h-10zM43.266666666666666,151.4599287171319h10v10h-10zM44.27222222222222,147.83916430373296h10v10h-10zM45.27777777777778,144.21839989033404h10v10h-10zM46.28333333333333,140.59763547693512h10v10h-10zM47.28888888888889,136.9768710635362h10v10h-10zM48.294444444444444,133.35610665013732h10v10h-10zM49.3,129.73534223673835h10v10h-10zM50.30555555555556,126.11457782333949h10v10h-10zM51.31111111111111,122.49381340994056h10v10h-10zM52.31666666666668,118.87304899654163h10v10h-10zM53.32222222222222,115.25228458314277h10v10h-10zM54.32777777777779,111.63152016974378h10v10h-10zM55.33333333333334,108.01075575634492h10v10h-10zM56.3388888888889,104.38999134294593h10v10h-10zM57.344444444444456,100.76922692954707h10v10h-10zM58.35000000000001,97.14846251614814h10v10h-10zM59.35555555555557,93.52769810274923h10v10h-10zM60.361111111111114,89.90693368935035h10v10h-10zM61.36666666666669,86.28604858380426h10v10h-10zM62.372222222222234,82.6654048625525h10v10h-10zM63.377777777777766,79.04451975700647h10v10h-10zM64.38333333333333,75.42351395931333h10v10h-10zM65.38888888888889,71.8026288537673h10v10h-10zM66.39444444444445,68.18114028748568h10v10h-10zM67.39999999999999,64.542513436314h10v10h-10zM68.40555555555555,60.934904466950485h10v10h-10zM69.41111111111111,57.30991582840255h10v10h-10zM70.41666666666666,53.69132387365169h10v10h-10zM71.42222222222222,50.01624799405177h10v10h-10zM72.42777777777778,46.38510405600114h10v10h-10zM73.43333333333334,42.542748860502215h10v10h-10zM74.43888888888888,39.01467601608633h10v10h-10zM75.44444444444446,35.5954674883666h10v10h-10zM76.45,35.499999999999964h10v10h-10zM77.45555555555556,35.587381114510016h10v10h-10zM78.46111111111112,36.34508641408729h10v10h-10zM79.46666666666667,36.74662918753322h10v10h-10zM80.47222222222223,36.689421109801515h10v10h-10zM81.47777777777779,36.93032263543968h10v10h-10zM82.48333333333333,37.51193809237865h10v10h-10zM83.48888888888888,38.78825754810177h10v10h-10zM84.49444444444445,38.915104994717844h10v10h-10zM85.5,39.31713053675221h10v10h-10zM86.50555555555555,39.271629597290506h10v10h-10zM87.5111111111111,40.68252079704501h10v10h-10zM88.51666666666668,40.59682937259453h10v10h-10zM89.52222222222223,42.138792244114h10v10h-10zM90.52777777777779,43.06450101247304h10v10h-10zM91.53333333333333,43.72492844147694h10v10h-10zM92.5388888888889,43.3976113385057h10v10h-10zM93.54444444444445,43.268108664653134h10v10h-10zM94.54999999999998,45.83776516884231h10v10h-10zM95.55555555555556,46.44991573900101h10v10h-10zM96.56111111111112,47.25650135815913h10v10h-10zM97.56666666666666,46.506641048144225h10v10h-10zM98.57222222222222,48.47645758118035h10v10h-10zM99.57777777777778,49.7780016956501h10v10h-10zM100.58333333333334,50.476929919583256h10v10h-10zM101.58888888888889,51.21206578765039h10v10h-10zM102.59444444444445,51.847268557907604h10v10h-10zM103.6,52.84394430876925h10v10h-10zM104.60555555555557,53.894328065096296h10v10h-10zM105.61111111111111,54.801691627093994h10v10h-10zM106.61666666666667,55.673813082134735h10v10h-10zM107.62222222222222,56.54955530158879h10v10h-10zM108.62777777777775,57.44484964887521h10v10h-10zM109.63333333333335,58.40555913989709h10v10h-10zM110.63888888888889,59.3336817511983h10v10h-10zM111.64444444444445,60.267597585561035h10v10h-10zM112.64999999999998,61.1923408167431h10v10h-10zM113.65555555555558,62.17839565865877h10v10h-10zM114.66111111111111,63.154674436658226h10v10h-10zM115.66666666666669,64.1386775120729h10v10h-10zM116.67222222222222,65.12618065975393h10v10h-10zM117.6777777777778,66.13733946826912h10v10h-10zM118.68333333333334,67.15187765690347h10v10h-10zM119.68888888888888,68.1766746780425h10v10h-10zM120.69444444444444,69.21209260812745h10v10h-10zM121.69999999999999,70.25873490789398h10v10h-10zM122.70555555555556,71.31479119513534h10v10h-10zM123.71111111111111,72.37808901120347h10v10h-10zM124.71666666666667,73.45442157915986h10v10h-10zM125.72222222222223,74.54077159532667h10v10h-10zM126.72777777777776,75.63725975185096h10v10h-10zM127.73333333333335,76.7418342822319h10v10h-10zM128.7388888888889,77.85630556867606h10v10h-10zM129.74444444444444,78.98043222688932h10v10h-10zM130.75,80.11349010398892h10v10h-10zM131.75555555555556,81.25125497482603h10v10h-10zM132.76111111111112,82.40784782061267h10v10h-10zM133.76666666666668,83.56866489154841h10v10h-10zM134.77222222222224,84.73865456566469h10v10h-10zM135.77777777777777,85.91769615081449h10v10h-10zM136.78333333333336,87.10566895485069h10v10h-10zM137.7888888888889,88.30245228562613h10v10h-10zM138.79444444444445,89.50792545099375h10v10h-10zM139.79999999999998,90.7222091431006h10v10h-10zM140.80555555555557,91.94530336194681h10v10h-10zM141.8111111111111,93.17684603109088h10v10h-10zM142.81666666666666,94.41707853482711h10v10h-10zM143.82222222222222,95.66575948886127h10v10h-10zM144.82777777777775,96.9227682010463h10v10h-10zM145.83333333333331,98.18834605567633h10v10h-10zM146.8388888888889,99.46225166845717h10v10h-10zM147.84444444444443,100.74436434724177h10v10h-10zM148.85,102.03468409202999h10v10h-10zM149.85555555555555,103.33333159496904h10v10h-10zM150.86111111111111,104.64006547176471h10v10h-10zM151.86666666666667,105.95488572241699h10v10h-10zM152.87222222222223,107.27779234692584h10v10h-10zM153.87777777777777,108.60866465314417h10v10h-10zM154.88333333333333,109.94750264107199h10v10h-10zM155.8888888888889,111.29430631070927h10v10h-10zM156.89444444444445,112.64895496990889h10v10h-10zM157.9,114.01156931081803h10v10h-10zM158.90555555555557,115.38190794914243h10v10h-10zM159.91111111111113,116.75997088488205h10v10h-10zM160.91666666666669,118.14575811803692h10v10h-10zM161.92222222222225,119.53926964860706h10v10h-10zM162.92777777777778,120.9405054765924h10v10h-10zM163.93333333333334,122.34922421769885h10v10h-10zM164.9388888888889,123.7656672562205h10v10h-10zM165.94444444444443,125.18959320786314h10v10h-10zM166.95,126.62100207262682h10v10h-10zM167.95555555555555,128.06001454265873h10v10h-10zM168.9611111111111,129.50638923366446h10v10h-10zM169.96666666666667,130.96024683779123h10v10h-10zM170.97222222222223,132.4214666628919h10v10h-10zM171.97777777777776,133.89004870896648h10v10h-10zM172.98333333333332,135.365992976015h10v10h-10zM173.9888888888889,136.84929946403747h10v10h-10zM174.99444444444444,138.33984748088668h10v10h-10zM176,139.83763702656267h10v10h-10zM177.00555555555556,141.34266810106553h10v10h-10zM178.0111111111111,142.85494070439515h10v10h-10zM179.01666666666665,144.37445483655154h10v10h-10zM180.0222222222222,145.90096911324048h10v10h-10zM181.0277777777778,147.43472491875627h10v10h-10zM182.03333333333336,148.97560156095176h10v10h-10zM183.0388888888889,150.52347834767977h10v10h-10zM184.04444444444445,152.0784759710875h10v10h-10zM185.05,153.64059443117495h10v10h-10zM186.05555555555557,155.20959234364778h10v10h-10zM187.0611111111111,156.7857110928004h10v10h-10zM188.06666666666666,158.3687092943383h10v10h-10zM189.07222222222222,159.95870764040893h10v10h-10zM190.07777777777775,161.5557061310121h10v10h-10zM191.08333333333331,163.1595840740006h10v10h-10zM192.08888888888887,164.77046216152186h10v10h-10zM193.09444444444443,166.38809900928143h10v10h-10zM194.09999999999997,168.01273600157347h10v10h-10zM195.10555555555555,169.6441317541039h10v10h-10zM196.11111111111111,171.28240695901982h10v10h-10zM197.11666666666667,172.9274409241741h10v10h-10zM198.12222222222223,174.57935434171375h10v10h-10zM199.12777777777782,176.23802651949183h10v10h-10zM200.13333333333333,177.90345745750818h10v10h-10zM201.13888888888889,179.57576784791007h10v10h-10zM202.14444444444445,181.25471630640305h10v10h-10zM203.15000000000003,182.94042352513446h10v10h-10zM204.15555555555557,184.63288950410424h10v10h-10zM205.1611111111111,186.33199355116528h10v10h-10zM206.16666666666669,188.03785635846458h10v10h-10zM207.1722222222222,189.75047792600225h10v10h-10zM208.17777777777778,191.46961686948418h10v10h-10zM209.18333333333334,193.19551457320426h10v10h-10zM210.1888888888889,194.92805034501563h10v10h-10zM211.19444444444443,196.6672241849182h10v10h-10zM212.2,198.4130360929121h10v10h-10zM213.20555555555555,200.16548606899724h10v10h-10zM214.21111111111114,201.92445342102639h10v10h-10zM215.21666666666664,203.6901795332939h10v10h-10zM216.22222222222223,205.46242302150557h10v10h-10zM217.22777777777776,207.24118388566131h10v10h-10zM218.23333333333335,209.02670351005546h10v10h-10zM219.2388888888889,210.8186198182466h10v10h-10zM220.24444444444444,212.61717419452887h10v10h-10zM221.25,214.42224594675542h10v10h-10zM222.2555555555556,216.23395576707304h10v10h-10zM223.2611111111111,218.05218296333484h10v10h-10zM224.2666666666667,219.87692753554083h10v10h-10zM225.2722222222222,221.7081894836909h10v10h-10zM226.27777777777777,223.54596880778513h10v10h-10zM227.28333333333336,225.39038619997052h10v10h-10zM228.2888888888889,227.24120027595285h10v10h-10zM229.29444444444445,229.0986524200265h10v10h-10zM230.29999999999995,230.9625012478972h10v10h-10zM231.30555555555557,232.83286745171193h10v10h-10zM232.31111111111116,234.70975103147086h10v10h-10zM233.31666666666666,236.59315198717385h10v10h-10zM234.32222222222222,238.483070318821h10v10h-10zM235.32777777777775,240.3795060264122h10v10h-10zM236.33333333333331,242.2823384178005h10v10h-10zM237.3388888888889,244.19180887727995h10v10h-10zM238.34444444444443,246.10767602055645h10v10h-10zM239.35000000000002,248.03006053977703h10v10h-10zM240.35555555555553,249.95884174279462h10v10h-10zM241.36111111111111,251.89426101390347h10v10h-10zM242.36666666666667,253.83607696880927h10v10h-10zM243.37222222222223,255.78441029965933h10v10h-10zM244.37777777777777,257.7392610064534h10v10h-10zM245.38333333333335,259.70050839704436h10v10h-10zM246.38888888888889,261.66839385572666h10v10h-10zM247.39444444444445,263.642675998206h10v10h-10zM248.39999999999998,265.62347551662947h10v10h-10zM249.40555555555557,267.61067171884986h10v10h-10zM250.41111111111113,269.60450598916157h10v10h-10zM251.41666666666663,271.60473694327027h10v10h-10zM252.42222222222222,273.6116059654702h10v10h-10zM253.4277777777778,275.6248716714671h10v10h-10zM254.43333333333334,277.6446547534081h10v10h-10zM255.43888888888887,279.67095521129323h10v10h-10zM256.44444444444446,281.70377304512243h10v10h-10zM257.45000000000005,283.74310825489584h10v10h-10zM258.4555555555555,285.78896084061336h10v10h-10zM259.4611111111111,287.8413308022749h10v10h-10zM260.4666666666667,289.9002181398807h10v10h-10zM261.4722222222222,291.9656228534305h10v10h-10zM262.4777777777778,294.0376656350716h10v10h-10zM263.4833333333333,296.11622579265685h10v10h-10zM264.4888888888889,298.2013033261861h10v10h-10zM265.49444444444447,300.2928982356596h10v10h-10zM266.5,302.3910105210772h10v10h-10zM267.50555555555553,304.495760874586h10v10h-10zM268.5111111111111,306.6071492961859h10v10h-10zM269.51666666666665,308.72505509373013h10v10h-10zM270.52222222222224,310.84947826721844h10v10h-10zM271.52777777777777,312.98053950879785h10v10h-10zM272.5333333333333,315.1181181263215h10v10h-10zM273.5388888888889,317.2624555040835h10v10h-10zM274.5444444444445,319.41331025778953h10v10h-10zM275.55,321.57068238743966h10v10h-10zM276.55555555555554,323.7348132773282h10v10h-10zM277.56111111111113,325.9054615431609h10v10h-10zM278.5666666666667,328.08286856923183h10v10h-10zM279.5722222222222,330.266792971247h10v10h-10zM280.5777777777778,332.45735544135334h10v10h-10zM281.5833333333333,334.654676671698h10v10h-10zM282.5888888888889,336.8585152779868h10v10h-10zM283.5944444444445,339.069112644514h10v10h-10zM284.59999999999997,341.2863480791324h10v10h-10zM285.60555555555555,343.5103422739891h10v10h-10zM286.61111111111114,345.74085384478985h10v10h-10zM287.6166666666667,347.97824486797623h10v10h-10zM288.6222222222222,350.22215326710665h10v10h-10zM289.62777777777774,352.4728204264754h10v10h-10zM290.6333333333333,354.73024634608254h10v10h-10zM291.63888888888886,356.9943103337808h10v10h-10zM292.64444444444445,359.2651330817175h10v10h-10zM293.65,361.5427145898926h10v10h-10zM294.6555555555555,363.827054858306h10v10h-10zM295.66111111111115,366.1180331948106h10v10h-10zM296.66666666666663,368.41577029155343h10v10h-10zM297.6722222222222,370.72026614853473h10v10h-10zM298.6777777777778,373.0315207657544h10v10h-10zM299.68333333333334,375.3495341432124h10v10h-10zM300.68888888888887,377.6743062809088h10v10h-10zM301.6944444444444,380.0058371788435h10v10h-10zM302.7,382.3441268370165h10v10h-10zM303.7055555555556,384.689295947575h10v10h-10zM304.7111111111111,387.0411031262246h10v10h-10zM305.71666666666664,389.3997897572597h10v10h-10zM306.72222222222223,391.7652351485333h10v10h-10zM307.7277777777778,394.13743930004523h10v10h-10zM308.73333333333335,396.5164022117954h10v10h-10zM309.7388888888889,398.90224457593104h10v10h-10zM310.74444444444447,401.294845700305h10v10h-10zM311.75000000000006,403.6942055849173h10v10h-10zM312.75555555555553,406.1003242297681h10v10h-10zM313.7611111111111,408.5133223270042h10v10h-10zM314.7666666666666,410.9330791844787h10v10h-10zM315.7722222222222,413.3597154943387h10v10h-10zM316.7777777777778,415.7929898722898h10v10h-10zM317.7833333333333,418.2332643947736h10v10h-10zM318.7888888888889,420.68017698534857h10v10h-10zM319.7944444444444,423.13384833616186h10v10h-10zM320.8,425.59439913936075h10v10h-10zM321.80555555555554,428.06170870279783h10v10h-10zM322.8111111111111,430.5358977186204h10v10h-10zM323.81666666666666,433.0167248025342h10v10h-10zM324.82222222222225,435.50443133883346h10v10h-10zM325.8277777777778,437.998775943224h10v10h-10zM326.8333333333333,440.5h10v10h-10z" style="fill: none; pointer-events: visiblefill;"></path></g></svg><g><g transform="translate(0,486)"><path d="M0,0h362M0,-8V0M10,-8V0M20,-8V0M30,-15V0M40,-8V0M50,-8V0M60,-8V0M70,-8V0M80,-15V0M91,-8V0M101,-8V0M111,-8V0M121,-8V0M131,-15V0M141,-8V0M151,-8V0M161,-8V0M171,-8V0M181,-15V0M191,-8V0M201,-8V0M211,-8V0M221,-8V0M231,-15V0M241,-8V0M251,-8V0M261,-8V0M272,-8V0M282,-15V0M292,-8V0M302,-8V0M312,-8V0M322,-8V0M332,-15V0M342,-8V0M352,-8V0M362,-8V0" style="stroke: black; stroke-width: 1;"></path><g font-family="Arial" font-size="16" xml:space="preserve" fill="black" text-anchor="middle"><text dy=".8em" transform="translate(30,3)">-1.5</text><text dy=".8em" transform="translate(80,3)">-1</text><text dy=".8em" transform="translate(131,3)">-0.5</text><text dy=".8em" transform="translate(181,3)">0</text><text dy=".8em" transform="translate(231,3)">0.5</text><text dy=".8em" transform="translate(282,3)">1</text><text dy=".8em" transform="translate(332,3)">1.5</text></g><rect x="0" y="0" width="362" height="19" style="opacity: 0; cursor: crosshair;"></rect><g font-family="Arial" font-size="16" xml:space="preserve" transform="translate(362,34)" style="cursor: move;"><text fill="black" text-anchor="end" dominant-baseline="middle">Delta</text></g></g><g><path d="M0,0v486M6,475H0M11,463H0M6,451H0M6,439H0M6,427H0M6,415H0M11,403H0M6,391H0M6,379H0M6,366H0M6,354H0M11,342H0M6,330H0M6,318H0M6,306H0M6,294H0M11,282H0M6,270H0M6,258H0M6,246H0M6,234H0M11,222H0M6,210H0M6,197H0M6,185H0M6,173H0M11,161H0M6,149H0M6,137H0M6,125H0M6,113H0M11,101H0M6,89H0M6,77H0M6,65H0M6,53H0M11,41H0M6,29H0M6,16H0M6,4H0" style="stroke: black; stroke-width: 1;"></path><g font-family="Arial" font-size="16" xml:space="preserve" fill="black" text-anchor="end"><text dominant-baseline="middle" transform="translate(-3,463)">-6.5</text><text dominant-baseline="middle" transform="translate(-3,403)">-6</text><text dominant-baseline="middle" transform="translate(-3,342)">-5.5</text><text dominant-baseline="middle" transform="translate(-3,282)">-5</text><text dominant-baseline="middle" transform="translate(-3,222)">-4.5</text><text dominant-baseline="middle" transform="translate(-3,161)">-4</text><text dominant-baseline="middle" transform="translate(-3,101)">-3.5</text><text dominant-baseline="middle" transform="translate(-3,41)">-3</text></g><rect x="-30" y="0" width="30" height="486" style="opacity: 0; cursor: crosshair;"></rect><g font-family="Arial" font-size="16" xml:space="preserve" transform="translate(-38)" style="cursor: move;"><text fill="black" text-anchor="end" dominant-baseline="middle" transform="rotate(270)">Total Ground Energy</text></g></g><path d="M30,0v486M80,0v486M131,0v486M181,0v486M231,0v486M282,0v486M332,0v486" style="stroke: black; stroke-width: 1; stroke-dasharray: 1, 2;"></path><path d="M0,463h362M0,403h362M0,342h362M0,282h362M0,222h362M0,161h362M0,101h362M0,41h362" style="stroke: black; stroke-width: 1; stroke-dasharray: 1, 2;"></path></g><path d="M2,2h15v-5h-20v20h5Z" style="opacity: 0; cursor: nw-resize;"></path><path d="M360,2h-15v-5h20v20h-5 Z" style="opacity: 0; cursor: ne-resize;"></path><path d="M2,484h15v5h-20v-20h5Z" style="opacity: 0; cursor: sw-resize;"></path><path d="M360,484h-15v5h20v-20h-5Z" style="opacity: 0; cursor: se-resize;"></path><path d="M-3,18h5v450h-5Z" style="opacity: 0; cursor: w-resize;"></path><path d="M365,18h-5v450h5Z" style="opacity: 0; cursor: e-resize;"></path><path d="M18,-3v5h326v-5Z" style="opacity: 0; cursor: n-resize;"></path><path d="M18,489v-5h326v5Z" style="opacity: 0; cursor: s-resize;"></path></g><g transform="translate(45,3)" font-family="Arial" font-size="16" xml:space="preserve" style="cursor: move;"><path d="M0,0H362V40H0Z" style="fill: none; pointer-events: visiblefill;"></path><text fill="black" text-anchor="middle" dy=".8em" transform="translate(181)">Lanczos alogrithm, num = 12, error = 1e-13</text><path d="M2,2h15v-5h-20v20h5Z" style="opacity: 0; cursor: nw-resize;"></path><path d="M360,2h-15v-5h20v20h-5 Z" style="opacity: 0; cursor: ne-resize;"></path><path d="M2,38h15v5h-20v-20h5Z" style="opacity: 0; cursor: sw-resize;"></path><path d="M360,38h-15v5h20v-20h-5Z" style="opacity: 0; cursor: se-resize;"></path><path d="M-3,18h5v4h-5Z" style="opacity: 0; cursor: w-resize;"></path><path d="M365,18h-5v4h5Z" style="opacity: 0; cursor: e-resize;"></path><path d="M18,-3v5h326v-5Z" style="opacity: 0; cursor: n-resize;"></path><path d="M18,43v-5h326v5Z" style="opacity: 0; cursor: s-resize;"></path></g></g></svg>