<svg width="453" height="607" xmlns="http://www.w3.org/2000/svg"><defs><pattern id="pat_3001_1" patternUnits="userSpaceOnUse" width="2" height="2"><path d="M0,0h1v1h-1zM1,1h1v1h-1z" style="fill: black;"></path></pattern><pattern id="pat_3002_1" patternUnits="userSpaceOnUse" width="4" height="2"><path d="M1,0h1v1h-1zM3,1h1v1h-1z" style="fill: black;"></path></pattern><pattern id="pat_3003_1" patternUnits="userSpaceOnUse" width="4" height="4"><path d="M2,1h1v1h-1zM0,3h1v1h-1z" style="fill: black;"></path></pattern><pattern id="pat_3004_1" patternUnits="userSpaceOnUse" width="8" height="8"><path d="M8,0L0,8" style="stroke: black; stroke-width: 1;"></path></pattern><pattern id="pat_3005_1" patternUnits="userSpaceOnUse" width="8" height="8"><path d="M0,0L8,8" style="stroke: black; stroke-width: 1;"></path></pattern><pattern id="pat_3006_1" patternUnits="userSpaceOnUse" width="4" height="4"><path d="M1,0v4" style="stroke: black; stroke-width: 1;"></path></pattern><pattern id="pat_3007_1" patternUnits="userSpaceOnUse" width="4" height="4"><path d="M0,1h4" style="stroke: black; stroke-width: 1;"></path></pattern><pattern id="pat_3010_1" patternUnits="userSpaceOnUse" width="10" height="10"><path d="M0,2h10M0,7h10M2,0v2M7,2v5M2,7v3" style="stroke: black; stroke-width: 1;"></path></pattern><pattern id="pat_3021_1" patternUnits="userSpaceOnUse" width="8" height="8"><path d="M8,2h-2v4h-4v2M2,0v2h-2" style="stroke: black; stroke-width: 1; fill: none;"></path></pattern><pattern id="pat_3022_1" patternUnits="userSpaceOnUse" width="8" height="8"><path d="M0,2h2v4h4v2M6,0v2h2" style="stroke: black; stroke-width: 1; fill: none;"></path></pattern></defs><title>12_15.root/c1;1</title><path d="M0,0H453V607H0Z" style="pointer-events: visiblefill; fill: white;"></path><g><g transform="translate(45,61)"><title></title><path d="M0,0H362V486H0Z" style="fill: white; stroke: black; stroke-width: 1; pointer-events: visiblefill; cursor: default;"></path><svg x="0" y="0" overflow="hidden" width="362" height="486" viewBox="0 0 362 486" style="pointer-events: visiblefill; cursor: default;"><g style="cursor: move;"><path d="M30,222l1,-4l1,-4l1,-3l1,-4l1,-3l1,-4l1,-4l1,-3l1,-4l1,-4l1,-3l1,-4l1,-3l1,-4l1,-4l1,-3l1,-4l1,-4l1,-3l1,-4l1,-3l1,-4l1,-4l1,-3l1,-4l1,-3l1,-4l1,-4l1,-3l1,-4l1,-4l1,-3l1,-4l1,-3l1,-4l1,-4l1,-3l1,-4l1,-4l1,-3l1,-4l1,-3l1,-4l1,-4l1,-3l1,-4l1,-4l1,-3l1,-4l1,-3h3l1,1h1l1,1h1l1,1h3l1,1l1,1h1l1,1h1l1,1l1,1l1,1l1,1h1l1,1l1,1l1,1l1,1l1,1h1l1,1l1,1l1,1l1,1l1,1l1,1h1l1,1l1,1l1,1l1,1l1,1l1,1l1,1l1,1l1,1l1,1l1,1l1,1l1,1l1,1l1,1l1,1l1,2l1,1l1,1l1,1l1,1l1,1l1,1l1,1l1,2l1,1l1,1l1,1l1,1l1,2l1,1l1,1l1,1l1,1l1,2l1,1l1,1l1,1l1,2l1,1l1,1l1,2l1,1l1,1l1,2l1,1l1,1l1,2l1,1l1,1l1,2l1,1l1,2l1,1l1,1l1,2l1,1l1,2l1,1l1,2l1,1l1,1l1,2l1,1l1,2l1,1l1,2l1,1l1,2l1,1l1,2l1,1l1,2l1,2l1,1l1,2l1,1l1,2l1,1l1,2l1,2l1,1l1,2l1,1l1,2l1,2l1,1l1,2l1,2l1,1l1,2l1,2l1,1l1,2l1,2l1,1l1,2l1,2l1,1l1,2l1,2l1,2l1,1l1,2l1,2l1,2l1,1l1,2l1,2l1,2l1,2l1,1l1,2l1,2l1,2l1,2l1,2l1,1l1,2l1,2l1,2l1,2l1,2l1,2l1,1l1,2l1,2l1,2l1,2l1,2l1,2l1,2l1,2l1,2l1,2l1,2l1,2l1,2l1,2l1,2l1,2l1,2l1,2l1,2l1,2l1,2l1,2l1,2l1,2l1,2l1,2l1,2l1,2l1,2l1,2l1,2l2,2l1,3l1,2l1,2l1,2l1,2l1,2l1,2l1,2l1,3l1,2l1,2l1,2l1,2l1,2l1,3l1,2l1,2l1,2l1,3l1,2l1,2l1,2l1,2l1,3l1,2l1,2l1,3l1,2l1,2l1,2l1,3l1,2l1,2l1,3l1,2l1,2l1,3l1,2l1,2l1,3l1,2l1,3l1,2l1,2l1,3l1,2l1,3l1,2l1,2l1,3l1,2l1,3l1,2l1,3l1,2l1,3l1,2l1,3l1,2l1,3" style="stroke: black; stroke-width: 1; fill: none;"></path><path d="M29.37,221.65a0.80,0.80,0,1,0,1.60,0a0.80,0.80,0,1,0,-1.60,0zM30.37,218.03a0.80,0.80,0,1,0,1.60,0a0.80,0.80,0,1,0,-1.60,0zM31.38,214.40a0.80,0.80,0,1,0,1.60,0a0.80,0.80,0,1,0,-1.60,0zM32.38,210.78a0.80,0.80,0,1,0,1.60,0a0.80,0.80,0,1,0,-1.60,0zM33.39,207.16a0.80,0.80,0,1,0,1.60,0a0.80,0.80,0,1,0,-1.60,0zM34.39,203.54a0.80,0.80,0,1,0,1.60,0a0.80,0.80,0,1,0,-1.60,0zM35.40,199.92a0.80,0.80,0,1,0,1.60,0a0.80,0.80,0,1,0,-1.60,0zM36.41,196.30a0.80,0.80,0,1,0,1.60,0a0.80,0.80,0,1,0,-1.60,0zM37.41,192.68a0.80,0.80,0,1,0,1.60,0a0.80,0.80,0,1,0,-1.60,0zM38.42,189.06a0.80,0.80,0,1,0,1.60,0a0.80,0.80,0,1,0,-1.60,0zM39.42,185.44a0.80,0.80,0,1,0,1.60,0a0.80,0.80,0,1,0,-1.60,0zM40.43,181.82a0.80,0.80,0,1,0,1.60,0a0.80,0.80,0,1,0,-1.60,0zM41.43,178.20a0.80,0.80,0,1,0,1.60,0a0.80,0.80,0,1,0,-1.60,0zM42.44,174.58a0.80,0.80,0,1,0,1.60,0a0.80,0.80,0,1,0,-1.60,0zM43.44,170.96a0.80,0.80,0,1,0,1.60,0a0.80,0.80,0,1,0,-1.60,0zM44.45,167.34a0.80,0.80,0,1,0,1.60,0a0.80,0.80,0,1,0,-1.60,0zM45.46,163.72a0.80,0.80,0,1,0,1.60,0a0.80,0.80,0,1,0,-1.60,0zM46.46,160.10a0.80,0.80,0,1,0,1.60,0a0.80,0.80,0,1,0,-1.60,0zM47.47,156.48a0.80,0.80,0,1,0,1.60,0a0.80,0.80,0,1,0,-1.60,0zM48.47,152.85a0.80,0.80,0,1,0,1.60,0a0.80,0.80,0,1,0,-1.60,0zM49.48,149.23a0.80,0.80,0,1,0,1.60,0a0.80,0.80,0,1,0,-1.60,0zM50.48,145.61a0.80,0.80,0,1,0,1.60,0a0.80,0.80,0,1,0,-1.60,0zM51.49,141.99a0.80,0.80,0,1,0,1.60,0a0.80,0.80,0,1,0,-1.60,0zM52.49,138.37a0.80,0.80,0,1,0,1.60,0a0.80,0.80,0,1,0,-1.60,0zM53.50,134.75a0.80,0.80,0,1,0,1.60,0a0.80,0.80,0,1,0,-1.60,0zM54.51,131.13a0.80,0.80,0,1,0,1.60,0a0.80,0.80,0,1,0,-1.60,0zM55.51,127.51a0.80,0.80,0,1,0,1.60,0a0.80,0.80,0,1,0,-1.60,0zM56.52,123.89a0.80,0.80,0,1,0,1.60,0a0.80,0.80,0,1,0,-1.60,0zM57.52,120.27a0.80,0.80,0,1,0,1.60,0a0.80,0.80,0,1,0,-1.60,0zM58.53,116.65a0.80,0.80,0,1,0,1.60,0a0.80,0.80,0,1,0,-1.60,0zM59.53,113.03a0.80,0.80,0,1,0,1.60,0a0.80,0.80,0,1,0,-1.60,0zM60.54,109.41a0.80,0.80,0,1,0,1.60,0a0.80,0.80,0,1,0,-1.60,0zM61.54,105.79a0.80,0.80,0,1,0,1.60,0a0.80,0.80,0,1,0,-1.60,0zM62.55,102.17a0.80,0.80,0,1,0,1.60,0a0.80,0.80,0,1,0,-1.60,0zM63.56,98.55a0.80,0.80,0,1,0,1.60,0a0.80,0.80,0,1,0,-1.60,0zM64.56,94.93a0.80,0.80,0,1,0,1.60,0a0.80,0.80,0,1,0,-1.60,0zM65.57,91.30a0.80,0.80,0,1,0,1.60,0a0.80,0.80,0,1,0,-1.60,0zM66.57,87.68a0.80,0.80,0,1,0,1.60,0a0.80,0.80,0,1,0,-1.60,0zM67.58,84.06a0.80,0.80,0,1,0,1.60,0a0.80,0.80,0,1,0,-1.60,0zM68.58,80.44a0.80,0.80,0,1,0,1.60,0a0.80,0.80,0,1,0,-1.60,0zM69.59,76.82a0.80,0.80,0,1,0,1.60,0a0.80,0.80,0,1,0,-1.60,0zM70.59,73.20a0.80,0.80,0,1,0,1.60,0a0.80,0.80,0,1,0,-1.60,0zM71.60,69.57a0.80,0.80,0,1,0,1.60,0a0.80,0.80,0,1,0,-1.60,0zM72.61,65.96a0.80,0.80,0,1,0,1.60,0a0.80,0.80,0,1,0,-1.60,0zM73.61,62.34a0.80,0.80,0,1,0,1.60,0a0.80,0.80,0,1,0,-1.60,0zM74.62,58.71a0.80,0.80,0,1,0,1.60,0a0.80,0.80,0,1,0,-1.60,0zM75.62,55.09a0.80,0.80,0,1,0,1.60,0a0.80,0.80,0,1,0,-1.60,0zM76.63,51.40a0.80,0.80,0,1,0,1.60,0a0.80,0.80,0,1,0,-1.60,0zM77.63,47.79a0.80,0.80,0,1,0,1.60,0a0.80,0.80,0,1,0,-1.60,0zM78.64,44.03a0.80,0.80,0,1,0,1.60,0a0.80,0.80,0,1,0,-1.60,0zM79.64,40.62a0.80,0.80,0,1,0,1.60,0a0.80,0.80,0,1,0,-1.60,0zM80.65,40.50a0.80,0.80,0,1,0,1.60,0a0.80,0.80,0,1,0,-1.60,0zM81.66,40.55a0.80,0.80,0,1,0,1.60,0a0.80,0.80,0,1,0,-1.60,0zM82.66,40.78a0.80,0.80,0,1,0,1.60,0a0.80,0.80,0,1,0,-1.60,0zM83.67,41.72a0.80,0.80,0,1,0,1.60,0a0.80,0.80,0,1,0,-1.60,0zM84.67,42.16a0.80,0.80,0,1,0,1.60,0a0.80,0.80,0,1,0,-1.60,0zM85.68,42.81a0.80,0.80,0,1,0,1.60,0a0.80,0.80,0,1,0,-1.60,0zM86.68,43.20a0.80,0.80,0,1,0,1.60,0a0.80,0.80,0,1,0,-1.60,0zM87.69,43.85a0.80,0.80,0,1,0,1.60,0a0.80,0.80,0,1,0,-1.60,0zM88.69,44.31a0.80,0.80,0,1,0,1.60,0a0.80,0.80,0,1,0,-1.60,0zM89.70,44.21a0.80,0.80,0,1,0,1.60,0a0.80,0.80,0,1,0,-1.60,0zM90.71,45.14a0.80,0.80,0,1,0,1.60,0a0.80,0.80,0,1,0,-1.60,0zM91.71,46.18a0.80,0.80,0,1,0,1.60,0a0.80,0.80,0,1,0,-1.60,0zM92.72,45.67a0.80,0.80,0,1,0,1.60,0a0.80,0.80,0,1,0,-1.60,0zM93.72,47.40a0.80,0.80,0,1,0,1.60,0a0.80,0.80,0,1,0,-1.60,0zM94.73,47.50a0.80,0.80,0,1,0,1.60,0a0.80,0.80,0,1,0,-1.60,0zM95.73,47.96a0.80,0.80,0,1,0,1.60,0a0.80,0.80,0,1,0,-1.60,0zM96.74,48.59a0.80,0.80,0,1,0,1.60,0a0.80,0.80,0,1,0,-1.60,0zM97.74,49.76a0.80,0.80,0,1,0,1.60,0a0.80,0.80,0,1,0,-1.60,0zM98.75,50.97a0.80,0.80,0,1,0,1.60,0a0.80,0.80,0,1,0,-1.60,0zM99.76,51.12a0.80,0.80,0,1,0,1.60,0a0.80,0.80,0,1,0,-1.60,0zM100.76,51.84a0.80,0.80,0,1,0,1.60,0a0.80,0.80,0,1,0,-1.60,0zM101.77,53.03a0.80,0.80,0,1,0,1.60,0a0.80,0.80,0,1,0,-1.60,0zM102.77,53.90a0.80,0.80,0,1,0,1.60,0a0.80,0.80,0,1,0,-1.60,0zM103.78,54.53a0.80,0.80,0,1,0,1.60,0a0.80,0.80,0,1,0,-1.60,0zM104.78,55.60a0.80,0.80,0,1,0,1.60,0a0.80,0.80,0,1,0,-1.60,0zM105.79,56.14a0.80,0.80,0,1,0,1.60,0a0.80,0.80,0,1,0,-1.60,0zM106.79,57.09a0.80,0.80,0,1,0,1.60,0a0.80,0.80,0,1,0,-1.60,0zM107.80,57.83a0.80,0.80,0,1,0,1.60,0a0.80,0.80,0,1,0,-1.60,0zM108.81,58.60a0.80,0.80,0,1,0,1.60,0a0.80,0.80,0,1,0,-1.60,0zM109.81,59.57a0.80,0.80,0,1,0,1.60,0a0.80,0.80,0,1,0,-1.60,0zM110.82,60.66a0.80,0.80,0,1,0,1.60,0a0.80,0.80,0,1,0,-1.60,0zM111.82,61.54a0.80,0.80,0,1,0,1.60,0a0.80,0.80,0,1,0,-1.60,0zM112.83,62.49a0.80,0.80,0,1,0,1.60,0a0.80,0.80,0,1,0,-1.60,0zM113.83,63.42a0.80,0.80,0,1,0,1.60,0a0.80,0.80,0,1,0,-1.60,0zM114.84,64.32a0.80,0.80,0,1,0,1.60,0a0.80,0.80,0,1,0,-1.60,0zM115.84,65.28a0.80,0.80,0,1,0,1.60,0a0.80,0.80,0,1,0,-1.60,0zM116.85,66.24a0.80,0.80,0,1,0,1.60,0a0.80,0.80,0,1,0,-1.60,0zM117.86,67.19a0.80,0.80,0,1,0,1.60,0a0.80,0.80,0,1,0,-1.60,0zM118.86,68.17a0.80,0.80,0,1,0,1.60,0a0.80,0.80,0,1,0,-1.60,0zM119.87,69.16a0.80,0.80,0,1,0,1.60,0a0.80,0.80,0,1,0,-1.60,0zM120.87,70.10a0.80,0.80,0,1,0,1.60,0a0.80,0.80,0,1,0,-1.60,0zM121.88,71.16a0.80,0.80,0,1,0,1.60,0a0.80,0.80,0,1,0,-1.60,0zM122.88,72.17a0.80,0.80,0,1,0,1.60,0a0.80,0.80,0,1,0,-1.60,0zM123.89,73.20a0.80,0.80,0,1,0,1.60,0a0.80,0.80,0,1,0,-1.60,0zM124.89,74.23a0.80,0.80,0,1,0,1.60,0a0.80,0.80,0,1,0,-1.60,0zM125.90,75.28a0.80,0.80,0,1,0,1.60,0a0.80,0.80,0,1,0,-1.60,0zM126.91,76.33a0.80,0.80,0,1,0,1.60,0a0.80,0.80,0,1,0,-1.60,0zM127.91,77.40a0.80,0.80,0,1,0,1.60,0a0.80,0.80,0,1,0,-1.60,0zM128.92,78.48a0.80,0.80,0,1,0,1.60,0a0.80,0.80,0,1,0,-1.60,0zM129.92,79.56a0.80,0.80,0,1,0,1.60,0a0.80,0.80,0,1,0,-1.60,0zM130.93,80.66a0.80,0.80,0,1,0,1.60,0a0.80,0.80,0,1,0,-1.60,0zM131.93,81.76a0.80,0.80,0,1,0,1.60,0a0.80,0.80,0,1,0,-1.60,0zM132.94,82.88a0.80,0.80,0,1,0,1.60,0a0.80,0.80,0,1,0,-1.60,0zM133.94,84.00a0.80,0.80,0,1,0,1.60,0a0.80,0.80,0,1,0,-1.60,0zM134.95,85.13a0.80,0.80,0,1,0,1.60,0a0.80,0.80,0,1,0,-1.60,0zM135.96,86.28a0.80,0.80,0,1,0,1.60,0a0.80,0.80,0,1,0,-1.60,0zM136.96,87.43a0.80,0.80,0,1,0,1.60,0a0.80,0.80,0,1,0,-1.60,0zM137.97,88.59a0.80,0.80,0,1,0,1.60,0a0.80,0.80,0,1,0,-1.60,0zM138.97,89.76a0.80,0.80,0,1,0,1.60,0a0.80,0.80,0,1,0,-1.60,0zM139.98,90.94a0.80,0.80,0,1,0,1.60,0a0.80,0.80,0,1,0,-1.60,0zM140.98,92.12a0.80,0.80,0,1,0,1.60,0a0.80,0.80,0,1,0,-1.60,0zM141.99,93.32a0.80,0.80,0,1,0,1.60,0a0.80,0.80,0,1,0,-1.60,0zM142.99,94.53a0.80,0.80,0,1,0,1.60,0a0.80,0.80,0,1,0,-1.60,0zM144.00,95.74a0.80,0.80,0,1,0,1.60,0a0.80,0.80,0,1,0,-1.60,0zM145.01,96.96a0.80,0.80,0,1,0,1.60,0a0.80,0.80,0,1,0,-1.60,0zM146.01,98.20a0.80,0.80,0,1,0,1.60,0a0.80,0.80,0,1,0,-1.60,0zM147.02,99.44a0.80,0.80,0,1,0,1.60,0a0.80,0.80,0,1,0,-1.60,0zM148.02,100.68a0.80,0.80,0,1,0,1.60,0a0.80,0.80,0,1,0,-1.60,0zM149.03,101.94a0.80,0.80,0,1,0,1.60,0a0.80,0.80,0,1,0,-1.60,0zM150.03,103.21a0.80,0.80,0,1,0,1.60,0a0.80,0.80,0,1,0,-1.60,0zM151.04,104.48a0.80,0.80,0,1,0,1.60,0a0.80,0.80,0,1,0,-1.60,0zM152.04,105.76a0.80,0.80,0,1,0,1.60,0a0.80,0.80,0,1,0,-1.60,0zM153.05,107.05a0.80,0.80,0,1,0,1.60,0a0.80,0.80,0,1,0,-1.60,0zM154.06,108.35a0.80,0.80,0,1,0,1.60,0a0.80,0.80,0,1,0,-1.60,0zM155.06,109.66a0.80,0.80,0,1,0,1.60,0a0.80,0.80,0,1,0,-1.60,0zM156.07,110.97a0.80,0.80,0,1,0,1.60,0a0.80,0.80,0,1,0,-1.60,0zM157.07,112.30a0.80,0.80,0,1,0,1.60,0a0.80,0.80,0,1,0,-1.60,0zM158.08,113.63a0.80,0.80,0,1,0,1.60,0a0.80,0.80,0,1,0,-1.60,0zM159.08,114.97a0.80,0.80,0,1,0,1.60,0a0.80,0.80,0,1,0,-1.60,0zM160.09,116.31a0.80,0.80,0,1,0,1.60,0a0.80,0.80,0,1,0,-1.60,0zM161.09,117.67a0.80,0.80,0,1,0,1.60,0a0.80,0.80,0,1,0,-1.60,0zM162.10,119.03a0.80,0.80,0,1,0,1.60,0a0.80,0.80,0,1,0,-1.60,0zM163.11,120.40a0.80,0.80,0,1,0,1.60,0a0.80,0.80,0,1,0,-1.60,0zM164.11,121.78a0.80,0.80,0,1,0,1.60,0a0.80,0.80,0,1,0,-1.60,0zM165.12,123.16a0.80,0.80,0,1,0,1.60,0a0.80,0.80,0,1,0,-1.60,0zM166.12,124.56a0.80,0.80,0,1,0,1.60,0a0.80,0.80,0,1,0,-1.60,0zM167.13,125.96a0.80,0.80,0,1,0,1.60,0a0.80,0.80,0,1,0,-1.60,0zM168.13,127.37a0.80,0.80,0,1,0,1.60,0a0.80,0.80,0,1,0,-1.60,0zM169.14,128.78a0.80,0.80,0,1,0,1.60,0a0.80,0.80,0,1,0,-1.60,0zM170.14,130.21a0.80,0.80,0,1,0,1.60,0a0.80,0.80,0,1,0,-1.60,0zM171.15,131.64a0.80,0.80,0,1,0,1.60,0a0.80,0.80,0,1,0,-1.60,0zM172.16,133.08a0.80,0.80,0,1,0,1.60,0a0.80,0.80,0,1,0,-1.60,0zM173.16,134.52a0.80,0.80,0,1,0,1.60,0a0.80,0.80,0,1,0,-1.60,0zM174.17,135.98a0.80,0.80,0,1,0,1.60,0a0.80,0.80,0,1,0,-1.60,0zM175.17,137.44a0.80,0.80,0,1,0,1.60,0a0.80,0.80,0,1,0,-1.60,0zM176.18,138.91a0.80,0.80,0,1,0,1.60,0a0.80,0.80,0,1,0,-1.60,0zM177.18,140.38a0.80,0.80,0,1,0,1.60,0a0.80,0.80,0,1,0,-1.60,0zM178.19,141.87a0.80,0.80,0,1,0,1.60,0a0.80,0.80,0,1,0,-1.60,0zM179.19,143.36a0.80,0.80,0,1,0,1.60,0a0.80,0.80,0,1,0,-1.60,0zM180.20,144.85a0.80,0.80,0,1,0,1.60,0a0.80,0.80,0,1,0,-1.60,0zM181.21,146.36a0.80,0.80,0,1,0,1.60,0a0.80,0.80,0,1,0,-1.60,0zM182.21,147.87a0.80,0.80,0,1,0,1.60,0a0.80,0.80,0,1,0,-1.60,0zM183.22,149.39a0.80,0.80,0,1,0,1.60,0a0.80,0.80,0,1,0,-1.60,0zM184.22,150.92a0.80,0.80,0,1,0,1.60,0a0.80,0.80,0,1,0,-1.60,0zM185.23,152.45a0.80,0.80,0,1,0,1.60,0a0.80,0.80,0,1,0,-1.60,0zM186.23,153.99a0.80,0.80,0,1,0,1.60,0a0.80,0.80,0,1,0,-1.60,0zM187.24,155.54a0.80,0.80,0,1,0,1.60,0a0.80,0.80,0,1,0,-1.60,0zM188.24,157.09a0.80,0.80,0,1,0,1.60,0a0.80,0.80,0,1,0,-1.60,0zM189.25,158.66a0.80,0.80,0,1,0,1.60,0a0.80,0.80,0,1,0,-1.60,0zM190.26,160.22a0.80,0.80,0,1,0,1.60,0a0.80,0.80,0,1,0,-1.60,0zM191.26,161.80a0.80,0.80,0,1,0,1.60,0a0.80,0.80,0,1,0,-1.60,0zM192.27,163.38a0.80,0.80,0,1,0,1.60,0a0.80,0.80,0,1,0,-1.60,0zM193.27,164.97a0.80,0.80,0,1,0,1.60,0a0.80,0.80,0,1,0,-1.60,0zM194.28,166.57a0.80,0.80,0,1,0,1.60,0a0.80,0.80,0,1,0,-1.60,0zM195.28,168.17a0.80,0.80,0,1,0,1.60,0a0.80,0.80,0,1,0,-1.60,0zM196.29,169.79a0.80,0.80,0,1,0,1.60,0a0.80,0.80,0,1,0,-1.60,0zM197.29,171.40a0.80,0.80,0,1,0,1.60,0a0.80,0.80,0,1,0,-1.60,0zM198.30,173.03a0.80,0.80,0,1,0,1.60,0a0.80,0.80,0,1,0,-1.60,0zM199.31,174.66a0.80,0.80,0,1,0,1.60,0a0.80,0.80,0,1,0,-1.60,0zM200.31,176.30a0.80,0.80,0,1,0,1.60,0a0.80,0.80,0,1,0,-1.60,0zM201.32,177.94a0.80,0.80,0,1,0,1.60,0a0.80,0.80,0,1,0,-1.60,0zM202.32,179.59a0.80,0.80,0,1,0,1.60,0a0.80,0.80,0,1,0,-1.60,0zM203.33,181.25a0.80,0.80,0,1,0,1.60,0a0.80,0.80,0,1,0,-1.60,0zM204.33,182.92a0.80,0.80,0,1,0,1.60,0a0.80,0.80,0,1,0,-1.60,0zM205.34,184.59a0.80,0.80,0,1,0,1.60,0a0.80,0.80,0,1,0,-1.60,0zM206.34,186.27a0.80,0.80,0,1,0,1.60,0a0.80,0.80,0,1,0,-1.60,0zM207.35,187.95a0.80,0.80,0,1,0,1.60,0a0.80,0.80,0,1,0,-1.60,0zM208.36,189.65a0.80,0.80,0,1,0,1.60,0a0.80,0.80,0,1,0,-1.60,0zM209.36,191.35a0.80,0.80,0,1,0,1.60,0a0.80,0.80,0,1,0,-1.60,0zM210.37,193.05a0.80,0.80,0,1,0,1.60,0a0.80,0.80,0,1,0,-1.60,0zM211.37,194.76a0.80,0.80,0,1,0,1.60,0a0.80,0.80,0,1,0,-1.60,0zM212.38,196.48a0.80,0.80,0,1,0,1.60,0a0.80,0.80,0,1,0,-1.60,0zM213.38,198.21a0.80,0.80,0,1,0,1.60,0a0.80,0.80,0,1,0,-1.60,0zM214.39,199.94a0.80,0.80,0,1,0,1.60,0a0.80,0.80,0,1,0,-1.60,0zM215.39,201.68a0.80,0.80,0,1,0,1.60,0a0.80,0.80,0,1,0,-1.60,0zM216.40,203.43a0.80,0.80,0,1,0,1.60,0a0.80,0.80,0,1,0,-1.60,0zM217.41,205.18a0.80,0.80,0,1,0,1.60,0a0.80,0.80,0,1,0,-1.60,0zM218.41,206.94a0.80,0.80,0,1,0,1.60,0a0.80,0.80,0,1,0,-1.60,0zM219.42,208.70a0.80,0.80,0,1,0,1.60,0a0.80,0.80,0,1,0,-1.60,0zM220.42,210.47a0.80,0.80,0,1,0,1.60,0a0.80,0.80,0,1,0,-1.60,0zM221.43,212.25a0.80,0.80,0,1,0,1.60,0a0.80,0.80,0,1,0,-1.60,0zM222.43,214.04a0.80,0.80,0,1,0,1.60,0a0.80,0.80,0,1,0,-1.60,0zM223.44,215.83a0.80,0.80,0,1,0,1.60,0a0.80,0.80,0,1,0,-1.60,0zM224.44,217.63a0.80,0.80,0,1,0,1.60,0a0.80,0.80,0,1,0,-1.60,0zM225.45,219.43a0.80,0.80,0,1,0,1.60,0a0.80,0.80,0,1,0,-1.60,0zM226.46,221.25a0.80,0.80,0,1,0,1.60,0a0.80,0.80,0,1,0,-1.60,0zM227.46,223.06a0.80,0.80,0,1,0,1.60,0a0.80,0.80,0,1,0,-1.60,0zM228.47,224.89a0.80,0.80,0,1,0,1.60,0a0.80,0.80,0,1,0,-1.60,0zM229.47,226.72a0.80,0.80,0,1,0,1.60,0a0.80,0.80,0,1,0,-1.60,0zM230.48,228.56a0.80,0.80,0,1,0,1.60,0a0.80,0.80,0,1,0,-1.60,0zM231.48,230.40a0.80,0.80,0,1,0,1.60,0a0.80,0.80,0,1,0,-1.60,0zM232.49,232.25a0.80,0.80,0,1,0,1.60,0a0.80,0.80,0,1,0,-1.60,0zM233.49,234.11a0.80,0.80,0,1,0,1.60,0a0.80,0.80,0,1,0,-1.60,0zM234.50,235.97a0.80,0.80,0,1,0,1.60,0a0.80,0.80,0,1,0,-1.60,0zM235.51,237.84a0.80,0.80,0,1,0,1.60,0a0.80,0.80,0,1,0,-1.60,0zM236.51,239.72a0.80,0.80,0,1,0,1.60,0a0.80,0.80,0,1,0,-1.60,0zM237.52,241.60a0.80,0.80,0,1,0,1.60,0a0.80,0.80,0,1,0,-1.60,0zM238.52,243.49a0.80,0.80,0,1,0,1.60,0a0.80,0.80,0,1,0,-1.60,0zM239.53,245.39a0.80,0.80,0,1,0,1.60,0a0.80,0.80,0,1,0,-1.60,0zM240.53,247.29a0.80,0.80,0,1,0,1.60,0a0.80,0.80,0,1,0,-1.60,0zM241.54,249.20a0.80,0.80,0,1,0,1.60,0a0.80,0.80,0,1,0,-1.60,0zM242.54,251.12a0.80,0.80,0,1,0,1.60,0a0.80,0.80,0,1,0,-1.60,0zM243.55,253.04a0.80,0.80,0,1,0,1.60,0a0.80,0.80,0,1,0,-1.60,0zM244.56,254.97a0.80,0.80,0,1,0,1.60,0a0.80,0.80,0,1,0,-1.60,0zM245.56,256.90a0.80,0.80,0,1,0,1.60,0a0.80,0.80,0,1,0,-1.60,0zM246.57,258.85a0.80,0.80,0,1,0,1.60,0a0.80,0.80,0,1,0,-1.60,0zM247.57,260.79a0.80,0.80,0,1,0,1.60,0a0.80,0.80,0,1,0,-1.60,0zM248.58,262.75a0.80,0.80,0,1,0,1.60,0a0.80,0.80,0,1,0,-1.60,0zM249.58,264.71a0.80,0.80,0,1,0,1.60,0a0.80,0.80,0,1,0,-1.60,0zM250.59,266.68a0.80,0.80,0,1,0,1.60,0a0.80,0.80,0,1,0,-1.60,0zM251.59,268.65a0.80,0.80,0,1,0,1.60,0a0.80,0.80,0,1,0,-1.60,0zM252.60,270.63a0.80,0.80,0,1,0,1.60,0a0.80,0.80,0,1,0,-1.60,0zM253.61,272.62a0.80,0.80,0,1,0,1.60,0a0.80,0.80,0,1,0,-1.60,0zM254.61,274.61a0.80,0.80,0,1,0,1.60,0a0.80,0.80,0,1,0,-1.60,0zM255.62,276.61a0.80,0.80,0,1,0,1.60,0a0.80,0.80,0,1,0,-1.60,0zM256.62,278.62a0.80,0.80,0,1,0,1.60,0a0.80,0.80,0,1,0,-1.60,0zM257.63,280.63a0.80,0.80,0,1,0,1.60,0a0.80,0.80,0,1,0,-1.60,0zM258.63,282.65a0.80,0.80,0,1,0,1.60,0a0.80,0.80,0,1,0,-1.60,0zM259.64,284.68a0.80,0.80,0,1,0,1.60,0a0.80,0.80,0,1,0,-1.60,0zM260.64,286.71a0.80,0.80,0,1,0,1.60,0a0.80,0.80,0,1,0,-1.60,0zM261.65,288.75a0.80,0.80,0,1,0,1.60,0a0.80,0.80,0,1,0,-1.60,0zM262.66,290.80a0.80,0.80,0,1,0,1.60,0a0.80,0.80,0,1,0,-1.60,0zM263.66,292.85a0.80,0.80,0,1,0,1.60,0a0.80,0.80,0,1,0,-1.60,0zM264.67,294.91a0.80,0.80,0,1,0,1.60,0a0.80,0.80,0,1,0,-1.60,0zM265.67,296.97a0.80,0.80,0,1,0,1.60,0a0.80,0.80,0,1,0,-1.60,0zM266.68,299.05a0.80,0.80,0,1,0,1.60,0a0.80,0.80,0,1,0,-1.60,0zM267.68,301.12a0.80,0.80,0,1,0,1.60,0a0.80,0.80,0,1,0,-1.60,0zM268.69,303.21a0.80,0.80,0,1,0,1.60,0a0.80,0.80,0,1,0,-1.60,0zM269.69,305.30a0.80,0.80,0,1,0,1.60,0a0.80,0.80,0,1,0,-1.60,0zM270.70,307.40a0.80,0.80,0,1,0,1.60,0a0.80,0.80,0,1,0,-1.60,0zM271.71,309.50a0.80,0.80,0,1,0,1.60,0a0.80,0.80,0,1,0,-1.60,0zM272.71,311.61a0.80,0.80,0,1,0,1.60,0a0.80,0.80,0,1,0,-1.60,0zM273.72,313.73a0.80,0.80,0,1,0,1.60,0a0.80,0.80,0,1,0,-1.60,0zM274.72,315.86a0.80,0.80,0,1,0,1.60,0a0.80,0.80,0,1,0,-1.60,0zM275.73,317.99a0.80,0.80,0,1,0,1.60,0a0.80,0.80,0,1,0,-1.60,0zM276.73,320.12a0.80,0.80,0,1,0,1.60,0a0.80,0.80,0,1,0,-1.60,0zM277.74,322.27a0.80,0.80,0,1,0,1.60,0a0.80,0.80,0,1,0,-1.60,0zM278.74,324.42a0.80,0.80,0,1,0,1.60,0a0.80,0.80,0,1,0,-1.60,0zM279.75,326.58a0.80,0.80,0,1,0,1.60,0a0.80,0.80,0,1,0,-1.60,0zM280.76,328.74a0.80,0.80,0,1,0,1.60,0a0.80,0.80,0,1,0,-1.60,0zM281.76,330.91a0.80,0.80,0,1,0,1.60,0a0.80,0.80,0,1,0,-1.60,0zM282.77,333.09a0.80,0.80,0,1,0,1.60,0a0.80,0.80,0,1,0,-1.60,0zM283.77,335.27a0.80,0.80,0,1,0,1.60,0a0.80,0.80,0,1,0,-1.60,0zM284.78,337.46a0.80,0.80,0,1,0,1.60,0a0.80,0.80,0,1,0,-1.60,0zM285.78,339.66a0.80,0.80,0,1,0,1.60,0a0.80,0.80,0,1,0,-1.60,0zM286.79,341.86a0.80,0.80,0,1,0,1.60,0a0.80,0.80,0,1,0,-1.60,0zM287.79,344.07a0.80,0.80,0,1,0,1.60,0a0.80,0.80,0,1,0,-1.60,0zM288.80,346.29a0.80,0.80,0,1,0,1.60,0a0.80,0.80,0,1,0,-1.60,0zM289.81,348.52a0.80,0.80,0,1,0,1.60,0a0.80,0.80,0,1,0,-1.60,0zM290.81,350.75a0.80,0.80,0,1,0,1.60,0a0.80,0.80,0,1,0,-1.60,0zM291.82,352.98a0.80,0.80,0,1,0,1.60,0a0.80,0.80,0,1,0,-1.60,0zM292.82,355.23a0.80,0.80,0,1,0,1.60,0a0.80,0.80,0,1,0,-1.60,0zM293.83,357.48a0.80,0.80,0,1,0,1.60,0a0.80,0.80,0,1,0,-1.60,0zM294.83,359.73a0.80,0.80,0,1,0,1.60,0a0.80,0.80,0,1,0,-1.60,0zM295.84,362.00a0.80,0.80,0,1,0,1.60,0a0.80,0.80,0,1,0,-1.60,0zM296.84,364.27a0.80,0.80,0,1,0,1.60,0a0.80,0.80,0,1,0,-1.60,0zM297.85,366.55a0.80,0.80,0,1,0,1.60,0a0.80,0.80,0,1,0,-1.60,0zM298.86,368.83a0.80,0.80,0,1,0,1.60,0a0.80,0.80,0,1,0,-1.60,0zM299.86,371.12a0.80,0.80,0,1,0,1.60,0a0.80,0.80,0,1,0,-1.60,0zM300.87,373.42a0.80,0.80,0,1,0,1.60,0a0.80,0.80,0,1,0,-1.60,0zM301.87,375.72a0.80,0.80,0,1,0,1.60,0a0.80,0.80,0,1,0,-1.60,0zM302.88,378.04a0.80,0.80,0,1,0,1.60,0a0.80,0.80,0,1,0,-1.60,0zM303.88,380.35a0.80,0.80,0,1,0,1.60,0a0.80,0.80,0,1,0,-1.60,0zM304.89,382.68a0.80,0.80,0,1,0,1.60,0a0.80,0.80,0,1,0,-1.60,0zM305.89,385.01a0.80,0.80,0,1,0,1.60,0a0.80,0.80,0,1,0,-1.60,0zM306.90,387.35a0.80,0.80,0,1,0,1.60,0a0.80,0.80,0,1,0,-1.60,0zM307.91,389.69a0.80,0.80,0,1,0,1.60,0a0.80,0.80,0,1,0,-1.60,0zM308.91,392.04a0.80,0.80,0,1,0,1.60,0a0.80,0.80,0,1,0,-1.60,0zM309.92,394.40a0.80,0.80,0,1,0,1.60,0a0.80,0.80,0,1,0,-1.60,0zM310.92,396.77a0.80,0.80,0,1,0,1.60,0a0.80,0.80,0,1,0,-1.60,0zM311.93,399.14a0.80,0.80,0,1,0,1.60,0a0.80,0.80,0,1,0,-1.60,0zM312.93,401.52a0.80,0.80,0,1,0,1.60,0a0.80,0.80,0,1,0,-1.60,0zM313.94,403.90a0.80,0.80,0,1,0,1.60,0a0.80,0.80,0,1,0,-1.60,0zM314.94,406.30a0.80,0.80,0,1,0,1.60,0a0.80,0.80,0,1,0,-1.60,0zM315.95,408.70a0.80,0.80,0,1,0,1.60,0a0.80,0.80,0,1,0,-1.60,0zM316.96,411.10a0.80,0.80,0,1,0,1.60,0a0.80,0.80,0,1,0,-1.60,0zM317.96,413.52a0.80,0.80,0,1,0,1.60,0a0.80,0.80,0,1,0,-1.60,0zM318.97,415.93a0.80,0.80,0,1,0,1.60,0a0.80,0.80,0,1,0,-1.60,0zM319.97,418.36a0.80,0.80,0,1,0,1.60,0a0.80,0.80,0,1,0,-1.60,0zM320.98,420.79a0.80,0.80,0,1,0,1.60,0a0.80,0.80,0,1,0,-1.60,0zM321.98,423.23a0.80,0.80,0,1,0,1.60,0a0.80,0.80,0,1,0,-1.60,0zM322.99,425.68a0.80,0.80,0,1,0,1.60,0a0.80,0.80,0,1,0,-1.60,0zM323.99,428.13a0.80,0.80,0,1,0,1.60,0a0.80,0.80,0,1,0,-1.60,0zM325.00,430.60a0.80,0.80,0,1,0,1.60,0a0.80,0.80,0,1,0,-1.60,0zM326.01,433.06a0.80,0.80,0,1,0,1.60,0a0.80,0.80,0,1,0,-1.60,0zM327.01,435.54a0.80,0.80,0,1,0,1.60,0a0.80,0.80,0,1,0,-1.60,0zM328.02,438.02a0.80,0.80,0,1,0,1.60,0a0.80,0.80,0,1,0,-1.60,0zM329.02,440.50a0.80,0.80,0,1,0,1.60,0a0.80,0.80,0,1,0,-1.60,0zM330.03,443.00a0.80,0.80,0,1,0,1.60,0a0.80,0.80,0,1,0,-1.60,0zM331.03,445.50a0.80,0.80,0,1,0,1.60,0a0.80,0.80,0,1,0,-1.60,0z" style="stroke: black; fill: black;"></path><path d="M25.16666666666667,216.64562921059036h10v10h-10zM26.172222222222228,213.02505792914056h10v10h-10zM27.177777777777784,209.4044866476908h10v10h-10zM28.183333333333344,205.78391536624096h10v10h-10zM29.188888888888897,202.16334408479116h10v10h-10zM30.19444444444445,198.54277280334128h10v10h-10zM31.20000000000001,194.9222015218916h10v10h-10zM32.20555555555556,191.30163024044177h10v10h-10zM33.21111111111112,187.6810589589919h10v10h-10zM34.216666666666676,184.0604876775422h10v10h-10zM35.222222222222236,180.43991639609237h10v10h-10zM36.22777777777779,176.81934511464252h10v10h-10zM37.23333333333335,173.1987738331927h10v10h-10zM38.23888888888888,169.578202551743h10v10h-10zM39.24444444444444,165.95763127029312h10v10h-10zM40.24999999999999,162.33705998884332h10v10h-10zM41.25555555555555,158.7164887073935h10v10h-10zM42.261111111111106,155.09591742594372h10v10h-10zM43.266666666666666,151.47534614449393h10v10h-10zM44.27222222222222,147.85477486304416h10v10h-10zM45.27777777777778,144.2342035815943h10v10h-10zM46.28333333333333,140.61363230014453h10v10h-10zM47.28888888888889,136.9930610186947h10v10h-10zM48.294444444444444,133.3724897372449h10v10h-10zM49.3,129.75191845579508h10v10h-10zM50.30555555555556,126.13134717434534h10v10h-10zM51.31111111111111,122.51077589289551h10v10h-10zM52.31666666666668,118.8902046114457h10v10h-10zM53.32222222222222,115.26963332999594h10v10h-10zM54.32777777777779,111.64906204854607h10v10h-10zM55.33333333333334,108.02849076709632h10v10h-10zM56.3388888888889,104.40791948564649h10v10h-10zM57.344444444444456,100.78734820419668h10v10h-10zM58.35000000000001,97.16677692274686h10v10h-10zM59.35555555555557,93.5462056412971h10v10h-10zM60.361111111111114,89.9256343598473h10v10h-10zM61.36666666666669,86.30494239268806h10v10h-10zM62.372222222222234,82.6843711112383h10v10h-10zM63.377777777777766,79.06379982978855h10v10h-10zM64.38333333333333,75.44298717691997h10v10h-10zM65.38888888888889,71.82060560982943h10v10h-10zM66.39444444444445,68.19991364267021h10v10h-10zM67.39999999999999,64.57475630426389h10v10h-10zM68.40555555555555,60.95647805129238h10v10h-10zM69.41111111111111,57.33542402700503h10v10h-10zM70.41666666666666,53.70749091728299h10v10h-10zM71.42222222222222,50.08860923576454h10v10h-10zM72.42777777777778,46.39816092858277h10v10h-10zM73.43333333333334,42.79050301803675h10v10h-10zM74.43888888888888,39.034643056370115h10v10h-10zM75.44444444444446,35.61706513810024h10v10h-10zM76.45,35.50000000000002h10v10h-10zM77.45555555555556,35.546222626693215h10v10h-10zM78.46111111111112,35.78264593137191h10v10h-10zM79.46666666666667,36.71675332198596h10v10h-10zM80.47222222222223,37.159911246835385h10v10h-10zM81.47777777777779,37.80739007766804h10v10h-10zM82.48333333333333,38.198411776064624h10v10h-10zM83.48888888888888,38.84842500679424h10v10h-10zM84.49444444444445,39.30884098808525h10v10h-10zM85.5,39.213257906254945h10v10h-10zM86.50555555555555,40.14314129704067h10v10h-10zM87.5111111111111,41.17874536924466h10v10h-10zM88.51666666666668,40.670537847038496h10v10h-10zM89.52222222222223,42.403101890921654h10v10h-10zM90.52777777777779,42.49699537282054h10v10h-10zM91.53333333333333,42.9633249538713h10v10h-10zM92.5388888888889,43.591856128331h10v10h-10zM93.54444444444445,44.760455852273616h10v10h-10zM94.54999999999998,45.96791637463714h10v10h-10zM95.55555555555556,46.11575636862964h10v10h-10zM96.56111111111112,46.84361188191044h10v10h-10zM97.56666666666666,48.02778006236323h10v10h-10zM98.57222222222222,48.899130884098845h10v10h-10zM99.57777777777778,49.532610172643224h10v10h-10zM100.58333333333334,50.60345447198664h10v10h-10zM101.58888888888889,51.1403851930257h10v10h-10zM102.59444444444445,52.09247475433758h10v10h-10zM103.6,52.83058855291586h10v10h-10zM104.60555555555557,53.60177023586461h10v10h-10zM105.61111111111111,54.568583453721125h10v10h-10zM106.61666666666667,55.663926952069055h10v10h-10zM107.62222222222222,56.541312059273714h10v10h-10zM108.62777777777775,57.49436710626067h10v10h-10zM109.63333333333335,58.41761278303035h10v10h-10zM110.63888888888889,59.323117660520964h10v10h-10zM111.64444444444445,60.28136219301136h10v10h-10zM112.64999999999998,61.24322729678319h10v10h-10zM113.65555555555558,62.194110001001306h10v10h-10zM114.66111111111111,63.17347453263349h10v10h-10zM115.66666666666669,64.15923540686283h10v10h-10zM116.67222222222222,65.10215285426177h10v10h-10zM117.6777777777778,66.1563425257106h10v10h-10zM118.68333333333334,67.17155071302909h10v10h-10zM119.68888888888888,68.19713787135443h10v10h-10zM120.69444444444444,69.2323798864303h10v10h-10zM121.69999999999999,70.27836292964118h10v10h-10zM122.70555555555556,71.33412151531195h10v10h-10zM123.71111111111111,72.40013838628015h10v10h-10zM124.71666666666667,73.47605148541766h10v10h-10zM125.72222222222223,74.56149875559633h10v10h-10zM126.72777777777776,75.65672156823486h10v10h-10zM127.73333333333335,76.76147855191456h10v10h-10zM128.7388888888889,77.87540764950732h10v10h-10zM129.74444444444444,78.99947434668805h10v10h-10zM130.75,80.13271315778188h10v10h-10zM131.75555555555556,81.27536545420745h10v10h-10zM132.76111111111112,82.42706917883659h10v10h-10zM133.76666666666668,83.58782433166944h10v10h-10zM134.77222222222224,84.75775159841524h10v10h-10zM135.77777777777777,85.93660960765529h10v10h-10zM136.78333333333336,87.12451904509896h10v10h-10zM137.7888888888889,88.32111785361813h10v10h-10zM138.79444444444445,89.52664740463153h10v10h-10zM139.79999999999998,90.74098701242976h10v10h-10zM140.80555555555557,91.96389530559416h10v10h-10zM141.8111111111111,93.19537228412462h10v10h-10zM142.81666666666666,94.43553863373056h10v10h-10zM143.82222222222222,95.68403229728384h10v10h-10zM144.82777777777775,96.94109464620318h10v10h-10zM145.83333333333331,98.2066049947793h10v10h-10zM146.8388888888889,99.48032197159334h10v10h-10zM147.84444444444443,100.76212489093597h10v10h-10zM148.85,102.05273786706343h10v10h-10zM149.85555555555555,103.35131610001007h10v10h-10zM150.86111111111111,104.65798027548529h10v10h-10zM151.86666666666667,105.97273039348909h10v10h-10zM152.87222222222223,107.29556645402147h10v10h-10zM153.87777777777777,108.62636777137308h10v10h-10zM154.88333333333333,109.96513434554383h10v10h-10zM155.8888888888889,111.31186617653378h10v10h-10zM156.89444444444445,112.66644257863352h10v10h-10zM157.9,114.02898423755242h10v10h-10zM158.90555555555557,115.39924978187183h10v10h-10zM159.91111111111113,116.7772392115916h10v10h-10zM160.91666666666669,118.16295252671183h10v10h-10zM161.92222222222225,119.55638972723249h10v10h-10zM162.92777777777778,120.95755081315353h10v10h-10zM163.93333333333334,122.36619441305628h10v10h-10zM164.9388888888889,123.78256189835949h10v10h-10zM165.94444444444443,125.20641189764427h10v10h-10zM166.95,126.63774441091073h10v10h-10zM167.95555555555555,128.07668012386833h10v10h-10zM168.9611111111111,129.52297766509815h10v10h-10zM169.96666666666667,130.97675772030956h10v10h-10zM170.97222222222223,132.4378996037933h10v10h-10zM171.97777777777776,133.90640331554937h10v10h-10zM172.98333333333332,135.38226885557768h10v10h-10zM173.9888888888889,136.8654962238783h10v10h-10zM174.99444444444444,138.3559647347418h10v10h-10zM176,139.8536743881682h10v10h-10zM177.00555555555556,141.35862518415752h10v10h-10zM178.0111111111111,142.87081712270972h10v10h-10zM179.01666666666665,144.3902502038248h10v10h-10zM180.0222222222222,145.91668305608405h10v10h-10zM181.0277777777778,147.45035705090618h10v10h-10zM182.03333333333336,148.99115150258186h10v10h-10zM183.0388888888889,150.53894572540162h10v10h-10zM184.04444444444445,152.09386040507496h10v10h-10zM185.05,153.65589554160178h10v10h-10zM186.05555555555557,155.22480976356334h10v10h-10zM187.0611111111111,156.80084444237846h10v10h-10zM188.06666666666666,158.38375820662824h10v10h-10zM189.07222222222222,159.97367174202225h10v10h-10zM190.07777777777775,161.57058504856047h10v10h-10zM191.08333333333331,163.17437744053328h10v10h-10zM192.08888888888887,164.7851696036503h10v10h-10zM193.09444444444443,166.40272016649274h10v10h-10zM194.09999999999997,168.0272705004792h10v10h-10zM195.10555555555555,169.65857923419114h10v10h-10zM196.11111111111111,171.29676705333782h10v10h-10zM197.11666666666667,172.94171327220985h10v10h-10zM198.12222222222223,174.59353857651664h10v10h-10zM199.12777777777782,176.25212228054875h10v10h-10zM200.13333333333333,177.91746438430627h10v10h-10zM201.13888888888889,179.5896855734986h10v10h-10zM202.14444444444445,181.26854447670684h10v10h-10zM203.15000000000003,182.95416177964043h10v10h-10zM204.15555555555557,184.64653748229944h10v10h-10zM205.1611111111111,186.34555089897452h10v10h-10zM206.16666666666669,188.05132271537482h10v10h-10zM207.1722222222222,189.7638529315006h10v10h-10zM208.17777777777778,191.48290017593303h10v10h-10zM209.18333333333334,193.20870582009073h10v10h-10zM210.1888888888889,194.94114917826448h10v10h-10zM211.19444444444443,196.68023025045417h10v10h-10zM212.2,198.42594903665994h10v10h-10zM213.20555555555555,200.17830553688165h10v10h-10zM214.21111111111114,201.93717906540994h10v10h-10zM215.21666666666664,203.70281099366363h10v10h-10zM216.22222222222223,205.47495995022396h10v10h-10zM217.22777777777776,207.25362593509078h10v10h-10zM218.23333333333335,209.0390503196831h10v10h-10zM219.2388888888889,210.83087104687266h10v10h-10zM220.24444444444444,212.62932948807804h10v10h-10zM221.25,214.43430495759023h10v10h-10zM222.2555555555556,216.2459181411183h10v10h-10zM223.2611111111111,218.064048352953h10v10h-10zM224.2666666666667,219.88869559309433h10v10h-10zM225.2722222222222,221.71985986154223h10v10h-10zM226.27777777777777,223.55754115829683h10v10h-10zM227.28333333333336,225.40186016906736h10v10h-10zM228.2888888888889,227.25257552243505h10v10h-10zM229.29444444444445,229.1099285898188h10v10h-10zM230.29999999999995,230.9736779997998h10v10h-10zM231.30555555555557,232.8439444380874h10v10h-10zM232.31111111111116,234.7207279046816h10v10h-10zM233.31666666666666,236.6040283995824h10v10h-10zM234.32222222222222,238.4938459227899h10v10h-10zM235.32777777777775,240.39018047430383h10v10h-10zM236.33333333333331,242.2929113684151h10v10h-10zM237.3388888888889,244.20227997654237h10v10h-10zM238.34444444444443,246.11804492726685h10v10h-10zM239.35000000000002,248.04032690629793h10v10h-10zM240.35555555555553,249.96900522792623h10v10h-10zM241.36111111111111,251.90432126357047h10v10h-10zM242.36666666666667,253.84603364181197h10v10h-10zM243.37222222222223,255.79426304836016h10v10h-10zM244.37777777777777,257.749009483215h10v10h-10zM245.38333333333335,259.71015226066686h10v10h-10zM246.38888888888889,261.67793275213484h10v10h-10zM247.39444444444445,263.6521095862001h10v10h-10zM248.39999999999998,265.6328034485719h10v10h-10zM249.40555555555557,267.61989365354094h10v10h-10zM250.41111111111113,269.6136215725259h10v10h-10zM251.41666666666663,271.6137458341082h10v10h-10zM252.42222222222222,273.62050780970645h10v10h-10zM253.4277777777778,275.6336661279019h10v10h-10zM254.43333333333334,277.653341474404h10v10h-10zM255.43888888888887,279.67953384921265h10v10h-10zM256.44444444444446,281.712243252328h10v10h-10zM257.45000000000005,283.75146968374986h10v10h-10zM258.4555555555555,285.79721314347836h10v10h-10zM259.4611111111111,287.8494736315135h10v10h-10zM260.4666666666667,289.9082511478552h10v10h-10zM261.4722222222222,291.97354569250354h10v10h-10zM262.4777777777778,294.04547795116787h10v10h-10zM263.4833333333333,296.1239272381389h10v10h-10zM264.4888888888889,298.2088935534165h10v10h-10zM265.49444444444447,300.30037689700066h10v10h-10zM266.5,302.3983772688914h10v10h-10zM267.50555555555553,304.50301535479826h10v10h-10zM268.5111111111111,306.6142911547209h10v10h-10zM269.51666666666665,308.7320839829503h10v10h-10zM270.52222222222224,310.8563938394863h10v10h-10zM271.52777777777777,312.98734141003825h10v10h-10zM272.5333333333333,315.1248060088969h10v10h-10zM273.5388888888889,317.2690290074808h10v10h-10zM274.5444444444445,319.4197690343713h10v10h-10zM275.55,321.57702608956856h10v10h-10zM276.55555555555554,323.7410415444911h10v10h-10zM277.56111111111113,325.91157402772023h10v10h-10zM278.5666666666667,328.0888649106747h10v10h-10zM279.5722222222222,330.27267282193594h10v10h-10zM280.5777777777778,332.463118447213h10v10h-10zM281.5833333333333,334.6603224722155h10v10h-10zM282.5888888888889,336.8640435255246h10v10h-10zM283.5944444444445,339.0745229785592h10v10h-10zM284.59999999999997,341.2916401456096h10v10h-10zM285.60555555555555,343.5155157123855h10v10h-10zM286.61111111111114,345.7459083074679h10v10h-10zM287.6166666666667,347.9831799879851h10v10h-10zM288.6222222222222,350.22696869680897h10v10h-10zM289.62777777777774,352.4775158053581h10v10h-10zM290.6333333333333,354.7348213136327h10v10h-10zM291.63888888888886,356.9987645359232h10v10h-10zM292.64444444444445,359.2694661579392h10v10h-10zM293.65,361.54692617968055h10v10h-10zM294.6555555555555,363.83114460114723h10v10h-10zM295.66111111111115,366.12200073662996h10v10h-10zM296.66666666666663,368.4196152718379h10v10h-10zM297.6722222222222,370.72398820677125h10v10h-10zM298.6777777777778,373.03511954143016h10v10h-10zM299.68333333333334,375.35300927581426h10v10h-10zM300.68888888888887,377.6776574099238h10v10h-10zM301.6944444444444,380.0090639437588h10v10h-10zM302.7,382.3472288773191h10v10h-10zM303.7055555555556,384.69227289631414h10v10h-10zM304.7111111111111,387.0439546293251h10v10h-10zM305.71666666666664,389.40251544777084h10v10h-10zM306.72222222222223,391.767834665942h10v10h-10zM307.7277777777778,394.13991228383856h10v10h-10zM308.73333333333335,396.5187483014605h10v10h-10zM309.7388888888889,398.9044634045172h10v10h-10zM310.74444444444447,401.29693690729914h10v10h-10zM311.75000000000006,403.6961688098065h10v10h-10zM312.75555555555553,406.1021591120393h10v10h-10zM313.7611111111111,408.5150284997068h10v10h-10zM314.7666666666666,410.9346562870997h10v10h-10zM315.7722222222222,413.36116315992746h10v10h-10zM316.7777777777778,415.79430774677104h10v10h-10zM317.7833333333333,418.2344521047588h10v10h-10zM318.7888888888889,420.6812341767626h10v10h-10zM319.7944444444444,423.13477464849177h10v10h-10zM320.8,425.59519420565573h10v10h-10zM321.80555555555554,428.06237216254493h10v10h-10zM322.8111111111111,430.53642920486897h10v10h-10zM323.81666666666666,433.017123961209h10v10h-10zM324.82222222222225,435.5046978029837h10v10h-10zM325.8277777777778,437.99890935877454h10v10h-10zM326.8333333333333,440.50000000000006h10v10h-10z" style="fill: none; pointer-events: visiblefill;"></path></g></svg><g><g transform="translate(0,486)"><path d="M0,0h362M0,-8V0M10,-8V0M20,-8V0M30,-15V0M40,-8V0M50,-8V0M60,-8V0M70,-8V0M80,-15V0M91,-8V0M101,-8V0M111,-8V0M121,-8V0M131,-15V0M141,-8V0M151,-8V0M161,-8V0M171,-8V0M181,-15V0M191,-8V0M201,-8V0M211,-8V0M221,-8V0M231,-15V0M241,-8V0M251,-8V0M261,-8V0M272,-8V0M282,-15V0M292,-8V0M302,-8V0M312,-8V0M322,-8V0M332,-15V0M342,-8V0M352,-8V0M362,-8V0" style="stroke: black; stroke-width: 1;"></path><g font-family="Arial" font-size="16" xml:space="preserve" fill="black" text-anchor="middle"><text dy=".8em" transform="translate(30,3)">-1.5</text><text dy=".8em" transform="translate(80,3)">-1</text><text dy=".8em" transform="translate(131,3)">-0.5</text><text dy=".8em" transform="translate(181,3)">0</text><text dy=".8em" transform="translate(231,3)">0.5</text><text dy=".8em" transform="translate(282,3)">1</text><text dy=".8em" transform="translate(332,3)">1.5</text></g><rect x="0" y="0" width="362" height="19" style="opacity: 0; cursor: crosshair;"></rect><g font-family="Arial" font-size="16" xml:space="preserve" transform="translate(362,34)" style="cursor: move;"><text fill="black" text-anchor="end" dominant-baseline="middle">Delta</text></g></g><g><path d="M0,0v486M6,475H0M11,463H0M6,451H0M6,439H0M6,427H0M6,415H0M11,403H0M6,391H0M6,379H0M6,366H0M6,354H0M11,342H0M6,330H0M6,318H0M6,306H0M6,294H0M11,282H0M6,270H0M6,258H0M6,246H0M6,234H0M11,222H0M6,210H0M6,198H0M6,185H0M6,173H0M11,161H0M6,149H0M6,137H0M6,125H0M6,113H0M11,101H0M6,89H0M6,77H0M6,65H0M6,53H0M11,41H0M6,29H0M6,16H0M6,4H0" style="stroke: black; stroke-width: 1;"></path><g font-family="Arial" font-size="16" xml:space="preserve" fill="black" text-anchor="end"><text dominant-baseline="middle" transform="translate(-3,463)">-6.5</text><text dominant-baseline="middle" transform="translate(-3,403)">-6</text><text dominant-baseline="middle" transform="translate(-3,342)">-5.5</text><text dominant-baseline="middle" transform="translate(-3,282)">-5</text><text dominant-baseline="middle" transform="translate(-3,222)">-4.5</text><text dominant-baseline="middle" transform="translate(-3,161)">-4</text><text dominant-baseline="middle" transform="translate(-3,101)">-3.5</text><text dominant-baseline="middle" transform="translate(-3,41)">-3</text></g><rect x="-30" y="0" width="30" height="486" style="opacity: 0; cursor: crosshair;"></rect><g font-family="Arial" font-size="16" xml:space="preserve" transform="translate(-38)" style="cursor: move;"><text fill="black" text-anchor="end" dominant-baseline="middle" transform="rotate(270)">Total Ground Energy</text></g></g><path d="M30,0v486M80,0v486M131,0v486M181,0v486M231,0v486M282,0v486M332,0v486" style="stroke: black; stroke-width: 1; stroke-dasharray: 1, 2;"></path><path d="M0,463h362M0,403h362M0,342h362M0,282h362M0,222h362M0,161h362M0,101h362M0,41h362" style="stroke: black; stroke-width: 1; stroke-dasharray: 1, 2;"></path></g><path d="M2,2h15v-5h-20v20h5Z" style="opacity: 0; cursor: nw-resize;"></path><path d="M360,2h-15v-5h20v20h-5 Z" style="opacity: 0; cursor: ne-resize;"></path><path d="M2,484h15v5h-20v-20h5Z" style="opacity: 0; cursor: sw-resize;"></path><path d="M360,484h-15v5h20v-20h-5Z" style="opacity: 0; cursor: se-resize;"></path><path d="M-3,18h5v450h-5Z" style="opacity: 0; cursor: w-resize;"></path><path d="M365,18h-5v450h5Z" style="opacity: 0; cursor: e-resize;"></path><path d="M18,-3v5h326v-5Z" style="opacity: 0; cursor: n-resize;"></path><path d="M18,489v-5h326v5Z" style="opacity: 0; cursor: s-resize;"></path></g><g transform="translate(45,3)" font-family="Arial" font-size="16" xml:space="preserve" style="cursor: move;"><path d="M0,0H362V40H0Z" style="fill: none; pointer-events: visiblefill;"></path><text fill="black" text-anchor="middle" dy=".8em" transform="translate(181)">Lanczos alogrithm, num = 12, error = 1e-15</text><path d="M2,2h15v-5h-20v20h5Z" style="opacity: 0; cursor: nw-resize;"></path><path d="M360,2h-15v-5h20v20h-5 Z" style="opacity: 0; cursor: ne-resize;"></path><path d="M2,38h15v5h-20v-20h5Z" style="opacity: 0; cursor: sw-resize;"></path><path d="M360,38h-15v5h20v-20h-5Z" style="opacity: 0; cursor: se-resize;"></path><path d="M-3,18h5v4h-5Z" style="opacity: 0; cursor: w-resize;"></path><path d="M365,18h-5v4h5Z" style="opacity: 0; cursor: e-resize;"></path><path d="M18,-3v5h326v-5Z" style="opacity: 0; cursor: n-resize;"></path><path d="M18,43v-5h326v5Z" style="opacity: 0; cursor: s-resize;"></path></g></g></svg>