<svg width="1161" height="607" xmlns="http://www.w3.org/2000/svg"><defs><pattern id="pat_3001_1" patternUnits="userSpaceOnUse" width="2" height="2"><path d="M0,0h1v1h-1zM1,1h1v1h-1z" style="fill: black;"></path></pattern><pattern id="pat_3002_1" patternUnits="userSpaceOnUse" width="4" height="2"><path d="M1,0h1v1h-1zM3,1h1v1h-1z" style="fill: black;"></path></pattern><pattern id="pat_3003_1" patternUnits="userSpaceOnUse" width="4" height="4"><path d="M2,1h1v1h-1zM0,3h1v1h-1z" style="fill: black;"></path></pattern><pattern id="pat_3004_1" patternUnits="userSpaceOnUse" width="8" height="8"><path d="M8,0L0,8" style="stroke: black; stroke-width: 1;"></path></pattern><pattern id="pat_3005_1" patternUnits="userSpaceOnUse" width="8" height="8"><path d="M0,0L8,8" style="stroke: black; stroke-width: 1;"></path></pattern><pattern id="pat_3006_1" patternUnits="userSpaceOnUse" width="4" height="4"><path d="M1,0v4" style="stroke: black; stroke-width: 1;"></path></pattern><pattern id="pat_3007_1" patternUnits="userSpaceOnUse" width="4" height="4"><path d="M0,1h4" style="stroke: black; stroke-width: 1;"></path></pattern><pattern id="pat_3010_1" patternUnits="userSpaceOnUse" width="10" height="10"><path d="M0,2h10M0,7h10M2,0v2M7,2v5M2,7v3" style="stroke: black; stroke-width: 1;"></path></pattern><pattern id="pat_3021_1" patternUnits="userSpaceOnUse" width="8" height="8"><path d="M8,2h-2v4h-4v2M2,0v2h-2" style="stroke: black; stroke-width: 1; fill: none;"></path></pattern><pattern id="pat_3022_1" patternUnits="userSpaceOnUse" width="8" height="8"><path d="M0,2h2v4h4v2M6,0v2h2" style="stroke: black; stroke-width: 1; fill: none;"></path></pattern></defs><title>12_15.root/c1;1</title><path d="M0,0H1161V607H0Z" style="pointer-events: visiblefill; fill: white;"></path><g><g transform="translate(116,61)"><title></title><path d="M0,0H929V486H0Z" style="fill: white; stroke: black; stroke-width: 1; pointer-events: visiblefill; cursor: default;"></path><svg x="0" y="0" overflow="hidden" width="929" height="486" viewBox="0 0 929 486" style="pointer-events: visiblefill; cursor: default;"><g style="cursor: move;"><path d="M77,222l3,-4l3,-4l2,-3l3,-4l2,-3l3,-4l2,-4l3,-3l3,-4l2,-4l3,-3l2,-4l3,-3l3,-4l2,-4l3,-3l2,-4l3,-4l2,-3l3,-4l3,-3l2,-4l3,-4l2,-3l3,-4l3,-3l2,-4l3,-4l2,-3l3,-4l2,-4l3,-3l3,-4l2,-3l3,-4l2,-4l3,-3l2,-4l3,-4l3,-3l2,-4l3,-3l2,-4l3,-4l3,-3l2,-4l3,-4l2,-3l3,-4l2,-3h8l3,1h2l3,1h3l2,1h5l3,1l2,1h3l3,1h2l3,1l2,1l3,1l2,1h3l3,1l2,1l3,1l2,1l3,1h3l2,1l3,1l2,1l3,1l2,1l3,1h3l2,1l3,1l2,1l3,1l3,1l2,1l3,1l2,1l3,1l2,1l3,1l3,1l2,1l3,1l2,1l3,1l2,2l3,1l3,1l2,1l3,1l2,1l3,1l3,1l2,2l3,1l2,1l3,1l2,1l3,2l3,1l2,1l3,1l2,1l3,2l3,1l2,1l3,1l2,2l3,1l2,1l3,2l3,1l2,1l3,2l2,1l3,1l2,2l3,1l3,1l2,2l3,1l2,2l3,1l3,1l2,2l3,1l2,2l3,1l2,2l3,1l3,1l2,2l3,1l2,2l3,1l3,2l2,1l3,2l2,1l3,2l2,1l3,2l3,2l2,1l3,2l2,1l3,2l2,1l3,2l3,2l2,1l3,2l2,1l3,2l3,2l2,1l3,2l2,2l3,1l2,2l3,2l3,1l2,2l3,2l2,1l3,2l2,2l3,1l3,2l2,2l3,2l2,1l3,2l3,2l2,2l3,1l2,2l3,2l2,2l3,2l3,1l2,2l3,2l2,2l3,2l3,2l2,1l3,2l2,2l3,2l2,2l3,2l3,2l2,1l3,2l2,2l3,2l2,2l3,2l3,2l2,2l3,2l2,2l3,2l3,2l2,2l3,2l2,2l3,2l2,2l3,2l3,2l2,2l3,2l2,2l3,2l3,2l2,2l3,2l2,2l3,2l2,2l3,2l3,2l2,2l3,2l2,3l3,2l2,2l3,2l3,2l2,2l3,2l2,2l3,3l3,2l2,2l3,2l2,2l3,2l2,3l3,2l3,2l2,2l3,3l2,2l3,2l3,2l2,2l3,3l2,2l3,2l2,3l3,2l3,2l2,2l3,3l2,2l3,2l2,3l3,2l3,2l2,3l3,2l2,2l3,3l3,2l2,3l3,2l2,2l3,3l2,2l3,3l3,2l2,2l3,3l2,2l3,3l3,2l2,3l3,2l2,3l3,2l2,3l3,2l3,3" style="stroke: black; stroke-width: 1; fill: none;"></path><path d="M76.62,221.65a0.80,0.80,0,1,0,1.60,0a0.80,0.80,0,1,0,-1.60,0zM79.20,218.03a0.80,0.80,0,1,0,1.60,0a0.80,0.80,0,1,0,-1.60,0zM81.78,214.40a0.80,0.80,0,1,0,1.60,0a0.80,0.80,0,1,0,-1.60,0zM84.36,210.78a0.80,0.80,0,1,0,1.60,0a0.80,0.80,0,1,0,-1.60,0zM86.94,207.16a0.80,0.80,0,1,0,1.60,0a0.80,0.80,0,1,0,-1.60,0zM89.52,203.54a0.80,0.80,0,1,0,1.60,0a0.80,0.80,0,1,0,-1.60,0zM92.10,199.92a0.80,0.80,0,1,0,1.60,0a0.80,0.80,0,1,0,-1.60,0zM94.68,196.30a0.80,0.80,0,1,0,1.60,0a0.80,0.80,0,1,0,-1.60,0zM97.26,192.68a0.80,0.80,0,1,0,1.60,0a0.80,0.80,0,1,0,-1.60,0zM99.84,189.06a0.80,0.80,0,1,0,1.60,0a0.80,0.80,0,1,0,-1.60,0zM102.42,185.44a0.80,0.80,0,1,0,1.60,0a0.80,0.80,0,1,0,-1.60,0zM105.00,181.82a0.80,0.80,0,1,0,1.60,0a0.80,0.80,0,1,0,-1.60,0zM107.58,178.20a0.80,0.80,0,1,0,1.60,0a0.80,0.80,0,1,0,-1.60,0zM110.16,174.58a0.80,0.80,0,1,0,1.60,0a0.80,0.80,0,1,0,-1.60,0zM112.74,170.96a0.80,0.80,0,1,0,1.60,0a0.80,0.80,0,1,0,-1.60,0zM115.32,167.34a0.80,0.80,0,1,0,1.60,0a0.80,0.80,0,1,0,-1.60,0zM117.91,163.72a0.80,0.80,0,1,0,1.60,0a0.80,0.80,0,1,0,-1.60,0zM120.49,160.10a0.80,0.80,0,1,0,1.60,0a0.80,0.80,0,1,0,-1.60,0zM123.07,156.48a0.80,0.80,0,1,0,1.60,0a0.80,0.80,0,1,0,-1.60,0zM125.65,152.85a0.80,0.80,0,1,0,1.60,0a0.80,0.80,0,1,0,-1.60,0zM128.23,149.23a0.80,0.80,0,1,0,1.60,0a0.80,0.80,0,1,0,-1.60,0zM130.81,145.61a0.80,0.80,0,1,0,1.60,0a0.80,0.80,0,1,0,-1.60,0zM133.39,141.99a0.80,0.80,0,1,0,1.60,0a0.80,0.80,0,1,0,-1.60,0zM135.97,138.37a0.80,0.80,0,1,0,1.60,0a0.80,0.80,0,1,0,-1.60,0zM138.55,134.75a0.80,0.80,0,1,0,1.60,0a0.80,0.80,0,1,0,-1.60,0zM141.13,131.13a0.80,0.80,0,1,0,1.60,0a0.80,0.80,0,1,0,-1.60,0zM143.71,127.51a0.80,0.80,0,1,0,1.60,0a0.80,0.80,0,1,0,-1.60,0zM146.29,123.89a0.80,0.80,0,1,0,1.60,0a0.80,0.80,0,1,0,-1.60,0zM148.87,120.27a0.80,0.80,0,1,0,1.60,0a0.80,0.80,0,1,0,-1.60,0zM151.45,116.65a0.80,0.80,0,1,0,1.60,0a0.80,0.80,0,1,0,-1.60,0zM154.03,113.03a0.80,0.80,0,1,0,1.60,0a0.80,0.80,0,1,0,-1.60,0zM156.61,109.41a0.80,0.80,0,1,0,1.60,0a0.80,0.80,0,1,0,-1.60,0zM159.19,105.79a0.80,0.80,0,1,0,1.60,0a0.80,0.80,0,1,0,-1.60,0zM161.78,102.17a0.80,0.80,0,1,0,1.60,0a0.80,0.80,0,1,0,-1.60,0zM164.36,98.55a0.80,0.80,0,1,0,1.60,0a0.80,0.80,0,1,0,-1.60,0zM166.94,94.93a0.80,0.80,0,1,0,1.60,0a0.80,0.80,0,1,0,-1.60,0zM169.52,91.30a0.80,0.80,0,1,0,1.60,0a0.80,0.80,0,1,0,-1.60,0zM172.10,87.68a0.80,0.80,0,1,0,1.60,0a0.80,0.80,0,1,0,-1.60,0zM174.68,84.06a0.80,0.80,0,1,0,1.60,0a0.80,0.80,0,1,0,-1.60,0zM177.26,80.44a0.80,0.80,0,1,0,1.60,0a0.80,0.80,0,1,0,-1.60,0zM179.84,76.82a0.80,0.80,0,1,0,1.60,0a0.80,0.80,0,1,0,-1.60,0zM182.42,73.20a0.80,0.80,0,1,0,1.60,0a0.80,0.80,0,1,0,-1.60,0zM185.00,69.57a0.80,0.80,0,1,0,1.60,0a0.80,0.80,0,1,0,-1.60,0zM187.58,65.96a0.80,0.80,0,1,0,1.60,0a0.80,0.80,0,1,0,-1.60,0zM190.16,62.34a0.80,0.80,0,1,0,1.60,0a0.80,0.80,0,1,0,-1.60,0zM192.74,58.71a0.80,0.80,0,1,0,1.60,0a0.80,0.80,0,1,0,-1.60,0zM195.32,55.09a0.80,0.80,0,1,0,1.60,0a0.80,0.80,0,1,0,-1.60,0zM197.90,51.40a0.80,0.80,0,1,0,1.60,0a0.80,0.80,0,1,0,-1.60,0zM200.48,47.79a0.80,0.80,0,1,0,1.60,0a0.80,0.80,0,1,0,-1.60,0zM203.06,44.03a0.80,0.80,0,1,0,1.60,0a0.80,0.80,0,1,0,-1.60,0zM205.64,40.62a0.80,0.80,0,1,0,1.60,0a0.80,0.80,0,1,0,-1.60,0zM208.22,40.50a0.80,0.80,0,1,0,1.60,0a0.80,0.80,0,1,0,-1.60,0zM210.81,40.55a0.80,0.80,0,1,0,1.60,0a0.80,0.80,0,1,0,-1.60,0zM213.39,40.78a0.80,0.80,0,1,0,1.60,0a0.80,0.80,0,1,0,-1.60,0zM215.97,41.72a0.80,0.80,0,1,0,1.60,0a0.80,0.80,0,1,0,-1.60,0zM218.55,42.16a0.80,0.80,0,1,0,1.60,0a0.80,0.80,0,1,0,-1.60,0zM221.13,42.81a0.80,0.80,0,1,0,1.60,0a0.80,0.80,0,1,0,-1.60,0zM223.71,43.20a0.80,0.80,0,1,0,1.60,0a0.80,0.80,0,1,0,-1.60,0zM226.29,43.85a0.80,0.80,0,1,0,1.60,0a0.80,0.80,0,1,0,-1.60,0zM228.87,44.31a0.80,0.80,0,1,0,1.60,0a0.80,0.80,0,1,0,-1.60,0zM231.45,44.21a0.80,0.80,0,1,0,1.60,0a0.80,0.80,0,1,0,-1.60,0zM234.03,45.14a0.80,0.80,0,1,0,1.60,0a0.80,0.80,0,1,0,-1.60,0zM236.61,46.18a0.80,0.80,0,1,0,1.60,0a0.80,0.80,0,1,0,-1.60,0zM239.19,45.67a0.80,0.80,0,1,0,1.60,0a0.80,0.80,0,1,0,-1.60,0zM241.77,47.40a0.80,0.80,0,1,0,1.60,0a0.80,0.80,0,1,0,-1.60,0zM244.35,47.50a0.80,0.80,0,1,0,1.60,0a0.80,0.80,0,1,0,-1.60,0zM246.93,47.96a0.80,0.80,0,1,0,1.60,0a0.80,0.80,0,1,0,-1.60,0zM249.51,48.59a0.80,0.80,0,1,0,1.60,0a0.80,0.80,0,1,0,-1.60,0zM252.09,49.76a0.80,0.80,0,1,0,1.60,0a0.80,0.80,0,1,0,-1.60,0zM254.67,50.97a0.80,0.80,0,1,0,1.60,0a0.80,0.80,0,1,0,-1.60,0zM257.26,51.12a0.80,0.80,0,1,0,1.60,0a0.80,0.80,0,1,0,-1.60,0zM259.84,51.84a0.80,0.80,0,1,0,1.60,0a0.80,0.80,0,1,0,-1.60,0zM262.42,53.03a0.80,0.80,0,1,0,1.60,0a0.80,0.80,0,1,0,-1.60,0zM265.00,53.90a0.80,0.80,0,1,0,1.60,0a0.80,0.80,0,1,0,-1.60,0zM267.58,54.53a0.80,0.80,0,1,0,1.60,0a0.80,0.80,0,1,0,-1.60,0zM270.16,55.60a0.80,0.80,0,1,0,1.60,0a0.80,0.80,0,1,0,-1.60,0zM272.74,56.14a0.80,0.80,0,1,0,1.60,0a0.80,0.80,0,1,0,-1.60,0zM275.32,57.09a0.80,0.80,0,1,0,1.60,0a0.80,0.80,0,1,0,-1.60,0zM277.90,57.83a0.80,0.80,0,1,0,1.60,0a0.80,0.80,0,1,0,-1.60,0zM280.48,58.60a0.80,0.80,0,1,0,1.60,0a0.80,0.80,0,1,0,-1.60,0zM283.06,59.57a0.80,0.80,0,1,0,1.60,0a0.80,0.80,0,1,0,-1.60,0zM285.64,60.66a0.80,0.80,0,1,0,1.60,0a0.80,0.80,0,1,0,-1.60,0zM288.22,61.54a0.80,0.80,0,1,0,1.60,0a0.80,0.80,0,1,0,-1.60,0zM290.80,62.49a0.80,0.80,0,1,0,1.60,0a0.80,0.80,0,1,0,-1.60,0zM293.38,63.42a0.80,0.80,0,1,0,1.60,0a0.80,0.80,0,1,0,-1.60,0zM295.96,64.32a0.80,0.80,0,1,0,1.60,0a0.80,0.80,0,1,0,-1.60,0zM298.54,65.28a0.80,0.80,0,1,0,1.60,0a0.80,0.80,0,1,0,-1.60,0zM301.12,66.24a0.80,0.80,0,1,0,1.60,0a0.80,0.80,0,1,0,-1.60,0zM303.71,67.19a0.80,0.80,0,1,0,1.60,0a0.80,0.80,0,1,0,-1.60,0zM306.29,68.17a0.80,0.80,0,1,0,1.60,0a0.80,0.80,0,1,0,-1.60,0zM308.87,69.16a0.80,0.80,0,1,0,1.60,0a0.80,0.80,0,1,0,-1.60,0zM311.45,70.10a0.80,0.80,0,1,0,1.60,0a0.80,0.80,0,1,0,-1.60,0zM314.03,71.16a0.80,0.80,0,1,0,1.60,0a0.80,0.80,0,1,0,-1.60,0zM316.61,72.17a0.80,0.80,0,1,0,1.60,0a0.80,0.80,0,1,0,-1.60,0zM319.19,73.20a0.80,0.80,0,1,0,1.60,0a0.80,0.80,0,1,0,-1.60,0zM321.77,74.23a0.80,0.80,0,1,0,1.60,0a0.80,0.80,0,1,0,-1.60,0zM324.35,75.28a0.80,0.80,0,1,0,1.60,0a0.80,0.80,0,1,0,-1.60,0zM326.93,76.33a0.80,0.80,0,1,0,1.60,0a0.80,0.80,0,1,0,-1.60,0zM329.51,77.40a0.80,0.80,0,1,0,1.60,0a0.80,0.80,0,1,0,-1.60,0zM332.09,78.48a0.80,0.80,0,1,0,1.60,0a0.80,0.80,0,1,0,-1.60,0zM334.67,79.56a0.80,0.80,0,1,0,1.60,0a0.80,0.80,0,1,0,-1.60,0zM337.25,80.66a0.80,0.80,0,1,0,1.60,0a0.80,0.80,0,1,0,-1.60,0zM339.83,81.76a0.80,0.80,0,1,0,1.60,0a0.80,0.80,0,1,0,-1.60,0zM342.41,82.88a0.80,0.80,0,1,0,1.60,0a0.80,0.80,0,1,0,-1.60,0zM344.99,84.00a0.80,0.80,0,1,0,1.60,0a0.80,0.80,0,1,0,-1.60,0zM347.57,85.13a0.80,0.80,0,1,0,1.60,0a0.80,0.80,0,1,0,-1.60,0zM350.16,86.28a0.80,0.80,0,1,0,1.60,0a0.80,0.80,0,1,0,-1.60,0zM352.74,87.43a0.80,0.80,0,1,0,1.60,0a0.80,0.80,0,1,0,-1.60,0zM355.32,88.59a0.80,0.80,0,1,0,1.60,0a0.80,0.80,0,1,0,-1.60,0zM357.90,89.76a0.80,0.80,0,1,0,1.60,0a0.80,0.80,0,1,0,-1.60,0zM360.48,90.94a0.80,0.80,0,1,0,1.60,0a0.80,0.80,0,1,0,-1.60,0zM363.06,92.12a0.80,0.80,0,1,0,1.60,0a0.80,0.80,0,1,0,-1.60,0zM365.64,93.32a0.80,0.80,0,1,0,1.60,0a0.80,0.80,0,1,0,-1.60,0zM368.22,94.53a0.80,0.80,0,1,0,1.60,0a0.80,0.80,0,1,0,-1.60,0zM370.80,95.74a0.80,0.80,0,1,0,1.60,0a0.80,0.80,0,1,0,-1.60,0zM373.38,96.96a0.80,0.80,0,1,0,1.60,0a0.80,0.80,0,1,0,-1.60,0zM375.96,98.20a0.80,0.80,0,1,0,1.60,0a0.80,0.80,0,1,0,-1.60,0zM378.54,99.44a0.80,0.80,0,1,0,1.60,0a0.80,0.80,0,1,0,-1.60,0zM381.12,100.68a0.80,0.80,0,1,0,1.60,0a0.80,0.80,0,1,0,-1.60,0zM383.70,101.94a0.80,0.80,0,1,0,1.60,0a0.80,0.80,0,1,0,-1.60,0zM386.28,103.21a0.80,0.80,0,1,0,1.60,0a0.80,0.80,0,1,0,-1.60,0zM388.86,104.48a0.80,0.80,0,1,0,1.60,0a0.80,0.80,0,1,0,-1.60,0zM391.44,105.76a0.80,0.80,0,1,0,1.60,0a0.80,0.80,0,1,0,-1.60,0zM394.02,107.05a0.80,0.80,0,1,0,1.60,0a0.80,0.80,0,1,0,-1.60,0zM396.61,108.35a0.80,0.80,0,1,0,1.60,0a0.80,0.80,0,1,0,-1.60,0zM399.19,109.66a0.80,0.80,0,1,0,1.60,0a0.80,0.80,0,1,0,-1.60,0zM401.77,110.97a0.80,0.80,0,1,0,1.60,0a0.80,0.80,0,1,0,-1.60,0zM404.35,112.30a0.80,0.80,0,1,0,1.60,0a0.80,0.80,0,1,0,-1.60,0zM406.93,113.63a0.80,0.80,0,1,0,1.60,0a0.80,0.80,0,1,0,-1.60,0zM409.51,114.97a0.80,0.80,0,1,0,1.60,0a0.80,0.80,0,1,0,-1.60,0zM412.09,116.31a0.80,0.80,0,1,0,1.60,0a0.80,0.80,0,1,0,-1.60,0zM414.67,117.67a0.80,0.80,0,1,0,1.60,0a0.80,0.80,0,1,0,-1.60,0zM417.25,119.03a0.80,0.80,0,1,0,1.60,0a0.80,0.80,0,1,0,-1.60,0zM419.83,120.40a0.80,0.80,0,1,0,1.60,0a0.80,0.80,0,1,0,-1.60,0zM422.41,121.78a0.80,0.80,0,1,0,1.60,0a0.80,0.80,0,1,0,-1.60,0zM424.99,123.16a0.80,0.80,0,1,0,1.60,0a0.80,0.80,0,1,0,-1.60,0zM427.57,124.56a0.80,0.80,0,1,0,1.60,0a0.80,0.80,0,1,0,-1.60,0zM430.15,125.96a0.80,0.80,0,1,0,1.60,0a0.80,0.80,0,1,0,-1.60,0zM432.73,127.37a0.80,0.80,0,1,0,1.60,0a0.80,0.80,0,1,0,-1.60,0zM435.31,128.78a0.80,0.80,0,1,0,1.60,0a0.80,0.80,0,1,0,-1.60,0zM437.89,130.21a0.80,0.80,0,1,0,1.60,0a0.80,0.80,0,1,0,-1.60,0zM440.47,131.64a0.80,0.80,0,1,0,1.60,0a0.80,0.80,0,1,0,-1.60,0zM443.06,133.08a0.80,0.80,0,1,0,1.60,0a0.80,0.80,0,1,0,-1.60,0zM445.64,134.52a0.80,0.80,0,1,0,1.60,0a0.80,0.80,0,1,0,-1.60,0zM448.22,135.98a0.80,0.80,0,1,0,1.60,0a0.80,0.80,0,1,0,-1.60,0zM450.80,137.44a0.80,0.80,0,1,0,1.60,0a0.80,0.80,0,1,0,-1.60,0zM453.38,138.91a0.80,0.80,0,1,0,1.60,0a0.80,0.80,0,1,0,-1.60,0zM455.96,140.38a0.80,0.80,0,1,0,1.60,0a0.80,0.80,0,1,0,-1.60,0zM458.54,141.87a0.80,0.80,0,1,0,1.60,0a0.80,0.80,0,1,0,-1.60,0zM461.12,143.36a0.80,0.80,0,1,0,1.60,0a0.80,0.80,0,1,0,-1.60,0zM463.70,144.85a0.80,0.80,0,1,0,1.60,0a0.80,0.80,0,1,0,-1.60,0zM466.28,146.36a0.80,0.80,0,1,0,1.60,0a0.80,0.80,0,1,0,-1.60,0zM468.86,147.87a0.80,0.80,0,1,0,1.60,0a0.80,0.80,0,1,0,-1.60,0zM471.44,149.39a0.80,0.80,0,1,0,1.60,0a0.80,0.80,0,1,0,-1.60,0zM474.02,150.92a0.80,0.80,0,1,0,1.60,0a0.80,0.80,0,1,0,-1.60,0zM476.60,152.45a0.80,0.80,0,1,0,1.60,0a0.80,0.80,0,1,0,-1.60,0zM479.18,153.99a0.80,0.80,0,1,0,1.60,0a0.80,0.80,0,1,0,-1.60,0zM481.76,155.54a0.80,0.80,0,1,0,1.60,0a0.80,0.80,0,1,0,-1.60,0zM484.34,157.09a0.80,0.80,0,1,0,1.60,0a0.80,0.80,0,1,0,-1.60,0zM486.93,158.66a0.80,0.80,0,1,0,1.60,0a0.80,0.80,0,1,0,-1.60,0zM489.51,160.22a0.80,0.80,0,1,0,1.60,0a0.80,0.80,0,1,0,-1.60,0zM492.09,161.80a0.80,0.80,0,1,0,1.60,0a0.80,0.80,0,1,0,-1.60,0zM494.67,163.38a0.80,0.80,0,1,0,1.60,0a0.80,0.80,0,1,0,-1.60,0zM497.25,164.97a0.80,0.80,0,1,0,1.60,0a0.80,0.80,0,1,0,-1.60,0zM499.83,166.57a0.80,0.80,0,1,0,1.60,0a0.80,0.80,0,1,0,-1.60,0zM502.41,168.17a0.80,0.80,0,1,0,1.60,0a0.80,0.80,0,1,0,-1.60,0zM504.99,169.79a0.80,0.80,0,1,0,1.60,0a0.80,0.80,0,1,0,-1.60,0zM507.57,171.40a0.80,0.80,0,1,0,1.60,0a0.80,0.80,0,1,0,-1.60,0zM510.15,173.03a0.80,0.80,0,1,0,1.60,0a0.80,0.80,0,1,0,-1.60,0zM512.73,174.66a0.80,0.80,0,1,0,1.60,0a0.80,0.80,0,1,0,-1.60,0zM515.31,176.30a0.80,0.80,0,1,0,1.60,0a0.80,0.80,0,1,0,-1.60,0zM517.89,177.94a0.80,0.80,0,1,0,1.60,0a0.80,0.80,0,1,0,-1.60,0zM520.47,179.59a0.80,0.80,0,1,0,1.60,0a0.80,0.80,0,1,0,-1.60,0zM523.05,181.25a0.80,0.80,0,1,0,1.60,0a0.80,0.80,0,1,0,-1.60,0zM525.63,182.92a0.80,0.80,0,1,0,1.60,0a0.80,0.80,0,1,0,-1.60,0zM528.21,184.59a0.80,0.80,0,1,0,1.60,0a0.80,0.80,0,1,0,-1.60,0zM530.79,186.27a0.80,0.80,0,1,0,1.60,0a0.80,0.80,0,1,0,-1.60,0zM533.38,187.95a0.80,0.80,0,1,0,1.60,0a0.80,0.80,0,1,0,-1.60,0zM535.96,189.65a0.80,0.80,0,1,0,1.60,0a0.80,0.80,0,1,0,-1.60,0zM538.54,191.35a0.80,0.80,0,1,0,1.60,0a0.80,0.80,0,1,0,-1.60,0zM541.12,193.05a0.80,0.80,0,1,0,1.60,0a0.80,0.80,0,1,0,-1.60,0zM543.70,194.76a0.80,0.80,0,1,0,1.60,0a0.80,0.80,0,1,0,-1.60,0zM546.28,196.48a0.80,0.80,0,1,0,1.60,0a0.80,0.80,0,1,0,-1.60,0zM548.86,198.21a0.80,0.80,0,1,0,1.60,0a0.80,0.80,0,1,0,-1.60,0zM551.44,199.94a0.80,0.80,0,1,0,1.60,0a0.80,0.80,0,1,0,-1.60,0zM554.02,201.68a0.80,0.80,0,1,0,1.60,0a0.80,0.80,0,1,0,-1.60,0zM556.60,203.43a0.80,0.80,0,1,0,1.60,0a0.80,0.80,0,1,0,-1.60,0zM559.18,205.18a0.80,0.80,0,1,0,1.60,0a0.80,0.80,0,1,0,-1.60,0zM561.76,206.94a0.80,0.80,0,1,0,1.60,0a0.80,0.80,0,1,0,-1.60,0zM564.34,208.70a0.80,0.80,0,1,0,1.60,0a0.80,0.80,0,1,0,-1.60,0zM566.92,210.47a0.80,0.80,0,1,0,1.60,0a0.80,0.80,0,1,0,-1.60,0zM569.50,212.25a0.80,0.80,0,1,0,1.60,0a0.80,0.80,0,1,0,-1.60,0zM572.08,214.04a0.80,0.80,0,1,0,1.60,0a0.80,0.80,0,1,0,-1.60,0zM574.66,215.83a0.80,0.80,0,1,0,1.60,0a0.80,0.80,0,1,0,-1.60,0zM577.24,217.63a0.80,0.80,0,1,0,1.60,0a0.80,0.80,0,1,0,-1.60,0zM579.83,219.43a0.80,0.80,0,1,0,1.60,0a0.80,0.80,0,1,0,-1.60,0zM582.41,221.25a0.80,0.80,0,1,0,1.60,0a0.80,0.80,0,1,0,-1.60,0zM584.99,223.06a0.80,0.80,0,1,0,1.60,0a0.80,0.80,0,1,0,-1.60,0zM587.57,224.89a0.80,0.80,0,1,0,1.60,0a0.80,0.80,0,1,0,-1.60,0zM590.15,226.72a0.80,0.80,0,1,0,1.60,0a0.80,0.80,0,1,0,-1.60,0zM592.73,228.56a0.80,0.80,0,1,0,1.60,0a0.80,0.80,0,1,0,-1.60,0zM595.31,230.40a0.80,0.80,0,1,0,1.60,0a0.80,0.80,0,1,0,-1.60,0zM597.89,232.25a0.80,0.80,0,1,0,1.60,0a0.80,0.80,0,1,0,-1.60,0zM600.47,234.11a0.80,0.80,0,1,0,1.60,0a0.80,0.80,0,1,0,-1.60,0zM603.05,235.97a0.80,0.80,0,1,0,1.60,0a0.80,0.80,0,1,0,-1.60,0zM605.63,237.84a0.80,0.80,0,1,0,1.60,0a0.80,0.80,0,1,0,-1.60,0zM608.21,239.72a0.80,0.80,0,1,0,1.60,0a0.80,0.80,0,1,0,-1.60,0zM610.79,241.60a0.80,0.80,0,1,0,1.60,0a0.80,0.80,0,1,0,-1.60,0zM613.37,243.49a0.80,0.80,0,1,0,1.60,0a0.80,0.80,0,1,0,-1.60,0zM615.95,245.39a0.80,0.80,0,1,0,1.60,0a0.80,0.80,0,1,0,-1.60,0zM618.53,247.29a0.80,0.80,0,1,0,1.60,0a0.80,0.80,0,1,0,-1.60,0zM621.11,249.20a0.80,0.80,0,1,0,1.60,0a0.80,0.80,0,1,0,-1.60,0zM623.69,251.12a0.80,0.80,0,1,0,1.60,0a0.80,0.80,0,1,0,-1.60,0zM626.28,253.04a0.80,0.80,0,1,0,1.60,0a0.80,0.80,0,1,0,-1.60,0zM628.86,254.97a0.80,0.80,0,1,0,1.60,0a0.80,0.80,0,1,0,-1.60,0zM631.44,256.90a0.80,0.80,0,1,0,1.60,0a0.80,0.80,0,1,0,-1.60,0zM634.02,258.85a0.80,0.80,0,1,0,1.60,0a0.80,0.80,0,1,0,-1.60,0zM636.60,260.79a0.80,0.80,0,1,0,1.60,0a0.80,0.80,0,1,0,-1.60,0zM639.18,262.75a0.80,0.80,0,1,0,1.60,0a0.80,0.80,0,1,0,-1.60,0zM641.76,264.71a0.80,0.80,0,1,0,1.60,0a0.80,0.80,0,1,0,-1.60,0zM644.34,266.68a0.80,0.80,0,1,0,1.60,0a0.80,0.80,0,1,0,-1.60,0zM646.92,268.65a0.80,0.80,0,1,0,1.60,0a0.80,0.80,0,1,0,-1.60,0zM649.50,270.63a0.80,0.80,0,1,0,1.60,0a0.80,0.80,0,1,0,-1.60,0zM652.08,272.62a0.80,0.80,0,1,0,1.60,0a0.80,0.80,0,1,0,-1.60,0zM654.66,274.61a0.80,0.80,0,1,0,1.60,0a0.80,0.80,0,1,0,-1.60,0zM657.24,276.61a0.80,0.80,0,1,0,1.60,0a0.80,0.80,0,1,0,-1.60,0zM659.82,278.62a0.80,0.80,0,1,0,1.60,0a0.80,0.80,0,1,0,-1.60,0zM662.40,280.63a0.80,0.80,0,1,0,1.60,0a0.80,0.80,0,1,0,-1.60,0zM664.98,282.65a0.80,0.80,0,1,0,1.60,0a0.80,0.80,0,1,0,-1.60,0zM667.56,284.68a0.80,0.80,0,1,0,1.60,0a0.80,0.80,0,1,0,-1.60,0zM670.14,286.71a0.80,0.80,0,1,0,1.60,0a0.80,0.80,0,1,0,-1.60,0zM672.73,288.75a0.80,0.80,0,1,0,1.60,0a0.80,0.80,0,1,0,-1.60,0zM675.31,290.80a0.80,0.80,0,1,0,1.60,0a0.80,0.80,0,1,0,-1.60,0zM677.89,292.85a0.80,0.80,0,1,0,1.60,0a0.80,0.80,0,1,0,-1.60,0zM680.47,294.91a0.80,0.80,0,1,0,1.60,0a0.80,0.80,0,1,0,-1.60,0zM683.05,296.97a0.80,0.80,0,1,0,1.60,0a0.80,0.80,0,1,0,-1.60,0zM685.63,299.05a0.80,0.80,0,1,0,1.60,0a0.80,0.80,0,1,0,-1.60,0zM688.21,301.12a0.80,0.80,0,1,0,1.60,0a0.80,0.80,0,1,0,-1.60,0zM690.79,303.21a0.80,0.80,0,1,0,1.60,0a0.80,0.80,0,1,0,-1.60,0zM693.37,305.30a0.80,0.80,0,1,0,1.60,0a0.80,0.80,0,1,0,-1.60,0zM695.95,307.40a0.80,0.80,0,1,0,1.60,0a0.80,0.80,0,1,0,-1.60,0zM698.53,309.50a0.80,0.80,0,1,0,1.60,0a0.80,0.80,0,1,0,-1.60,0zM701.11,311.61a0.80,0.80,0,1,0,1.60,0a0.80,0.80,0,1,0,-1.60,0zM703.69,313.73a0.80,0.80,0,1,0,1.60,0a0.80,0.80,0,1,0,-1.60,0zM706.27,315.86a0.80,0.80,0,1,0,1.60,0a0.80,0.80,0,1,0,-1.60,0zM708.85,317.99a0.80,0.80,0,1,0,1.60,0a0.80,0.80,0,1,0,-1.60,0zM711.43,320.12a0.80,0.80,0,1,0,1.60,0a0.80,0.80,0,1,0,-1.60,0zM714.01,322.27a0.80,0.80,0,1,0,1.60,0a0.80,0.80,0,1,0,-1.60,0zM716.59,324.42a0.80,0.80,0,1,0,1.60,0a0.80,0.80,0,1,0,-1.60,0zM719.18,326.58a0.80,0.80,0,1,0,1.60,0a0.80,0.80,0,1,0,-1.60,0zM721.76,328.74a0.80,0.80,0,1,0,1.60,0a0.80,0.80,0,1,0,-1.60,0zM724.34,330.91a0.80,0.80,0,1,0,1.60,0a0.80,0.80,0,1,0,-1.60,0zM726.92,333.09a0.80,0.80,0,1,0,1.60,0a0.80,0.80,0,1,0,-1.60,0zM729.50,335.27a0.80,0.80,0,1,0,1.60,0a0.80,0.80,0,1,0,-1.60,0zM732.08,337.46a0.80,0.80,0,1,0,1.60,0a0.80,0.80,0,1,0,-1.60,0zM734.66,339.66a0.80,0.80,0,1,0,1.60,0a0.80,0.80,0,1,0,-1.60,0zM737.24,341.86a0.80,0.80,0,1,0,1.60,0a0.80,0.80,0,1,0,-1.60,0zM739.82,344.07a0.80,0.80,0,1,0,1.60,0a0.80,0.80,0,1,0,-1.60,0zM742.40,346.29a0.80,0.80,0,1,0,1.60,0a0.80,0.80,0,1,0,-1.60,0zM744.98,348.52a0.80,0.80,0,1,0,1.60,0a0.80,0.80,0,1,0,-1.60,0zM747.56,350.75a0.80,0.80,0,1,0,1.60,0a0.80,0.80,0,1,0,-1.60,0zM750.14,352.98a0.80,0.80,0,1,0,1.60,0a0.80,0.80,0,1,0,-1.60,0zM752.72,355.23a0.80,0.80,0,1,0,1.60,0a0.80,0.80,0,1,0,-1.60,0zM755.30,357.48a0.80,0.80,0,1,0,1.60,0a0.80,0.80,0,1,0,-1.60,0zM757.88,359.73a0.80,0.80,0,1,0,1.60,0a0.80,0.80,0,1,0,-1.60,0zM760.46,362.00a0.80,0.80,0,1,0,1.60,0a0.80,0.80,0,1,0,-1.60,0zM763.04,364.27a0.80,0.80,0,1,0,1.60,0a0.80,0.80,0,1,0,-1.60,0zM765.63,366.55a0.80,0.80,0,1,0,1.60,0a0.80,0.80,0,1,0,-1.60,0zM768.21,368.83a0.80,0.80,0,1,0,1.60,0a0.80,0.80,0,1,0,-1.60,0zM770.79,371.12a0.80,0.80,0,1,0,1.60,0a0.80,0.80,0,1,0,-1.60,0zM773.37,373.42a0.80,0.80,0,1,0,1.60,0a0.80,0.80,0,1,0,-1.60,0zM775.95,375.72a0.80,0.80,0,1,0,1.60,0a0.80,0.80,0,1,0,-1.60,0zM778.53,378.04a0.80,0.80,0,1,0,1.60,0a0.80,0.80,0,1,0,-1.60,0zM781.11,380.35a0.80,0.80,0,1,0,1.60,0a0.80,0.80,0,1,0,-1.60,0zM783.69,382.68a0.80,0.80,0,1,0,1.60,0a0.80,0.80,0,1,0,-1.60,0zM786.27,385.01a0.80,0.80,0,1,0,1.60,0a0.80,0.80,0,1,0,-1.60,0zM788.85,387.35a0.80,0.80,0,1,0,1.60,0a0.80,0.80,0,1,0,-1.60,0zM791.43,389.69a0.80,0.80,0,1,0,1.60,0a0.80,0.80,0,1,0,-1.60,0zM794.01,392.04a0.80,0.80,0,1,0,1.60,0a0.80,0.80,0,1,0,-1.60,0zM796.59,394.40a0.80,0.80,0,1,0,1.60,0a0.80,0.80,0,1,0,-1.60,0zM799.17,396.77a0.80,0.80,0,1,0,1.60,0a0.80,0.80,0,1,0,-1.60,0zM801.75,399.14a0.80,0.80,0,1,0,1.60,0a0.80,0.80,0,1,0,-1.60,0zM804.33,401.52a0.80,0.80,0,1,0,1.60,0a0.80,0.80,0,1,0,-1.60,0zM806.91,403.90a0.80,0.80,0,1,0,1.60,0a0.80,0.80,0,1,0,-1.60,0zM809.49,406.30a0.80,0.80,0,1,0,1.60,0a0.80,0.80,0,1,0,-1.60,0zM812.08,408.70a0.80,0.80,0,1,0,1.60,0a0.80,0.80,0,1,0,-1.60,0zM814.66,411.10a0.80,0.80,0,1,0,1.60,0a0.80,0.80,0,1,0,-1.60,0zM817.24,413.52a0.80,0.80,0,1,0,1.60,0a0.80,0.80,0,1,0,-1.60,0zM819.82,415.93a0.80,0.80,0,1,0,1.60,0a0.80,0.80,0,1,0,-1.60,0zM822.40,418.36a0.80,0.80,0,1,0,1.60,0a0.80,0.80,0,1,0,-1.60,0zM824.98,420.79a0.80,0.80,0,1,0,1.60,0a0.80,0.80,0,1,0,-1.60,0zM827.56,423.23a0.80,0.80,0,1,0,1.60,0a0.80,0.80,0,1,0,-1.60,0zM830.14,425.68a0.80,0.80,0,1,0,1.60,0a0.80,0.80,0,1,0,-1.60,0zM832.72,428.13a0.80,0.80,0,1,0,1.60,0a0.80,0.80,0,1,0,-1.60,0zM835.30,430.60a0.80,0.80,0,1,0,1.60,0a0.80,0.80,0,1,0,-1.60,0zM837.88,433.06a0.80,0.80,0,1,0,1.60,0a0.80,0.80,0,1,0,-1.60,0zM840.46,435.54a0.80,0.80,0,1,0,1.60,0a0.80,0.80,0,1,0,-1.60,0zM843.04,438.02a0.80,0.80,0,1,0,1.60,0a0.80,0.80,0,1,0,-1.60,0zM845.62,440.50a0.80,0.80,0,1,0,1.60,0a0.80,0.80,0,1,0,-1.60,0zM848.20,443.00a0.80,0.80,0,1,0,1.60,0a0.80,0.80,0,1,0,-1.60,0zM850.78,445.50a0.80,0.80,0,1,0,1.60,0a0.80,0.80,0,1,0,-1.60,0z" style="stroke: black; fill: black;"></path><path d="M72.41666666666667,216.64562921059036h10v10h-10zM74.99722222222223,213.02505792914056h10v10h-10zM77.5777777777778,209.4044866476908h10v10h-10zM80.15833333333336,205.78391536624096h10v10h-10zM82.73888888888891,202.16334408479116h10v10h-10zM85.31944444444446,198.54277280334128h10v10h-10zM87.90000000000002,194.9222015218916h10v10h-10zM90.48055555555558,191.30163024044177h10v10h-10zM93.06111111111113,187.6810589589919h10v10h-10zM95.6416666666667,184.0604876775422h10v10h-10zM98.22222222222226,180.43991639609237h10v10h-10zM100.80277777777782,176.81934511464252h10v10h-10zM103.38333333333337,173.1987738331927h10v10h-10zM105.96388888888887,169.578202551743h10v10h-10zM108.54444444444442,165.95763127029312h10v10h-10zM111.12499999999999,162.33705998884332h10v10h-10zM113.70555555555555,158.7164887073935h10v10h-10zM116.2861111111111,155.09591742594372h10v10h-10zM118.86666666666666,151.47534614449393h10v10h-10zM121.44722222222221,147.85477486304416h10v10h-10zM124.02777777777777,144.2342035815943h10v10h-10zM126.60833333333332,140.61363230014453h10v10h-10zM129.1888888888889,136.9930610186947h10v10h-10zM131.76944444444445,133.3724897372449h10v10h-10zM134.35,129.75191845579508h10v10h-10zM136.93055555555557,126.13134717434534h10v10h-10zM139.51111111111112,122.51077589289551h10v10h-10zM142.0916666666667,118.8902046114457h10v10h-10zM144.67222222222225,115.26963332999594h10v10h-10zM147.2527777777778,111.64906204854607h10v10h-10zM149.83333333333334,108.02849076709632h10v10h-10zM152.41388888888892,104.40791948564649h10v10h-10zM154.99444444444447,100.78734820419668h10v10h-10zM157.57500000000002,97.16677692274686h10v10h-10zM160.1555555555556,93.5462056412971h10v10h-10zM162.73611111111114,89.9256343598473h10v10h-10zM165.31666666666672,86.30494239268806h10v10h-10zM167.89722222222224,82.6843711112383h10v10h-10zM170.47777777777776,79.06379982978855h10v10h-10zM173.0583333333333,75.44298717691997h10v10h-10zM175.63888888888886,71.82060560982943h10v10h-10zM178.21944444444443,68.19991364267021h10v10h-10zM180.79999999999998,64.57475630426389h10v10h-10zM183.38055555555556,60.95647805129238h10v10h-10zM185.9611111111111,57.33542402700503h10v10h-10zM188.54166666666666,53.70749091728299h10v10h-10zM191.12222222222223,50.08860923576454h10v10h-10zM193.70277777777775,46.39816092858277h10v10h-10zM196.28333333333333,42.79050301803675h10v10h-10zM198.86388888888888,39.034643056370115h10v10h-10zM201.44444444444446,35.61706513810024h10v10h-10zM204.025,35.50000000000002h10v10h-10zM206.60555555555558,35.546222626693215h10v10h-10zM209.18611111111113,35.78264593137191h10v10h-10zM211.76666666666668,36.71675332198596h10v10h-10zM214.34722222222223,37.159911246835385h10v10h-10zM216.92777777777778,37.80739007766804h10v10h-10zM219.50833333333333,38.198411776064624h10v10h-10zM222.08888888888887,38.84842500679424h10v10h-10zM224.66944444444445,39.30884098808525h10v10h-10zM227.25,39.213257906254945h10v10h-10zM229.83055555555555,40.14314129704067h10v10h-10zM232.4111111111111,41.17874536924466h10v10h-10zM234.9916666666667,40.670537847038496h10v10h-10zM237.57222222222225,42.403101890921654h10v10h-10zM240.15277777777777,42.49699537282054h10v10h-10zM242.73333333333332,42.9633249538713h10v10h-10zM245.31388888888893,43.591856128331h10v10h-10zM247.89444444444447,44.760455852273616h10v10h-10zM250.47499999999997,45.96791637463714h10v10h-10zM253.05555555555554,46.11575636862964h10v10h-10zM255.63611111111112,46.84361188191044h10v10h-10zM258.21666666666664,48.02778006236323h10v10h-10zM260.7972222222222,48.899130884098845h10v10h-10zM263.3777777777778,49.532610172643224h10v10h-10zM265.95833333333337,50.60345447198664h10v10h-10zM268.5388888888889,51.1403851930257h10v10h-10zM271.11944444444447,52.09247475433758h10v10h-10zM273.7,52.83058855291586h10v10h-10zM276.28055555555557,53.60177023586461h10v10h-10zM278.86111111111114,54.568583453721125h10v10h-10zM281.44166666666666,55.663926952069055h10v10h-10zM284.02222222222224,56.541312059273714h10v10h-10zM286.6027777777777,57.49436710626067h10v10h-10zM289.1833333333334,58.41761278303035h10v10h-10zM291.76388888888886,59.323117660520964h10v10h-10zM294.3444444444445,60.28136219301136h10v10h-10zM296.92499999999995,61.24322729678319h10v10h-10zM299.5055555555556,62.194110001001306h10v10h-10zM302.0861111111111,63.17347453263349h10v10h-10zM304.6666666666667,64.15923540686283h10v10h-10zM307.2472222222222,65.10215285426177h10v10h-10zM309.82777777777784,66.1563425257106h10v10h-10zM312.40833333333336,67.17155071302909h10v10h-10zM314.9888888888889,68.19713787135443h10v10h-10zM317.56944444444446,69.2323798864303h10v10h-10zM320.15,70.27836292964118h10v10h-10zM322.73055555555555,71.33412151531195h10v10h-10zM325.31111111111113,72.40013838628015h10v10h-10zM327.89166666666665,73.47605148541766h10v10h-10zM330.47222222222223,74.56149875559633h10v10h-10zM333.05277777777775,75.65672156823486h10v10h-10zM335.6333333333334,76.76147855191456h10v10h-10zM338.2138888888889,77.87540764950732h10v10h-10zM340.7944444444445,78.99947434668805h10v10h-10zM343.375,80.13271315778188h10v10h-10zM345.9555555555555,81.27536545420745h10v10h-10zM348.53611111111115,82.42706917883659h10v10h-10zM351.1166666666667,83.58782433166944h10v10h-10zM353.69722222222225,84.75775159841524h10v10h-10zM356.2777777777777,85.93660960765529h10v10h-10zM358.8583333333334,87.12451904509896h10v10h-10zM361.43888888888887,88.32111785361813h10v10h-10zM364.0194444444445,89.52664740463153h10v10h-10zM366.59999999999997,90.74098701242976h10v10h-10zM369.18055555555554,91.96389530559416h10v10h-10zM371.7611111111111,93.19537228412462h10v10h-10zM374.34166666666664,94.43553863373056h10v10h-10zM376.9222222222222,95.68403229728384h10v10h-10zM379.50277777777774,96.94109464620318h10v10h-10zM382.0833333333333,98.2066049947793h10v10h-10zM384.6638888888889,99.48032197159334h10v10h-10zM387.24444444444447,100.76212489093597h10v10h-10zM389.825,102.05273786706343h10v10h-10zM392.4055555555555,103.35131610001007h10v10h-10zM394.98611111111114,104.65798027548529h10v10h-10zM397.56666666666666,105.97273039348909h10v10h-10zM400.14722222222224,107.29556645402147h10v10h-10zM402.72777777777776,108.62636777137308h10v10h-10zM405.30833333333334,109.96513434554383h10v10h-10zM407.8888888888889,111.31186617653378h10v10h-10zM410.4694444444445,112.66644257863352h10v10h-10zM413.05,114.02898423755242h10v10h-10zM415.63055555555553,115.39924978187183h10v10h-10zM418.21111111111117,116.7772392115916h10v10h-10zM420.7916666666667,118.16295252671183h10v10h-10zM423.37222222222226,119.55638972723249h10v10h-10zM425.9527777777777,120.95755081315353h10v10h-10zM428.53333333333336,122.36619441305628h10v10h-10zM431.1138888888889,123.78256189835949h10v10h-10zM433.69444444444446,125.20641189764427h10v10h-10zM436.275,126.63774441091073h10v10h-10zM438.8555555555555,128.07668012386833h10v10h-10zM441.4361111111111,129.52297766509815h10v10h-10zM444.01666666666665,130.97675772030956h10v10h-10zM446.59722222222223,132.4378996037933h10v10h-10zM449.17777777777775,133.90640331554937h10v10h-10zM451.7583333333333,135.38226885557768h10v10h-10zM454.3388888888889,136.8654962238783h10v10h-10zM456.9194444444445,138.3559647347418h10v10h-10zM459.5,139.8536743881682h10v10h-10zM462.0805555555555,141.35862518415752h10v10h-10zM464.6611111111111,142.87081712270972h10v10h-10zM467.2416666666666,144.3902502038248h10v10h-10zM469.8222222222222,145.91668305608405h10v10h-10zM472.4027777777778,147.45035705090618h10v10h-10zM474.9833333333334,148.99115150258186h10v10h-10zM477.5638888888889,150.53894572540162h10v10h-10zM480.1444444444445,152.09386040507496h10v10h-10zM482.725,153.65589554160178h10v10h-10zM485.30555555555554,155.22480976356334h10v10h-10zM487.8861111111111,156.80084444237846h10v10h-10zM490.46666666666664,158.38375820662824h10v10h-10zM493.0472222222222,159.97367174202225h10v10h-10zM495.62777777777774,161.57058504856047h10v10h-10zM498.2083333333333,163.17437744053328h10v10h-10zM500.78888888888883,164.7851696036503h10v10h-10zM503.3694444444444,166.40272016649274h10v10h-10zM505.94999999999993,168.0272705004792h10v10h-10zM508.53055555555557,169.65857923419114h10v10h-10zM511.1111111111111,171.29676705333782h10v10h-10zM513.6916666666667,172.94171327220985h10v10h-10zM516.2722222222222,174.59353857651664h10v10h-10zM518.8527777777779,176.25212228054875h10v10h-10zM521.4333333333333,177.91746438430627h10v10h-10zM524.0138888888889,179.5896855734986h10v10h-10zM526.5944444444444,181.26854447670684h10v10h-10zM529.1750000000001,182.95416177964043h10v10h-10zM531.7555555555556,184.64653748229944h10v10h-10zM534.336111111111,186.34555089897452h10v10h-10zM536.9166666666667,188.05132271537482h10v10h-10zM539.4972222222221,189.7638529315006h10v10h-10zM542.0777777777778,191.48290017593303h10v10h-10zM544.6583333333333,193.20870582009073h10v10h-10zM547.2388888888889,194.94114917826448h10v10h-10zM549.8194444444445,196.68023025045417h10v10h-10zM552.4,198.42594903665994h10v10h-10zM554.9805555555555,200.17830553688165h10v10h-10zM557.5611111111111,201.93717906540994h10v10h-10zM560.1416666666667,203.70281099366363h10v10h-10zM562.7222222222223,205.47495995022396h10v10h-10zM565.3027777777777,207.25362593509078h10v10h-10zM567.8833333333333,209.0390503196831h10v10h-10zM570.463888888889,210.83087104687266h10v10h-10zM573.0444444444445,212.62932948807804h10v10h-10zM575.625,214.43430495759023h10v10h-10zM578.2055555555556,216.2459181411183h10v10h-10zM580.786111111111,218.064048352953h10v10h-10zM583.3666666666668,219.88869559309433h10v10h-10zM585.9472222222222,221.71985986154223h10v10h-10zM588.5277777777777,223.55754115829683h10v10h-10zM591.1083333333333,225.40186016906736h10v10h-10zM593.688888888889,227.25257552243505h10v10h-10zM596.2694444444445,229.1099285898188h10v10h-10zM598.8499999999999,230.9736779997998h10v10h-10zM601.4305555555555,232.8439444380874h10v10h-10zM604.0111111111112,234.7207279046816h10v10h-10zM606.5916666666667,236.6040283995824h10v10h-10zM609.1722222222222,238.4938459227899h10v10h-10zM611.7527777777777,240.39018047430383h10v10h-10zM614.3333333333333,242.2929113684151h10v10h-10zM616.913888888889,244.20227997654237h10v10h-10zM619.4944444444444,246.11804492726685h10v10h-10zM622.075,248.04032690629793h10v10h-10zM624.6555555555555,249.96900522792623h10v10h-10zM627.2361111111111,251.90432126357047h10v10h-10zM629.8166666666667,253.84603364181197h10v10h-10zM632.3972222222222,255.79426304836016h10v10h-10zM634.9777777777778,257.749009483215h10v10h-10zM637.5583333333334,259.71015226066686h10v10h-10zM640.1388888888889,261.67793275213484h10v10h-10zM642.7194444444444,263.6521095862001h10v10h-10zM645.3,265.6328034485719h10v10h-10zM647.8805555555556,267.61989365354094h10v10h-10zM650.4611111111111,269.6136215725259h10v10h-10zM653.0416666666666,271.6137458341082h10v10h-10zM655.6222222222223,273.62050780970645h10v10h-10zM658.2027777777778,275.6336661279019h10v10h-10zM660.7833333333333,277.653341474404h10v10h-10zM663.3638888888889,279.67953384921265h10v10h-10zM665.9444444444445,281.712243252328h10v10h-10zM668.5250000000001,283.75146968374986h10v10h-10zM671.1055555555555,285.79721314347836h10v10h-10zM673.686111111111,287.8494736315135h10v10h-10zM676.2666666666668,289.9082511478552h10v10h-10zM678.8472222222222,291.97354569250354h10v10h-10zM681.4277777777778,294.04547795116787h10v10h-10zM684.0083333333332,296.1239272381389h10v10h-10zM686.588888888889,298.2088935534165h10v10h-10zM689.1694444444445,300.30037689700066h10v10h-10zM691.75,302.3983772688914h10v10h-10zM694.3305555555555,304.50301535479826h10v10h-10zM696.911111111111,306.6142911547209h10v10h-10zM699.4916666666667,308.7320839829503h10v10h-10zM702.0722222222223,310.8563938394863h10v10h-10zM704.6527777777777,312.98734141003825h10v10h-10zM707.2333333333332,315.1248060088969h10v10h-10zM709.8138888888889,317.2690290074808h10v10h-10zM712.3944444444445,319.4197690343713h10v10h-10zM714.975,321.57702608956856h10v10h-10zM717.5555555555554,323.7410415444911h10v10h-10zM720.1361111111111,325.91157402772023h10v10h-10zM722.7166666666668,328.0888649106747h10v10h-10zM725.2972222222222,330.27267282193594h10v10h-10zM727.8777777777777,332.463118447213h10v10h-10zM730.4583333333333,334.6603224722155h10v10h-10zM733.038888888889,336.8640435255246h10v10h-10zM735.6194444444445,339.0745229785592h10v10h-10zM738.1999999999999,341.2916401456096h10v10h-10zM740.7805555555556,343.5155157123855h10v10h-10zM743.3611111111111,345.7459083074679h10v10h-10zM745.9416666666667,347.9831799879851h10v10h-10zM748.5222222222222,350.22696869680897h10v10h-10zM751.1027777777776,352.4775158053581h10v10h-10zM753.6833333333333,354.7348213136327h10v10h-10zM756.2638888888889,356.9987645359232h10v10h-10zM758.8444444444444,359.2694661579392h10v10h-10zM761.425,361.54692617968055h10v10h-10zM764.0055555555555,363.83114460114723h10v10h-10zM766.5861111111111,366.12200073662996h10v10h-10zM769.1666666666666,368.4196152718379h10v10h-10zM771.7472222222221,370.72398820677125h10v10h-10zM774.3277777777778,373.03511954143016h10v10h-10zM776.9083333333333,375.35300927581426h10v10h-10zM779.4888888888889,377.6776574099238h10v10h-10zM782.0694444444443,380.0090639437588h10v10h-10zM784.65,382.3472288773191h10v10h-10zM787.2305555555556,384.69227289631414h10v10h-10zM789.811111111111,387.0439546293251h10v10h-10zM792.3916666666667,389.40251544777084h10v10h-10zM794.9722222222223,391.767834665942h10v10h-10zM797.5527777777778,394.13991228383856h10v10h-10zM800.1333333333333,396.5187483014605h10v10h-10zM802.7138888888888,398.9044634045172h10v10h-10zM805.2944444444445,401.29693690729914h10v10h-10zM807.8750000000001,403.6961688098065h10v10h-10zM810.4555555555555,406.1021591120393h10v10h-10zM813.036111111111,408.5150284997068h10v10h-10zM815.6166666666666,410.9346562870997h10v10h-10zM818.1972222222222,413.36116315992746h10v10h-10zM820.7777777777778,415.79430774677104h10v10h-10zM823.3583333333332,418.2344521047588h10v10h-10zM825.9388888888889,420.6812341767626h10v10h-10zM828.5194444444444,423.13477464849177h10v10h-10zM831.1,425.59519420565573h10v10h-10zM833.6805555555555,428.06237216254493h10v10h-10zM836.2611111111111,430.53642920486897h10v10h-10zM838.8416666666667,433.017123961209h10v10h-10zM841.4222222222223,435.5046978029837h10v10h-10zM844.0027777777777,437.99890935877454h10v10h-10zM846.5833333333333,440.50000000000006h10v10h-10z" style="fill: none; pointer-events: visiblefill;"></path></g></svg><g><g transform="translate(0,486)"><path d="M0,0h929M0,-8V0M26,-8V0M52,-8V0M77,-15V0M103,-8V0M129,-8V0M155,-8V0M181,-8V0M206,-15V0M232,-8V0M258,-8V0M284,-8V0M310,-8V0M335,-15V0M361,-8V0M387,-8V0M413,-8V0M439,-8V0M465,-15V0M490,-8V0M516,-8V0M542,-8V0M568,-8V0M594,-15V0M619,-8V0M645,-8V0M671,-8V0M697,-8V0M723,-15V0M748,-8V0M774,-8V0M800,-8V0M826,-8V0M852,-15V0M877,-8V0M903,-8V0M929,-8V0" style="stroke: black; stroke-width: 1;"></path><g font-family="Arial" font-size="21" xml:space="preserve" fill="black" text-anchor="middle"><text dy=".8em" transform="translate(77,4)">-1.5</text><text dy=".8em" transform="translate(206,4)">-1</text><text dy=".8em" transform="translate(335,4)">-0.5</text><text dy=".8em" transform="translate(465,4)">0</text><text dy=".8em" transform="translate(594,4)">0.5</text><text dy=".8em" transform="translate(723,4)">1</text><text dy=".8em" transform="translate(852,4)">1.5</text></g><rect x="0" y="0" width="929" height="24" style="opacity: 0; cursor: crosshair;"></rect><g font-family="Arial" font-size="21" xml:space="preserve" transform="translate(929,34)" style="cursor: move;"><text fill="black" text-anchor="end" dominant-baseline="middle">Delta</text></g></g><g><path d="M0,0v486M14,475H0M28,463H0M14,451H0M14,439H0M14,427H0M14,415H0M28,403H0M14,391H0M14,379H0M14,366H0M14,354H0M28,342H0M14,330H0M14,318H0M14,306H0M14,294H0M28,282H0M14,270H0M14,258H0M14,246H0M14,234H0M28,222H0M14,210H0M14,198H0M14,185H0M14,173H0M28,161H0M14,149H0M14,137H0M14,125H0M14,113H0M28,101H0M14,89H0M14,77H0M14,65H0M14,53H0M28,41H0M14,29H0M14,16H0M14,4H0" style="stroke: black; stroke-width: 1;"></path><g font-family="Arial" font-size="21" xml:space="preserve" fill="black" text-anchor="end"><text dominant-baseline="middle" transform="translate(-4,463)">-6.5</text><text dominant-baseline="middle" transform="translate(-4,403)">-6</text><text dominant-baseline="middle" transform="translate(-4,342)">-5.5</text><text dominant-baseline="middle" transform="translate(-4,282)">-5</text><text dominant-baseline="middle" transform="translate(-4,222)">-4.5</text><text dominant-baseline="middle" transform="translate(-4,161)">-4</text><text dominant-baseline="middle" transform="translate(-4,101)">-3.5</text><text dominant-baseline="middle" transform="translate(-4,41)">-3</text></g><rect x="-39" y="0" width="39" height="486" style="opacity: 0; cursor: crosshair;"></rect><g font-family="Arial" font-size="21" xml:space="preserve" transform="translate(-64)" style="cursor: move;"><text fill="black" text-anchor="end" dominant-baseline="middle" transform="rotate(270)">Total Ground Energy</text></g></g><path d="M77,0v486M206,0v486M335,0v486M465,0v486M594,0v486M723,0v486M852,0v486" style="stroke: black; stroke-width: 1; stroke-dasharray: 1, 2;"></path><path d="M0,463h929M0,403h929M0,342h929M0,282h929M0,222h929M0,161h929M0,101h929M0,41h929" style="stroke: black; stroke-width: 1; stroke-dasharray: 1, 2;"></path></g><path d="M2,2h15v-5h-20v20h5Z" style="opacity: 0; cursor: nw-resize;"></path><path d="M927,2h-15v-5h20v20h-5 Z" style="opacity: 0; cursor: ne-resize;"></path><path d="M2,484h15v5h-20v-20h5Z" style="opacity: 0; cursor: sw-resize;"></path><path d="M927,484h-15v5h20v-20h-5Z" style="opacity: 0; cursor: se-resize;"></path><path d="M-3,18h5v450h-5Z" style="opacity: 0; cursor: w-resize;"></path><path d="M932,18h-5v450h5Z" style="opacity: 0; cursor: e-resize;"></path><path d="M18,-3v5h893v-5Z" style="opacity: 0; cursor: n-resize;"></path><path d="M18,489v-5h893v5Z" style="opacity: 0; cursor: s-resize;"></path></g><g transform="translate(116,3)" font-family="Arial" font-size="30" xml:space="preserve" style="cursor: move;"><path d="M0,0H929V40H0Z" style="fill: none; pointer-events: visiblefill;"></path><text fill="black" text-anchor="middle" dy=".8em" transform="translate(465)">Lanczos alogrithm, num = 12, error = 1e-15</text><path d="M2,2h15v-5h-20v20h5Z" style="opacity: 0; cursor: nw-resize;"></path><path d="M927,2h-15v-5h20v20h-5 Z" style="opacity: 0; cursor: ne-resize;"></path><path d="M2,38h15v5h-20v-20h5Z" style="opacity: 0; cursor: sw-resize;"></path><path d="M927,38h-15v5h20v-20h-5Z" style="opacity: 0; cursor: se-resize;"></path><path d="M-3,18h5v4h-5Z" style="opacity: 0; cursor: w-resize;"></path><path d="M932,18h-5v4h5Z" style="opacity: 0; cursor: e-resize;"></path><path d="M18,-3v5h893v-5Z" style="opacity: 0; cursor: n-resize;"></path><path d="M18,43v-5h893v5Z" style="opacity: 0; cursor: s-resize;"></path></g></g></svg>