<svg width="1161" height="607" xmlns="http://www.w3.org/2000/svg"><defs><pattern id="pat_3001_1" patternUnits="userSpaceOnUse" width="2" height="2"><path d="M0,0h1v1h-1zM1,1h1v1h-1z" style="fill: black;"></path></pattern><pattern id="pat_3002_1" patternUnits="userSpaceOnUse" width="4" height="2"><path d="M1,0h1v1h-1zM3,1h1v1h-1z" style="fill: black;"></path></pattern><pattern id="pat_3003_1" patternUnits="userSpaceOnUse" width="4" height="4"><path d="M2,1h1v1h-1zM0,3h1v1h-1z" style="fill: black;"></path></pattern><pattern id="pat_3004_1" patternUnits="userSpaceOnUse" width="8" height="8"><path d="M8,0L0,8" style="stroke: black; stroke-width: 1;"></path></pattern><pattern id="pat_3005_1" patternUnits="userSpaceOnUse" width="8" height="8"><path d="M0,0L8,8" style="stroke: black; stroke-width: 1;"></path></pattern><pattern id="pat_3006_1" patternUnits="userSpaceOnUse" width="4" height="4"><path d="M1,0v4" style="stroke: black; stroke-width: 1;"></path></pattern><pattern id="pat_3007_1" patternUnits="userSpaceOnUse" width="4" height="4"><path d="M0,1h4" style="stroke: black; stroke-width: 1;"></path></pattern><pattern id="pat_3010_1" patternUnits="userSpaceOnUse" width="10" height="10"><path d="M0,2h10M0,7h10M2,0v2M7,2v5M2,7v3" style="stroke: black; stroke-width: 1;"></path></pattern><pattern id="pat_3021_1" patternUnits="userSpaceOnUse" width="8" height="8"><path d="M8,2h-2v4h-4v2M2,0v2h-2" style="stroke: black; stroke-width: 1; fill: none;"></path></pattern><pattern id="pat_3022_1" patternUnits="userSpaceOnUse" width="8" height="8"><path d="M0,2h2v4h4v2M6,0v2h2" style="stroke: black; stroke-width: 1; fill: none;"></path></pattern></defs><title>14_13.root/c1;1</title><path d="M0,0H1161V607H0Z" style="pointer-events: visiblefill; fill: white;"></path><g><g transform="translate(116,61)"><title></title><path d="M0,0H929V486H0Z" style="fill: white; stroke: black; stroke-width: 1; pointer-events: visiblefill; cursor: default;"></path><svg x="0" y="0" overflow="hidden" width="929" height="486" viewBox="0 0 929 486" style="pointer-events: visiblefill; cursor: default;"><g style="cursor: move;"><path d="M77,223l3,-4l3,-3l2,-4l3,-3l2,-4l3,-4l2,-3l3,-4l3,-4l2,-3l3,-4l2,-4l3,-3l3,-4l2,-3l3,-4l2,-4l3,-3l2,-4l3,-4l3,-3l2,-4l3,-4l2,-3l3,-4l3,-4l2,-3l3,-4l2,-3l3,-4l2,-4l3,-3l3,-4l2,-4l3,-3l2,-4l3,-4l2,-3l3,-4l3,-3l2,-4l3,-4l2,-3l3,-4l3,-4l2,-3l3,-4l2,-4l3,-4l2,-3l3,-1l3,1l2,1h5l3,1h3l2,1h5l3,2h8l2,2l3,1l2,-1l3,2h2l3,1l3,1h5l2,3h3l3,1l2,1h3l2,1l3,1l2,-1l3,2h3l2,1l3,3h2l3,2h3l2,2h3l2,2l3,1l2,1l3,1l3,1l2,1l3,1l2,1l3,1l2,1l3,1l3,2l2,1l3,1l2,1l3,1l3,1l2,1l3,2l2,1l3,1l2,1l3,1l3,1l2,2l3,1l2,1l3,1l3,2l2,1l3,1l2,1l3,2l2,1l3,1l3,2l2,1l3,1l2,2l3,1l2,1l3,2l3,1l2,1l3,2l2,1l3,2l3,1l2,1l3,2l2,1l3,2l2,1l3,2l3,1l2,2l3,1l2,2l3,1l3,1l2,2l3,2l2,1l3,2l2,1l3,2l3,1l2,2l3,1l2,2l3,1l2,2l3,2l3,1l2,2l3,1l2,2l3,2l3,1l2,2l3,2l2,1l3,2l2,2l3,1l3,2l2,2l3,1l2,2l3,2l2,1l3,2l3,2l2,2l3,1l2,2l3,2l3,2l2,1l3,2l2,2l3,2l2,1l3,2l3,2l2,2l3,2l2,2l3,1l3,2l2,2l3,2l2,2l3,2l2,1l3,2l3,2l2,2l3,2l2,2l3,2l2,2l3,2l3,2l2,2l3,1l2,2l3,2l3,2l2,2l3,2l2,2l3,2l2,2l3,2l3,2l2,2l3,2l2,2l3,2l3,2l2,2l3,3l2,2l3,2l2,2l3,2l3,2l2,2l3,2l2,2l3,2l2,2l3,3l3,2l2,2l3,2l2,2l3,2l3,2l2,3l3,2l2,2l3,2l2,2l3,3l3,2l2,2l3,2l2,2l3,3l3,2l2,2l3,2l2,3l3,2l2,2l3,3l3,2l2,2l3,2l2,3l3,2l2,2l3,3l3,2l2,3l3,2l2,2l3,3l3,2l2,2l3,3l2,2l3,3l2,2l3,2l3,3l2,2l3,3l2,2l3,3l3,2l2,3l3,2l2,2l3,3l2,2l3,3l3,3" style="stroke: black; stroke-width: 1; fill: none;"></path><path d="M76.62,223.08a0.80,0.80,0,1,0,1.60,0a0.80,0.80,0,1,0,-1.60,0zM79.20,219.45a0.80,0.80,0,1,0,1.60,0a0.80,0.80,0,1,0,-1.60,0zM81.78,215.81a0.80,0.80,0,1,0,1.60,0a0.80,0.80,0,1,0,-1.60,0zM84.36,212.17a0.80,0.80,0,1,0,1.60,0a0.80,0.80,0,1,0,-1.60,0zM86.94,208.53a0.80,0.80,0,1,0,1.60,0a0.80,0.80,0,1,0,-1.60,0zM89.52,204.89a0.80,0.80,0,1,0,1.60,0a0.80,0.80,0,1,0,-1.60,0zM92.10,201.26a0.80,0.80,0,1,0,1.60,0a0.80,0.80,0,1,0,-1.60,0zM94.68,197.62a0.80,0.80,0,1,0,1.60,0a0.80,0.80,0,1,0,-1.60,0zM97.26,193.98a0.80,0.80,0,1,0,1.60,0a0.80,0.80,0,1,0,-1.60,0zM99.84,190.34a0.80,0.80,0,1,0,1.60,0a0.80,0.80,0,1,0,-1.60,0zM102.42,186.70a0.80,0.80,0,1,0,1.60,0a0.80,0.80,0,1,0,-1.60,0zM105.00,183.07a0.80,0.80,0,1,0,1.60,0a0.80,0.80,0,1,0,-1.60,0zM107.58,179.43a0.80,0.80,0,1,0,1.60,0a0.80,0.80,0,1,0,-1.60,0zM110.16,175.79a0.80,0.80,0,1,0,1.60,0a0.80,0.80,0,1,0,-1.60,0zM112.74,172.15a0.80,0.80,0,1,0,1.60,0a0.80,0.80,0,1,0,-1.60,0zM115.32,168.51a0.80,0.80,0,1,0,1.60,0a0.80,0.80,0,1,0,-1.60,0zM117.91,164.88a0.80,0.80,0,1,0,1.60,0a0.80,0.80,0,1,0,-1.60,0zM120.49,161.24a0.80,0.80,0,1,0,1.60,0a0.80,0.80,0,1,0,-1.60,0zM123.07,157.60a0.80,0.80,0,1,0,1.60,0a0.80,0.80,0,1,0,-1.60,0zM125.65,153.96a0.80,0.80,0,1,0,1.60,0a0.80,0.80,0,1,0,-1.60,0zM128.23,150.32a0.80,0.80,0,1,0,1.60,0a0.80,0.80,0,1,0,-1.60,0zM130.81,146.69a0.80,0.80,0,1,0,1.60,0a0.80,0.80,0,1,0,-1.60,0zM133.39,143.05a0.80,0.80,0,1,0,1.60,0a0.80,0.80,0,1,0,-1.60,0zM135.97,139.41a0.80,0.80,0,1,0,1.60,0a0.80,0.80,0,1,0,-1.60,0zM138.55,135.77a0.80,0.80,0,1,0,1.60,0a0.80,0.80,0,1,0,-1.60,0zM141.13,132.13a0.80,0.80,0,1,0,1.60,0a0.80,0.80,0,1,0,-1.60,0zM143.71,128.50a0.80,0.80,0,1,0,1.60,0a0.80,0.80,0,1,0,-1.60,0zM146.29,124.86a0.80,0.80,0,1,0,1.60,0a0.80,0.80,0,1,0,-1.60,0zM148.87,121.22a0.80,0.80,0,1,0,1.60,0a0.80,0.80,0,1,0,-1.60,0zM151.45,117.58a0.80,0.80,0,1,0,1.60,0a0.80,0.80,0,1,0,-1.60,0zM154.03,113.94a0.80,0.80,0,1,0,1.60,0a0.80,0.80,0,1,0,-1.60,0zM156.61,110.31a0.80,0.80,0,1,0,1.60,0a0.80,0.80,0,1,0,-1.60,0zM159.19,106.67a0.80,0.80,0,1,0,1.60,0a0.80,0.80,0,1,0,-1.60,0zM161.78,103.03a0.80,0.80,0,1,0,1.60,0a0.80,0.80,0,1,0,-1.60,0zM164.36,99.39a0.80,0.80,0,1,0,1.60,0a0.80,0.80,0,1,0,-1.60,0zM166.94,95.75a0.80,0.80,0,1,0,1.60,0a0.80,0.80,0,1,0,-1.60,0zM169.52,92.12a0.80,0.80,0,1,0,1.60,0a0.80,0.80,0,1,0,-1.60,0zM172.10,88.48a0.80,0.80,0,1,0,1.60,0a0.80,0.80,0,1,0,-1.60,0zM174.68,84.84a0.80,0.80,0,1,0,1.60,0a0.80,0.80,0,1,0,-1.60,0zM177.26,81.20a0.80,0.80,0,1,0,1.60,0a0.80,0.80,0,1,0,-1.60,0zM179.84,77.56a0.80,0.80,0,1,0,1.60,0a0.80,0.80,0,1,0,-1.60,0zM182.42,73.91a0.80,0.80,0,1,0,1.60,0a0.80,0.80,0,1,0,-1.60,0zM185.00,70.29a0.80,0.80,0,1,0,1.60,0a0.80,0.80,0,1,0,-1.60,0zM187.58,66.59a0.80,0.80,0,1,0,1.60,0a0.80,0.80,0,1,0,-1.60,0zM190.16,62.98a0.80,0.80,0,1,0,1.60,0a0.80,0.80,0,1,0,-1.60,0zM192.74,59.35a0.80,0.80,0,1,0,1.60,0a0.80,0.80,0,1,0,-1.60,0zM195.32,55.64a0.80,0.80,0,1,0,1.60,0a0.80,0.80,0,1,0,-1.60,0zM197.90,51.95a0.80,0.80,0,1,0,1.60,0a0.80,0.80,0,1,0,-1.60,0zM200.48,48.14a0.80,0.80,0,1,0,1.60,0a0.80,0.80,0,1,0,-1.60,0zM203.06,44.23a0.80,0.80,0,1,0,1.60,0a0.80,0.80,0,1,0,-1.60,0zM205.64,41.18a0.80,0.80,0,1,0,1.60,0a0.80,0.80,0,1,0,-1.60,0zM208.22,40.50a0.80,0.80,0,1,0,1.60,0a0.80,0.80,0,1,0,-1.60,0zM210.81,41.00a0.80,0.80,0,1,0,1.60,0a0.80,0.80,0,1,0,-1.60,0zM213.39,41.61a0.80,0.80,0,1,0,1.60,0a0.80,0.80,0,1,0,-1.60,0zM215.97,42.00a0.80,0.80,0,1,0,1.60,0a0.80,0.80,0,1,0,-1.60,0zM218.55,42.16a0.80,0.80,0,1,0,1.60,0a0.80,0.80,0,1,0,-1.60,0zM221.13,42.73a0.80,0.80,0,1,0,1.60,0a0.80,0.80,0,1,0,-1.60,0zM223.71,43.19a0.80,0.80,0,1,0,1.60,0a0.80,0.80,0,1,0,-1.60,0zM226.29,43.64a0.80,0.80,0,1,0,1.60,0a0.80,0.80,0,1,0,-1.60,0zM228.87,43.91a0.80,0.80,0,1,0,1.60,0a0.80,0.80,0,1,0,-1.60,0zM231.45,43.99a0.80,0.80,0,1,0,1.60,0a0.80,0.80,0,1,0,-1.60,0zM234.03,45.56a0.80,0.80,0,1,0,1.60,0a0.80,0.80,0,1,0,-1.60,0zM236.61,45.91a0.80,0.80,0,1,0,1.60,0a0.80,0.80,0,1,0,-1.60,0zM239.19,46.23a0.80,0.80,0,1,0,1.60,0a0.80,0.80,0,1,0,-1.60,0zM241.77,46.50a0.80,0.80,0,1,0,1.60,0a0.80,0.80,0,1,0,-1.60,0zM244.35,47.65a0.80,0.80,0,1,0,1.60,0a0.80,0.80,0,1,0,-1.60,0zM246.93,48.66a0.80,0.80,0,1,0,1.60,0a0.80,0.80,0,1,0,-1.60,0zM249.51,48.47a0.80,0.80,0,1,0,1.60,0a0.80,0.80,0,1,0,-1.60,0zM252.09,50.14a0.80,0.80,0,1,0,1.60,0a0.80,0.80,0,1,0,-1.60,0zM254.67,49.97a0.80,0.80,0,1,0,1.60,0a0.80,0.80,0,1,0,-1.60,0zM257.26,50.93a0.80,0.80,0,1,0,1.60,0a0.80,0.80,0,1,0,-1.60,0zM259.84,52.19a0.80,0.80,0,1,0,1.60,0a0.80,0.80,0,1,0,-1.60,0zM262.42,51.96a0.80,0.80,0,1,0,1.60,0a0.80,0.80,0,1,0,-1.60,0zM265.00,52.19a0.80,0.80,0,1,0,1.60,0a0.80,0.80,0,1,0,-1.60,0zM267.58,54.50a0.80,0.80,0,1,0,1.60,0a0.80,0.80,0,1,0,-1.60,0zM270.16,55.03a0.80,0.80,0,1,0,1.60,0a0.80,0.80,0,1,0,-1.60,0zM272.74,55.59a0.80,0.80,0,1,0,1.60,0a0.80,0.80,0,1,0,-1.60,0zM275.32,56.63a0.80,0.80,0,1,0,1.60,0a0.80,0.80,0,1,0,-1.60,0zM277.90,57.06a0.80,0.80,0,1,0,1.60,0a0.80,0.80,0,1,0,-1.60,0zM280.48,58.43a0.80,0.80,0,1,0,1.60,0a0.80,0.80,0,1,0,-1.60,0zM283.06,58.56a0.80,0.80,0,1,0,1.60,0a0.80,0.80,0,1,0,-1.60,0zM285.64,58.19a0.80,0.80,0,1,0,1.60,0a0.80,0.80,0,1,0,-1.60,0zM288.22,59.85a0.80,0.80,0,1,0,1.60,0a0.80,0.80,0,1,0,-1.60,0zM290.80,60.24a0.80,0.80,0,1,0,1.60,0a0.80,0.80,0,1,0,-1.60,0zM293.38,60.76a0.80,0.80,0,1,0,1.60,0a0.80,0.80,0,1,0,-1.60,0zM295.96,63.91a0.80,0.80,0,1,0,1.60,0a0.80,0.80,0,1,0,-1.60,0zM298.54,63.73a0.80,0.80,0,1,0,1.60,0a0.80,0.80,0,1,0,-1.60,0zM301.12,66.00a0.80,0.80,0,1,0,1.60,0a0.80,0.80,0,1,0,-1.60,0zM303.71,65.92a0.80,0.80,0,1,0,1.60,0a0.80,0.80,0,1,0,-1.60,0zM306.29,67.92a0.80,0.80,0,1,0,1.60,0a0.80,0.80,0,1,0,-1.60,0zM308.87,68.41a0.80,0.80,0,1,0,1.60,0a0.80,0.80,0,1,0,-1.60,0zM311.45,69.86a0.80,0.80,0,1,0,1.60,0a0.80,0.80,0,1,0,-1.60,0zM314.03,71.00a0.80,0.80,0,1,0,1.60,0a0.80,0.80,0,1,0,-1.60,0zM316.61,71.93a0.80,0.80,0,1,0,1.60,0a0.80,0.80,0,1,0,-1.60,0zM319.19,72.99a0.80,0.80,0,1,0,1.60,0a0.80,0.80,0,1,0,-1.60,0zM321.77,73.90a0.80,0.80,0,1,0,1.60,0a0.80,0.80,0,1,0,-1.60,0zM324.35,75.13a0.80,0.80,0,1,0,1.60,0a0.80,0.80,0,1,0,-1.60,0zM326.93,76.17a0.80,0.80,0,1,0,1.60,0a0.80,0.80,0,1,0,-1.60,0zM329.51,77.21a0.80,0.80,0,1,0,1.60,0a0.80,0.80,0,1,0,-1.60,0zM332.09,78.30a0.80,0.80,0,1,0,1.60,0a0.80,0.80,0,1,0,-1.60,0zM334.67,79.32a0.80,0.80,0,1,0,1.60,0a0.80,0.80,0,1,0,-1.60,0zM337.25,80.47a0.80,0.80,0,1,0,1.60,0a0.80,0.80,0,1,0,-1.60,0zM339.83,81.57a0.80,0.80,0,1,0,1.60,0a0.80,0.80,0,1,0,-1.60,0zM342.41,82.68a0.80,0.80,0,1,0,1.60,0a0.80,0.80,0,1,0,-1.60,0zM344.99,83.80a0.80,0.80,0,1,0,1.60,0a0.80,0.80,0,1,0,-1.60,0zM347.57,84.62a0.80,0.80,0,1,0,1.60,0a0.80,0.80,0,1,0,-1.60,0zM350.16,86.06a0.80,0.80,0,1,0,1.60,0a0.80,0.80,0,1,0,-1.60,0zM352.74,87.21a0.80,0.80,0,1,0,1.60,0a0.80,0.80,0,1,0,-1.60,0zM355.32,88.36a0.80,0.80,0,1,0,1.60,0a0.80,0.80,0,1,0,-1.60,0zM357.90,89.54a0.80,0.80,0,1,0,1.60,0a0.80,0.80,0,1,0,-1.60,0zM360.48,90.71a0.80,0.80,0,1,0,1.60,0a0.80,0.80,0,1,0,-1.60,0zM363.06,91.90a0.80,0.80,0,1,0,1.60,0a0.80,0.80,0,1,0,-1.60,0zM365.64,93.09a0.80,0.80,0,1,0,1.60,0a0.80,0.80,0,1,0,-1.60,0zM368.22,94.29a0.80,0.80,0,1,0,1.60,0a0.80,0.80,0,1,0,-1.60,0zM370.80,95.50a0.80,0.80,0,1,0,1.60,0a0.80,0.80,0,1,0,-1.60,0zM373.38,96.72a0.80,0.80,0,1,0,1.60,0a0.80,0.80,0,1,0,-1.60,0zM375.96,97.85a0.80,0.80,0,1,0,1.60,0a0.80,0.80,0,1,0,-1.60,0zM378.54,99.18a0.80,0.80,0,1,0,1.60,0a0.80,0.80,0,1,0,-1.60,0zM381.12,100.43a0.80,0.80,0,1,0,1.60,0a0.80,0.80,0,1,0,-1.60,0zM383.70,101.68a0.80,0.80,0,1,0,1.60,0a0.80,0.80,0,1,0,-1.60,0zM386.28,102.94a0.80,0.80,0,1,0,1.60,0a0.80,0.80,0,1,0,-1.60,0zM388.86,104.21a0.80,0.80,0,1,0,1.60,0a0.80,0.80,0,1,0,-1.60,0zM391.44,105.48a0.80,0.80,0,1,0,1.60,0a0.80,0.80,0,1,0,-1.60,0zM394.02,106.77a0.80,0.80,0,1,0,1.60,0a0.80,0.80,0,1,0,-1.60,0zM396.61,108.07a0.80,0.80,0,1,0,1.60,0a0.80,0.80,0,1,0,-1.60,0zM399.19,109.37a0.80,0.80,0,1,0,1.60,0a0.80,0.80,0,1,0,-1.60,0zM401.77,110.68a0.80,0.80,0,1,0,1.60,0a0.80,0.80,0,1,0,-1.60,0zM404.35,112.00a0.80,0.80,0,1,0,1.60,0a0.80,0.80,0,1,0,-1.60,0zM406.93,113.33a0.80,0.80,0,1,0,1.60,0a0.80,0.80,0,1,0,-1.60,0zM409.51,114.67a0.80,0.80,0,1,0,1.60,0a0.80,0.80,0,1,0,-1.60,0zM412.09,116.01a0.80,0.80,0,1,0,1.60,0a0.80,0.80,0,1,0,-1.60,0zM414.67,117.36a0.80,0.80,0,1,0,1.60,0a0.80,0.80,0,1,0,-1.60,0zM417.25,118.72a0.80,0.80,0,1,0,1.60,0a0.80,0.80,0,1,0,-1.60,0zM419.83,120.09a0.80,0.80,0,1,0,1.60,0a0.80,0.80,0,1,0,-1.60,0zM422.41,121.46a0.80,0.80,0,1,0,1.60,0a0.80,0.80,0,1,0,-1.60,0zM424.99,122.84a0.80,0.80,0,1,0,1.60,0a0.80,0.80,0,1,0,-1.60,0zM427.57,124.23a0.80,0.80,0,1,0,1.60,0a0.80,0.80,0,1,0,-1.60,0zM430.15,125.63a0.80,0.80,0,1,0,1.60,0a0.80,0.80,0,1,0,-1.60,0zM432.73,127.04a0.80,0.80,0,1,0,1.60,0a0.80,0.80,0,1,0,-1.60,0zM435.31,128.45a0.80,0.80,0,1,0,1.60,0a0.80,0.80,0,1,0,-1.60,0zM437.89,129.87a0.80,0.80,0,1,0,1.60,0a0.80,0.80,0,1,0,-1.60,0zM440.47,131.30a0.80,0.80,0,1,0,1.60,0a0.80,0.80,0,1,0,-1.60,0zM443.06,132.74a0.80,0.80,0,1,0,1.60,0a0.80,0.80,0,1,0,-1.60,0zM445.64,134.18a0.80,0.80,0,1,0,1.60,0a0.80,0.80,0,1,0,-1.60,0zM448.22,135.63a0.80,0.80,0,1,0,1.60,0a0.80,0.80,0,1,0,-1.60,0zM450.80,137.09a0.80,0.80,0,1,0,1.60,0a0.80,0.80,0,1,0,-1.60,0zM453.38,138.56a0.80,0.80,0,1,0,1.60,0a0.80,0.80,0,1,0,-1.60,0zM455.96,140.03a0.80,0.80,0,1,0,1.60,0a0.80,0.80,0,1,0,-1.60,0zM458.54,141.51a0.80,0.80,0,1,0,1.60,0a0.80,0.80,0,1,0,-1.60,0zM461.12,143.00a0.80,0.80,0,1,0,1.60,0a0.80,0.80,0,1,0,-1.60,0zM463.70,144.50a0.80,0.80,0,1,0,1.60,0a0.80,0.80,0,1,0,-1.60,0zM466.28,146.00a0.80,0.80,0,1,0,1.60,0a0.80,0.80,0,1,0,-1.60,0zM468.86,147.51a0.80,0.80,0,1,0,1.60,0a0.80,0.80,0,1,0,-1.60,0zM471.44,149.03a0.80,0.80,0,1,0,1.60,0a0.80,0.80,0,1,0,-1.60,0zM474.02,150.55a0.80,0.80,0,1,0,1.60,0a0.80,0.80,0,1,0,-1.60,0zM476.60,152.09a0.80,0.80,0,1,0,1.60,0a0.80,0.80,0,1,0,-1.60,0zM479.18,153.63a0.80,0.80,0,1,0,1.60,0a0.80,0.80,0,1,0,-1.60,0zM481.76,155.17a0.80,0.80,0,1,0,1.60,0a0.80,0.80,0,1,0,-1.60,0zM484.34,156.73a0.80,0.80,0,1,0,1.60,0a0.80,0.80,0,1,0,-1.60,0zM486.93,158.29a0.80,0.80,0,1,0,1.60,0a0.80,0.80,0,1,0,-1.60,0zM489.51,159.85a0.80,0.80,0,1,0,1.60,0a0.80,0.80,0,1,0,-1.60,0zM492.09,161.43a0.80,0.80,0,1,0,1.60,0a0.80,0.80,0,1,0,-1.60,0zM494.67,163.01a0.80,0.80,0,1,0,1.60,0a0.80,0.80,0,1,0,-1.60,0zM497.25,164.60a0.80,0.80,0,1,0,1.60,0a0.80,0.80,0,1,0,-1.60,0zM499.83,166.19a0.80,0.80,0,1,0,1.60,0a0.80,0.80,0,1,0,-1.60,0zM502.41,167.80a0.80,0.80,0,1,0,1.60,0a0.80,0.80,0,1,0,-1.60,0zM504.99,169.41a0.80,0.80,0,1,0,1.60,0a0.80,0.80,0,1,0,-1.60,0zM507.57,171.02a0.80,0.80,0,1,0,1.60,0a0.80,0.80,0,1,0,-1.60,0zM510.15,172.65a0.80,0.80,0,1,0,1.60,0a0.80,0.80,0,1,0,-1.60,0zM512.73,174.28a0.80,0.80,0,1,0,1.60,0a0.80,0.80,0,1,0,-1.60,0zM515.31,175.91a0.80,0.80,0,1,0,1.60,0a0.80,0.80,0,1,0,-1.60,0zM517.89,177.56a0.80,0.80,0,1,0,1.60,0a0.80,0.80,0,1,0,-1.60,0zM520.47,179.21a0.80,0.80,0,1,0,1.60,0a0.80,0.80,0,1,0,-1.60,0zM523.05,180.87a0.80,0.80,0,1,0,1.60,0a0.80,0.80,0,1,0,-1.60,0zM525.63,182.53a0.80,0.80,0,1,0,1.60,0a0.80,0.80,0,1,0,-1.60,0zM528.21,184.20a0.80,0.80,0,1,0,1.60,0a0.80,0.80,0,1,0,-1.60,0zM530.79,185.88a0.80,0.80,0,1,0,1.60,0a0.80,0.80,0,1,0,-1.60,0zM533.38,187.57a0.80,0.80,0,1,0,1.60,0a0.80,0.80,0,1,0,-1.60,0zM535.96,189.26a0.80,0.80,0,1,0,1.60,0a0.80,0.80,0,1,0,-1.60,0zM538.54,190.96a0.80,0.80,0,1,0,1.60,0a0.80,0.80,0,1,0,-1.60,0zM541.12,192.66a0.80,0.80,0,1,0,1.60,0a0.80,0.80,0,1,0,-1.60,0zM543.70,194.38a0.80,0.80,0,1,0,1.60,0a0.80,0.80,0,1,0,-1.60,0zM546.28,196.09a0.80,0.80,0,1,0,1.60,0a0.80,0.80,0,1,0,-1.60,0zM548.86,197.82a0.80,0.80,0,1,0,1.60,0a0.80,0.80,0,1,0,-1.60,0zM551.44,199.55a0.80,0.80,0,1,0,1.60,0a0.80,0.80,0,1,0,-1.60,0zM554.02,201.29a0.80,0.80,0,1,0,1.60,0a0.80,0.80,0,1,0,-1.60,0zM556.60,203.04a0.80,0.80,0,1,0,1.60,0a0.80,0.80,0,1,0,-1.60,0zM559.18,204.79a0.80,0.80,0,1,0,1.60,0a0.80,0.80,0,1,0,-1.60,0zM561.76,206.55a0.80,0.80,0,1,0,1.60,0a0.80,0.80,0,1,0,-1.60,0zM564.34,208.31a0.80,0.80,0,1,0,1.60,0a0.80,0.80,0,1,0,-1.60,0zM566.92,210.09a0.80,0.80,0,1,0,1.60,0a0.80,0.80,0,1,0,-1.60,0zM569.50,211.87a0.80,0.80,0,1,0,1.60,0a0.80,0.80,0,1,0,-1.60,0zM572.08,213.65a0.80,0.80,0,1,0,1.60,0a0.80,0.80,0,1,0,-1.60,0zM574.66,215.44a0.80,0.80,0,1,0,1.60,0a0.80,0.80,0,1,0,-1.60,0zM577.24,217.24a0.80,0.80,0,1,0,1.60,0a0.80,0.80,0,1,0,-1.60,0zM579.83,219.05a0.80,0.80,0,1,0,1.60,0a0.80,0.80,0,1,0,-1.60,0zM582.41,220.86a0.80,0.80,0,1,0,1.60,0a0.80,0.80,0,1,0,-1.60,0zM584.99,222.68a0.80,0.80,0,1,0,1.60,0a0.80,0.80,0,1,0,-1.60,0zM587.57,224.50a0.80,0.80,0,1,0,1.60,0a0.80,0.80,0,1,0,-1.60,0zM590.15,226.33a0.80,0.80,0,1,0,1.60,0a0.80,0.80,0,1,0,-1.60,0zM592.73,228.17a0.80,0.80,0,1,0,1.60,0a0.80,0.80,0,1,0,-1.60,0zM595.31,230.02a0.80,0.80,0,1,0,1.60,0a0.80,0.80,0,1,0,-1.60,0zM597.89,231.87a0.80,0.80,0,1,0,1.60,0a0.80,0.80,0,1,0,-1.60,0zM600.47,233.73a0.80,0.80,0,1,0,1.60,0a0.80,0.80,0,1,0,-1.60,0zM603.05,235.59a0.80,0.80,0,1,0,1.60,0a0.80,0.80,0,1,0,-1.60,0zM605.63,237.46a0.80,0.80,0,1,0,1.60,0a0.80,0.80,0,1,0,-1.60,0zM608.21,239.34a0.80,0.80,0,1,0,1.60,0a0.80,0.80,0,1,0,-1.60,0zM610.79,241.22a0.80,0.80,0,1,0,1.60,0a0.80,0.80,0,1,0,-1.60,0zM613.37,243.11a0.80,0.80,0,1,0,1.60,0a0.80,0.80,0,1,0,-1.60,0zM615.95,245.01a0.80,0.80,0,1,0,1.60,0a0.80,0.80,0,1,0,-1.60,0zM618.53,246.91a0.80,0.80,0,1,0,1.60,0a0.80,0.80,0,1,0,-1.60,0zM621.11,248.83a0.80,0.80,0,1,0,1.60,0a0.80,0.80,0,1,0,-1.60,0zM623.69,250.74a0.80,0.80,0,1,0,1.60,0a0.80,0.80,0,1,0,-1.60,0zM626.28,252.67a0.80,0.80,0,1,0,1.60,0a0.80,0.80,0,1,0,-1.60,0zM628.86,254.60a0.80,0.80,0,1,0,1.60,0a0.80,0.80,0,1,0,-1.60,0zM631.44,256.53a0.80,0.80,0,1,0,1.60,0a0.80,0.80,0,1,0,-1.60,0zM634.02,258.47a0.80,0.80,0,1,0,1.60,0a0.80,0.80,0,1,0,-1.60,0zM636.60,260.42a0.80,0.80,0,1,0,1.60,0a0.80,0.80,0,1,0,-1.60,0zM639.18,262.38a0.80,0.80,0,1,0,1.60,0a0.80,0.80,0,1,0,-1.60,0zM641.76,264.34a0.80,0.80,0,1,0,1.60,0a0.80,0.80,0,1,0,-1.60,0zM644.34,266.31a0.80,0.80,0,1,0,1.60,0a0.80,0.80,0,1,0,-1.60,0zM646.92,268.29a0.80,0.80,0,1,0,1.60,0a0.80,0.80,0,1,0,-1.60,0zM649.50,270.27a0.80,0.80,0,1,0,1.60,0a0.80,0.80,0,1,0,-1.60,0zM652.08,272.26a0.80,0.80,0,1,0,1.60,0a0.80,0.80,0,1,0,-1.60,0zM654.66,274.25a0.80,0.80,0,1,0,1.60,0a0.80,0.80,0,1,0,-1.60,0zM657.24,276.25a0.80,0.80,0,1,0,1.60,0a0.80,0.80,0,1,0,-1.60,0zM659.82,278.26a0.80,0.80,0,1,0,1.60,0a0.80,0.80,0,1,0,-1.60,0zM662.40,280.28a0.80,0.80,0,1,0,1.60,0a0.80,0.80,0,1,0,-1.60,0zM664.98,282.30a0.80,0.80,0,1,0,1.60,0a0.80,0.80,0,1,0,-1.60,0zM667.56,284.33a0.80,0.80,0,1,0,1.60,0a0.80,0.80,0,1,0,-1.60,0zM670.14,286.36a0.80,0.80,0,1,0,1.60,0a0.80,0.80,0,1,0,-1.60,0zM672.73,288.40a0.80,0.80,0,1,0,1.60,0a0.80,0.80,0,1,0,-1.60,0zM675.31,290.45a0.80,0.80,0,1,0,1.60,0a0.80,0.80,0,1,0,-1.60,0zM677.89,292.50a0.80,0.80,0,1,0,1.60,0a0.80,0.80,0,1,0,-1.60,0zM680.47,294.56a0.80,0.80,0,1,0,1.60,0a0.80,0.80,0,1,0,-1.60,0zM683.05,296.63a0.80,0.80,0,1,0,1.60,0a0.80,0.80,0,1,0,-1.60,0zM685.63,298.70a0.80,0.80,0,1,0,1.60,0a0.80,0.80,0,1,0,-1.60,0zM688.21,300.79a0.80,0.80,0,1,0,1.60,0a0.80,0.80,0,1,0,-1.60,0zM690.79,302.87a0.80,0.80,0,1,0,1.60,0a0.80,0.80,0,1,0,-1.60,0zM693.37,304.97a0.80,0.80,0,1,0,1.60,0a0.80,0.80,0,1,0,-1.60,0zM695.95,307.07a0.80,0.80,0,1,0,1.60,0a0.80,0.80,0,1,0,-1.60,0zM698.53,309.17a0.80,0.80,0,1,0,1.60,0a0.80,0.80,0,1,0,-1.60,0zM701.11,311.29a0.80,0.80,0,1,0,1.60,0a0.80,0.80,0,1,0,-1.60,0zM703.69,313.41a0.80,0.80,0,1,0,1.60,0a0.80,0.80,0,1,0,-1.60,0zM706.27,315.53a0.80,0.80,0,1,0,1.60,0a0.80,0.80,0,1,0,-1.60,0zM708.85,317.67a0.80,0.80,0,1,0,1.60,0a0.80,0.80,0,1,0,-1.60,0zM711.43,319.81a0.80,0.80,0,1,0,1.60,0a0.80,0.80,0,1,0,-1.60,0zM714.01,321.95a0.80,0.80,0,1,0,1.60,0a0.80,0.80,0,1,0,-1.60,0zM716.59,324.11a0.80,0.80,0,1,0,1.60,0a0.80,0.80,0,1,0,-1.60,0zM719.18,326.27a0.80,0.80,0,1,0,1.60,0a0.80,0.80,0,1,0,-1.60,0zM721.76,328.43a0.80,0.80,0,1,0,1.60,0a0.80,0.80,0,1,0,-1.60,0zM724.34,330.61a0.80,0.80,0,1,0,1.60,0a0.80,0.80,0,1,0,-1.60,0zM726.92,332.79a0.80,0.80,0,1,0,1.60,0a0.80,0.80,0,1,0,-1.60,0zM729.50,334.98a0.80,0.80,0,1,0,1.60,0a0.80,0.80,0,1,0,-1.60,0zM732.08,337.17a0.80,0.80,0,1,0,1.60,0a0.80,0.80,0,1,0,-1.60,0zM734.66,339.37a0.80,0.80,0,1,0,1.60,0a0.80,0.80,0,1,0,-1.60,0zM737.24,341.58a0.80,0.80,0,1,0,1.60,0a0.80,0.80,0,1,0,-1.60,0zM739.82,343.79a0.80,0.80,0,1,0,1.60,0a0.80,0.80,0,1,0,-1.60,0zM742.40,346.01a0.80,0.80,0,1,0,1.60,0a0.80,0.80,0,1,0,-1.60,0zM744.98,348.24a0.80,0.80,0,1,0,1.60,0a0.80,0.80,0,1,0,-1.60,0zM747.56,350.47a0.80,0.80,0,1,0,1.60,0a0.80,0.80,0,1,0,-1.60,0zM750.14,352.71a0.80,0.80,0,1,0,1.60,0a0.80,0.80,0,1,0,-1.60,0zM752.72,354.96a0.80,0.80,0,1,0,1.60,0a0.80,0.80,0,1,0,-1.60,0zM755.30,357.22a0.80,0.80,0,1,0,1.60,0a0.80,0.80,0,1,0,-1.60,0zM757.88,359.48a0.80,0.80,0,1,0,1.60,0a0.80,0.80,0,1,0,-1.60,0zM760.46,361.75a0.80,0.80,0,1,0,1.60,0a0.80,0.80,0,1,0,-1.60,0zM763.04,364.02a0.80,0.80,0,1,0,1.60,0a0.80,0.80,0,1,0,-1.60,0zM765.63,366.30a0.80,0.80,0,1,0,1.60,0a0.80,0.80,0,1,0,-1.60,0zM768.21,368.59a0.80,0.80,0,1,0,1.60,0a0.80,0.80,0,1,0,-1.60,0zM770.79,370.89a0.80,0.80,0,1,0,1.60,0a0.80,0.80,0,1,0,-1.60,0zM773.37,373.19a0.80,0.80,0,1,0,1.60,0a0.80,0.80,0,1,0,-1.60,0zM775.95,375.50a0.80,0.80,0,1,0,1.60,0a0.80,0.80,0,1,0,-1.60,0zM778.53,377.82a0.80,0.80,0,1,0,1.60,0a0.80,0.80,0,1,0,-1.60,0zM781.11,380.14a0.80,0.80,0,1,0,1.60,0a0.80,0.80,0,1,0,-1.60,0zM783.69,382.47a0.80,0.80,0,1,0,1.60,0a0.80,0.80,0,1,0,-1.60,0zM786.27,384.81a0.80,0.80,0,1,0,1.60,0a0.80,0.80,0,1,0,-1.60,0zM788.85,387.15a0.80,0.80,0,1,0,1.60,0a0.80,0.80,0,1,0,-1.60,0zM791.43,389.50a0.80,0.80,0,1,0,1.60,0a0.80,0.80,0,1,0,-1.60,0zM794.01,391.86a0.80,0.80,0,1,0,1.60,0a0.80,0.80,0,1,0,-1.60,0zM796.59,394.22a0.80,0.80,0,1,0,1.60,0a0.80,0.80,0,1,0,-1.60,0zM799.17,396.60a0.80,0.80,0,1,0,1.60,0a0.80,0.80,0,1,0,-1.60,0zM801.75,398.97a0.80,0.80,0,1,0,1.60,0a0.80,0.80,0,1,0,-1.60,0zM804.33,401.36a0.80,0.80,0,1,0,1.60,0a0.80,0.80,0,1,0,-1.60,0zM806.91,403.75a0.80,0.80,0,1,0,1.60,0a0.80,0.80,0,1,0,-1.60,0zM809.49,406.15a0.80,0.80,0,1,0,1.60,0a0.80,0.80,0,1,0,-1.60,0zM812.08,408.56a0.80,0.80,0,1,0,1.60,0a0.80,0.80,0,1,0,-1.60,0zM814.66,410.97a0.80,0.80,0,1,0,1.60,0a0.80,0.80,0,1,0,-1.60,0zM817.24,413.39a0.80,0.80,0,1,0,1.60,0a0.80,0.80,0,1,0,-1.60,0zM819.82,415.82a0.80,0.80,0,1,0,1.60,0a0.80,0.80,0,1,0,-1.60,0zM822.40,418.26a0.80,0.80,0,1,0,1.60,0a0.80,0.80,0,1,0,-1.60,0zM824.98,420.70a0.80,0.80,0,1,0,1.60,0a0.80,0.80,0,1,0,-1.60,0zM827.56,423.15a0.80,0.80,0,1,0,1.60,0a0.80,0.80,0,1,0,-1.60,0zM830.14,425.60a0.80,0.80,0,1,0,1.60,0a0.80,0.80,0,1,0,-1.60,0zM832.72,428.06a0.80,0.80,0,1,0,1.60,0a0.80,0.80,0,1,0,-1.60,0zM835.30,430.53a0.80,0.80,0,1,0,1.60,0a0.80,0.80,0,1,0,-1.60,0zM837.88,433.01a0.80,0.80,0,1,0,1.60,0a0.80,0.80,0,1,0,-1.60,0zM840.46,435.49a0.80,0.80,0,1,0,1.60,0a0.80,0.80,0,1,0,-1.60,0zM843.04,437.99a0.80,0.80,0,1,0,1.60,0a0.80,0.80,0,1,0,-1.60,0zM845.62,440.45a0.80,0.80,0,1,0,1.60,0a0.80,0.80,0,1,0,-1.60,0zM848.20,442.99a0.80,0.80,0,1,0,1.60,0a0.80,0.80,0,1,0,-1.60,0zM850.78,445.50a0.80,0.80,0,1,0,1.60,0a0.80,0.80,0,1,0,-1.60,0z" style="stroke: black; fill: black;"></path><path d="M72.41666666666667,218.08345819275414h10v10h-10zM74.99722222222223,214.4454678725032h10v10h-10zM77.5777777777778,210.80747755225224h10v10h-10zM80.15833333333336,207.1694872320013h10v10h-10zM82.73888888888891,203.53149691175042h10v10h-10zM85.31944444444446,199.8935065914995h10v10h-10zM87.90000000000002,196.25551627124852h10v10h-10zM90.48055555555558,192.6175259509976h10v10h-10zM93.06111111111113,188.9795356307466h10v10h-10zM95.6416666666667,185.3415453104957h10v10h-10zM98.22222222222226,181.7035549902448h10v10h-10zM100.80277777777782,178.06556466999382h10v10h-10zM103.38333333333337,174.42757434974288h10v10h-10zM105.96388888888887,170.78958402949192h10v10h-10zM108.54444444444442,167.15159370924098h10v10h-10zM111.12499999999999,163.51360338899h10v10h-10zM113.70555555555555,159.87561306873917h10v10h-10zM116.2861111111111,156.2376227484882h10v10h-10zM118.86666666666666,152.59963242823727h10v10h-10zM121.44722222222221,148.96164210798628h10v10h-10zM124.02777777777777,145.32365178773537h10v10h-10zM126.60833333333332,141.68566146748438h10v10h-10zM129.1888888888889,138.0476711472335h10v10h-10zM131.76944444444445,134.40968082698257h10v10h-10zM134.35,130.7716905067316h10v10h-10zM136.93055555555557,127.13370018648067h10v10h-10zM139.51111111111112,123.49570986622967h10v10h-10zM142.0916666666667,119.85771954597875h10v10h-10zM144.67222222222225,116.21972922572778h10v10h-10zM147.2527777777778,112.58163496289632h10v10h-10zM149.83333333333334,108.9436446426454h10v10h-10zM152.41388888888892,105.30575826497504h10v10h-10zM154.99444444444447,101.66766400214348h10v10h-10zM157.57500000000002,98.02956973931204h10v10h-10zM160.1555555555556,94.39126759131926h10v10h-10zM162.73611111111114,90.75119841945681h10v10h-10zM165.31666666666672,87.1152869508174h10v10h-10zM167.89722222222224,83.47542566411606h10v10h-10zM170.47777777777776,79.83774717160686h10v10h-10zM173.0583333333333,76.19986079393647h10v10h-10zM175.63888888888886,72.56124681820212h10v10h-10zM178.21944444444443,68.91296618247385h10v10h-10zM180.79999999999998,65.28609771834483h10v10h-10zM183.38055555555556,61.59332965812901h10v10h-10zM185.9611111111111,57.97810276302475h10v10h-10zM188.54166666666666,54.34593322728623h10v10h-10zM191.12222222222223,50.63528704321076h10v10h-10zM193.70277777777775,46.95208170040817h10v10h-10zM196.28333333333333,43.13697322285125h10v10h-10zM198.86388888888888,39.23185047051348h10v10h-10zM201.44444444444446,36.18196727117615h10v10h-10zM204.025,35.49999999999991h10v10h-10zM206.60555555555558,35.99944409968023h10v10h-10zM209.18611111111113,36.60636482767862h10v10h-10zM211.76666666666668,37.000722978393746h10v10h-10zM214.34722222222223,37.1626655189352h10v10h-10zM216.92777777777778,37.72759344437991h10v10h-10zM219.50833333333333,38.18805907634313h10v10h-10zM222.08888888888887,38.64239209605209h10v10h-10zM224.66944444444445,38.90910875781684h10v10h-10zM227.25,38.99184705195745h10v10h-10zM229.83055555555555,40.55930116708263h10v10h-10zM232.4111111111111,40.909379778471354h10v10h-10zM234.9916666666667,41.23336880213489h10v10h-10zM237.57222222222225,41.498734210352055h10v10h-10zM240.15277777777777,42.649066749615436h10v10h-10zM242.73333333333332,43.66250691025671h10v10h-10zM245.31388888888893,43.47083679166976h10v10h-10zM247.89444444444447,45.141401946729026h10v10h-10zM250.47499999999997,44.96885726296855h10v10h-10zM253.05555555555554,45.92762362622561h10v10h-10zM255.63611111111112,47.19146146348073h10v10h-10zM258.21666666666664,46.958110370081734h10v10h-10zM260.7972222222222,47.194683683478665h10v10h-10zM263.3777777777778,49.50428782393507h10v10h-10zM265.95833333333337,50.02743083198717h10v10h-10zM268.5388888888889,50.59215087227072h10v10h-10zM271.11944444444447,51.63209639095967h10v10h-10zM273.7,52.05846885649302h10v10h-10zM276.28055555555557,53.42687292981022h10v10h-10zM278.86111111111114,53.555345959405344h10v10h-10zM281.44166666666666,53.193313951250175h10v10h-10zM284.02222222222224,54.85369273341268h10v10h-10zM286.6027777777777,55.24347741058246h10v10h-10zM289.1833333333334,55.76381396895887h10v10h-10zM291.76388888888886,58.914001758554456h10v10h-10zM294.3444444444445,58.73334955350879h10v10h-10zM296.92499999999995,61.00293580044257h10v10h-10zM299.5055555555556,60.917598941787546h10v10h-10zM302.0861111111111,62.91776601986149h10v10h-10zM304.6666666666667,63.40889471309541h10v10h-10zM307.2472222222222,64.85910159732795h10v10h-10zM309.82777777777784,66.00205421337024h10v10h-10zM312.40833333333336,66.9259998121334h10v10h-10zM314.9888888888889,67.98735750242143h10v10h-10zM317.56944444444446,68.9020522115131h10v10h-10zM320.15,70.13002985846867h10v10h-10zM322.73055555555555,71.17330153973607h10v10h-10zM325.31111111111113,72.2111682068134h10v10h-10zM327.89166666666665,73.297056346118h10v10h-10zM330.47222222222223,74.31766854481926h10v10h-10zM333.05277777777775,75.46654588795448h10v10h-10zM335.6333333333334,76.56906484015167h10v10h-10zM338.2138888888889,77.68249776330961h10v10h-10zM340.7944444444445,78.80123175807708h10v10h-10zM343.375,79.62352151303435h10v10h-10zM345.9555555555555,81.06052768953352h10v10h-10zM348.53611111111115,82.21241936750552h10v10h-10zM351.1166666666667,83.36036122741558h10v10h-10zM353.69722222222225,84.54083711504673h10v10h-10zM356.2777777777777,85.7093596059113h10v10h-10zM358.8583333333334,86.89721541676353h10v10h-10zM361.43888888888887,88.08881316051658h10v10h-10zM364.0194444444445,89.28643957394314h10v10h-10zM366.59999999999997,90.4992416041343h10v10h-10zM369.18055555555554,91.71828018916005h10v10h-10zM371.7611111111111,92.85208585811148h10v10h-10zM374.34166666666664,94.18161540629231h10v10h-10zM376.9222222222222,95.42591203839869h10v10h-10zM379.50277777777774,96.677380708565h10v10h-10zM382.0833333333333,97.9400751774338h10v10h-10zM384.6638888888889,99.20879831597617h10v10h-10zM387.24444444444447,100.48438166483673h10v10h-10zM389.825,101.77441303239777h10v10h-10zM392.4055555555555,103.06880998834302h10v10h-10zM394.98611111111114,104.3720420636375h10v10h-10zM397.56666666666666,105.68306983247538h10v10h-10zM400.14722222222224,107.00241300775944h10v10h-10zM402.72777777777776,108.32975976174812h10v10h-10zM405.30833333333334,109.66511009444147h10v10h-10zM407.8888888888889,111.00846400583927h10v10h-10zM410.4694444444445,112.35982149594162h10v10h-10zM413.05,113.71918256474846h10v10h-10zM415.63055555555553,115.08613144193767h10v10h-10zM418.21111111111117,116.46129178299253h10v10h-10zM420.7916666666667,117.8440399324296h10v10h-10zM423.37222222222226,119.2345837754101h10v10h-10zM425.9527777777777,120.63292331193401h10v10h-10zM428.53333333333336,122.03874671425952h10v10h-10zM431.1138888888889,123.45257369528954h10v10h-10zM433.69444444444446,124.8737805995408h10v10h-10zM436.275,126.30267925475474h10v10h-10zM438.8555555555555,127.73906177577038h10v10h-10zM441.4361111111111,129.18292816258767h10v10h-10zM444.01666666666665,130.6343823577873h10v10h-10zM446.59722222222223,132.0932164762079h10v10h-10zM449.17777777777775,133.55953446043023h10v10h-10zM451.7583333333333,135.03333631045408h10v10h-10zM454.3388888888889,136.5144141411186h10v10h-10zM456.9194444444445,138.00287189500403h10v10h-10zM459.5,139.49860562953018h10v10h-10zM462.0805555555555,141.00171928727727h10v10h-10zM464.6611111111111,142.51200498308427h10v10h-10zM467.2416666666666,144.02956665953187h10v10h-10zM469.8222222222222,145.5544043166199h10v10h-10zM472.4027777777778,147.0864140117678h10v10h-10zM474.9833333333334,148.62549180239512h10v10h-10zM477.5638888888889,150.17184557366292h10v10h-10zM480.1444444444445,151.72526744041008h10v10h-10zM482.725,153.28586134521717h10v10h-10zM485.30555555555554,154.85341940292295h10v10h-10zM487.8861111111111,156.42804555610815h10v10h-10zM490.46666666666664,158.00984374735324h10v10h-10zM493.0472222222222,159.59850214891657h10v10h-10zM495.62777777777774,161.19433258853977h10v10h-10zM498.2083333333333,162.7970232384812h10v10h-10zM500.78888888888883,164.40667804132136h10v10h-10zM503.3694444444444,166.02329699706033h10v10h-10zM505.94999999999993,167.646880105698h10v10h-10zM508.53055555555557,169.27732342465396h10v10h-10zM511.1111111111111,170.91462695392798h10v10h-10zM513.6916666666667,172.5588946361008h10v10h-10zM516.2722222222222,174.2099185860112h10v10h-10zM518.8527777777779,175.8678027462399h10v10h-10zM521.4333333333333,177.53254711678682h10v10h-10zM524.0138888888889,179.2041516976518h10v10h-10zM526.5944444444444,180.88251254625442h10v10h-10zM529.1750000000001,182.56762966259458h10v10h-10zM531.7555555555556,184.25960698925311h10v10h-10zM534.336111111111,185.95823664106857h10v10h-10zM536.9166666666667,187.66362256062163h10v10h-10zM539.4972222222221,189.3757647479122h10v10h-10zM542.0777777777778,191.09466320294055h10v10h-10zM544.6583333333333,192.8203179257064h10v10h-10zM547.2388888888889,194.5525210310487h10v10h-10zM549.8194444444445,196.29148040412875h10v10h-10zM552.4,198.0371960449462h10v10h-10zM554.9805555555555,199.78946006834025h10v10h-10zM557.5611111111111,201.5484803594719h10v10h-10zM560.1416666666667,203.31404903317997h10v10h-10zM562.7222222222223,205.0863739746256h10v10h-10zM565.3027777777777,206.86524729864777h10v10h-10zM567.8833333333333,208.650772947827h10v10h-10zM570.463888888889,210.44284697958255h10v10h-10zM573.0444444444445,212.2415733364952h10v10h-10zM575.625,214.04695201856492h10v10h-10zM578.2055555555556,215.85887908321098h10v10h-10zM580.786111111111,217.67735453043358h10v10h-10zM583.3666666666668,219.50248230281326h10v10h-10zM585.9472222222222,221.33405451518865h10v10h-10zM588.5277777777777,223.17227905272114h10v10h-10zM591.1083333333333,225.0171559154107h10v10h-10zM593.688888888889,226.86847721809613h10v10h-10zM596.2694444444445,228.72634690335798h10v10h-10zM598.8499999999999,230.5908689137769h10v10h-10zM601.4305555555555,232.46183536419164h10v10h-10zM604.0111111111112,234.33935019718282h10v10h-10zM606.5916666666667,236.22351735533118h10v10h-10zM609.1722222222222,238.11412895347527h10v10h-10zM611.7527777777777,240.01128893419585h10v10h-10zM614.3333333333333,241.9149972974928h10v10h-10zM616.913888888889,243.8252540433663h10v10h-10zM619.4944444444444,245.74195522923569h10v10h-10zM622.075,247.66520479768147h10v10h-10zM624.6555555555555,249.5951066912843h10v10h-10zM627.2361111111111,251.53134908230248h10v10h-10zM629.8166666666667,253.4742437984777h10v10h-10zM632.3972222222222,255.42368689722923h10v10h-10zM634.9777777777778,257.3795744359767h10v10h-10zM637.5583333333334,259.34201035730064h10v10h-10zM640.1388888888889,261.3109946612011h10v10h-10zM642.7194444444444,263.28652734767786h10v10h-10zM645.3,265.26860841673124h10v10h-10zM647.8805555555556,267.25713392578035h10v10h-10zM650.4611111111111,269.2523117599865h10v10h-10zM653.0416666666666,271.2539340341886h10v10h-10zM655.6222222222223,273.26210469096713h10v10h-10zM658.2027777777778,275.2769276729026h10v10h-10zM660.7833333333333,277.29819509483406h10v10h-10zM663.3638888888889,279.326010899342h10v10h-10zM665.9444444444445,281.3604790290068h10v10h-10zM668.5250000000001,283.4013915986676h10v10h-10zM671.1055555555555,285.4489564934854h10v10h-10zM673.686111111111,287.5030697708797h10v10h-10zM676.2666666666668,289.5637314308504h10v10h-10zM678.8472222222222,291.6310454159781h10v10h-10zM681.4277777777778,293.70490778368236h10v10h-10zM684.0083333333332,295.78511064880183h10v10h-10zM686.588888888889,297.87238160940063h10v10h-10zM689.1694444444445,299.96609700999534h10v10h-10zM691.75,302.06636079316655h10v10h-10zM694.3305555555555,304.17327690149466h10v10h-10zM696.911111111111,306.28674139239934h10v10h-10zM699.4916666666667,308.40685820846096h10v10h-10zM702.0722222222223,310.5337312922603h10v10h-10zM704.6527777777777,312.66715275863606h10v10h-10zM707.2333333333332,314.8072265501688h10v10h-10zM709.8138888888889,316.95405660943914h10v10h-10zM712.3944444444445,319.107435051286h10v10h-10zM714.975,321.2675697608704h10v10h-10zM717.5555555555554,323.4344607381925h10v10h-10zM720.1361111111111,325.607900098091h10v10h-10zM722.7166666666668,327.78819966830764h10v10h-10zM725.2972222222222,329.97504762110077h10v10h-10zM727.8777777777777,332.16875578421207h10v10h-10zM730.4583333333333,334.3691162724804h10v10h-10zM733.038888888889,336.57633697106695h10v10h-10zM735.6194444444445,338.79020999481054h10v10h-10zM738.1999999999999,341.0108392862917h10v10h-10zM740.7805555555556,343.23832878809105h10v10h-10zM743.3611111111111,345.472574557628h10v10h-10zM745.9416666666667,347.7135765949025h10v10h-10zM748.5222222222222,349.96133489991473h10v10h-10zM751.1027777777776,352.21595341524517h10v10h-10zM753.6833333333333,354.4774321408937h10v10h-10zM756.2638888888889,356.7457710768605h10v10h-10zM758.8444444444444,359.0208662805648h10v10h-10zM761.425,361.30282169458735h10v10h-10zM764.0055555555555,363.5916373189281h10v10h-10zM766.5861111111111,365.887313153587h10v10h-10zM769.1666666666666,368.1898491985641h10v10h-10zM771.7472222222221,370.49934939644004h10v10h-10zM774.3277777777778,372.8157098046341h10v10h-10zM776.9083333333333,375.1389304231464h10v10h-10zM779.4888888888889,377.4691151945573h10v10h-10zM782.0694444444443,379.8061601762866h10v10h-10zM784.65,382.1501693109145h10v10h-10zM787.2305555555556,384.5011425984413h10v10h-10zM789.811111111111,386.85897609628626h10v10h-10zM792.3916666666667,389.22387768961045h10v10h-10zM794.9722222222223,391.5956394932529h10v10h-10zM797.5527777777778,393.97436544979405h10v10h-10zM800.1333333333333,396.3601595018147h10v10h-10zM802.7138888888888,398.75281376415353h10v10h-10zM805.2944444444445,401.15253612197154h10v10h-10zM807.8750000000001,403.5592226326884h10v10h-10zM810.4555555555555,405.97287329630404h10v10h-10zM813.036111111111,408.3934881128185h10v10h-10zM815.6166666666666,410.8211710248122h10v10h-10zM818.1972222222222,413.2558180897047h10v10h-10zM820.7777777777778,415.69753325007656h10v10h-10zM823.3583333333332,418.1462125633472h10v10h-10zM825.9388888888889,420.60195997209706h10v10h-10zM828.5194444444444,423.0646715337459h10v10h-10zM831.1,425.5343472482934h10v10h-10zM833.6805555555555,428.01109105832023h10v10h-10zM836.2611111111111,430.4947990212458h10v10h-10zM838.8416666666667,432.98567902223135h10v10h-10zM841.4222222222223,435.4490142393635h10v10h-10zM844.0027777777777,437.9882275403181h10v10h-10zM846.5833333333333,440.5h10v10h-10z" style="fill: none; pointer-events: visiblefill;"></path></g></svg><g><g transform="translate(0,486)"><path d="M0,0h929M0,-8V0M26,-8V0M52,-8V0M77,-15V0M103,-8V0M129,-8V0M155,-8V0M181,-8V0M206,-15V0M232,-8V0M258,-8V0M284,-8V0M310,-8V0M335,-15V0M361,-8V0M387,-8V0M413,-8V0M439,-8V0M465,-15V0M490,-8V0M516,-8V0M542,-8V0M568,-8V0M594,-15V0M619,-8V0M645,-8V0M671,-8V0M697,-8V0M723,-15V0M748,-8V0M774,-8V0M800,-8V0M826,-8V0M852,-15V0M877,-8V0M903,-8V0M929,-8V0" style="stroke: black; stroke-width: 1;"></path><g font-family="Arial" font-size="21" xml:space="preserve" fill="black" text-anchor="middle"><text dy=".8em" transform="translate(77,4)">-1.5</text><text dy=".8em" transform="translate(206,4)">-1</text><text dy=".8em" transform="translate(335,4)">-0.5</text><text dy=".8em" transform="translate(465,4)">0</text><text dy=".8em" transform="translate(594,4)">0.5</text><text dy=".8em" transform="translate(723,4)">1</text><text dy=".8em" transform="translate(852,4)">1.5</text></g><rect x="0" y="0" width="929" height="24" style="opacity: 0; cursor: crosshair;"></rect><g font-family="Arial" font-size="21" xml:space="preserve" transform="translate(929,34)" style="cursor: move;"><text fill="black" text-anchor="end" dominant-baseline="middle">Delta</text></g></g><g><path d="M0,0v486M14,478H0M14,467H0M28,457H0M14,447H0M14,436H0M14,426H0M14,415H0M28,405H0M14,395H0M14,384H0M14,374H0M14,363H0M28,353H0M14,343H0M14,332H0M14,322H0M14,311H0M28,301H0M14,291H0M14,280H0M14,270H0M14,259H0M28,249H0M14,239H0M14,228H0M14,218H0M14,207H0M28,197H0M14,187H0M14,176H0M14,166H0M14,156H0M28,145H0M14,135H0M14,124H0M14,114H0M14,104H0M28,93H0M14,83H0M14,72H0M14,62H0M14,52H0M28,41H0M14,31H0M14,20H0M14,10H0" style="stroke: black; stroke-width: 1;"></path><g font-family="Arial" font-size="21" xml:space="preserve" fill="black" text-anchor="end"><text dominant-baseline="middle" transform="translate(-4,457)">-7.5</text><text dominant-baseline="middle" transform="translate(-4,405)">-7</text><text dominant-baseline="middle" transform="translate(-4,353)">-6.5</text><text dominant-baseline="middle" transform="translate(-4,301)">-6</text><text dominant-baseline="middle" transform="translate(-4,249)">-5.5</text><text dominant-baseline="middle" transform="translate(-4,197)">-5</text><text dominant-baseline="middle" transform="translate(-4,145)">-4.5</text><text dominant-baseline="middle" transform="translate(-4,93)">-4</text><text dominant-baseline="middle" transform="translate(-4,41)">-3.5</text></g><rect x="-39" y="0" width="39" height="486" style="opacity: 0; cursor: crosshair;"></rect><g font-family="Arial" font-size="21" xml:space="preserve" transform="translate(-64)" style="cursor: move;"><text fill="black" text-anchor="end" dominant-baseline="middle" transform="rotate(270)">Total Ground Energy</text></g></g><path d="M77,0v486M206,0v486M335,0v486M465,0v486M594,0v486M723,0v486M852,0v486" style="stroke: black; stroke-width: 1; stroke-dasharray: 1, 2;"></path><path d="M0,457h929M0,405h929M0,353h929M0,301h929M0,249h929M0,197h929M0,145h929M0,93h929M0,41h929" style="stroke: black; stroke-width: 1; stroke-dasharray: 1, 2;"></path></g><path d="M2,2h15v-5h-20v20h5Z" style="opacity: 0; cursor: nw-resize;"></path><path d="M927,2h-15v-5h20v20h-5 Z" style="opacity: 0; cursor: ne-resize;"></path><path d="M2,484h15v5h-20v-20h5Z" style="opacity: 0; cursor: sw-resize;"></path><path d="M927,484h-15v5h20v-20h-5Z" style="opacity: 0; cursor: se-resize;"></path><path d="M-3,18h5v450h-5Z" style="opacity: 0; cursor: w-resize;"></path><path d="M932,18h-5v450h5Z" style="opacity: 0; cursor: e-resize;"></path><path d="M18,-3v5h893v-5Z" style="opacity: 0; cursor: n-resize;"></path><path d="M18,489v-5h893v5Z" style="opacity: 0; cursor: s-resize;"></path></g><g transform="translate(116,3)" font-family="Arial" font-size="30" xml:space="preserve" style="cursor: move;"><path d="M0,0H929V40H0Z" style="fill: none; pointer-events: visiblefill;"></path><text fill="black" text-anchor="middle" dy=".8em" transform="translate(465)">Lanczos alogrithm, num = 14, error = 1e-13</text><path d="M2,2h15v-5h-20v20h5Z" style="opacity: 0; cursor: nw-resize;"></path><path d="M927,2h-15v-5h20v20h-5 Z" style="opacity: 0; cursor: ne-resize;"></path><path d="M2,38h15v5h-20v-20h5Z" style="opacity: 0; cursor: sw-resize;"></path><path d="M927,38h-15v5h20v-20h-5Z" style="opacity: 0; cursor: se-resize;"></path><path d="M-3,18h5v4h-5Z" style="opacity: 0; cursor: w-resize;"></path><path d="M932,18h-5v4h5Z" style="opacity: 0; cursor: e-resize;"></path><path d="M18,-3v5h893v-5Z" style="opacity: 0; cursor: n-resize;"></path><path d="M18,43v-5h893v5Z" style="opacity: 0; cursor: s-resize;"></path></g></g></svg>