<svg width="453" height="607" xmlns="http://www.w3.org/2000/svg"><defs><pattern id="pat_3001_1" patternUnits="userSpaceOnUse" width="2" height="2"><path d="M0,0h1v1h-1zM1,1h1v1h-1z" style="fill: black;"></path></pattern><pattern id="pat_3002_1" patternUnits="userSpaceOnUse" width="4" height="2"><path d="M1,0h1v1h-1zM3,1h1v1h-1z" style="fill: black;"></path></pattern><pattern id="pat_3003_1" patternUnits="userSpaceOnUse" width="4" height="4"><path d="M2,1h1v1h-1zM0,3h1v1h-1z" style="fill: black;"></path></pattern><pattern id="pat_3004_1" patternUnits="userSpaceOnUse" width="8" height="8"><path d="M8,0L0,8" style="stroke: black; stroke-width: 1;"></path></pattern><pattern id="pat_3005_1" patternUnits="userSpaceOnUse" width="8" height="8"><path d="M0,0L8,8" style="stroke: black; stroke-width: 1;"></path></pattern><pattern id="pat_3006_1" patternUnits="userSpaceOnUse" width="4" height="4"><path d="M1,0v4" style="stroke: black; stroke-width: 1;"></path></pattern><pattern id="pat_3007_1" patternUnits="userSpaceOnUse" width="4" height="4"><path d="M0,1h4" style="stroke: black; stroke-width: 1;"></path></pattern><pattern id="pat_3010_1" patternUnits="userSpaceOnUse" width="10" height="10"><path d="M0,2h10M0,7h10M2,0v2M7,2v5M2,7v3" style="stroke: black; stroke-width: 1;"></path></pattern><pattern id="pat_3021_1" patternUnits="userSpaceOnUse" width="8" height="8"><path d="M8,2h-2v4h-4v2M2,0v2h-2" style="stroke: black; stroke-width: 1; fill: none;"></path></pattern><pattern id="pat_3022_1" patternUnits="userSpaceOnUse" width="8" height="8"><path d="M0,2h2v4h4v2M6,0v2h2" style="stroke: black; stroke-width: 1; fill: none;"></path></pattern></defs><title>14_13.root/c1;1</title><path d="M0,0H453V607H0Z" style="pointer-events: visiblefill; fill: white;"></path><g><g transform="translate(45,61)"><title></title><path d="M0,0H362V486H0Z" style="fill: white; stroke: black; stroke-width: 1; pointer-events: visiblefill; cursor: default;"></path><svg x="0" y="0" overflow="hidden" width="362" height="486" viewBox="0 0 362 486" style="pointer-events: visiblefill; cursor: default;"><g style="cursor: move;"><path d="M30,223l1,-4l1,-3l1,-4l1,-3l1,-4l1,-4l1,-3l1,-4l1,-4l1,-3l1,-4l1,-4l1,-3l1,-4l1,-3l1,-4l1,-4l1,-3l1,-4l1,-4l1,-3l1,-4l1,-4l1,-3l1,-4l1,-4l1,-3l1,-4l1,-3l1,-4l1,-4l1,-3l1,-4l1,-4l1,-3l1,-4l1,-4l1,-3l1,-4l1,-3l1,-4l1,-4l1,-3l1,-4l1,-4l1,-3l1,-4l1,-4l1,-4l1,-3l1,-1l1,1l1,1h2l1,1h1l1,1h3l1,2h3l1,2l1,1l1,-1l1,2h1l1,1l1,1h2l1,3h1l1,1l1,1h1l1,1l1,1l1,-1l1,2h1l1,1l1,3h1l1,2h1l1,2h1l1,2l1,1l1,1l1,1l1,1l1,1l1,1l1,1l1,1l1,1l1,1l1,2l1,1l1,1l1,1l1,1l1,1l1,1l1,2l1,1l1,1l1,1l1,1l1,1l1,2l1,1l1,1l1,1l1,2l1,1l1,1l1,1l1,2l1,1l1,1l1,2l1,1l1,1l1,2l1,1l1,1l1,2l1,1l1,1l1,2l1,1l1,2l1,1l1,1l1,2l1,1l1,2l1,1l1,2l1,1l1,2l1,1l1,2l1,1l1,1l1,2l1,2l1,1l1,2l1,1l1,2l1,1l1,2l1,1l1,2l1,1l1,2l1,2l1,1l1,2l1,1l1,2l1,2l1,1l1,2l1,2l1,1l1,2l1,2l1,1l1,2l1,2l1,1l1,2l1,2l1,1l1,2l1,2l1,2l1,1l1,2l1,2l1,2l1,1l1,2l1,2l1,2l1,1l1,2l1,2l1,2l1,2l1,2l1,1l1,2l1,2l1,2l1,2l1,2l1,1l1,2l1,2l1,2l1,2l1,2l1,2l1,2l1,2l1,2l1,2l1,1l1,2l1,2l1,2l1,2l1,2l1,2l1,2l1,2l1,2l1,2l1,2l1,2l1,2l1,2l1,2l1,2l1,3l1,2l1,2l1,2l1,2l1,2l1,2l2,2l1,2l1,2l1,2l1,3l1,2l1,2l1,2l1,2l1,2l1,2l1,3l1,2l1,2l1,2l1,2l1,3l1,2l1,2l1,2l1,2l1,3l1,2l1,2l1,2l1,3l1,2l1,2l1,3l1,2l1,2l1,2l1,3l1,2l1,2l1,3l1,2l1,3l1,2l1,2l1,3l1,2l1,2l1,3l1,2l1,3l1,2l1,2l1,3l1,2l1,3l1,2l1,3l1,2l1,3l1,2l1,2l1,3l1,2l1,3l1,3" style="stroke: black; stroke-width: 1; fill: none;"></path><path d="M29.37,223.08a0.80,0.80,0,1,0,1.60,0a0.80,0.80,0,1,0,-1.60,0zM30.37,219.45a0.80,0.80,0,1,0,1.60,0a0.80,0.80,0,1,0,-1.60,0zM31.38,215.81a0.80,0.80,0,1,0,1.60,0a0.80,0.80,0,1,0,-1.60,0zM32.38,212.17a0.80,0.80,0,1,0,1.60,0a0.80,0.80,0,1,0,-1.60,0zM33.39,208.53a0.80,0.80,0,1,0,1.60,0a0.80,0.80,0,1,0,-1.60,0zM34.39,204.89a0.80,0.80,0,1,0,1.60,0a0.80,0.80,0,1,0,-1.60,0zM35.40,201.26a0.80,0.80,0,1,0,1.60,0a0.80,0.80,0,1,0,-1.60,0zM36.41,197.62a0.80,0.80,0,1,0,1.60,0a0.80,0.80,0,1,0,-1.60,0zM37.41,193.98a0.80,0.80,0,1,0,1.60,0a0.80,0.80,0,1,0,-1.60,0zM38.42,190.34a0.80,0.80,0,1,0,1.60,0a0.80,0.80,0,1,0,-1.60,0zM39.42,186.70a0.80,0.80,0,1,0,1.60,0a0.80,0.80,0,1,0,-1.60,0zM40.43,183.07a0.80,0.80,0,1,0,1.60,0a0.80,0.80,0,1,0,-1.60,0zM41.43,179.43a0.80,0.80,0,1,0,1.60,0a0.80,0.80,0,1,0,-1.60,0zM42.44,175.79a0.80,0.80,0,1,0,1.60,0a0.80,0.80,0,1,0,-1.60,0zM43.44,172.15a0.80,0.80,0,1,0,1.60,0a0.80,0.80,0,1,0,-1.60,0zM44.45,168.51a0.80,0.80,0,1,0,1.60,0a0.80,0.80,0,1,0,-1.60,0zM45.46,164.88a0.80,0.80,0,1,0,1.60,0a0.80,0.80,0,1,0,-1.60,0zM46.46,161.24a0.80,0.80,0,1,0,1.60,0a0.80,0.80,0,1,0,-1.60,0zM47.47,157.60a0.80,0.80,0,1,0,1.60,0a0.80,0.80,0,1,0,-1.60,0zM48.47,153.96a0.80,0.80,0,1,0,1.60,0a0.80,0.80,0,1,0,-1.60,0zM49.48,150.32a0.80,0.80,0,1,0,1.60,0a0.80,0.80,0,1,0,-1.60,0zM50.48,146.69a0.80,0.80,0,1,0,1.60,0a0.80,0.80,0,1,0,-1.60,0zM51.49,143.05a0.80,0.80,0,1,0,1.60,0a0.80,0.80,0,1,0,-1.60,0zM52.49,139.41a0.80,0.80,0,1,0,1.60,0a0.80,0.80,0,1,0,-1.60,0zM53.50,135.77a0.80,0.80,0,1,0,1.60,0a0.80,0.80,0,1,0,-1.60,0zM54.51,132.13a0.80,0.80,0,1,0,1.60,0a0.80,0.80,0,1,0,-1.60,0zM55.51,128.50a0.80,0.80,0,1,0,1.60,0a0.80,0.80,0,1,0,-1.60,0zM56.52,124.86a0.80,0.80,0,1,0,1.60,0a0.80,0.80,0,1,0,-1.60,0zM57.52,121.22a0.80,0.80,0,1,0,1.60,0a0.80,0.80,0,1,0,-1.60,0zM58.53,117.58a0.80,0.80,0,1,0,1.60,0a0.80,0.80,0,1,0,-1.60,0zM59.53,113.94a0.80,0.80,0,1,0,1.60,0a0.80,0.80,0,1,0,-1.60,0zM60.54,110.31a0.80,0.80,0,1,0,1.60,0a0.80,0.80,0,1,0,-1.60,0zM61.54,106.67a0.80,0.80,0,1,0,1.60,0a0.80,0.80,0,1,0,-1.60,0zM62.55,103.03a0.80,0.80,0,1,0,1.60,0a0.80,0.80,0,1,0,-1.60,0zM63.56,99.39a0.80,0.80,0,1,0,1.60,0a0.80,0.80,0,1,0,-1.60,0zM64.56,95.75a0.80,0.80,0,1,0,1.60,0a0.80,0.80,0,1,0,-1.60,0zM65.57,92.12a0.80,0.80,0,1,0,1.60,0a0.80,0.80,0,1,0,-1.60,0zM66.57,88.48a0.80,0.80,0,1,0,1.60,0a0.80,0.80,0,1,0,-1.60,0zM67.58,84.84a0.80,0.80,0,1,0,1.60,0a0.80,0.80,0,1,0,-1.60,0zM68.58,81.20a0.80,0.80,0,1,0,1.60,0a0.80,0.80,0,1,0,-1.60,0zM69.59,77.56a0.80,0.80,0,1,0,1.60,0a0.80,0.80,0,1,0,-1.60,0zM70.59,73.91a0.80,0.80,0,1,0,1.60,0a0.80,0.80,0,1,0,-1.60,0zM71.60,70.29a0.80,0.80,0,1,0,1.60,0a0.80,0.80,0,1,0,-1.60,0zM72.61,66.59a0.80,0.80,0,1,0,1.60,0a0.80,0.80,0,1,0,-1.60,0zM73.61,62.98a0.80,0.80,0,1,0,1.60,0a0.80,0.80,0,1,0,-1.60,0zM74.62,59.35a0.80,0.80,0,1,0,1.60,0a0.80,0.80,0,1,0,-1.60,0zM75.62,55.64a0.80,0.80,0,1,0,1.60,0a0.80,0.80,0,1,0,-1.60,0zM76.63,51.95a0.80,0.80,0,1,0,1.60,0a0.80,0.80,0,1,0,-1.60,0zM77.63,48.14a0.80,0.80,0,1,0,1.60,0a0.80,0.80,0,1,0,-1.60,0zM78.64,44.23a0.80,0.80,0,1,0,1.60,0a0.80,0.80,0,1,0,-1.60,0zM79.64,41.18a0.80,0.80,0,1,0,1.60,0a0.80,0.80,0,1,0,-1.60,0zM80.65,40.50a0.80,0.80,0,1,0,1.60,0a0.80,0.80,0,1,0,-1.60,0zM81.66,41.00a0.80,0.80,0,1,0,1.60,0a0.80,0.80,0,1,0,-1.60,0zM82.66,41.61a0.80,0.80,0,1,0,1.60,0a0.80,0.80,0,1,0,-1.60,0zM83.67,42.00a0.80,0.80,0,1,0,1.60,0a0.80,0.80,0,1,0,-1.60,0zM84.67,42.16a0.80,0.80,0,1,0,1.60,0a0.80,0.80,0,1,0,-1.60,0zM85.68,42.73a0.80,0.80,0,1,0,1.60,0a0.80,0.80,0,1,0,-1.60,0zM86.68,43.19a0.80,0.80,0,1,0,1.60,0a0.80,0.80,0,1,0,-1.60,0zM87.69,43.64a0.80,0.80,0,1,0,1.60,0a0.80,0.80,0,1,0,-1.60,0zM88.69,43.91a0.80,0.80,0,1,0,1.60,0a0.80,0.80,0,1,0,-1.60,0zM89.70,43.99a0.80,0.80,0,1,0,1.60,0a0.80,0.80,0,1,0,-1.60,0zM90.71,45.56a0.80,0.80,0,1,0,1.60,0a0.80,0.80,0,1,0,-1.60,0zM91.71,45.91a0.80,0.80,0,1,0,1.60,0a0.80,0.80,0,1,0,-1.60,0zM92.72,46.23a0.80,0.80,0,1,0,1.60,0a0.80,0.80,0,1,0,-1.60,0zM93.72,46.50a0.80,0.80,0,1,0,1.60,0a0.80,0.80,0,1,0,-1.60,0zM94.73,47.65a0.80,0.80,0,1,0,1.60,0a0.80,0.80,0,1,0,-1.60,0zM95.73,48.66a0.80,0.80,0,1,0,1.60,0a0.80,0.80,0,1,0,-1.60,0zM96.74,48.47a0.80,0.80,0,1,0,1.60,0a0.80,0.80,0,1,0,-1.60,0zM97.74,50.14a0.80,0.80,0,1,0,1.60,0a0.80,0.80,0,1,0,-1.60,0zM98.75,49.97a0.80,0.80,0,1,0,1.60,0a0.80,0.80,0,1,0,-1.60,0zM99.76,50.93a0.80,0.80,0,1,0,1.60,0a0.80,0.80,0,1,0,-1.60,0zM100.76,52.19a0.80,0.80,0,1,0,1.60,0a0.80,0.80,0,1,0,-1.60,0zM101.77,51.96a0.80,0.80,0,1,0,1.60,0a0.80,0.80,0,1,0,-1.60,0zM102.77,52.19a0.80,0.80,0,1,0,1.60,0a0.80,0.80,0,1,0,-1.60,0zM103.78,54.50a0.80,0.80,0,1,0,1.60,0a0.80,0.80,0,1,0,-1.60,0zM104.78,55.03a0.80,0.80,0,1,0,1.60,0a0.80,0.80,0,1,0,-1.60,0zM105.79,55.59a0.80,0.80,0,1,0,1.60,0a0.80,0.80,0,1,0,-1.60,0zM106.79,56.63a0.80,0.80,0,1,0,1.60,0a0.80,0.80,0,1,0,-1.60,0zM107.80,57.06a0.80,0.80,0,1,0,1.60,0a0.80,0.80,0,1,0,-1.60,0zM108.81,58.43a0.80,0.80,0,1,0,1.60,0a0.80,0.80,0,1,0,-1.60,0zM109.81,58.56a0.80,0.80,0,1,0,1.60,0a0.80,0.80,0,1,0,-1.60,0zM110.82,58.19a0.80,0.80,0,1,0,1.60,0a0.80,0.80,0,1,0,-1.60,0zM111.82,59.85a0.80,0.80,0,1,0,1.60,0a0.80,0.80,0,1,0,-1.60,0zM112.83,60.24a0.80,0.80,0,1,0,1.60,0a0.80,0.80,0,1,0,-1.60,0zM113.83,60.76a0.80,0.80,0,1,0,1.60,0a0.80,0.80,0,1,0,-1.60,0zM114.84,63.91a0.80,0.80,0,1,0,1.60,0a0.80,0.80,0,1,0,-1.60,0zM115.84,63.73a0.80,0.80,0,1,0,1.60,0a0.80,0.80,0,1,0,-1.60,0zM116.85,66.00a0.80,0.80,0,1,0,1.60,0a0.80,0.80,0,1,0,-1.60,0zM117.86,65.92a0.80,0.80,0,1,0,1.60,0a0.80,0.80,0,1,0,-1.60,0zM118.86,67.92a0.80,0.80,0,1,0,1.60,0a0.80,0.80,0,1,0,-1.60,0zM119.87,68.41a0.80,0.80,0,1,0,1.60,0a0.80,0.80,0,1,0,-1.60,0zM120.87,69.86a0.80,0.80,0,1,0,1.60,0a0.80,0.80,0,1,0,-1.60,0zM121.88,71.00a0.80,0.80,0,1,0,1.60,0a0.80,0.80,0,1,0,-1.60,0zM122.88,71.93a0.80,0.80,0,1,0,1.60,0a0.80,0.80,0,1,0,-1.60,0zM123.89,72.99a0.80,0.80,0,1,0,1.60,0a0.80,0.80,0,1,0,-1.60,0zM124.89,73.90a0.80,0.80,0,1,0,1.60,0a0.80,0.80,0,1,0,-1.60,0zM125.90,75.13a0.80,0.80,0,1,0,1.60,0a0.80,0.80,0,1,0,-1.60,0zM126.91,76.17a0.80,0.80,0,1,0,1.60,0a0.80,0.80,0,1,0,-1.60,0zM127.91,77.21a0.80,0.80,0,1,0,1.60,0a0.80,0.80,0,1,0,-1.60,0zM128.92,78.30a0.80,0.80,0,1,0,1.60,0a0.80,0.80,0,1,0,-1.60,0zM129.92,79.32a0.80,0.80,0,1,0,1.60,0a0.80,0.80,0,1,0,-1.60,0zM130.93,80.47a0.80,0.80,0,1,0,1.60,0a0.80,0.80,0,1,0,-1.60,0zM131.93,81.57a0.80,0.80,0,1,0,1.60,0a0.80,0.80,0,1,0,-1.60,0zM132.94,82.68a0.80,0.80,0,1,0,1.60,0a0.80,0.80,0,1,0,-1.60,0zM133.94,83.80a0.80,0.80,0,1,0,1.60,0a0.80,0.80,0,1,0,-1.60,0zM134.95,84.62a0.80,0.80,0,1,0,1.60,0a0.80,0.80,0,1,0,-1.60,0zM135.96,86.06a0.80,0.80,0,1,0,1.60,0a0.80,0.80,0,1,0,-1.60,0zM136.96,87.21a0.80,0.80,0,1,0,1.60,0a0.80,0.80,0,1,0,-1.60,0zM137.97,88.36a0.80,0.80,0,1,0,1.60,0a0.80,0.80,0,1,0,-1.60,0zM138.97,89.54a0.80,0.80,0,1,0,1.60,0a0.80,0.80,0,1,0,-1.60,0zM139.98,90.71a0.80,0.80,0,1,0,1.60,0a0.80,0.80,0,1,0,-1.60,0zM140.98,91.90a0.80,0.80,0,1,0,1.60,0a0.80,0.80,0,1,0,-1.60,0zM141.99,93.09a0.80,0.80,0,1,0,1.60,0a0.80,0.80,0,1,0,-1.60,0zM142.99,94.29a0.80,0.80,0,1,0,1.60,0a0.80,0.80,0,1,0,-1.60,0zM144.00,95.50a0.80,0.80,0,1,0,1.60,0a0.80,0.80,0,1,0,-1.60,0zM145.01,96.72a0.80,0.80,0,1,0,1.60,0a0.80,0.80,0,1,0,-1.60,0zM146.01,97.85a0.80,0.80,0,1,0,1.60,0a0.80,0.80,0,1,0,-1.60,0zM147.02,99.18a0.80,0.80,0,1,0,1.60,0a0.80,0.80,0,1,0,-1.60,0zM148.02,100.43a0.80,0.80,0,1,0,1.60,0a0.80,0.80,0,1,0,-1.60,0zM149.03,101.68a0.80,0.80,0,1,0,1.60,0a0.80,0.80,0,1,0,-1.60,0zM150.03,102.94a0.80,0.80,0,1,0,1.60,0a0.80,0.80,0,1,0,-1.60,0zM151.04,104.21a0.80,0.80,0,1,0,1.60,0a0.80,0.80,0,1,0,-1.60,0zM152.04,105.48a0.80,0.80,0,1,0,1.60,0a0.80,0.80,0,1,0,-1.60,0zM153.05,106.77a0.80,0.80,0,1,0,1.60,0a0.80,0.80,0,1,0,-1.60,0zM154.06,108.07a0.80,0.80,0,1,0,1.60,0a0.80,0.80,0,1,0,-1.60,0zM155.06,109.37a0.80,0.80,0,1,0,1.60,0a0.80,0.80,0,1,0,-1.60,0zM156.07,110.68a0.80,0.80,0,1,0,1.60,0a0.80,0.80,0,1,0,-1.60,0zM157.07,112.00a0.80,0.80,0,1,0,1.60,0a0.80,0.80,0,1,0,-1.60,0zM158.08,113.33a0.80,0.80,0,1,0,1.60,0a0.80,0.80,0,1,0,-1.60,0zM159.08,114.67a0.80,0.80,0,1,0,1.60,0a0.80,0.80,0,1,0,-1.60,0zM160.09,116.01a0.80,0.80,0,1,0,1.60,0a0.80,0.80,0,1,0,-1.60,0zM161.09,117.36a0.80,0.80,0,1,0,1.60,0a0.80,0.80,0,1,0,-1.60,0zM162.10,118.72a0.80,0.80,0,1,0,1.60,0a0.80,0.80,0,1,0,-1.60,0zM163.11,120.09a0.80,0.80,0,1,0,1.60,0a0.80,0.80,0,1,0,-1.60,0zM164.11,121.46a0.80,0.80,0,1,0,1.60,0a0.80,0.80,0,1,0,-1.60,0zM165.12,122.84a0.80,0.80,0,1,0,1.60,0a0.80,0.80,0,1,0,-1.60,0zM166.12,124.23a0.80,0.80,0,1,0,1.60,0a0.80,0.80,0,1,0,-1.60,0zM167.13,125.63a0.80,0.80,0,1,0,1.60,0a0.80,0.80,0,1,0,-1.60,0zM168.13,127.04a0.80,0.80,0,1,0,1.60,0a0.80,0.80,0,1,0,-1.60,0zM169.14,128.45a0.80,0.80,0,1,0,1.60,0a0.80,0.80,0,1,0,-1.60,0zM170.14,129.87a0.80,0.80,0,1,0,1.60,0a0.80,0.80,0,1,0,-1.60,0zM171.15,131.30a0.80,0.80,0,1,0,1.60,0a0.80,0.80,0,1,0,-1.60,0zM172.16,132.74a0.80,0.80,0,1,0,1.60,0a0.80,0.80,0,1,0,-1.60,0zM173.16,134.18a0.80,0.80,0,1,0,1.60,0a0.80,0.80,0,1,0,-1.60,0zM174.17,135.63a0.80,0.80,0,1,0,1.60,0a0.80,0.80,0,1,0,-1.60,0zM175.17,137.09a0.80,0.80,0,1,0,1.60,0a0.80,0.80,0,1,0,-1.60,0zM176.18,138.56a0.80,0.80,0,1,0,1.60,0a0.80,0.80,0,1,0,-1.60,0zM177.18,140.03a0.80,0.80,0,1,0,1.60,0a0.80,0.80,0,1,0,-1.60,0zM178.19,141.51a0.80,0.80,0,1,0,1.60,0a0.80,0.80,0,1,0,-1.60,0zM179.19,143.00a0.80,0.80,0,1,0,1.60,0a0.80,0.80,0,1,0,-1.60,0zM180.20,144.50a0.80,0.80,0,1,0,1.60,0a0.80,0.80,0,1,0,-1.60,0zM181.21,146.00a0.80,0.80,0,1,0,1.60,0a0.80,0.80,0,1,0,-1.60,0zM182.21,147.51a0.80,0.80,0,1,0,1.60,0a0.80,0.80,0,1,0,-1.60,0zM183.22,149.03a0.80,0.80,0,1,0,1.60,0a0.80,0.80,0,1,0,-1.60,0zM184.22,150.55a0.80,0.80,0,1,0,1.60,0a0.80,0.80,0,1,0,-1.60,0zM185.23,152.09a0.80,0.80,0,1,0,1.60,0a0.80,0.80,0,1,0,-1.60,0zM186.23,153.63a0.80,0.80,0,1,0,1.60,0a0.80,0.80,0,1,0,-1.60,0zM187.24,155.17a0.80,0.80,0,1,0,1.60,0a0.80,0.80,0,1,0,-1.60,0zM188.24,156.73a0.80,0.80,0,1,0,1.60,0a0.80,0.80,0,1,0,-1.60,0zM189.25,158.29a0.80,0.80,0,1,0,1.60,0a0.80,0.80,0,1,0,-1.60,0zM190.26,159.85a0.80,0.80,0,1,0,1.60,0a0.80,0.80,0,1,0,-1.60,0zM191.26,161.43a0.80,0.80,0,1,0,1.60,0a0.80,0.80,0,1,0,-1.60,0zM192.27,163.01a0.80,0.80,0,1,0,1.60,0a0.80,0.80,0,1,0,-1.60,0zM193.27,164.60a0.80,0.80,0,1,0,1.60,0a0.80,0.80,0,1,0,-1.60,0zM194.28,166.19a0.80,0.80,0,1,0,1.60,0a0.80,0.80,0,1,0,-1.60,0zM195.28,167.80a0.80,0.80,0,1,0,1.60,0a0.80,0.80,0,1,0,-1.60,0zM196.29,169.41a0.80,0.80,0,1,0,1.60,0a0.80,0.80,0,1,0,-1.60,0zM197.29,171.02a0.80,0.80,0,1,0,1.60,0a0.80,0.80,0,1,0,-1.60,0zM198.30,172.65a0.80,0.80,0,1,0,1.60,0a0.80,0.80,0,1,0,-1.60,0zM199.31,174.28a0.80,0.80,0,1,0,1.60,0a0.80,0.80,0,1,0,-1.60,0zM200.31,175.91a0.80,0.80,0,1,0,1.60,0a0.80,0.80,0,1,0,-1.60,0zM201.32,177.56a0.80,0.80,0,1,0,1.60,0a0.80,0.80,0,1,0,-1.60,0zM202.32,179.21a0.80,0.80,0,1,0,1.60,0a0.80,0.80,0,1,0,-1.60,0zM203.33,180.87a0.80,0.80,0,1,0,1.60,0a0.80,0.80,0,1,0,-1.60,0zM204.33,182.53a0.80,0.80,0,1,0,1.60,0a0.80,0.80,0,1,0,-1.60,0zM205.34,184.20a0.80,0.80,0,1,0,1.60,0a0.80,0.80,0,1,0,-1.60,0zM206.34,185.88a0.80,0.80,0,1,0,1.60,0a0.80,0.80,0,1,0,-1.60,0zM207.35,187.57a0.80,0.80,0,1,0,1.60,0a0.80,0.80,0,1,0,-1.60,0zM208.36,189.26a0.80,0.80,0,1,0,1.60,0a0.80,0.80,0,1,0,-1.60,0zM209.36,190.96a0.80,0.80,0,1,0,1.60,0a0.80,0.80,0,1,0,-1.60,0zM210.37,192.66a0.80,0.80,0,1,0,1.60,0a0.80,0.80,0,1,0,-1.60,0zM211.37,194.38a0.80,0.80,0,1,0,1.60,0a0.80,0.80,0,1,0,-1.60,0zM212.38,196.09a0.80,0.80,0,1,0,1.60,0a0.80,0.80,0,1,0,-1.60,0zM213.38,197.82a0.80,0.80,0,1,0,1.60,0a0.80,0.80,0,1,0,-1.60,0zM214.39,199.55a0.80,0.80,0,1,0,1.60,0a0.80,0.80,0,1,0,-1.60,0zM215.39,201.29a0.80,0.80,0,1,0,1.60,0a0.80,0.80,0,1,0,-1.60,0zM216.40,203.04a0.80,0.80,0,1,0,1.60,0a0.80,0.80,0,1,0,-1.60,0zM217.41,204.79a0.80,0.80,0,1,0,1.60,0a0.80,0.80,0,1,0,-1.60,0zM218.41,206.55a0.80,0.80,0,1,0,1.60,0a0.80,0.80,0,1,0,-1.60,0zM219.42,208.31a0.80,0.80,0,1,0,1.60,0a0.80,0.80,0,1,0,-1.60,0zM220.42,210.09a0.80,0.80,0,1,0,1.60,0a0.80,0.80,0,1,0,-1.60,0zM221.43,211.87a0.80,0.80,0,1,0,1.60,0a0.80,0.80,0,1,0,-1.60,0zM222.43,213.65a0.80,0.80,0,1,0,1.60,0a0.80,0.80,0,1,0,-1.60,0zM223.44,215.44a0.80,0.80,0,1,0,1.60,0a0.80,0.80,0,1,0,-1.60,0zM224.44,217.24a0.80,0.80,0,1,0,1.60,0a0.80,0.80,0,1,0,-1.60,0zM225.45,219.05a0.80,0.80,0,1,0,1.60,0a0.80,0.80,0,1,0,-1.60,0zM226.46,220.86a0.80,0.80,0,1,0,1.60,0a0.80,0.80,0,1,0,-1.60,0zM227.46,222.68a0.80,0.80,0,1,0,1.60,0a0.80,0.80,0,1,0,-1.60,0zM228.47,224.50a0.80,0.80,0,1,0,1.60,0a0.80,0.80,0,1,0,-1.60,0zM229.47,226.33a0.80,0.80,0,1,0,1.60,0a0.80,0.80,0,1,0,-1.60,0zM230.48,228.17a0.80,0.80,0,1,0,1.60,0a0.80,0.80,0,1,0,-1.60,0zM231.48,230.02a0.80,0.80,0,1,0,1.60,0a0.80,0.80,0,1,0,-1.60,0zM232.49,231.87a0.80,0.80,0,1,0,1.60,0a0.80,0.80,0,1,0,-1.60,0zM233.49,233.73a0.80,0.80,0,1,0,1.60,0a0.80,0.80,0,1,0,-1.60,0zM234.50,235.59a0.80,0.80,0,1,0,1.60,0a0.80,0.80,0,1,0,-1.60,0zM235.51,237.46a0.80,0.80,0,1,0,1.60,0a0.80,0.80,0,1,0,-1.60,0zM236.51,239.34a0.80,0.80,0,1,0,1.60,0a0.80,0.80,0,1,0,-1.60,0zM237.52,241.22a0.80,0.80,0,1,0,1.60,0a0.80,0.80,0,1,0,-1.60,0zM238.52,243.11a0.80,0.80,0,1,0,1.60,0a0.80,0.80,0,1,0,-1.60,0zM239.53,245.01a0.80,0.80,0,1,0,1.60,0a0.80,0.80,0,1,0,-1.60,0zM240.53,246.91a0.80,0.80,0,1,0,1.60,0a0.80,0.80,0,1,0,-1.60,0zM241.54,248.83a0.80,0.80,0,1,0,1.60,0a0.80,0.80,0,1,0,-1.60,0zM242.54,250.74a0.80,0.80,0,1,0,1.60,0a0.80,0.80,0,1,0,-1.60,0zM243.55,252.67a0.80,0.80,0,1,0,1.60,0a0.80,0.80,0,1,0,-1.60,0zM244.56,254.60a0.80,0.80,0,1,0,1.60,0a0.80,0.80,0,1,0,-1.60,0zM245.56,256.53a0.80,0.80,0,1,0,1.60,0a0.80,0.80,0,1,0,-1.60,0zM246.57,258.47a0.80,0.80,0,1,0,1.60,0a0.80,0.80,0,1,0,-1.60,0zM247.57,260.42a0.80,0.80,0,1,0,1.60,0a0.80,0.80,0,1,0,-1.60,0zM248.58,262.38a0.80,0.80,0,1,0,1.60,0a0.80,0.80,0,1,0,-1.60,0zM249.58,264.34a0.80,0.80,0,1,0,1.60,0a0.80,0.80,0,1,0,-1.60,0zM250.59,266.31a0.80,0.80,0,1,0,1.60,0a0.80,0.80,0,1,0,-1.60,0zM251.59,268.29a0.80,0.80,0,1,0,1.60,0a0.80,0.80,0,1,0,-1.60,0zM252.60,270.27a0.80,0.80,0,1,0,1.60,0a0.80,0.80,0,1,0,-1.60,0zM253.61,272.26a0.80,0.80,0,1,0,1.60,0a0.80,0.80,0,1,0,-1.60,0zM254.61,274.25a0.80,0.80,0,1,0,1.60,0a0.80,0.80,0,1,0,-1.60,0zM255.62,276.25a0.80,0.80,0,1,0,1.60,0a0.80,0.80,0,1,0,-1.60,0zM256.62,278.26a0.80,0.80,0,1,0,1.60,0a0.80,0.80,0,1,0,-1.60,0zM257.63,280.28a0.80,0.80,0,1,0,1.60,0a0.80,0.80,0,1,0,-1.60,0zM258.63,282.30a0.80,0.80,0,1,0,1.60,0a0.80,0.80,0,1,0,-1.60,0zM259.64,284.33a0.80,0.80,0,1,0,1.60,0a0.80,0.80,0,1,0,-1.60,0zM260.64,286.36a0.80,0.80,0,1,0,1.60,0a0.80,0.80,0,1,0,-1.60,0zM261.65,288.40a0.80,0.80,0,1,0,1.60,0a0.80,0.80,0,1,0,-1.60,0zM262.66,290.45a0.80,0.80,0,1,0,1.60,0a0.80,0.80,0,1,0,-1.60,0zM263.66,292.50a0.80,0.80,0,1,0,1.60,0a0.80,0.80,0,1,0,-1.60,0zM264.67,294.56a0.80,0.80,0,1,0,1.60,0a0.80,0.80,0,1,0,-1.60,0zM265.67,296.63a0.80,0.80,0,1,0,1.60,0a0.80,0.80,0,1,0,-1.60,0zM266.68,298.70a0.80,0.80,0,1,0,1.60,0a0.80,0.80,0,1,0,-1.60,0zM267.68,300.79a0.80,0.80,0,1,0,1.60,0a0.80,0.80,0,1,0,-1.60,0zM268.69,302.87a0.80,0.80,0,1,0,1.60,0a0.80,0.80,0,1,0,-1.60,0zM269.69,304.97a0.80,0.80,0,1,0,1.60,0a0.80,0.80,0,1,0,-1.60,0zM270.70,307.07a0.80,0.80,0,1,0,1.60,0a0.80,0.80,0,1,0,-1.60,0zM271.71,309.17a0.80,0.80,0,1,0,1.60,0a0.80,0.80,0,1,0,-1.60,0zM272.71,311.29a0.80,0.80,0,1,0,1.60,0a0.80,0.80,0,1,0,-1.60,0zM273.72,313.41a0.80,0.80,0,1,0,1.60,0a0.80,0.80,0,1,0,-1.60,0zM274.72,315.53a0.80,0.80,0,1,0,1.60,0a0.80,0.80,0,1,0,-1.60,0zM275.73,317.67a0.80,0.80,0,1,0,1.60,0a0.80,0.80,0,1,0,-1.60,0zM276.73,319.81a0.80,0.80,0,1,0,1.60,0a0.80,0.80,0,1,0,-1.60,0zM277.74,321.95a0.80,0.80,0,1,0,1.60,0a0.80,0.80,0,1,0,-1.60,0zM278.74,324.11a0.80,0.80,0,1,0,1.60,0a0.80,0.80,0,1,0,-1.60,0zM279.75,326.27a0.80,0.80,0,1,0,1.60,0a0.80,0.80,0,1,0,-1.60,0zM280.76,328.43a0.80,0.80,0,1,0,1.60,0a0.80,0.80,0,1,0,-1.60,0zM281.76,330.61a0.80,0.80,0,1,0,1.60,0a0.80,0.80,0,1,0,-1.60,0zM282.77,332.79a0.80,0.80,0,1,0,1.60,0a0.80,0.80,0,1,0,-1.60,0zM283.77,334.98a0.80,0.80,0,1,0,1.60,0a0.80,0.80,0,1,0,-1.60,0zM284.78,337.17a0.80,0.80,0,1,0,1.60,0a0.80,0.80,0,1,0,-1.60,0zM285.78,339.37a0.80,0.80,0,1,0,1.60,0a0.80,0.80,0,1,0,-1.60,0zM286.79,341.58a0.80,0.80,0,1,0,1.60,0a0.80,0.80,0,1,0,-1.60,0zM287.79,343.79a0.80,0.80,0,1,0,1.60,0a0.80,0.80,0,1,0,-1.60,0zM288.80,346.01a0.80,0.80,0,1,0,1.60,0a0.80,0.80,0,1,0,-1.60,0zM289.81,348.24a0.80,0.80,0,1,0,1.60,0a0.80,0.80,0,1,0,-1.60,0zM290.81,350.47a0.80,0.80,0,1,0,1.60,0a0.80,0.80,0,1,0,-1.60,0zM291.82,352.71a0.80,0.80,0,1,0,1.60,0a0.80,0.80,0,1,0,-1.60,0zM292.82,354.96a0.80,0.80,0,1,0,1.60,0a0.80,0.80,0,1,0,-1.60,0zM293.83,357.22a0.80,0.80,0,1,0,1.60,0a0.80,0.80,0,1,0,-1.60,0zM294.83,359.48a0.80,0.80,0,1,0,1.60,0a0.80,0.80,0,1,0,-1.60,0zM295.84,361.75a0.80,0.80,0,1,0,1.60,0a0.80,0.80,0,1,0,-1.60,0zM296.84,364.02a0.80,0.80,0,1,0,1.60,0a0.80,0.80,0,1,0,-1.60,0zM297.85,366.30a0.80,0.80,0,1,0,1.60,0a0.80,0.80,0,1,0,-1.60,0zM298.86,368.59a0.80,0.80,0,1,0,1.60,0a0.80,0.80,0,1,0,-1.60,0zM299.86,370.89a0.80,0.80,0,1,0,1.60,0a0.80,0.80,0,1,0,-1.60,0zM300.87,373.19a0.80,0.80,0,1,0,1.60,0a0.80,0.80,0,1,0,-1.60,0zM301.87,375.50a0.80,0.80,0,1,0,1.60,0a0.80,0.80,0,1,0,-1.60,0zM302.88,377.82a0.80,0.80,0,1,0,1.60,0a0.80,0.80,0,1,0,-1.60,0zM303.88,380.14a0.80,0.80,0,1,0,1.60,0a0.80,0.80,0,1,0,-1.60,0zM304.89,382.47a0.80,0.80,0,1,0,1.60,0a0.80,0.80,0,1,0,-1.60,0zM305.89,384.81a0.80,0.80,0,1,0,1.60,0a0.80,0.80,0,1,0,-1.60,0zM306.90,387.15a0.80,0.80,0,1,0,1.60,0a0.80,0.80,0,1,0,-1.60,0zM307.91,389.50a0.80,0.80,0,1,0,1.60,0a0.80,0.80,0,1,0,-1.60,0zM308.91,391.86a0.80,0.80,0,1,0,1.60,0a0.80,0.80,0,1,0,-1.60,0zM309.92,394.22a0.80,0.80,0,1,0,1.60,0a0.80,0.80,0,1,0,-1.60,0zM310.92,396.60a0.80,0.80,0,1,0,1.60,0a0.80,0.80,0,1,0,-1.60,0zM311.93,398.97a0.80,0.80,0,1,0,1.60,0a0.80,0.80,0,1,0,-1.60,0zM312.93,401.36a0.80,0.80,0,1,0,1.60,0a0.80,0.80,0,1,0,-1.60,0zM313.94,403.75a0.80,0.80,0,1,0,1.60,0a0.80,0.80,0,1,0,-1.60,0zM314.94,406.15a0.80,0.80,0,1,0,1.60,0a0.80,0.80,0,1,0,-1.60,0zM315.95,408.56a0.80,0.80,0,1,0,1.60,0a0.80,0.80,0,1,0,-1.60,0zM316.96,410.97a0.80,0.80,0,1,0,1.60,0a0.80,0.80,0,1,0,-1.60,0zM317.96,413.39a0.80,0.80,0,1,0,1.60,0a0.80,0.80,0,1,0,-1.60,0zM318.97,415.82a0.80,0.80,0,1,0,1.60,0a0.80,0.80,0,1,0,-1.60,0zM319.97,418.26a0.80,0.80,0,1,0,1.60,0a0.80,0.80,0,1,0,-1.60,0zM320.98,420.70a0.80,0.80,0,1,0,1.60,0a0.80,0.80,0,1,0,-1.60,0zM321.98,423.15a0.80,0.80,0,1,0,1.60,0a0.80,0.80,0,1,0,-1.60,0zM322.99,425.60a0.80,0.80,0,1,0,1.60,0a0.80,0.80,0,1,0,-1.60,0zM323.99,428.06a0.80,0.80,0,1,0,1.60,0a0.80,0.80,0,1,0,-1.60,0zM325.00,430.53a0.80,0.80,0,1,0,1.60,0a0.80,0.80,0,1,0,-1.60,0zM326.01,433.01a0.80,0.80,0,1,0,1.60,0a0.80,0.80,0,1,0,-1.60,0zM327.01,435.49a0.80,0.80,0,1,0,1.60,0a0.80,0.80,0,1,0,-1.60,0zM328.02,437.99a0.80,0.80,0,1,0,1.60,0a0.80,0.80,0,1,0,-1.60,0zM329.02,440.45a0.80,0.80,0,1,0,1.60,0a0.80,0.80,0,1,0,-1.60,0zM330.03,442.99a0.80,0.80,0,1,0,1.60,0a0.80,0.80,0,1,0,-1.60,0zM331.03,445.50a0.80,0.80,0,1,0,1.60,0a0.80,0.80,0,1,0,-1.60,0z" style="stroke: black; fill: black;"></path><path d="M25.16666666666667,218.08345819275414h10v10h-10zM26.172222222222228,214.4454678725032h10v10h-10zM27.177777777777784,210.80747755225224h10v10h-10zM28.183333333333344,207.1694872320013h10v10h-10zM29.188888888888897,203.53149691175042h10v10h-10zM30.19444444444445,199.8935065914995h10v10h-10zM31.20000000000001,196.25551627124852h10v10h-10zM32.20555555555556,192.6175259509976h10v10h-10zM33.21111111111112,188.9795356307466h10v10h-10zM34.216666666666676,185.3415453104957h10v10h-10zM35.222222222222236,181.7035549902448h10v10h-10zM36.22777777777779,178.06556466999382h10v10h-10zM37.23333333333335,174.42757434974288h10v10h-10zM38.23888888888888,170.78958402949192h10v10h-10zM39.24444444444444,167.15159370924098h10v10h-10zM40.24999999999999,163.51360338899h10v10h-10zM41.25555555555555,159.87561306873917h10v10h-10zM42.261111111111106,156.2376227484882h10v10h-10zM43.266666666666666,152.59963242823727h10v10h-10zM44.27222222222222,148.96164210798628h10v10h-10zM45.27777777777778,145.32365178773537h10v10h-10zM46.28333333333333,141.68566146748438h10v10h-10zM47.28888888888889,138.0476711472335h10v10h-10zM48.294444444444444,134.40968082698257h10v10h-10zM49.3,130.7716905067316h10v10h-10zM50.30555555555556,127.13370018648067h10v10h-10zM51.31111111111111,123.49570986622967h10v10h-10zM52.31666666666668,119.85771954597875h10v10h-10zM53.32222222222222,116.21972922572778h10v10h-10zM54.32777777777779,112.58163496289632h10v10h-10zM55.33333333333334,108.9436446426454h10v10h-10zM56.3388888888889,105.30575826497504h10v10h-10zM57.344444444444456,101.66766400214348h10v10h-10zM58.35000000000001,98.02956973931204h10v10h-10zM59.35555555555557,94.39126759131926h10v10h-10zM60.361111111111114,90.75119841945681h10v10h-10zM61.36666666666669,87.1152869508174h10v10h-10zM62.372222222222234,83.47542566411606h10v10h-10zM63.377777777777766,79.83774717160686h10v10h-10zM64.38333333333333,76.19986079393647h10v10h-10zM65.38888888888889,72.56124681820212h10v10h-10zM66.39444444444445,68.91296618247385h10v10h-10zM67.39999999999999,65.28609771834483h10v10h-10zM68.40555555555555,61.59332965812901h10v10h-10zM69.41111111111111,57.97810276302475h10v10h-10zM70.41666666666666,54.34593322728623h10v10h-10zM71.42222222222222,50.63528704321076h10v10h-10zM72.42777777777778,46.95208170040817h10v10h-10zM73.43333333333334,43.13697322285125h10v10h-10zM74.43888888888888,39.23185047051348h10v10h-10zM75.44444444444446,36.18196727117615h10v10h-10zM76.45,35.49999999999991h10v10h-10zM77.45555555555556,35.99944409968023h10v10h-10zM78.46111111111112,36.60636482767862h10v10h-10zM79.46666666666667,37.000722978393746h10v10h-10zM80.47222222222223,37.1626655189352h10v10h-10zM81.47777777777779,37.72759344437991h10v10h-10zM82.48333333333333,38.18805907634313h10v10h-10zM83.48888888888888,38.64239209605209h10v10h-10zM84.49444444444445,38.90910875781684h10v10h-10zM85.5,38.99184705195745h10v10h-10zM86.50555555555555,40.55930116708263h10v10h-10zM87.5111111111111,40.909379778471354h10v10h-10zM88.51666666666668,41.23336880213489h10v10h-10zM89.52222222222223,41.498734210352055h10v10h-10zM90.52777777777779,42.649066749615436h10v10h-10zM91.53333333333333,43.66250691025671h10v10h-10zM92.5388888888889,43.47083679166976h10v10h-10zM93.54444444444445,45.141401946729026h10v10h-10zM94.54999999999998,44.96885726296855h10v10h-10zM95.55555555555556,45.92762362622561h10v10h-10zM96.56111111111112,47.19146146348073h10v10h-10zM97.56666666666666,46.958110370081734h10v10h-10zM98.57222222222222,47.194683683478665h10v10h-10zM99.57777777777778,49.50428782393507h10v10h-10zM100.58333333333334,50.02743083198717h10v10h-10zM101.58888888888889,50.59215087227072h10v10h-10zM102.59444444444445,51.63209639095967h10v10h-10zM103.6,52.05846885649302h10v10h-10zM104.60555555555557,53.42687292981022h10v10h-10zM105.61111111111111,53.555345959405344h10v10h-10zM106.61666666666667,53.193313951250175h10v10h-10zM107.62222222222222,54.85369273341268h10v10h-10zM108.62777777777775,55.24347741058246h10v10h-10zM109.63333333333335,55.76381396895887h10v10h-10zM110.63888888888889,58.914001758554456h10v10h-10zM111.64444444444445,58.73334955350879h10v10h-10zM112.64999999999998,61.00293580044257h10v10h-10zM113.65555555555558,60.917598941787546h10v10h-10zM114.66111111111111,62.91776601986149h10v10h-10zM115.66666666666669,63.40889471309541h10v10h-10zM116.67222222222222,64.85910159732795h10v10h-10zM117.6777777777778,66.00205421337024h10v10h-10zM118.68333333333334,66.9259998121334h10v10h-10zM119.68888888888888,67.98735750242143h10v10h-10zM120.69444444444444,68.9020522115131h10v10h-10zM121.69999999999999,70.13002985846867h10v10h-10zM122.70555555555556,71.17330153973607h10v10h-10zM123.71111111111111,72.2111682068134h10v10h-10zM124.71666666666667,73.297056346118h10v10h-10zM125.72222222222223,74.31766854481926h10v10h-10zM126.72777777777776,75.46654588795448h10v10h-10zM127.73333333333335,76.56906484015167h10v10h-10zM128.7388888888889,77.68249776330961h10v10h-10zM129.74444444444444,78.80123175807708h10v10h-10zM130.75,79.62352151303435h10v10h-10zM131.75555555555556,81.06052768953352h10v10h-10zM132.76111111111112,82.21241936750552h10v10h-10zM133.76666666666668,83.36036122741558h10v10h-10zM134.77222222222224,84.54083711504673h10v10h-10zM135.77777777777777,85.7093596059113h10v10h-10zM136.78333333333336,86.89721541676353h10v10h-10zM137.7888888888889,88.08881316051658h10v10h-10zM138.79444444444445,89.28643957394314h10v10h-10zM139.79999999999998,90.4992416041343h10v10h-10zM140.80555555555557,91.71828018916005h10v10h-10zM141.8111111111111,92.85208585811148h10v10h-10zM142.81666666666666,94.18161540629231h10v10h-10zM143.82222222222222,95.42591203839869h10v10h-10zM144.82777777777775,96.677380708565h10v10h-10zM145.83333333333331,97.9400751774338h10v10h-10zM146.8388888888889,99.20879831597617h10v10h-10zM147.84444444444443,100.48438166483673h10v10h-10zM148.85,101.77441303239777h10v10h-10zM149.85555555555555,103.06880998834302h10v10h-10zM150.86111111111111,104.3720420636375h10v10h-10zM151.86666666666667,105.68306983247538h10v10h-10zM152.87222222222223,107.00241300775944h10v10h-10zM153.87777777777777,108.32975976174812h10v10h-10zM154.88333333333333,109.66511009444147h10v10h-10zM155.8888888888889,111.00846400583927h10v10h-10zM156.89444444444445,112.35982149594162h10v10h-10zM157.9,113.71918256474846h10v10h-10zM158.90555555555557,115.08613144193767h10v10h-10zM159.91111111111113,116.46129178299253h10v10h-10zM160.91666666666669,117.8440399324296h10v10h-10zM161.92222222222225,119.2345837754101h10v10h-10zM162.92777777777778,120.63292331193401h10v10h-10zM163.93333333333334,122.03874671425952h10v10h-10zM164.9388888888889,123.45257369528954h10v10h-10zM165.94444444444443,124.8737805995408h10v10h-10zM166.95,126.30267925475474h10v10h-10zM167.95555555555555,127.73906177577038h10v10h-10zM168.9611111111111,129.18292816258767h10v10h-10zM169.96666666666667,130.6343823577873h10v10h-10zM170.97222222222223,132.0932164762079h10v10h-10zM171.97777777777776,133.55953446043023h10v10h-10zM172.98333333333332,135.03333631045408h10v10h-10zM173.9888888888889,136.5144141411186h10v10h-10zM174.99444444444444,138.00287189500403h10v10h-10zM176,139.49860562953018h10v10h-10zM177.00555555555556,141.00171928727727h10v10h-10zM178.0111111111111,142.51200498308427h10v10h-10zM179.01666666666665,144.02956665953187h10v10h-10zM180.0222222222222,145.5544043166199h10v10h-10zM181.0277777777778,147.0864140117678h10v10h-10zM182.03333333333336,148.62549180239512h10v10h-10zM183.0388888888889,150.17184557366292h10v10h-10zM184.04444444444445,151.72526744041008h10v10h-10zM185.05,153.28586134521717h10v10h-10zM186.05555555555557,154.85341940292295h10v10h-10zM187.0611111111111,156.42804555610815h10v10h-10zM188.06666666666666,158.00984374735324h10v10h-10zM189.07222222222222,159.59850214891657h10v10h-10zM190.07777777777775,161.19433258853977h10v10h-10zM191.08333333333331,162.7970232384812h10v10h-10zM192.08888888888887,164.40667804132136h10v10h-10zM193.09444444444443,166.02329699706033h10v10h-10zM194.09999999999997,167.646880105698h10v10h-10zM195.10555555555555,169.27732342465396h10v10h-10zM196.11111111111111,170.91462695392798h10v10h-10zM197.11666666666667,172.5588946361008h10v10h-10zM198.12222222222223,174.2099185860112h10v10h-10zM199.12777777777782,175.8678027462399h10v10h-10zM200.13333333333333,177.53254711678682h10v10h-10zM201.13888888888889,179.2041516976518h10v10h-10zM202.14444444444445,180.88251254625442h10v10h-10zM203.15000000000003,182.56762966259458h10v10h-10zM204.15555555555557,184.25960698925311h10v10h-10zM205.1611111111111,185.95823664106857h10v10h-10zM206.16666666666669,187.66362256062163h10v10h-10zM207.1722222222222,189.3757647479122h10v10h-10zM208.17777777777778,191.09466320294055h10v10h-10zM209.18333333333334,192.8203179257064h10v10h-10zM210.1888888888889,194.5525210310487h10v10h-10zM211.19444444444443,196.29148040412875h10v10h-10zM212.2,198.0371960449462h10v10h-10zM213.20555555555555,199.78946006834025h10v10h-10zM214.21111111111114,201.5484803594719h10v10h-10zM215.21666666666664,203.31404903317997h10v10h-10zM216.22222222222223,205.0863739746256h10v10h-10zM217.22777777777776,206.86524729864777h10v10h-10zM218.23333333333335,208.650772947827h10v10h-10zM219.2388888888889,210.44284697958255h10v10h-10zM220.24444444444444,212.2415733364952h10v10h-10zM221.25,214.04695201856492h10v10h-10zM222.2555555555556,215.85887908321098h10v10h-10zM223.2611111111111,217.67735453043358h10v10h-10zM224.2666666666667,219.50248230281326h10v10h-10zM225.2722222222222,221.33405451518865h10v10h-10zM226.27777777777777,223.17227905272114h10v10h-10zM227.28333333333336,225.0171559154107h10v10h-10zM228.2888888888889,226.86847721809613h10v10h-10zM229.29444444444445,228.72634690335798h10v10h-10zM230.29999999999995,230.5908689137769h10v10h-10zM231.30555555555557,232.46183536419164h10v10h-10zM232.31111111111116,234.33935019718282h10v10h-10zM233.31666666666666,236.22351735533118h10v10h-10zM234.32222222222222,238.11412895347527h10v10h-10zM235.32777777777775,240.01128893419585h10v10h-10zM236.33333333333331,241.9149972974928h10v10h-10zM237.3388888888889,243.8252540433663h10v10h-10zM238.34444444444443,245.74195522923569h10v10h-10zM239.35000000000002,247.66520479768147h10v10h-10zM240.35555555555553,249.5951066912843h10v10h-10zM241.36111111111111,251.53134908230248h10v10h-10zM242.36666666666667,253.4742437984777h10v10h-10zM243.37222222222223,255.42368689722923h10v10h-10zM244.37777777777777,257.3795744359767h10v10h-10zM245.38333333333335,259.34201035730064h10v10h-10zM246.38888888888889,261.3109946612011h10v10h-10zM247.39444444444445,263.28652734767786h10v10h-10zM248.39999999999998,265.26860841673124h10v10h-10zM249.40555555555557,267.25713392578035h10v10h-10zM250.41111111111113,269.2523117599865h10v10h-10zM251.41666666666663,271.2539340341886h10v10h-10zM252.42222222222222,273.26210469096713h10v10h-10zM253.4277777777778,275.2769276729026h10v10h-10zM254.43333333333334,277.29819509483406h10v10h-10zM255.43888888888887,279.326010899342h10v10h-10zM256.44444444444446,281.3604790290068h10v10h-10zM257.45000000000005,283.4013915986676h10v10h-10zM258.4555555555555,285.4489564934854h10v10h-10zM259.4611111111111,287.5030697708797h10v10h-10zM260.4666666666667,289.5637314308504h10v10h-10zM261.4722222222222,291.6310454159781h10v10h-10zM262.4777777777778,293.70490778368236h10v10h-10zM263.4833333333333,295.78511064880183h10v10h-10zM264.4888888888889,297.87238160940063h10v10h-10zM265.49444444444447,299.96609700999534h10v10h-10zM266.5,302.06636079316655h10v10h-10zM267.50555555555553,304.17327690149466h10v10h-10zM268.5111111111111,306.28674139239934h10v10h-10zM269.51666666666665,308.40685820846096h10v10h-10zM270.52222222222224,310.5337312922603h10v10h-10zM271.52777777777777,312.66715275863606h10v10h-10zM272.5333333333333,314.8072265501688h10v10h-10zM273.5388888888889,316.95405660943914h10v10h-10zM274.5444444444445,319.107435051286h10v10h-10zM275.55,321.2675697608704h10v10h-10zM276.55555555555554,323.4344607381925h10v10h-10zM277.56111111111113,325.607900098091h10v10h-10zM278.5666666666667,327.78819966830764h10v10h-10zM279.5722222222222,329.97504762110077h10v10h-10zM280.5777777777778,332.16875578421207h10v10h-10zM281.5833333333333,334.3691162724804h10v10h-10zM282.5888888888889,336.57633697106695h10v10h-10zM283.5944444444445,338.79020999481054h10v10h-10zM284.59999999999997,341.0108392862917h10v10h-10zM285.60555555555555,343.23832878809105h10v10h-10zM286.61111111111114,345.472574557628h10v10h-10zM287.6166666666667,347.7135765949025h10v10h-10zM288.6222222222222,349.96133489991473h10v10h-10zM289.62777777777774,352.21595341524517h10v10h-10zM290.6333333333333,354.4774321408937h10v10h-10zM291.63888888888886,356.7457710768605h10v10h-10zM292.64444444444445,359.0208662805648h10v10h-10zM293.65,361.30282169458735h10v10h-10zM294.6555555555555,363.5916373189281h10v10h-10zM295.66111111111115,365.887313153587h10v10h-10zM296.66666666666663,368.1898491985641h10v10h-10zM297.6722222222222,370.49934939644004h10v10h-10zM298.6777777777778,372.8157098046341h10v10h-10zM299.68333333333334,375.1389304231464h10v10h-10zM300.68888888888887,377.4691151945573h10v10h-10zM301.6944444444444,379.8061601762866h10v10h-10zM302.7,382.1501693109145h10v10h-10zM303.7055555555556,384.5011425984413h10v10h-10zM304.7111111111111,386.85897609628626h10v10h-10zM305.71666666666664,389.22387768961045h10v10h-10zM306.72222222222223,391.5956394932529h10v10h-10zM307.7277777777778,393.97436544979405h10v10h-10zM308.73333333333335,396.3601595018147h10v10h-10zM309.7388888888889,398.75281376415353h10v10h-10zM310.74444444444447,401.15253612197154h10v10h-10zM311.75000000000006,403.5592226326884h10v10h-10zM312.75555555555553,405.97287329630404h10v10h-10zM313.7611111111111,408.3934881128185h10v10h-10zM314.7666666666666,410.8211710248122h10v10h-10zM315.7722222222222,413.2558180897047h10v10h-10zM316.7777777777778,415.69753325007656h10v10h-10zM317.7833333333333,418.1462125633472h10v10h-10zM318.7888888888889,420.60195997209706h10v10h-10zM319.7944444444444,423.0646715337459h10v10h-10zM320.8,425.5343472482934h10v10h-10zM321.80555555555554,428.01109105832023h10v10h-10zM322.8111111111111,430.4947990212458h10v10h-10zM323.81666666666666,432.98567902223135h10v10h-10zM324.82222222222225,435.4490142393635h10v10h-10zM325.8277777777778,437.9882275403181h10v10h-10zM326.8333333333333,440.5h10v10h-10z" style="fill: none; pointer-events: visiblefill;"></path></g></svg><g><g transform="translate(0,486)"><path d="M0,0h362M0,-8V0M10,-8V0M20,-8V0M30,-15V0M40,-8V0M50,-8V0M60,-8V0M70,-8V0M80,-15V0M91,-8V0M101,-8V0M111,-8V0M121,-8V0M131,-15V0M141,-8V0M151,-8V0M161,-8V0M171,-8V0M181,-15V0M191,-8V0M201,-8V0M211,-8V0M221,-8V0M231,-15V0M241,-8V0M251,-8V0M261,-8V0M272,-8V0M282,-15V0M292,-8V0M302,-8V0M312,-8V0M322,-8V0M332,-15V0M342,-8V0M352,-8V0M362,-8V0" style="stroke: black; stroke-width: 1;"></path><g font-family="Arial" font-size="16" xml:space="preserve" fill="black" text-anchor="middle"><text dy=".8em" transform="translate(30,3)">-1.5</text><text dy=".8em" transform="translate(80,3)">-1</text><text dy=".8em" transform="translate(131,3)">-0.5</text><text dy=".8em" transform="translate(181,3)">0</text><text dy=".8em" transform="translate(231,3)">0.5</text><text dy=".8em" transform="translate(282,3)">1</text><text dy=".8em" transform="translate(332,3)">1.5</text></g><rect x="0" y="0" width="362" height="19" style="opacity: 0; cursor: crosshair;"></rect><g font-family="Arial" font-size="16" xml:space="preserve" transform="translate(362,34)" style="cursor: move;"><text fill="black" text-anchor="end" dominant-baseline="middle">Delta</text></g></g><g><path d="M0,0v486M6,478H0M6,467H0M11,457H0M6,447H0M6,436H0M6,426H0M6,415H0M11,405H0M6,395H0M6,384H0M6,374H0M6,363H0M11,353H0M6,343H0M6,332H0M6,322H0M6,311H0M11,301H0M6,291H0M6,280H0M6,270H0M6,259H0M11,249H0M6,239H0M6,228H0M6,218H0M6,207H0M11,197H0M6,187H0M6,176H0M6,166H0M6,156H0M11,145H0M6,135H0M6,124H0M6,114H0M6,104H0M11,93H0M6,83H0M6,72H0M6,62H0M6,52H0M11,41H0M6,31H0M6,20H0M6,10H0" style="stroke: black; stroke-width: 1;"></path><g font-family="Arial" font-size="16" xml:space="preserve" fill="black" text-anchor="end"><text dominant-baseline="middle" transform="translate(-3,457)">-7.5</text><text dominant-baseline="middle" transform="translate(-3,405)">-7</text><text dominant-baseline="middle" transform="translate(-3,353)">-6.5</text><text dominant-baseline="middle" transform="translate(-3,301)">-6</text><text dominant-baseline="middle" transform="translate(-3,249)">-5.5</text><text dominant-baseline="middle" transform="translate(-3,197)">-5</text><text dominant-baseline="middle" transform="translate(-3,145)">-4.5</text><text dominant-baseline="middle" transform="translate(-3,93)">-4</text><text dominant-baseline="middle" transform="translate(-3,41)">-3.5</text></g><rect x="-30" y="0" width="30" height="486" style="opacity: 0; cursor: crosshair;"></rect><g font-family="Arial" font-size="16" xml:space="preserve" transform="translate(-38)" style="cursor: move;"><text fill="black" text-anchor="end" dominant-baseline="middle" transform="rotate(270)">Total Ground Energy</text></g></g><path d="M30,0v486M80,0v486M131,0v486M181,0v486M231,0v486M282,0v486M332,0v486" style="stroke: black; stroke-width: 1; stroke-dasharray: 1, 2;"></path><path d="M0,457h362M0,405h362M0,353h362M0,301h362M0,249h362M0,197h362M0,145h362M0,93h362M0,41h362" style="stroke: black; stroke-width: 1; stroke-dasharray: 1, 2;"></path></g><path d="M2,2h15v-5h-20v20h5Z" style="opacity: 0; cursor: nw-resize;"></path><path d="M360,2h-15v-5h20v20h-5 Z" style="opacity: 0; cursor: ne-resize;"></path><path d="M2,484h15v5h-20v-20h5Z" style="opacity: 0; cursor: sw-resize;"></path><path d="M360,484h-15v5h20v-20h-5Z" style="opacity: 0; cursor: se-resize;"></path><path d="M-3,18h5v450h-5Z" style="opacity: 0; cursor: w-resize;"></path><path d="M365,18h-5v450h5Z" style="opacity: 0; cursor: e-resize;"></path><path d="M18,-3v5h326v-5Z" style="opacity: 0; cursor: n-resize;"></path><path d="M18,489v-5h326v5Z" style="opacity: 0; cursor: s-resize;"></path></g><g transform="translate(45,3)" font-family="Arial" font-size="16" xml:space="preserve" style="cursor: move;"><path d="M0,0H362V40H0Z" style="fill: none; pointer-events: visiblefill;"></path><text fill="black" text-anchor="middle" dy=".8em" transform="translate(181)">Lanczos alogrithm, num = 14, error = 1e-13</text><path d="M2,2h15v-5h-20v20h5Z" style="opacity: 0; cursor: nw-resize;"></path><path d="M360,2h-15v-5h20v20h-5 Z" style="opacity: 0; cursor: ne-resize;"></path><path d="M2,38h15v5h-20v-20h5Z" style="opacity: 0; cursor: sw-resize;"></path><path d="M360,38h-15v5h20v-20h-5Z" style="opacity: 0; cursor: se-resize;"></path><path d="M-3,18h5v4h-5Z" style="opacity: 0; cursor: w-resize;"></path><path d="M365,18h-5v4h5Z" style="opacity: 0; cursor: e-resize;"></path><path d="M18,-3v5h326v-5Z" style="opacity: 0; cursor: n-resize;"></path><path d="M18,43v-5h326v5Z" style="opacity: 0; cursor: s-resize;"></path></g></g></svg>