<svg width="1161" height="607" xmlns="http://www.w3.org/2000/svg"><defs><pattern id="pat_3001_1" patternUnits="userSpaceOnUse" width="2" height="2"><path d="M0,0h1v1h-1zM1,1h1v1h-1z" style="fill: black;"></path></pattern><pattern id="pat_3002_1" patternUnits="userSpaceOnUse" width="4" height="2"><path d="M1,0h1v1h-1zM3,1h1v1h-1z" style="fill: black;"></path></pattern><pattern id="pat_3003_1" patternUnits="userSpaceOnUse" width="4" height="4"><path d="M2,1h1v1h-1zM0,3h1v1h-1z" style="fill: black;"></path></pattern><pattern id="pat_3004_1" patternUnits="userSpaceOnUse" width="8" height="8"><path d="M8,0L0,8" style="stroke: black; stroke-width: 1;"></path></pattern><pattern id="pat_3005_1" patternUnits="userSpaceOnUse" width="8" height="8"><path d="M0,0L8,8" style="stroke: black; stroke-width: 1;"></path></pattern><pattern id="pat_3006_1" patternUnits="userSpaceOnUse" width="4" height="4"><path d="M1,0v4" style="stroke: black; stroke-width: 1;"></path></pattern><pattern id="pat_3007_1" patternUnits="userSpaceOnUse" width="4" height="4"><path d="M0,1h4" style="stroke: black; stroke-width: 1;"></path></pattern><pattern id="pat_3010_1" patternUnits="userSpaceOnUse" width="10" height="10"><path d="M0,2h10M0,7h10M2,0v2M7,2v5M2,7v3" style="stroke: black; stroke-width: 1;"></path></pattern><pattern id="pat_3021_1" patternUnits="userSpaceOnUse" width="8" height="8"><path d="M8,2h-2v4h-4v2M2,0v2h-2" style="stroke: black; stroke-width: 1; fill: none;"></path></pattern><pattern id="pat_3022_1" patternUnits="userSpaceOnUse" width="8" height="8"><path d="M0,2h2v4h4v2M6,0v2h2" style="stroke: black; stroke-width: 1; fill: none;"></path></pattern></defs><title>16_13.root/c1;1</title><path d="M0,0H1161V607H0Z" style="pointer-events: visiblefill; fill: white;"></path><g><g transform="translate(116,61)"><title></title><path d="M0,0H929V486H0Z" style="fill: white; stroke: black; stroke-width: 1; pointer-events: visiblefill; cursor: default;"></path><svg x="0" y="0" overflow="hidden" width="929" height="486" viewBox="0 0 929 486" style="pointer-events: visiblefill; cursor: default;"><g style="cursor: move;"><path d="M77,224l3,-4l3,-3l2,-4l3,-4l2,-3l3,-4l2,-4l3,-3l3,-4l2,-4l3,-3l2,-4l3,-4l3,-3l2,-4l3,-4l2,-3l3,-4l2,-3l3,-4l3,-4l2,-3l3,-4l2,-4l3,-3l3,-4l2,-4l3,-3l2,-4l3,-4l2,-3l3,-4l3,-4l2,-3l3,-4l2,-4l3,-3l2,-4l3,-4l3,-3l2,-4l3,-3l2,-4l3,-4l3,-4l2,-3l3,-4l2,-4l3,-4l2,-3l3,-1l3,1h2l3,1h5l3,1l2,1h5l3,1l2,1h3l3,1l2,1h3l2,1l3,1h2l3,1h3l2,2h3l2,1l3,1h3l2,1h3l2,2l3,1l2,1h3l3,2h2l3,1l2,1l3,2l3,-2l2,3l3,1l2,1l3,1l2,2l3,-1l3,2l2,-1l3,3l2,2h3l2,-2l3,5l3,1l2,1l3,1l2,1l3,2l3,-4l2,6l3,1l2,1l3,1l2,2l3,1l3,1l2,1l3,2l2,1l3,1l3,1l2,2l3,1l2,1l3,1l2,2l3,1l3,1l2,2l3,1l2,1l3,2l2,1l3,1l3,2l2,1l3,1l2,2l3,1l3,2l2,1l3,1l2,2l3,1l2,2l3,1l3,2l2,1l3,2l2,1l3,2l3,1l2,2l3,1l2,2l3,1l2,2l3,1l3,2l2,1l3,2l2,1l3,2l2,2l3,1l3,2l2,1l3,2l2,2l3,1l3,2l2,2l3,1l2,2l3,1l2,2l3,2l3,1l2,2l3,2l2,2l3,1l2,2l3,2l3,1l2,2l3,2l2,2l3,1l3,2l2,2l3,2l2,1l3,2l2,2l3,2l3,2l2,1l3,2l2,2l3,2l3,2l2,2l3,1l2,2l3,2l2,2l3,2l3,2l2,2l3,2l2,2l3,1l2,2l3,2l3,2l2,2l3,2l2,2l3,2l3,2l2,2l3,2l2,2l3,2l2,2l3,2l3,2l2,2l3,2l2,2l3,2l3,2l2,2l3,2l2,2l3,2l2,2l3,2l3,3l2,2l3,2l2,2l3,2l2,2l3,2l3,2l2,3l3,2l2,2l3,2l3,2l2,2l3,3l2,2l3,2l2,2l3,2l3,3l2,2l3,2l2,2l3,2l3,3l2,2l3,2l2,3l3,2l2,2l3,2l3,3l2,2l3,2l2,3l3,2l2,2l3,3l3,2l2,2l3,3l2,2l3,2l3,3l2,2l3,3l2,2l3,2l2,3l3,2l3,3l2,2l3,3l2,2l3,3l3,2l2,2l3,3l2,2l3,3l2,2l3,3l3,2" style="stroke: black; stroke-width: 1; fill: none;"></path><path d="M76.62,223.88a0.80,0.80,0,1,0,1.60,0a0.80,0.80,0,1,0,-1.60,0zM79.20,220.23a0.80,0.80,0,1,0,1.60,0a0.80,0.80,0,1,0,-1.60,0zM81.78,216.58a0.80,0.80,0,1,0,1.60,0a0.80,0.80,0,1,0,-1.60,0zM84.36,212.93a0.80,0.80,0,1,0,1.60,0a0.80,0.80,0,1,0,-1.60,0zM86.94,209.28a0.80,0.80,0,1,0,1.60,0a0.80,0.80,0,1,0,-1.60,0zM89.52,205.63a0.80,0.80,0,1,0,1.60,0a0.80,0.80,0,1,0,-1.60,0zM92.10,201.97a0.80,0.80,0,1,0,1.60,0a0.80,0.80,0,1,0,-1.60,0zM94.68,198.32a0.80,0.80,0,1,0,1.60,0a0.80,0.80,0,1,0,-1.60,0zM97.26,194.67a0.80,0.80,0,1,0,1.60,0a0.80,0.80,0,1,0,-1.60,0zM99.84,191.02a0.80,0.80,0,1,0,1.60,0a0.80,0.80,0,1,0,-1.60,0zM102.42,187.37a0.80,0.80,0,1,0,1.60,0a0.80,0.80,0,1,0,-1.60,0zM105.00,183.72a0.80,0.80,0,1,0,1.60,0a0.80,0.80,0,1,0,-1.60,0zM107.58,180.07a0.80,0.80,0,1,0,1.60,0a0.80,0.80,0,1,0,-1.60,0zM110.16,176.41a0.80,0.80,0,1,0,1.60,0a0.80,0.80,0,1,0,-1.60,0zM112.74,172.76a0.80,0.80,0,1,0,1.60,0a0.80,0.80,0,1,0,-1.60,0zM115.32,169.11a0.80,0.80,0,1,0,1.60,0a0.80,0.80,0,1,0,-1.60,0zM117.91,165.46a0.80,0.80,0,1,0,1.60,0a0.80,0.80,0,1,0,-1.60,0zM120.49,161.81a0.80,0.80,0,1,0,1.60,0a0.80,0.80,0,1,0,-1.60,0zM123.07,158.16a0.80,0.80,0,1,0,1.60,0a0.80,0.80,0,1,0,-1.60,0zM125.65,154.51a0.80,0.80,0,1,0,1.60,0a0.80,0.80,0,1,0,-1.60,0zM128.23,150.86a0.80,0.80,0,1,0,1.60,0a0.80,0.80,0,1,0,-1.60,0zM130.81,147.20a0.80,0.80,0,1,0,1.60,0a0.80,0.80,0,1,0,-1.60,0zM133.39,143.55a0.80,0.80,0,1,0,1.60,0a0.80,0.80,0,1,0,-1.60,0zM135.97,139.90a0.80,0.80,0,1,0,1.60,0a0.80,0.80,0,1,0,-1.60,0zM138.55,136.25a0.80,0.80,0,1,0,1.60,0a0.80,0.80,0,1,0,-1.60,0zM141.13,132.60a0.80,0.80,0,1,0,1.60,0a0.80,0.80,0,1,0,-1.60,0zM143.71,128.95a0.80,0.80,0,1,0,1.60,0a0.80,0.80,0,1,0,-1.60,0zM146.29,125.30a0.80,0.80,0,1,0,1.60,0a0.80,0.80,0,1,0,-1.60,0zM148.87,121.64a0.80,0.80,0,1,0,1.60,0a0.80,0.80,0,1,0,-1.60,0zM151.45,117.99a0.80,0.80,0,1,0,1.60,0a0.80,0.80,0,1,0,-1.60,0zM154.03,114.34a0.80,0.80,0,1,0,1.60,0a0.80,0.80,0,1,0,-1.60,0zM156.61,110.69a0.80,0.80,0,1,0,1.60,0a0.80,0.80,0,1,0,-1.60,0zM159.19,107.04a0.80,0.80,0,1,0,1.60,0a0.80,0.80,0,1,0,-1.60,0zM161.78,103.39a0.80,0.80,0,1,0,1.60,0a0.80,0.80,0,1,0,-1.60,0zM164.36,99.73a0.80,0.80,0,1,0,1.60,0a0.80,0.80,0,1,0,-1.60,0zM166.94,96.08a0.80,0.80,0,1,0,1.60,0a0.80,0.80,0,1,0,-1.60,0zM169.52,92.43a0.80,0.80,0,1,0,1.60,0a0.80,0.80,0,1,0,-1.60,0zM172.10,88.78a0.80,0.80,0,1,0,1.60,0a0.80,0.80,0,1,0,-1.60,0zM174.68,85.13a0.80,0.80,0,1,0,1.60,0a0.80,0.80,0,1,0,-1.60,0zM177.26,81.47a0.80,0.80,0,1,0,1.60,0a0.80,0.80,0,1,0,-1.60,0zM179.84,77.70a0.80,0.80,0,1,0,1.60,0a0.80,0.80,0,1,0,-1.60,0zM182.42,74.13a0.80,0.80,0,1,0,1.60,0a0.80,0.80,0,1,0,-1.60,0zM185.00,70.52a0.80,0.80,0,1,0,1.60,0a0.80,0.80,0,1,0,-1.60,0zM187.58,66.82a0.80,0.80,0,1,0,1.60,0a0.80,0.80,0,1,0,-1.60,0zM190.16,63.16a0.80,0.80,0,1,0,1.60,0a0.80,0.80,0,1,0,-1.60,0zM192.74,59.39a0.80,0.80,0,1,0,1.60,0a0.80,0.80,0,1,0,-1.60,0zM195.32,55.79a0.80,0.80,0,1,0,1.60,0a0.80,0.80,0,1,0,-1.60,0zM197.90,52.09a0.80,0.80,0,1,0,1.60,0a0.80,0.80,0,1,0,-1.60,0zM200.48,48.40a0.80,0.80,0,1,0,1.60,0a0.80,0.80,0,1,0,-1.60,0zM203.06,44.36a0.80,0.80,0,1,0,1.60,0a0.80,0.80,0,1,0,-1.60,0zM205.64,41.28a0.80,0.80,0,1,0,1.60,0a0.80,0.80,0,1,0,-1.60,0zM208.22,40.50a0.80,0.80,0,1,0,1.60,0a0.80,0.80,0,1,0,-1.60,0zM210.81,41.06a0.80,0.80,0,1,0,1.60,0a0.80,0.80,0,1,0,-1.60,0zM213.39,40.85a0.80,0.80,0,1,0,1.60,0a0.80,0.80,0,1,0,-1.60,0zM215.97,41.59a0.80,0.80,0,1,0,1.60,0a0.80,0.80,0,1,0,-1.60,0zM218.55,42.26a0.80,0.80,0,1,0,1.60,0a0.80,0.80,0,1,0,-1.60,0zM221.13,42.25a0.80,0.80,0,1,0,1.60,0a0.80,0.80,0,1,0,-1.60,0zM223.71,43.16a0.80,0.80,0,1,0,1.60,0a0.80,0.80,0,1,0,-1.60,0zM226.29,43.53a0.80,0.80,0,1,0,1.60,0a0.80,0.80,0,1,0,-1.60,0zM228.87,44.16a0.80,0.80,0,1,0,1.60,0a0.80,0.80,0,1,0,-1.60,0zM231.45,44.49a0.80,0.80,0,1,0,1.60,0a0.80,0.80,0,1,0,-1.60,0zM234.03,44.87a0.80,0.80,0,1,0,1.60,0a0.80,0.80,0,1,0,-1.60,0zM236.61,45.73a0.80,0.80,0,1,0,1.60,0a0.80,0.80,0,1,0,-1.60,0zM239.19,46.32a0.80,0.80,0,1,0,1.60,0a0.80,0.80,0,1,0,-1.60,0zM241.77,46.61a0.80,0.80,0,1,0,1.60,0a0.80,0.80,0,1,0,-1.60,0zM244.35,47.87a0.80,0.80,0,1,0,1.60,0a0.80,0.80,0,1,0,-1.60,0zM246.93,47.89a0.80,0.80,0,1,0,1.60,0a0.80,0.80,0,1,0,-1.60,0zM249.51,49.47a0.80,0.80,0,1,0,1.60,0a0.80,0.80,0,1,0,-1.60,0zM252.09,49.60a0.80,0.80,0,1,0,1.60,0a0.80,0.80,0,1,0,-1.60,0zM254.67,49.50a0.80,0.80,0,1,0,1.60,0a0.80,0.80,0,1,0,-1.60,0zM257.26,50.51a0.80,0.80,0,1,0,1.60,0a0.80,0.80,0,1,0,-1.60,0zM259.84,51.07a0.80,0.80,0,1,0,1.60,0a0.80,0.80,0,1,0,-1.60,0zM262.42,52.70a0.80,0.80,0,1,0,1.60,0a0.80,0.80,0,1,0,-1.60,0zM265.00,53.15a0.80,0.80,0,1,0,1.60,0a0.80,0.80,0,1,0,-1.60,0zM267.58,54.01a0.80,0.80,0,1,0,1.60,0a0.80,0.80,0,1,0,-1.60,0zM270.16,55.00a0.80,0.80,0,1,0,1.60,0a0.80,0.80,0,1,0,-1.60,0zM272.74,54.76a0.80,0.80,0,1,0,1.60,0a0.80,0.80,0,1,0,-1.60,0zM275.32,55.80a0.80,0.80,0,1,0,1.60,0a0.80,0.80,0,1,0,-1.60,0zM277.90,55.88a0.80,0.80,0,1,0,1.60,0a0.80,0.80,0,1,0,-1.60,0zM280.48,57.57a0.80,0.80,0,1,0,1.60,0a0.80,0.80,0,1,0,-1.60,0zM283.06,58.84a0.80,0.80,0,1,0,1.60,0a0.80,0.80,0,1,0,-1.60,0zM285.64,60.03a0.80,0.80,0,1,0,1.60,0a0.80,0.80,0,1,0,-1.60,0zM288.22,60.42a0.80,0.80,0,1,0,1.60,0a0.80,0.80,0,1,0,-1.60,0zM290.80,61.95a0.80,0.80,0,1,0,1.60,0a0.80,0.80,0,1,0,-1.60,0zM293.38,61.86a0.80,0.80,0,1,0,1.60,0a0.80,0.80,0,1,0,-1.60,0zM295.96,62.51a0.80,0.80,0,1,0,1.60,0a0.80,0.80,0,1,0,-1.60,0zM298.54,64.45a0.80,0.80,0,1,0,1.60,0a0.80,0.80,0,1,0,-1.60,0zM301.12,65.62a0.80,0.80,0,1,0,1.60,0a0.80,0.80,0,1,0,-1.60,0zM303.71,64.14a0.80,0.80,0,1,0,1.60,0a0.80,0.80,0,1,0,-1.60,0zM306.29,67.11a0.80,0.80,0,1,0,1.60,0a0.80,0.80,0,1,0,-1.60,0zM308.87,68.32a0.80,0.80,0,1,0,1.60,0a0.80,0.80,0,1,0,-1.60,0zM311.45,69.33a0.80,0.80,0,1,0,1.60,0a0.80,0.80,0,1,0,-1.60,0zM314.03,69.89a0.80,0.80,0,1,0,1.60,0a0.80,0.80,0,1,0,-1.60,0zM316.61,71.72a0.80,0.80,0,1,0,1.60,0a0.80,0.80,0,1,0,-1.60,0zM319.19,70.87a0.80,0.80,0,1,0,1.60,0a0.80,0.80,0,1,0,-1.60,0zM321.77,72.99a0.80,0.80,0,1,0,1.60,0a0.80,0.80,0,1,0,-1.60,0zM324.35,71.62a0.80,0.80,0,1,0,1.60,0a0.80,0.80,0,1,0,-1.60,0zM326.93,75.27a0.80,0.80,0,1,0,1.60,0a0.80,0.80,0,1,0,-1.60,0zM329.51,76.59a0.80,0.80,0,1,0,1.60,0a0.80,0.80,0,1,0,-1.60,0zM332.09,77.22a0.80,0.80,0,1,0,1.60,0a0.80,0.80,0,1,0,-1.60,0zM334.67,75.27a0.80,0.80,0,1,0,1.60,0a0.80,0.80,0,1,0,-1.60,0zM337.25,80.13a0.80,0.80,0,1,0,1.60,0a0.80,0.80,0,1,0,-1.60,0zM339.83,80.61a0.80,0.80,0,1,0,1.60,0a0.80,0.80,0,1,0,-1.60,0zM342.41,82.28a0.80,0.80,0,1,0,1.60,0a0.80,0.80,0,1,0,-1.60,0zM344.99,83.28a0.80,0.80,0,1,0,1.60,0a0.80,0.80,0,1,0,-1.60,0zM347.57,84.24a0.80,0.80,0,1,0,1.60,0a0.80,0.80,0,1,0,-1.60,0zM350.16,85.62a0.80,0.80,0,1,0,1.60,0a0.80,0.80,0,1,0,-1.60,0zM352.74,82.39a0.80,0.80,0,1,0,1.60,0a0.80,0.80,0,1,0,-1.60,0zM355.32,87.78a0.80,0.80,0,1,0,1.60,0a0.80,0.80,0,1,0,-1.60,0zM357.90,88.95a0.80,0.80,0,1,0,1.60,0a0.80,0.80,0,1,0,-1.60,0zM360.48,90.15a0.80,0.80,0,1,0,1.60,0a0.80,0.80,0,1,0,-1.60,0zM363.06,91.47a0.80,0.80,0,1,0,1.60,0a0.80,0.80,0,1,0,-1.60,0zM365.64,92.67a0.80,0.80,0,1,0,1.60,0a0.80,0.80,0,1,0,-1.60,0zM368.22,93.88a0.80,0.80,0,1,0,1.60,0a0.80,0.80,0,1,0,-1.60,0zM370.80,94.97a0.80,0.80,0,1,0,1.60,0a0.80,0.80,0,1,0,-1.60,0zM373.38,96.33a0.80,0.80,0,1,0,1.60,0a0.80,0.80,0,1,0,-1.60,0zM375.96,97.55a0.80,0.80,0,1,0,1.60,0a0.80,0.80,0,1,0,-1.60,0zM378.54,98.79a0.80,0.80,0,1,0,1.60,0a0.80,0.80,0,1,0,-1.60,0zM381.12,100.00a0.80,0.80,0,1,0,1.60,0a0.80,0.80,0,1,0,-1.60,0zM383.70,101.27a0.80,0.80,0,1,0,1.60,0a0.80,0.80,0,1,0,-1.60,0zM386.28,102.56a0.80,0.80,0,1,0,1.60,0a0.80,0.80,0,1,0,-1.60,0zM388.86,103.82a0.80,0.80,0,1,0,1.60,0a0.80,0.80,0,1,0,-1.60,0zM391.44,105.10a0.80,0.80,0,1,0,1.60,0a0.80,0.80,0,1,0,-1.60,0zM394.02,106.34a0.80,0.80,0,1,0,1.60,0a0.80,0.80,0,1,0,-1.60,0zM396.61,107.65a0.80,0.80,0,1,0,1.60,0a0.80,0.80,0,1,0,-1.60,0zM399.19,108.98a0.80,0.80,0,1,0,1.60,0a0.80,0.80,0,1,0,-1.60,0zM401.77,110.29a0.80,0.80,0,1,0,1.60,0a0.80,0.80,0,1,0,-1.60,0zM404.35,111.61a0.80,0.80,0,1,0,1.60,0a0.80,0.80,0,1,0,-1.60,0zM406.93,112.91a0.80,0.80,0,1,0,1.60,0a0.80,0.80,0,1,0,-1.60,0zM409.51,114.26a0.80,0.80,0,1,0,1.60,0a0.80,0.80,0,1,0,-1.60,0zM412.09,115.59a0.80,0.80,0,1,0,1.60,0a0.80,0.80,0,1,0,-1.60,0zM414.67,116.96a0.80,0.80,0,1,0,1.60,0a0.80,0.80,0,1,0,-1.60,0zM417.25,118.32a0.80,0.80,0,1,0,1.60,0a0.80,0.80,0,1,0,-1.60,0zM419.83,119.69a0.80,0.80,0,1,0,1.60,0a0.80,0.80,0,1,0,-1.60,0zM422.41,121.06a0.80,0.80,0,1,0,1.60,0a0.80,0.80,0,1,0,-1.60,0zM424.99,122.44a0.80,0.80,0,1,0,1.60,0a0.80,0.80,0,1,0,-1.60,0zM427.57,123.83a0.80,0.80,0,1,0,1.60,0a0.80,0.80,0,1,0,-1.60,0zM430.15,125.23a0.80,0.80,0,1,0,1.60,0a0.80,0.80,0,1,0,-1.60,0zM432.73,126.63a0.80,0.80,0,1,0,1.60,0a0.80,0.80,0,1,0,-1.60,0zM435.31,128.04a0.80,0.80,0,1,0,1.60,0a0.80,0.80,0,1,0,-1.60,0zM437.89,129.47a0.80,0.80,0,1,0,1.60,0a0.80,0.80,0,1,0,-1.60,0zM440.47,130.88a0.80,0.80,0,1,0,1.60,0a0.80,0.80,0,1,0,-1.60,0zM443.06,132.33a0.80,0.80,0,1,0,1.60,0a0.80,0.80,0,1,0,-1.60,0zM445.64,133.77a0.80,0.80,0,1,0,1.60,0a0.80,0.80,0,1,0,-1.60,0zM448.22,135.22a0.80,0.80,0,1,0,1.60,0a0.80,0.80,0,1,0,-1.60,0zM450.80,136.68a0.80,0.80,0,1,0,1.60,0a0.80,0.80,0,1,0,-1.60,0zM453.38,138.14a0.80,0.80,0,1,0,1.60,0a0.80,0.80,0,1,0,-1.60,0zM455.96,139.62a0.80,0.80,0,1,0,1.60,0a0.80,0.80,0,1,0,-1.60,0zM458.54,141.10a0.80,0.80,0,1,0,1.60,0a0.80,0.80,0,1,0,-1.60,0zM461.12,142.59a0.80,0.80,0,1,0,1.60,0a0.80,0.80,0,1,0,-1.60,0zM463.70,144.08a0.80,0.80,0,1,0,1.60,0a0.80,0.80,0,1,0,-1.60,0zM466.28,145.59a0.80,0.80,0,1,0,1.60,0a0.80,0.80,0,1,0,-1.60,0zM468.86,147.10a0.80,0.80,0,1,0,1.60,0a0.80,0.80,0,1,0,-1.60,0zM471.44,148.61a0.80,0.80,0,1,0,1.60,0a0.80,0.80,0,1,0,-1.60,0zM474.02,150.14a0.80,0.80,0,1,0,1.60,0a0.80,0.80,0,1,0,-1.60,0zM476.60,151.67a0.80,0.80,0,1,0,1.60,0a0.80,0.80,0,1,0,-1.60,0zM479.18,153.21a0.80,0.80,0,1,0,1.60,0a0.80,0.80,0,1,0,-1.60,0zM481.76,154.76a0.80,0.80,0,1,0,1.60,0a0.80,0.80,0,1,0,-1.60,0zM484.34,156.31a0.80,0.80,0,1,0,1.60,0a0.80,0.80,0,1,0,-1.60,0zM486.93,157.87a0.80,0.80,0,1,0,1.60,0a0.80,0.80,0,1,0,-1.60,0zM489.51,159.44a0.80,0.80,0,1,0,1.60,0a0.80,0.80,0,1,0,-1.60,0zM492.09,161.01a0.80,0.80,0,1,0,1.60,0a0.80,0.80,0,1,0,-1.60,0zM494.67,162.59a0.80,0.80,0,1,0,1.60,0a0.80,0.80,0,1,0,-1.60,0zM497.25,164.18a0.80,0.80,0,1,0,1.60,0a0.80,0.80,0,1,0,-1.60,0zM499.83,165.78a0.80,0.80,0,1,0,1.60,0a0.80,0.80,0,1,0,-1.60,0zM502.41,167.38a0.80,0.80,0,1,0,1.60,0a0.80,0.80,0,1,0,-1.60,0zM504.99,168.99a0.80,0.80,0,1,0,1.60,0a0.80,0.80,0,1,0,-1.60,0zM507.57,170.61a0.80,0.80,0,1,0,1.60,0a0.80,0.80,0,1,0,-1.60,0zM510.15,172.23a0.80,0.80,0,1,0,1.60,0a0.80,0.80,0,1,0,-1.60,0zM512.73,173.86a0.80,0.80,0,1,0,1.60,0a0.80,0.80,0,1,0,-1.60,0zM515.31,175.50a0.80,0.80,0,1,0,1.60,0a0.80,0.80,0,1,0,-1.60,0zM517.89,177.14a0.80,0.80,0,1,0,1.60,0a0.80,0.80,0,1,0,-1.60,0zM520.47,178.80a0.80,0.80,0,1,0,1.60,0a0.80,0.80,0,1,0,-1.60,0zM523.05,180.46a0.80,0.80,0,1,0,1.60,0a0.80,0.80,0,1,0,-1.60,0zM525.63,182.12a0.80,0.80,0,1,0,1.60,0a0.80,0.80,0,1,0,-1.60,0zM528.21,183.79a0.80,0.80,0,1,0,1.60,0a0.80,0.80,0,1,0,-1.60,0zM530.79,185.47a0.80,0.80,0,1,0,1.60,0a0.80,0.80,0,1,0,-1.60,0zM533.38,187.16a0.80,0.80,0,1,0,1.60,0a0.80,0.80,0,1,0,-1.60,0zM535.96,188.85a0.80,0.80,0,1,0,1.60,0a0.80,0.80,0,1,0,-1.60,0zM538.54,190.55a0.80,0.80,0,1,0,1.60,0a0.80,0.80,0,1,0,-1.60,0zM541.12,192.26a0.80,0.80,0,1,0,1.60,0a0.80,0.80,0,1,0,-1.60,0zM543.70,193.97a0.80,0.80,0,1,0,1.60,0a0.80,0.80,0,1,0,-1.60,0zM546.28,195.69a0.80,0.80,0,1,0,1.60,0a0.80,0.80,0,1,0,-1.60,0zM548.86,197.41a0.80,0.80,0,1,0,1.60,0a0.80,0.80,0,1,0,-1.60,0zM551.44,199.15a0.80,0.80,0,1,0,1.60,0a0.80,0.80,0,1,0,-1.60,0zM554.02,200.89a0.80,0.80,0,1,0,1.60,0a0.80,0.80,0,1,0,-1.60,0zM556.60,202.63a0.80,0.80,0,1,0,1.60,0a0.80,0.80,0,1,0,-1.60,0zM559.18,204.39a0.80,0.80,0,1,0,1.60,0a0.80,0.80,0,1,0,-1.60,0zM561.76,206.15a0.80,0.80,0,1,0,1.60,0a0.80,0.80,0,1,0,-1.60,0zM564.34,207.91a0.80,0.80,0,1,0,1.60,0a0.80,0.80,0,1,0,-1.60,0zM566.92,209.69a0.80,0.80,0,1,0,1.60,0a0.80,0.80,0,1,0,-1.60,0zM569.50,211.47a0.80,0.80,0,1,0,1.60,0a0.80,0.80,0,1,0,-1.60,0zM572.08,213.25a0.80,0.80,0,1,0,1.60,0a0.80,0.80,0,1,0,-1.60,0zM574.66,215.05a0.80,0.80,0,1,0,1.60,0a0.80,0.80,0,1,0,-1.60,0zM577.24,216.85a0.80,0.80,0,1,0,1.60,0a0.80,0.80,0,1,0,-1.60,0zM579.83,218.65a0.80,0.80,0,1,0,1.60,0a0.80,0.80,0,1,0,-1.60,0zM582.41,220.47a0.80,0.80,0,1,0,1.60,0a0.80,0.80,0,1,0,-1.60,0zM584.99,222.29a0.80,0.80,0,1,0,1.60,0a0.80,0.80,0,1,0,-1.60,0zM587.57,224.11a0.80,0.80,0,1,0,1.60,0a0.80,0.80,0,1,0,-1.60,0zM590.15,225.95a0.80,0.80,0,1,0,1.60,0a0.80,0.80,0,1,0,-1.60,0zM592.73,227.79a0.80,0.80,0,1,0,1.60,0a0.80,0.80,0,1,0,-1.60,0zM595.31,229.63a0.80,0.80,0,1,0,1.60,0a0.80,0.80,0,1,0,-1.60,0zM597.89,231.48a0.80,0.80,0,1,0,1.60,0a0.80,0.80,0,1,0,-1.60,0zM600.47,233.34a0.80,0.80,0,1,0,1.60,0a0.80,0.80,0,1,0,-1.60,0zM603.05,235.21a0.80,0.80,0,1,0,1.60,0a0.80,0.80,0,1,0,-1.60,0zM605.63,237.08a0.80,0.80,0,1,0,1.60,0a0.80,0.80,0,1,0,-1.60,0zM608.21,238.96a0.80,0.80,0,1,0,1.60,0a0.80,0.80,0,1,0,-1.60,0zM610.79,240.85a0.80,0.80,0,1,0,1.60,0a0.80,0.80,0,1,0,-1.60,0zM613.37,242.74a0.80,0.80,0,1,0,1.60,0a0.80,0.80,0,1,0,-1.60,0zM615.95,244.64a0.80,0.80,0,1,0,1.60,0a0.80,0.80,0,1,0,-1.60,0zM618.53,246.54a0.80,0.80,0,1,0,1.60,0a0.80,0.80,0,1,0,-1.60,0zM621.11,248.46a0.80,0.80,0,1,0,1.60,0a0.80,0.80,0,1,0,-1.60,0zM623.69,250.37a0.80,0.80,0,1,0,1.60,0a0.80,0.80,0,1,0,-1.60,0zM626.28,252.30a0.80,0.80,0,1,0,1.60,0a0.80,0.80,0,1,0,-1.60,0zM628.86,254.23a0.80,0.80,0,1,0,1.60,0a0.80,0.80,0,1,0,-1.60,0zM631.44,256.17a0.80,0.80,0,1,0,1.60,0a0.80,0.80,0,1,0,-1.60,0zM634.02,258.11a0.80,0.80,0,1,0,1.60,0a0.80,0.80,0,1,0,-1.60,0zM636.60,260.07a0.80,0.80,0,1,0,1.60,0a0.80,0.80,0,1,0,-1.60,0zM639.18,262.02a0.80,0.80,0,1,0,1.60,0a0.80,0.80,0,1,0,-1.60,0zM641.76,263.99a0.80,0.80,0,1,0,1.60,0a0.80,0.80,0,1,0,-1.60,0zM644.34,265.96a0.80,0.80,0,1,0,1.60,0a0.80,0.80,0,1,0,-1.60,0zM646.92,267.94a0.80,0.80,0,1,0,1.60,0a0.80,0.80,0,1,0,-1.60,0zM649.50,269.92a0.80,0.80,0,1,0,1.60,0a0.80,0.80,0,1,0,-1.60,0zM652.08,271.91a0.80,0.80,0,1,0,1.60,0a0.80,0.80,0,1,0,-1.60,0zM654.66,273.91a0.80,0.80,0,1,0,1.60,0a0.80,0.80,0,1,0,-1.60,0zM657.24,275.91a0.80,0.80,0,1,0,1.60,0a0.80,0.80,0,1,0,-1.60,0zM659.82,277.83a0.80,0.80,0,1,0,1.60,0a0.80,0.80,0,1,0,-1.60,0zM662.40,279.94a0.80,0.80,0,1,0,1.60,0a0.80,0.80,0,1,0,-1.60,0zM664.98,281.96a0.80,0.80,0,1,0,1.60,0a0.80,0.80,0,1,0,-1.60,0zM667.56,283.99a0.80,0.80,0,1,0,1.60,0a0.80,0.80,0,1,0,-1.60,0zM670.14,286.03a0.80,0.80,0,1,0,1.60,0a0.80,0.80,0,1,0,-1.60,0zM672.73,288.07a0.80,0.80,0,1,0,1.60,0a0.80,0.80,0,1,0,-1.60,0zM675.31,290.12a0.80,0.80,0,1,0,1.60,0a0.80,0.80,0,1,0,-1.60,0zM677.89,292.18a0.80,0.80,0,1,0,1.60,0a0.80,0.80,0,1,0,-1.60,0zM680.47,294.24a0.80,0.80,0,1,0,1.60,0a0.80,0.80,0,1,0,-1.60,0zM683.05,296.31a0.80,0.80,0,1,0,1.60,0a0.80,0.80,0,1,0,-1.60,0zM685.63,298.39a0.80,0.80,0,1,0,1.60,0a0.80,0.80,0,1,0,-1.60,0zM688.21,300.47a0.80,0.80,0,1,0,1.60,0a0.80,0.80,0,1,0,-1.60,0zM690.79,302.56a0.80,0.80,0,1,0,1.60,0a0.80,0.80,0,1,0,-1.60,0zM693.37,304.66a0.80,0.80,0,1,0,1.60,0a0.80,0.80,0,1,0,-1.60,0zM695.95,306.76a0.80,0.80,0,1,0,1.60,0a0.80,0.80,0,1,0,-1.60,0zM698.53,308.87a0.80,0.80,0,1,0,1.60,0a0.80,0.80,0,1,0,-1.60,0zM701.11,310.99a0.80,0.80,0,1,0,1.60,0a0.80,0.80,0,1,0,-1.60,0zM703.69,313.11a0.80,0.80,0,1,0,1.60,0a0.80,0.80,0,1,0,-1.60,0zM706.27,315.24a0.80,0.80,0,1,0,1.60,0a0.80,0.80,0,1,0,-1.60,0zM708.85,317.37a0.80,0.80,0,1,0,1.60,0a0.80,0.80,0,1,0,-1.60,0zM711.43,319.52a0.80,0.80,0,1,0,1.60,0a0.80,0.80,0,1,0,-1.60,0zM714.01,321.67a0.80,0.80,0,1,0,1.60,0a0.80,0.80,0,1,0,-1.60,0zM716.59,323.82a0.80,0.80,0,1,0,1.60,0a0.80,0.80,0,1,0,-1.60,0zM719.18,325.99a0.80,0.80,0,1,0,1.60,0a0.80,0.80,0,1,0,-1.60,0zM721.76,328.16a0.80,0.80,0,1,0,1.60,0a0.80,0.80,0,1,0,-1.60,0zM724.34,330.33a0.80,0.80,0,1,0,1.60,0a0.80,0.80,0,1,0,-1.60,0zM726.92,332.52a0.80,0.80,0,1,0,1.60,0a0.80,0.80,0,1,0,-1.60,0zM729.50,334.71a0.80,0.80,0,1,0,1.60,0a0.80,0.80,0,1,0,-1.60,0zM732.08,336.90a0.80,0.80,0,1,0,1.60,0a0.80,0.80,0,1,0,-1.60,0zM734.66,339.11a0.80,0.80,0,1,0,1.60,0a0.80,0.80,0,1,0,-1.60,0zM737.24,341.32a0.80,0.80,0,1,0,1.60,0a0.80,0.80,0,1,0,-1.60,0zM739.82,343.54a0.80,0.80,0,1,0,1.60,0a0.80,0.80,0,1,0,-1.60,0zM742.40,345.76a0.80,0.80,0,1,0,1.60,0a0.80,0.80,0,1,0,-1.60,0zM744.98,347.99a0.80,0.80,0,1,0,1.60,0a0.80,0.80,0,1,0,-1.60,0zM747.56,350.23a0.80,0.80,0,1,0,1.60,0a0.80,0.80,0,1,0,-1.60,0zM750.14,352.47a0.80,0.80,0,1,0,1.60,0a0.80,0.80,0,1,0,-1.60,0zM752.72,354.73a0.80,0.80,0,1,0,1.60,0a0.80,0.80,0,1,0,-1.60,0zM755.30,356.98a0.80,0.80,0,1,0,1.60,0a0.80,0.80,0,1,0,-1.60,0zM757.88,359.25a0.80,0.80,0,1,0,1.60,0a0.80,0.80,0,1,0,-1.60,0zM760.46,361.52a0.80,0.80,0,1,0,1.60,0a0.80,0.80,0,1,0,-1.60,0zM763.04,363.80a0.80,0.80,0,1,0,1.60,0a0.80,0.80,0,1,0,-1.60,0zM765.63,366.09a0.80,0.80,0,1,0,1.60,0a0.80,0.80,0,1,0,-1.60,0zM768.21,368.38a0.80,0.80,0,1,0,1.60,0a0.80,0.80,0,1,0,-1.60,0zM770.79,370.68a0.80,0.80,0,1,0,1.60,0a0.80,0.80,0,1,0,-1.60,0zM773.37,372.99a0.80,0.80,0,1,0,1.60,0a0.80,0.80,0,1,0,-1.60,0zM775.95,375.30a0.80,0.80,0,1,0,1.60,0a0.80,0.80,0,1,0,-1.60,0zM778.53,377.62a0.80,0.80,0,1,0,1.60,0a0.80,0.80,0,1,0,-1.60,0zM781.11,379.95a0.80,0.80,0,1,0,1.60,0a0.80,0.80,0,1,0,-1.60,0zM783.69,382.29a0.80,0.80,0,1,0,1.60,0a0.80,0.80,0,1,0,-1.60,0zM786.27,384.63a0.80,0.80,0,1,0,1.60,0a0.80,0.80,0,1,0,-1.60,0zM788.85,386.98a0.80,0.80,0,1,0,1.60,0a0.80,0.80,0,1,0,-1.60,0zM791.43,389.33a0.80,0.80,0,1,0,1.60,0a0.80,0.80,0,1,0,-1.60,0zM794.01,391.70a0.80,0.80,0,1,0,1.60,0a0.80,0.80,0,1,0,-1.60,0zM796.59,394.07a0.80,0.80,0,1,0,1.60,0a0.80,0.80,0,1,0,-1.60,0zM799.17,396.45a0.80,0.80,0,1,0,1.60,0a0.80,0.80,0,1,0,-1.60,0zM801.75,398.83a0.80,0.80,0,1,0,1.60,0a0.80,0.80,0,1,0,-1.60,0zM804.33,401.22a0.80,0.80,0,1,0,1.60,0a0.80,0.80,0,1,0,-1.60,0zM806.91,403.62a0.80,0.80,0,1,0,1.60,0a0.80,0.80,0,1,0,-1.60,0zM809.49,406.01a0.80,0.80,0,1,0,1.60,0a0.80,0.80,0,1,0,-1.60,0zM812.08,408.44a0.80,0.80,0,1,0,1.60,0a0.80,0.80,0,1,0,-1.60,0zM814.66,410.86a0.80,0.80,0,1,0,1.60,0a0.80,0.80,0,1,0,-1.60,0zM817.24,413.29a0.80,0.80,0,1,0,1.60,0a0.80,0.80,0,1,0,-1.60,0zM819.82,415.72a0.80,0.80,0,1,0,1.60,0a0.80,0.80,0,1,0,-1.60,0zM822.40,418.16a0.80,0.80,0,1,0,1.60,0a0.80,0.80,0,1,0,-1.60,0zM824.98,420.61a0.80,0.80,0,1,0,1.60,0a0.80,0.80,0,1,0,-1.60,0zM827.56,423.07a0.80,0.80,0,1,0,1.60,0a0.80,0.80,0,1,0,-1.60,0zM830.14,425.53a0.80,0.80,0,1,0,1.60,0a0.80,0.80,0,1,0,-1.60,0zM832.72,428.00a0.80,0.80,0,1,0,1.60,0a0.80,0.80,0,1,0,-1.60,0zM835.30,430.48a0.80,0.80,0,1,0,1.60,0a0.80,0.80,0,1,0,-1.60,0zM837.88,432.96a0.80,0.80,0,1,0,1.60,0a0.80,0.80,0,1,0,-1.60,0zM840.46,435.46a0.80,0.80,0,1,0,1.60,0a0.80,0.80,0,1,0,-1.60,0zM843.04,437.96a0.80,0.80,0,1,0,1.60,0a0.80,0.80,0,1,0,-1.60,0zM845.62,440.46a0.80,0.80,0,1,0,1.60,0a0.80,0.80,0,1,0,-1.60,0zM848.20,442.98a0.80,0.80,0,1,0,1.60,0a0.80,0.80,0,1,0,-1.60,0zM850.78,445.50a0.80,0.80,0,1,0,1.60,0a0.80,0.80,0,1,0,-1.60,0z" style="stroke: black; fill: black;"></path><path d="M72.41666666666667,218.88278175310026h10v10h-10zM74.99722222222223,215.23140032506305h10v10h-10zM77.5777777777778,211.5800188970258h10v10h-10zM80.15833333333336,207.92863746898854h10v10h-10zM82.73888888888891,204.27725604095127h10v10h-10zM85.31944444444446,200.62587461291403h10v10h-10zM87.90000000000002,196.97449318487682h10v10h-10zM90.48055555555558,193.32311175683955h10v10h-10zM93.06111111111113,189.6717303288023h10v10h-10zM95.6416666666667,186.02034890076504h10v10h-10zM98.22222222222226,182.36896747272777h10v10h-10zM100.80277777777782,178.7175860446906h10v10h-10zM103.38333333333337,175.06620461665332h10v10h-10zM105.96388888888887,171.4148231886161h10v10h-10zM108.54444444444442,167.76344176057893h10v10h-10zM111.12499999999999,164.11206033254166h10v10h-10zM113.70555555555555,160.4606789045044h10v10h-10zM116.2861111111111,156.80929747646715h10v10h-10zM118.86666666666666,153.15791604842988h10v10h-10zM121.44722222222221,149.50653462039267h10v10h-10zM124.02777777777777,145.85515319235543h10v10h-10zM126.60833333333332,142.20368047978243h10v10h-10zM129.1888888888889,138.5523903362809h10v10h-10zM131.76944444444445,134.90091762370795h10v10h-10zM134.35,131.24953619567071h10v10h-10zM136.93055555555557,127.59806348309775h10v10h-10zM139.51111111111112,123.94677333959618h10v10h-10zM142.0916666666667,120.29520934248761h10v10h-10zM144.67222222222225,116.64391919898598h10v10h-10zM147.2527777777778,112.9924464864131h10v10h-10zM149.83333333333334,109.34088248930442h10v10h-10zM152.41388888888892,105.6890446385887h10v10h-10zM154.99444444444447,102.03821091776564h10v10h-10zM157.57500000000002,98.38591664437145h10v10h-10zM160.1555555555556,94.73462650086982h10v10h-10zM162.73611111111114,91.08114552851148h10v10h-10zM165.31666666666672,87.43012923861701h10v10h-10zM167.89722222222224,83.77783496522277h10v10h-10zM170.47777777777776,80.12581454543563h10v10h-10zM173.0583333333333,76.47406797925558h10v10h-10zM175.63888888888886,72.7033776630573h10v10h-10zM178.21944444444443,69.1263931316162h10v10h-10zM180.79999999999998,65.51818928896557h10v10h-10zM183.38055555555556,61.82262614564901h10v10h-10zM185.9611111111111,58.15636533829255h10v10h-10zM188.54166666666666,54.39014796434357h10v10h-10zM191.12222222222223,50.78942945362035h10v10h-10zM193.70277777777775,47.08628969384065h10v10h-10zM196.28333333333333,43.39748160616599h10v10h-10zM198.86388888888888,39.36389182714893h10v10h-10zM201.44444444444446,36.280482780243005h10v10h-10zM204.025,35.499999999999964h10v10h-10zM206.60555555555558,36.060121911060875h10v10h-10zM209.18611111111113,35.85053261709149h10v10h-10zM211.76666666666668,36.59112405523322h10v10h-10zM214.34722222222223,37.26325209159917h10v10h-10zM216.92777777777778,37.25220666277933h10v10h-10zM219.50833333333333,38.16368275175318h10v10h-10zM222.08888888888887,38.532928698663376h10v10h-10zM224.66944444444445,39.157862630072025h10v10h-10zM227.25,39.49205531527305h10v10h-10zM229.83055555555555,39.86988200853923h10v10h-10zM232.4111111111111,40.73443784616276h10v10h-10zM234.9916666666667,41.31920658186289h10v10h-10zM237.57222222222225,41.60876112910626h10v10h-10zM240.15277777777777,42.87076983517169h10v10h-10zM242.73333333333332,42.8943212453825h10v10h-10zM245.31388888888893,44.469892331580574h10v10h-10zM247.89444444444447,44.59805581970469h10v10h-10zM250.47499999999997,44.50029008196897h10v10h-10zM253.05555555555554,45.506519519000314h10v10h-10zM255.63611111111112,46.06846712077531h10v10h-10zM258.21666666666664,47.70355572425035h10v10h-10zM260.7972222222222,48.146742145078406h10v10h-10zM263.3777777777778,49.00992871466639h10v10h-10zM265.95833333333337,49.99863152084315h10v10h-10zM268.5388888888889,49.761017874413646h10v10h-10zM271.11944444444447,50.800292313368715h10v10h-10zM273.7,50.8794360058214h10v10h-10zM276.28055555555557,52.56966046885983h10v10h-10zM278.86111111111114,53.83942836045978h10v10h-10zM281.44166666666666,55.02731402353603h10v10h-10zM284.02222222222224,55.41645999922915h10v10h-10zM286.6027777777777,56.95131818250455h10v10h-10zM289.1833333333334,56.86204190658903h10v10h-10zM291.76388888888886,57.51290064613666h10v10h-10zM294.3444444444445,59.45424886688835h10v10h-10zM296.92499999999995,60.62433404550292h10v10h-10zM299.5055555555556,59.14452043725511h10v10h-10zM302.0861111111111,62.11336739185653h10v10h-10zM304.6666666666667,63.31558472703777h10v10h-10zM307.2472222222222,64.32829536610387h10v10h-10zM309.82777777777784,64.88759571634348h10v10h-10zM312.40833333333336,66.71602496643315h10v10h-10zM314.9888888888889,65.87164301119958h10v10h-10zM317.56944444444446,67.98935295492547h10v10h-10zM320.15,66.62145418744701h10v10h-10zM322.73055555555555,70.27438745259114h10v10h-10zM325.31111111111113,71.58888476668459h10v10h-10zM327.89166666666665,72.21728751044982h10v10h-10zM330.47222222222223,70.2696406567347h10v10h-10zM333.05277777777775,75.12816878488108h10v10h-10zM335.6333333333334,75.61453279109566h10v10h-10zM338.2138888888889,77.28449208720849h10v10h-10zM340.7944444444445,78.28433160674078h10v10h-10zM343.375,79.23907656563678h10v10h-10zM345.9555555555555,80.62276755779146h10v10h-10zM348.53611111111115,77.38828260430044h10v10h-10zM351.1166666666667,82.78338123329688h10v10h-10zM353.69722222222225,83.94817190884068h10v10h-10zM356.2777777777777,85.15194108112891h10v10h-10zM358.8583333333334,86.46862922407911h10v10h-10zM361.43888888888887,87.67486307883131h10v10h-10zM364.0194444444445,88.87771940576245h10v10h-10zM366.59999999999997,89.97139942799524h10v10h-10zM369.18055555555554,91.33327341611741h10v10h-10zM371.7611111111111,92.55338252029614h10v10h-10zM374.34166666666664,93.7875494429727h10v10h-10zM376.9222222222222,94.99953422347397h10v10h-10zM379.50277777777774,96.27094523671653h10v10h-10zM382.0833333333333,97.55623149938566h10v10h-10zM384.6638888888889,98.81960947348654h10v10h-10zM387.24444444444447,100.10097050112053h10v10h-10zM389.825,101.33632412276118h10v10h-10zM392.4055555555555,102.65036501417616h10v10h-10zM394.98611111111114,103.98038069933868h10v10h-10zM397.56666666666666,105.28647983614762h10v10h-10zM400.14722222222224,106.60663679145445h10v10h-10zM402.72777777777776,107.91063638394226h10v10h-10zM405.30833333333334,109.26356448756572h10v10h-10zM407.8888888888889,110.59111549026444h10v10h-10zM410.4694444444445,111.9614789402068h10v10h-10zM413.05,113.31897127061535h10v10h-10zM415.63055555555553,114.68568333912965h10v10h-10zM418.21111111111117,116.05595550453633h10v10h-10zM420.7916666666667,117.4351735544417h10v10h-10zM423.37222222222226,118.82954483727339h10v10h-10zM425.9527777777777,120.22738493246177h10v10h-10zM428.53333333333336,121.63033696164943h10v10h-10zM431.1138888888889,123.04479084233529h10v10h-10zM433.69444444444446,124.46609106319886h10v10h-10zM436.275,125.8831921954201h10v10h-10zM438.8555555555555,127.32804382649442h10v10h-10zM441.4361111111111,128.76787480810523h10v10h-10zM444.01666666666665,130.22358929892795h10v10h-10zM446.59722222222223,131.68185975675033h10v10h-10zM449.17777777777775,133.14305131971514h10v10h-10zM451.7583333333333,134.62067409910608h10v10h-10zM454.3388888888889,136.10130926817524h10v10h-10zM456.9194444444445,137.58924720010035h10v10h-10zM459.5,139.08448789488165h10v10h-10zM462.0805555555555,140.5873052061261h10v10h-10zM464.6611111111111,142.09724271115516h10v10h-10zM467.2416666666666,143.61439169450466h10v10h-10zM469.8222222222222,145.13911729431726h10v10h-10zM472.4027777777778,146.67087180337887h10v10h-10zM474.9833333333334,148.20983779076087h10v10h-10zM477.5638888888889,149.7556501183205h10v10h-10zM480.1444444444445,151.3090390623432h10v10h-10zM482.725,152.8698220537577h10v10h-10zM485.30555555555554,154.43745138534985h10v10h-10zM487.8861111111111,156.01220091072662h10v10h-10zM490.46666666666664,157.59334035360243h10v10h-10zM493.0472222222222,159.18287797376277h10v10h-10zM495.62777777777774,160.7787142268864h10v10h-10zM498.2083333333333,162.38157938925906h10v10h-10zM500.78888888888883,163.99156474541638h10v10h-10zM503.3694444444444,165.60839644175127h10v10h-10zM505.94999999999993,167.23234833187084h10v10h-10zM508.53055555555557,168.8630552776323h10v10h-10zM511.1111111111111,170.5007911326427h10v10h-10zM513.6916666666667,172.14455176700932h10v10h-10zM516.2722222222222,173.79707571680328h10v10h-10zM518.8527777777779,175.45544187688208h10v10h-10zM521.4333333333333,177.1207456616742h10v10h-10zM524.0138888888889,178.79271321757247h10v10h-10zM526.5944444444444,180.47034041468422h10v10h-10zM529.1750000000001,182.1576437725802h10v10h-10zM531.7555555555556,183.8502416335469h10v10h-10zM534.336111111111,185.54950326561965h10v10h-10zM536.9166666666667,187.25579380694143h10v10h-10zM539.4972222222221,188.96874811936945h10v10h-10zM542.0777777777778,190.68845748743922h10v10h-10zM544.6583333333333,192.4148306266153h10v10h-10zM547.2388888888889,194.14750239875468h10v10h-10zM549.8194444444445,195.88784207189298h10v10h-10zM552.4,197.6343890934589h10v10h-10zM554.9805555555555,199.38723474798815h10v10h-10zM557.5611111111111,201.14783958805197h10v10h-10zM560.1416666666667,202.91446920747214h10v10h-10zM562.7222222222223,204.68776259799836h10v10h-10zM565.3027777777777,206.46781104416658h10v10h-10zM567.8833333333333,208.25443197690512h10v10h-10zM570.463888888889,210.04780796528567h10v10h-10zM573.0444444444445,211.8477564402366h10v10h-10zM575.625,213.65427740175807h10v10h-10zM578.2055555555556,215.46755341892137h10v10h-10zM580.786111111111,217.28731063811944h10v10h-10zM583.3666666666668,219.11373162842366h10v10h-10zM585.9472222222222,220.94672510529836h10v10h-10zM588.5277777777777,222.78638235327918h10v10h-10zM591.1083333333333,224.63261208783052h10v10h-10zM593.688888888889,226.48395375638108h10v10h-10zM596.2694444444445,228.34424130943037h10v10h-10zM598.8499999999999,230.21073621090727h10v10h-10zM601.4305555555555,232.08316460720482h10v10h-10zM604.0111111111112,233.9623480591442h10v10h-10zM606.5916666666667,235.8481039976541h10v10h-10zM609.1722222222222,237.74043242273436h10v10h-10zM611.7527777777777,239.63915076531373h10v10h-10zM614.3333333333333,241.54453287899926h10v10h-10zM616.913888888889,243.45648747925526h10v10h-10zM619.4944444444444,245.37492328154605h10v10h-10zM622.075,247.29974900133587h10v10h-10zM624.6555555555555,249.23169491491032h10v10h-10zM627.2361111111111,251.16975689237682h10v10h-10zM629.8166666666667,253.11457392548516h10v10h-10zM632.3972222222222,255.06587216062826h10v10h-10zM634.9777777777778,257.0234690287347h10v10h-10zM637.5583333333334,258.98800352155445h10v10h-10zM640.1388888888889,260.95774123290914h10v10h-10zM642.7194444444444,262.9361509751554h10v10h-10zM645.3,264.92049421222225h10v10h-10zM647.8805555555556,266.9111360822524h10v10h-10zM650.4611111111111,268.9083504388531h10v10h-10zM653.0416666666666,270.9120459974886h10v10h-10zM655.6222222222223,272.8271955564941h10v10h-10zM658.2027777777778,274.9392458590066h10v10h-10zM660.7833333333333,276.9628414464248h10v10h-10zM663.3638888888889,278.99273566680637h10v10h-10zM665.9444444444445,281.029658796437h10v10h-10zM668.5250000000001,283.0729718435667h10v10h-10zM671.1055555555555,285.122766092731h10v10h-10zM673.686111111111,287.17922411300157h10v10h-10zM676.2666666666668,289.2423459043784h10v10h-10zM678.8472222222222,291.3121314668613h10v10h-10zM681.4277777777778,293.3883069468433h10v10h-10zM684.0083333333332,295.4714200515385h10v10h-10zM686.588888888889,297.5608317891971h10v10h-10zM689.1694444444445,299.657181151569h10v10h-10zM691.75,301.7601030005113h10v10h-10zM694.3305555555555,303.8695060514885h10v10h-10zM696.911111111111,305.98584672717885h10v10h-10zM699.4916666666667,308.1087598894397h10v10h-10zM702.0722222222223,310.23824553827103h10v10h-10zM704.6527777777777,312.37457752727994h10v10h-10zM707.2333333333332,314.51702558018076h10v10h-10zM709.8138888888889,316.6672328186162h10v10h-10zM712.3944444444445,318.823738690015h10v10h-10zM714.975,320.98690833252h10v10h-10zM717.5555555555554,323.1567417461311h10v10h-10zM720.1361111111111,325.3332389308484h10v10h-10zM722.7166666666668,327.5167650248146h10v10h-10zM725.2972222222222,329.7064071826729h10v10h-10zM727.8777777777777,331.90389981060144h10v10h-10zM730.4583333333333,334.10769107149326h10v10h-10zM733.038888888889,336.3183286725627h10v10h-10zM735.6194444444445,338.53572132927405h10v10h-10zM738.1999999999999,340.75996032616297h10v10h-10zM740.7805555555556,342.99095437869374h10v10h-10zM743.3611111111111,345.2289773404734h10v10h-10zM745.9416666666667,347.473481504288h10v10h-10zM748.5222222222222,349.72537971549417h10v10h-10zM751.1027777777776,351.9840329823423h10v10h-10zM753.6833333333333,354.24752432958263h10v10h-10zM756.2638888888889,356.5218785365713h10v10h-10zM758.8444444444444,358.80107082395216h10v10h-10zM761.425,361.0869268824392h10v10h-10zM764.0055555555555,363.38072469553214h10v10h-10zM766.5861111111111,365.68100371066h10v10h-10zM769.1666666666666,367.98812906596527h10v10h-10zM771.7472222222221,370.3022833305195h10v10h-10zM774.3277777777778,372.6221885208231h10v10h-10zM776.9083333333333,374.9494877585183h10v10h-10zM779.4888888888889,377.2866457260692h10v10h-10zM782.0694444444443,379.62645094515545h10v10h-10zM784.65,381.9757497559546h10v10h-10zM787.2305555555556,384.33372059764537h10v10h-10zM789.811111111111,386.69762493415675h10v10h-10zM792.3916666666667,389.06819304177424h10v10h-10zM794.9722222222223,391.4453336359621h10v10h-10zM797.5527777777778,393.8307811228989h10v10h-10zM800.1333333333333,396.2222533891919h10v10h-10zM802.7138888888888,398.6214848410195h10v10h-10zM805.2944444444445,401.0110401320627h10v10h-10zM807.8750000000001,403.44021291160016h10v10h-10zM810.4555555555555,405.8590705386035h10v10h-10zM813.036111111111,408.2885171717481h10v10h-10zM815.6166666666666,410.72316702342766h10v10h-10zM818.1972222222222,413.1648457843561h10v10h-10zM820.7777777777778,415.6110887720696h10v10h-10zM823.3583333333332,418.0701115947812h10v10h-10zM825.9388888888889,420.5331509370638h10v10h-10zM828.5194444444444,423.0037668958095h10v10h-10zM831.1,425.48186818648264h10v10h-10zM833.6805555555555,427.9604258998344h10v10h-10zM836.2611111111111,430.45915749557594h10v10h-10zM838.8416666666667,432.95861936760315h10v10h-10zM841.4222222222223,435.4649275798079h10v10h-10zM844.0027777777777,437.97881240847585h10v10h-10zM846.5833333333333,440.49999999999994h10v10h-10z" style="fill: none; pointer-events: visiblefill;"></path></g></svg><g><g transform="translate(0,486)"><path d="M0,0h929M0,-8V0M26,-8V0M52,-8V0M77,-15V0M103,-8V0M129,-8V0M155,-8V0M181,-8V0M206,-15V0M232,-8V0M258,-8V0M284,-8V0M310,-8V0M335,-15V0M361,-8V0M387,-8V0M413,-8V0M439,-8V0M465,-15V0M490,-8V0M516,-8V0M542,-8V0M568,-8V0M594,-15V0M619,-8V0M645,-8V0M671,-8V0M697,-8V0M723,-15V0M748,-8V0M774,-8V0M800,-8V0M826,-8V0M852,-15V0M877,-8V0M903,-8V0M929,-8V0" style="stroke: black; stroke-width: 1;"></path><g font-family="Arial" font-size="21" xml:space="preserve" fill="black" text-anchor="middle"><text dy=".8em" transform="translate(77,4)">-1.5</text><text dy=".8em" transform="translate(206,4)">-1</text><text dy=".8em" transform="translate(335,4)">-0.5</text><text dy=".8em" transform="translate(465,4)">0</text><text dy=".8em" transform="translate(594,4)">0.5</text><text dy=".8em" transform="translate(723,4)">1</text><text dy=".8em" transform="translate(852,4)">1.5</text></g><rect x="0" y="0" width="929" height="24" style="opacity: 0; cursor: crosshair;"></rect><g font-family="Arial" font-size="21" xml:space="preserve" transform="translate(929,34)" style="cursor: move;"><text fill="black" text-anchor="end" dominant-baseline="middle">Delta</text></g></g><g><path d="M0,0v486M14,479H0M14,470H0M14,461H0M28,452H0M14,443H0M14,434H0M14,425H0M14,416H0M28,406H0M14,397H0M14,388H0M14,379H0M14,370H0M28,361H0M14,352H0M14,343H0M14,333H0M14,324H0M28,315H0M14,306H0M14,297H0M14,288H0M14,279H0M28,270H0M14,260H0M14,251H0M14,242H0M14,233H0M28,224H0M14,215H0M14,206H0M14,196H0M14,187H0M28,178H0M14,169H0M14,160H0M14,151H0M14,142H0M28,133H0M14,123H0M14,114H0M14,105H0M14,96H0M28,87H0M14,78H0M14,69H0M14,60H0M14,50H0M28,41H0M14,32H0M14,23H0M14,14H0M14,5H0" style="stroke: black; stroke-width: 1;"></path><g font-family="Arial" font-size="21" xml:space="preserve" fill="black" text-anchor="end"><text dominant-baseline="middle" transform="translate(-4,452)">-8.5</text><text dominant-baseline="middle" transform="translate(-4,406)">-8</text><text dominant-baseline="middle" transform="translate(-4,361)">-7.5</text><text dominant-baseline="middle" transform="translate(-4,315)">-7</text><text dominant-baseline="middle" transform="translate(-4,270)">-6.5</text><text dominant-baseline="middle" transform="translate(-4,224)">-6</text><text dominant-baseline="middle" transform="translate(-4,178)">-5.5</text><text dominant-baseline="middle" transform="translate(-4,133)">-5</text><text dominant-baseline="middle" transform="translate(-4,87)">-4.5</text><text dominant-baseline="middle" transform="translate(-4,41)">-4</text></g><rect x="-39" y="0" width="39" height="486" style="opacity: 0; cursor: crosshair;"></rect><g font-family="Arial" font-size="21" xml:space="preserve" transform="translate(-64)" style="cursor: move;"><text fill="black" text-anchor="end" dominant-baseline="middle" transform="rotate(270)">Total Ground Energy</text></g></g><path d="M77,0v486M206,0v486M335,0v486M465,0v486M594,0v486M723,0v486M852,0v486" style="stroke: black; stroke-width: 1; stroke-dasharray: 1, 2;"></path><path d="M0,452h929M0,406h929M0,361h929M0,315h929M0,270h929M0,224h929M0,178h929M0,133h929M0,87h929M0,41h929" style="stroke: black; stroke-width: 1; stroke-dasharray: 1, 2;"></path></g><path d="M2,2h15v-5h-20v20h5Z" style="opacity: 0; cursor: nw-resize;"></path><path d="M927,2h-15v-5h20v20h-5 Z" style="opacity: 0; cursor: ne-resize;"></path><path d="M2,484h15v5h-20v-20h5Z" style="opacity: 0; cursor: sw-resize;"></path><path d="M927,484h-15v5h20v-20h-5Z" style="opacity: 0; cursor: se-resize;"></path><path d="M-3,18h5v450h-5Z" style="opacity: 0; cursor: w-resize;"></path><path d="M932,18h-5v450h5Z" style="opacity: 0; cursor: e-resize;"></path><path d="M18,-3v5h893v-5Z" style="opacity: 0; cursor: n-resize;"></path><path d="M18,489v-5h893v5Z" style="opacity: 0; cursor: s-resize;"></path></g><g transform="translate(116,3)" font-family="Arial" font-size="30" xml:space="preserve" style="cursor: move;"><path d="M0,0H929V40H0Z" style="fill: none; pointer-events: visiblefill;"></path><text fill="black" text-anchor="middle" dy=".8em" transform="translate(465)">Lanczos alogrithm, num = 16, error = 1e-13</text><path d="M2,2h15v-5h-20v20h5Z" style="opacity: 0; cursor: nw-resize;"></path><path d="M927,2h-15v-5h20v20h-5 Z" style="opacity: 0; cursor: ne-resize;"></path><path d="M2,38h15v5h-20v-20h5Z" style="opacity: 0; cursor: sw-resize;"></path><path d="M927,38h-15v5h20v-20h-5Z" style="opacity: 0; cursor: se-resize;"></path><path d="M-3,18h5v4h-5Z" style="opacity: 0; cursor: w-resize;"></path><path d="M932,18h-5v4h5Z" style="opacity: 0; cursor: e-resize;"></path><path d="M18,-3v5h893v-5Z" style="opacity: 0; cursor: n-resize;"></path><path d="M18,43v-5h893v5Z" style="opacity: 0; cursor: s-resize;"></path></g></g></svg>