<svg width="453" height="607" xmlns="http://www.w3.org/2000/svg"><defs><pattern id="pat_3001_1" patternUnits="userSpaceOnUse" width="2" height="2"><path d="M0,0h1v1h-1zM1,1h1v1h-1z" style="fill: black;"></path></pattern><pattern id="pat_3002_1" patternUnits="userSpaceOnUse" width="4" height="2"><path d="M1,0h1v1h-1zM3,1h1v1h-1z" style="fill: black;"></path></pattern><pattern id="pat_3003_1" patternUnits="userSpaceOnUse" width="4" height="4"><path d="M2,1h1v1h-1zM0,3h1v1h-1z" style="fill: black;"></path></pattern><pattern id="pat_3004_1" patternUnits="userSpaceOnUse" width="8" height="8"><path d="M8,0L0,8" style="stroke: black; stroke-width: 1;"></path></pattern><pattern id="pat_3005_1" patternUnits="userSpaceOnUse" width="8" height="8"><path d="M0,0L8,8" style="stroke: black; stroke-width: 1;"></path></pattern><pattern id="pat_3006_1" patternUnits="userSpaceOnUse" width="4" height="4"><path d="M1,0v4" style="stroke: black; stroke-width: 1;"></path></pattern><pattern id="pat_3007_1" patternUnits="userSpaceOnUse" width="4" height="4"><path d="M0,1h4" style="stroke: black; stroke-width: 1;"></path></pattern><pattern id="pat_3010_1" patternUnits="userSpaceOnUse" width="10" height="10"><path d="M0,2h10M0,7h10M2,0v2M7,2v5M2,7v3" style="stroke: black; stroke-width: 1;"></path></pattern><pattern id="pat_3021_1" patternUnits="userSpaceOnUse" width="8" height="8"><path d="M8,2h-2v4h-4v2M2,0v2h-2" style="stroke: black; stroke-width: 1; fill: none;"></path></pattern><pattern id="pat_3022_1" patternUnits="userSpaceOnUse" width="8" height="8"><path d="M0,2h2v4h4v2M6,0v2h2" style="stroke: black; stroke-width: 1; fill: none;"></path></pattern></defs><title>16_13.root/c1;1</title><path d="M0,0H453V607H0Z" style="pointer-events: visiblefill; fill: white;"></path><g><g transform="translate(45,61)"><title></title><path d="M0,0H362V486H0Z" style="fill: white; stroke: black; stroke-width: 1; pointer-events: visiblefill; cursor: default;"></path><svg x="0" y="0" overflow="hidden" width="362" height="486" viewBox="0 0 362 486" style="pointer-events: visiblefill; cursor: default;"><g style="cursor: move;"><path d="M30,224l1,-4l1,-3l1,-4l1,-4l1,-3l1,-4l1,-4l1,-3l1,-4l1,-4l1,-3l1,-4l1,-4l1,-3l1,-4l1,-4l1,-3l1,-4l1,-3l1,-4l1,-4l1,-3l1,-4l1,-4l1,-3l1,-4l1,-4l1,-3l1,-4l1,-4l1,-3l1,-4l1,-4l1,-3l1,-4l1,-4l1,-3l1,-4l1,-4l1,-3l1,-4l1,-3l1,-4l1,-4l1,-4l1,-3l1,-4l1,-4l1,-4l1,-3l1,-1l1,1h1l1,1h2l1,1l1,1h3l1,1l1,1h1l1,1l1,1h1l1,1l1,1h1l1,1h1l1,2h1l1,1l1,1h1l1,1h1l1,2l1,1l1,1h1l1,2h1l1,1l1,1l1,2l1,-2l1,3l1,1l1,1l1,1l1,2l1,-1l1,2l1,-1l1,3l1,2h1l1,-2l1,5l1,1l1,1l1,1l1,1l1,2l1,-4l1,6l1,1l1,1l1,1l1,2l1,1l1,1l1,1l1,2l1,1l1,1l1,1l1,2l1,1l1,1l1,1l1,2l1,1l1,1l1,2l1,1l1,1l1,2l1,1l1,1l1,2l1,1l1,1l1,2l1,1l1,2l1,1l1,1l1,2l1,1l1,2l1,1l1,2l1,1l1,2l1,1l1,2l1,1l1,2l1,1l1,2l1,1l1,2l1,1l1,2l1,1l1,2l1,1l1,2l1,2l1,1l1,2l1,1l1,2l1,2l1,1l1,2l1,2l1,1l1,2l1,1l1,2l1,2l1,1l1,2l1,2l1,2l1,1l1,2l1,2l1,1l1,2l1,2l1,2l1,1l1,2l1,2l1,2l1,1l1,2l1,2l1,2l1,2l1,1l1,2l1,2l1,2l1,2l1,2l1,1l1,2l1,2l1,2l1,2l1,2l1,2l1,2l1,2l1,1l1,2l1,2l1,2l1,2l1,2l1,2l1,2l1,2l1,2l1,2l1,2l1,2l1,2l1,2l1,2l1,2l1,2l1,2l1,2l1,2l1,2l1,2l1,2l1,2l1,2l1,2l1,3l1,2l2,2l1,2l1,2l1,2l1,2l1,2l1,3l1,2l1,2l1,2l1,2l1,2l1,3l1,2l1,2l1,2l1,2l1,3l1,2l1,2l1,2l1,2l1,3l1,2l1,2l1,3l1,2l1,2l1,2l1,3l1,2l1,2l1,3l1,2l1,2l1,3l1,2l1,2l1,3l1,2l1,2l1,3l1,2l1,3l1,2l1,2l1,3l1,2l1,3l1,2l1,3l1,2l1,3l1,2l1,2l1,3l1,2l1,3l1,2l1,3l1,2" style="stroke: black; stroke-width: 1; fill: none;"></path><path d="M29.37,223.88a0.80,0.80,0,1,0,1.60,0a0.80,0.80,0,1,0,-1.60,0zM30.37,220.23a0.80,0.80,0,1,0,1.60,0a0.80,0.80,0,1,0,-1.60,0zM31.38,216.58a0.80,0.80,0,1,0,1.60,0a0.80,0.80,0,1,0,-1.60,0zM32.38,212.93a0.80,0.80,0,1,0,1.60,0a0.80,0.80,0,1,0,-1.60,0zM33.39,209.28a0.80,0.80,0,1,0,1.60,0a0.80,0.80,0,1,0,-1.60,0zM34.39,205.63a0.80,0.80,0,1,0,1.60,0a0.80,0.80,0,1,0,-1.60,0zM35.40,201.97a0.80,0.80,0,1,0,1.60,0a0.80,0.80,0,1,0,-1.60,0zM36.41,198.32a0.80,0.80,0,1,0,1.60,0a0.80,0.80,0,1,0,-1.60,0zM37.41,194.67a0.80,0.80,0,1,0,1.60,0a0.80,0.80,0,1,0,-1.60,0zM38.42,191.02a0.80,0.80,0,1,0,1.60,0a0.80,0.80,0,1,0,-1.60,0zM39.42,187.37a0.80,0.80,0,1,0,1.60,0a0.80,0.80,0,1,0,-1.60,0zM40.43,183.72a0.80,0.80,0,1,0,1.60,0a0.80,0.80,0,1,0,-1.60,0zM41.43,180.07a0.80,0.80,0,1,0,1.60,0a0.80,0.80,0,1,0,-1.60,0zM42.44,176.41a0.80,0.80,0,1,0,1.60,0a0.80,0.80,0,1,0,-1.60,0zM43.44,172.76a0.80,0.80,0,1,0,1.60,0a0.80,0.80,0,1,0,-1.60,0zM44.45,169.11a0.80,0.80,0,1,0,1.60,0a0.80,0.80,0,1,0,-1.60,0zM45.46,165.46a0.80,0.80,0,1,0,1.60,0a0.80,0.80,0,1,0,-1.60,0zM46.46,161.81a0.80,0.80,0,1,0,1.60,0a0.80,0.80,0,1,0,-1.60,0zM47.47,158.16a0.80,0.80,0,1,0,1.60,0a0.80,0.80,0,1,0,-1.60,0zM48.47,154.51a0.80,0.80,0,1,0,1.60,0a0.80,0.80,0,1,0,-1.60,0zM49.48,150.86a0.80,0.80,0,1,0,1.60,0a0.80,0.80,0,1,0,-1.60,0zM50.48,147.20a0.80,0.80,0,1,0,1.60,0a0.80,0.80,0,1,0,-1.60,0zM51.49,143.55a0.80,0.80,0,1,0,1.60,0a0.80,0.80,0,1,0,-1.60,0zM52.49,139.90a0.80,0.80,0,1,0,1.60,0a0.80,0.80,0,1,0,-1.60,0zM53.50,136.25a0.80,0.80,0,1,0,1.60,0a0.80,0.80,0,1,0,-1.60,0zM54.51,132.60a0.80,0.80,0,1,0,1.60,0a0.80,0.80,0,1,0,-1.60,0zM55.51,128.95a0.80,0.80,0,1,0,1.60,0a0.80,0.80,0,1,0,-1.60,0zM56.52,125.30a0.80,0.80,0,1,0,1.60,0a0.80,0.80,0,1,0,-1.60,0zM57.52,121.64a0.80,0.80,0,1,0,1.60,0a0.80,0.80,0,1,0,-1.60,0zM58.53,117.99a0.80,0.80,0,1,0,1.60,0a0.80,0.80,0,1,0,-1.60,0zM59.53,114.34a0.80,0.80,0,1,0,1.60,0a0.80,0.80,0,1,0,-1.60,0zM60.54,110.69a0.80,0.80,0,1,0,1.60,0a0.80,0.80,0,1,0,-1.60,0zM61.54,107.04a0.80,0.80,0,1,0,1.60,0a0.80,0.80,0,1,0,-1.60,0zM62.55,103.39a0.80,0.80,0,1,0,1.60,0a0.80,0.80,0,1,0,-1.60,0zM63.56,99.73a0.80,0.80,0,1,0,1.60,0a0.80,0.80,0,1,0,-1.60,0zM64.56,96.08a0.80,0.80,0,1,0,1.60,0a0.80,0.80,0,1,0,-1.60,0zM65.57,92.43a0.80,0.80,0,1,0,1.60,0a0.80,0.80,0,1,0,-1.60,0zM66.57,88.78a0.80,0.80,0,1,0,1.60,0a0.80,0.80,0,1,0,-1.60,0zM67.58,85.13a0.80,0.80,0,1,0,1.60,0a0.80,0.80,0,1,0,-1.60,0zM68.58,81.47a0.80,0.80,0,1,0,1.60,0a0.80,0.80,0,1,0,-1.60,0zM69.59,77.70a0.80,0.80,0,1,0,1.60,0a0.80,0.80,0,1,0,-1.60,0zM70.59,74.13a0.80,0.80,0,1,0,1.60,0a0.80,0.80,0,1,0,-1.60,0zM71.60,70.52a0.80,0.80,0,1,0,1.60,0a0.80,0.80,0,1,0,-1.60,0zM72.61,66.82a0.80,0.80,0,1,0,1.60,0a0.80,0.80,0,1,0,-1.60,0zM73.61,63.16a0.80,0.80,0,1,0,1.60,0a0.80,0.80,0,1,0,-1.60,0zM74.62,59.39a0.80,0.80,0,1,0,1.60,0a0.80,0.80,0,1,0,-1.60,0zM75.62,55.79a0.80,0.80,0,1,0,1.60,0a0.80,0.80,0,1,0,-1.60,0zM76.63,52.09a0.80,0.80,0,1,0,1.60,0a0.80,0.80,0,1,0,-1.60,0zM77.63,48.40a0.80,0.80,0,1,0,1.60,0a0.80,0.80,0,1,0,-1.60,0zM78.64,44.36a0.80,0.80,0,1,0,1.60,0a0.80,0.80,0,1,0,-1.60,0zM79.64,41.28a0.80,0.80,0,1,0,1.60,0a0.80,0.80,0,1,0,-1.60,0zM80.65,40.50a0.80,0.80,0,1,0,1.60,0a0.80,0.80,0,1,0,-1.60,0zM81.66,41.06a0.80,0.80,0,1,0,1.60,0a0.80,0.80,0,1,0,-1.60,0zM82.66,40.85a0.80,0.80,0,1,0,1.60,0a0.80,0.80,0,1,0,-1.60,0zM83.67,41.59a0.80,0.80,0,1,0,1.60,0a0.80,0.80,0,1,0,-1.60,0zM84.67,42.26a0.80,0.80,0,1,0,1.60,0a0.80,0.80,0,1,0,-1.60,0zM85.68,42.25a0.80,0.80,0,1,0,1.60,0a0.80,0.80,0,1,0,-1.60,0zM86.68,43.16a0.80,0.80,0,1,0,1.60,0a0.80,0.80,0,1,0,-1.60,0zM87.69,43.53a0.80,0.80,0,1,0,1.60,0a0.80,0.80,0,1,0,-1.60,0zM88.69,44.16a0.80,0.80,0,1,0,1.60,0a0.80,0.80,0,1,0,-1.60,0zM89.70,44.49a0.80,0.80,0,1,0,1.60,0a0.80,0.80,0,1,0,-1.60,0zM90.71,44.87a0.80,0.80,0,1,0,1.60,0a0.80,0.80,0,1,0,-1.60,0zM91.71,45.73a0.80,0.80,0,1,0,1.60,0a0.80,0.80,0,1,0,-1.60,0zM92.72,46.32a0.80,0.80,0,1,0,1.60,0a0.80,0.80,0,1,0,-1.60,0zM93.72,46.61a0.80,0.80,0,1,0,1.60,0a0.80,0.80,0,1,0,-1.60,0zM94.73,47.87a0.80,0.80,0,1,0,1.60,0a0.80,0.80,0,1,0,-1.60,0zM95.73,47.89a0.80,0.80,0,1,0,1.60,0a0.80,0.80,0,1,0,-1.60,0zM96.74,49.47a0.80,0.80,0,1,0,1.60,0a0.80,0.80,0,1,0,-1.60,0zM97.74,49.60a0.80,0.80,0,1,0,1.60,0a0.80,0.80,0,1,0,-1.60,0zM98.75,49.50a0.80,0.80,0,1,0,1.60,0a0.80,0.80,0,1,0,-1.60,0zM99.76,50.51a0.80,0.80,0,1,0,1.60,0a0.80,0.80,0,1,0,-1.60,0zM100.76,51.07a0.80,0.80,0,1,0,1.60,0a0.80,0.80,0,1,0,-1.60,0zM101.77,52.70a0.80,0.80,0,1,0,1.60,0a0.80,0.80,0,1,0,-1.60,0zM102.77,53.15a0.80,0.80,0,1,0,1.60,0a0.80,0.80,0,1,0,-1.60,0zM103.78,54.01a0.80,0.80,0,1,0,1.60,0a0.80,0.80,0,1,0,-1.60,0zM104.78,55.00a0.80,0.80,0,1,0,1.60,0a0.80,0.80,0,1,0,-1.60,0zM105.79,54.76a0.80,0.80,0,1,0,1.60,0a0.80,0.80,0,1,0,-1.60,0zM106.79,55.80a0.80,0.80,0,1,0,1.60,0a0.80,0.80,0,1,0,-1.60,0zM107.80,55.88a0.80,0.80,0,1,0,1.60,0a0.80,0.80,0,1,0,-1.60,0zM108.81,57.57a0.80,0.80,0,1,0,1.60,0a0.80,0.80,0,1,0,-1.60,0zM109.81,58.84a0.80,0.80,0,1,0,1.60,0a0.80,0.80,0,1,0,-1.60,0zM110.82,60.03a0.80,0.80,0,1,0,1.60,0a0.80,0.80,0,1,0,-1.60,0zM111.82,60.42a0.80,0.80,0,1,0,1.60,0a0.80,0.80,0,1,0,-1.60,0zM112.83,61.95a0.80,0.80,0,1,0,1.60,0a0.80,0.80,0,1,0,-1.60,0zM113.83,61.86a0.80,0.80,0,1,0,1.60,0a0.80,0.80,0,1,0,-1.60,0zM114.84,62.51a0.80,0.80,0,1,0,1.60,0a0.80,0.80,0,1,0,-1.60,0zM115.84,64.45a0.80,0.80,0,1,0,1.60,0a0.80,0.80,0,1,0,-1.60,0zM116.85,65.62a0.80,0.80,0,1,0,1.60,0a0.80,0.80,0,1,0,-1.60,0zM117.86,64.14a0.80,0.80,0,1,0,1.60,0a0.80,0.80,0,1,0,-1.60,0zM118.86,67.11a0.80,0.80,0,1,0,1.60,0a0.80,0.80,0,1,0,-1.60,0zM119.87,68.32a0.80,0.80,0,1,0,1.60,0a0.80,0.80,0,1,0,-1.60,0zM120.87,69.33a0.80,0.80,0,1,0,1.60,0a0.80,0.80,0,1,0,-1.60,0zM121.88,69.89a0.80,0.80,0,1,0,1.60,0a0.80,0.80,0,1,0,-1.60,0zM122.88,71.72a0.80,0.80,0,1,0,1.60,0a0.80,0.80,0,1,0,-1.60,0zM123.89,70.87a0.80,0.80,0,1,0,1.60,0a0.80,0.80,0,1,0,-1.60,0zM124.89,72.99a0.80,0.80,0,1,0,1.60,0a0.80,0.80,0,1,0,-1.60,0zM125.90,71.62a0.80,0.80,0,1,0,1.60,0a0.80,0.80,0,1,0,-1.60,0zM126.91,75.27a0.80,0.80,0,1,0,1.60,0a0.80,0.80,0,1,0,-1.60,0zM127.91,76.59a0.80,0.80,0,1,0,1.60,0a0.80,0.80,0,1,0,-1.60,0zM128.92,77.22a0.80,0.80,0,1,0,1.60,0a0.80,0.80,0,1,0,-1.60,0zM129.92,75.27a0.80,0.80,0,1,0,1.60,0a0.80,0.80,0,1,0,-1.60,0zM130.93,80.13a0.80,0.80,0,1,0,1.60,0a0.80,0.80,0,1,0,-1.60,0zM131.93,80.61a0.80,0.80,0,1,0,1.60,0a0.80,0.80,0,1,0,-1.60,0zM132.94,82.28a0.80,0.80,0,1,0,1.60,0a0.80,0.80,0,1,0,-1.60,0zM133.94,83.28a0.80,0.80,0,1,0,1.60,0a0.80,0.80,0,1,0,-1.60,0zM134.95,84.24a0.80,0.80,0,1,0,1.60,0a0.80,0.80,0,1,0,-1.60,0zM135.96,85.62a0.80,0.80,0,1,0,1.60,0a0.80,0.80,0,1,0,-1.60,0zM136.96,82.39a0.80,0.80,0,1,0,1.60,0a0.80,0.80,0,1,0,-1.60,0zM137.97,87.78a0.80,0.80,0,1,0,1.60,0a0.80,0.80,0,1,0,-1.60,0zM138.97,88.95a0.80,0.80,0,1,0,1.60,0a0.80,0.80,0,1,0,-1.60,0zM139.98,90.15a0.80,0.80,0,1,0,1.60,0a0.80,0.80,0,1,0,-1.60,0zM140.98,91.47a0.80,0.80,0,1,0,1.60,0a0.80,0.80,0,1,0,-1.60,0zM141.99,92.67a0.80,0.80,0,1,0,1.60,0a0.80,0.80,0,1,0,-1.60,0zM142.99,93.88a0.80,0.80,0,1,0,1.60,0a0.80,0.80,0,1,0,-1.60,0zM144.00,94.97a0.80,0.80,0,1,0,1.60,0a0.80,0.80,0,1,0,-1.60,0zM145.01,96.33a0.80,0.80,0,1,0,1.60,0a0.80,0.80,0,1,0,-1.60,0zM146.01,97.55a0.80,0.80,0,1,0,1.60,0a0.80,0.80,0,1,0,-1.60,0zM147.02,98.79a0.80,0.80,0,1,0,1.60,0a0.80,0.80,0,1,0,-1.60,0zM148.02,100.00a0.80,0.80,0,1,0,1.60,0a0.80,0.80,0,1,0,-1.60,0zM149.03,101.27a0.80,0.80,0,1,0,1.60,0a0.80,0.80,0,1,0,-1.60,0zM150.03,102.56a0.80,0.80,0,1,0,1.60,0a0.80,0.80,0,1,0,-1.60,0zM151.04,103.82a0.80,0.80,0,1,0,1.60,0a0.80,0.80,0,1,0,-1.60,0zM152.04,105.10a0.80,0.80,0,1,0,1.60,0a0.80,0.80,0,1,0,-1.60,0zM153.05,106.34a0.80,0.80,0,1,0,1.60,0a0.80,0.80,0,1,0,-1.60,0zM154.06,107.65a0.80,0.80,0,1,0,1.60,0a0.80,0.80,0,1,0,-1.60,0zM155.06,108.98a0.80,0.80,0,1,0,1.60,0a0.80,0.80,0,1,0,-1.60,0zM156.07,110.29a0.80,0.80,0,1,0,1.60,0a0.80,0.80,0,1,0,-1.60,0zM157.07,111.61a0.80,0.80,0,1,0,1.60,0a0.80,0.80,0,1,0,-1.60,0zM158.08,112.91a0.80,0.80,0,1,0,1.60,0a0.80,0.80,0,1,0,-1.60,0zM159.08,114.26a0.80,0.80,0,1,0,1.60,0a0.80,0.80,0,1,0,-1.60,0zM160.09,115.59a0.80,0.80,0,1,0,1.60,0a0.80,0.80,0,1,0,-1.60,0zM161.09,116.96a0.80,0.80,0,1,0,1.60,0a0.80,0.80,0,1,0,-1.60,0zM162.10,118.32a0.80,0.80,0,1,0,1.60,0a0.80,0.80,0,1,0,-1.60,0zM163.11,119.69a0.80,0.80,0,1,0,1.60,0a0.80,0.80,0,1,0,-1.60,0zM164.11,121.06a0.80,0.80,0,1,0,1.60,0a0.80,0.80,0,1,0,-1.60,0zM165.12,122.44a0.80,0.80,0,1,0,1.60,0a0.80,0.80,0,1,0,-1.60,0zM166.12,123.83a0.80,0.80,0,1,0,1.60,0a0.80,0.80,0,1,0,-1.60,0zM167.13,125.23a0.80,0.80,0,1,0,1.60,0a0.80,0.80,0,1,0,-1.60,0zM168.13,126.63a0.80,0.80,0,1,0,1.60,0a0.80,0.80,0,1,0,-1.60,0zM169.14,128.04a0.80,0.80,0,1,0,1.60,0a0.80,0.80,0,1,0,-1.60,0zM170.14,129.47a0.80,0.80,0,1,0,1.60,0a0.80,0.80,0,1,0,-1.60,0zM171.15,130.88a0.80,0.80,0,1,0,1.60,0a0.80,0.80,0,1,0,-1.60,0zM172.16,132.33a0.80,0.80,0,1,0,1.60,0a0.80,0.80,0,1,0,-1.60,0zM173.16,133.77a0.80,0.80,0,1,0,1.60,0a0.80,0.80,0,1,0,-1.60,0zM174.17,135.22a0.80,0.80,0,1,0,1.60,0a0.80,0.80,0,1,0,-1.60,0zM175.17,136.68a0.80,0.80,0,1,0,1.60,0a0.80,0.80,0,1,0,-1.60,0zM176.18,138.14a0.80,0.80,0,1,0,1.60,0a0.80,0.80,0,1,0,-1.60,0zM177.18,139.62a0.80,0.80,0,1,0,1.60,0a0.80,0.80,0,1,0,-1.60,0zM178.19,141.10a0.80,0.80,0,1,0,1.60,0a0.80,0.80,0,1,0,-1.60,0zM179.19,142.59a0.80,0.80,0,1,0,1.60,0a0.80,0.80,0,1,0,-1.60,0zM180.20,144.08a0.80,0.80,0,1,0,1.60,0a0.80,0.80,0,1,0,-1.60,0zM181.21,145.59a0.80,0.80,0,1,0,1.60,0a0.80,0.80,0,1,0,-1.60,0zM182.21,147.10a0.80,0.80,0,1,0,1.60,0a0.80,0.80,0,1,0,-1.60,0zM183.22,148.61a0.80,0.80,0,1,0,1.60,0a0.80,0.80,0,1,0,-1.60,0zM184.22,150.14a0.80,0.80,0,1,0,1.60,0a0.80,0.80,0,1,0,-1.60,0zM185.23,151.67a0.80,0.80,0,1,0,1.60,0a0.80,0.80,0,1,0,-1.60,0zM186.23,153.21a0.80,0.80,0,1,0,1.60,0a0.80,0.80,0,1,0,-1.60,0zM187.24,154.76a0.80,0.80,0,1,0,1.60,0a0.80,0.80,0,1,0,-1.60,0zM188.24,156.31a0.80,0.80,0,1,0,1.60,0a0.80,0.80,0,1,0,-1.60,0zM189.25,157.87a0.80,0.80,0,1,0,1.60,0a0.80,0.80,0,1,0,-1.60,0zM190.26,159.44a0.80,0.80,0,1,0,1.60,0a0.80,0.80,0,1,0,-1.60,0zM191.26,161.01a0.80,0.80,0,1,0,1.60,0a0.80,0.80,0,1,0,-1.60,0zM192.27,162.59a0.80,0.80,0,1,0,1.60,0a0.80,0.80,0,1,0,-1.60,0zM193.27,164.18a0.80,0.80,0,1,0,1.60,0a0.80,0.80,0,1,0,-1.60,0zM194.28,165.78a0.80,0.80,0,1,0,1.60,0a0.80,0.80,0,1,0,-1.60,0zM195.28,167.38a0.80,0.80,0,1,0,1.60,0a0.80,0.80,0,1,0,-1.60,0zM196.29,168.99a0.80,0.80,0,1,0,1.60,0a0.80,0.80,0,1,0,-1.60,0zM197.29,170.61a0.80,0.80,0,1,0,1.60,0a0.80,0.80,0,1,0,-1.60,0zM198.30,172.23a0.80,0.80,0,1,0,1.60,0a0.80,0.80,0,1,0,-1.60,0zM199.31,173.86a0.80,0.80,0,1,0,1.60,0a0.80,0.80,0,1,0,-1.60,0zM200.31,175.50a0.80,0.80,0,1,0,1.60,0a0.80,0.80,0,1,0,-1.60,0zM201.32,177.14a0.80,0.80,0,1,0,1.60,0a0.80,0.80,0,1,0,-1.60,0zM202.32,178.80a0.80,0.80,0,1,0,1.60,0a0.80,0.80,0,1,0,-1.60,0zM203.33,180.46a0.80,0.80,0,1,0,1.60,0a0.80,0.80,0,1,0,-1.60,0zM204.33,182.12a0.80,0.80,0,1,0,1.60,0a0.80,0.80,0,1,0,-1.60,0zM205.34,183.79a0.80,0.80,0,1,0,1.60,0a0.80,0.80,0,1,0,-1.60,0zM206.34,185.47a0.80,0.80,0,1,0,1.60,0a0.80,0.80,0,1,0,-1.60,0zM207.35,187.16a0.80,0.80,0,1,0,1.60,0a0.80,0.80,0,1,0,-1.60,0zM208.36,188.85a0.80,0.80,0,1,0,1.60,0a0.80,0.80,0,1,0,-1.60,0zM209.36,190.55a0.80,0.80,0,1,0,1.60,0a0.80,0.80,0,1,0,-1.60,0zM210.37,192.26a0.80,0.80,0,1,0,1.60,0a0.80,0.80,0,1,0,-1.60,0zM211.37,193.97a0.80,0.80,0,1,0,1.60,0a0.80,0.80,0,1,0,-1.60,0zM212.38,195.69a0.80,0.80,0,1,0,1.60,0a0.80,0.80,0,1,0,-1.60,0zM213.38,197.41a0.80,0.80,0,1,0,1.60,0a0.80,0.80,0,1,0,-1.60,0zM214.39,199.15a0.80,0.80,0,1,0,1.60,0a0.80,0.80,0,1,0,-1.60,0zM215.39,200.89a0.80,0.80,0,1,0,1.60,0a0.80,0.80,0,1,0,-1.60,0zM216.40,202.63a0.80,0.80,0,1,0,1.60,0a0.80,0.80,0,1,0,-1.60,0zM217.41,204.39a0.80,0.80,0,1,0,1.60,0a0.80,0.80,0,1,0,-1.60,0zM218.41,206.15a0.80,0.80,0,1,0,1.60,0a0.80,0.80,0,1,0,-1.60,0zM219.42,207.91a0.80,0.80,0,1,0,1.60,0a0.80,0.80,0,1,0,-1.60,0zM220.42,209.69a0.80,0.80,0,1,0,1.60,0a0.80,0.80,0,1,0,-1.60,0zM221.43,211.47a0.80,0.80,0,1,0,1.60,0a0.80,0.80,0,1,0,-1.60,0zM222.43,213.25a0.80,0.80,0,1,0,1.60,0a0.80,0.80,0,1,0,-1.60,0zM223.44,215.05a0.80,0.80,0,1,0,1.60,0a0.80,0.80,0,1,0,-1.60,0zM224.44,216.85a0.80,0.80,0,1,0,1.60,0a0.80,0.80,0,1,0,-1.60,0zM225.45,218.65a0.80,0.80,0,1,0,1.60,0a0.80,0.80,0,1,0,-1.60,0zM226.46,220.47a0.80,0.80,0,1,0,1.60,0a0.80,0.80,0,1,0,-1.60,0zM227.46,222.29a0.80,0.80,0,1,0,1.60,0a0.80,0.80,0,1,0,-1.60,0zM228.47,224.11a0.80,0.80,0,1,0,1.60,0a0.80,0.80,0,1,0,-1.60,0zM229.47,225.95a0.80,0.80,0,1,0,1.60,0a0.80,0.80,0,1,0,-1.60,0zM230.48,227.79a0.80,0.80,0,1,0,1.60,0a0.80,0.80,0,1,0,-1.60,0zM231.48,229.63a0.80,0.80,0,1,0,1.60,0a0.80,0.80,0,1,0,-1.60,0zM232.49,231.48a0.80,0.80,0,1,0,1.60,0a0.80,0.80,0,1,0,-1.60,0zM233.49,233.34a0.80,0.80,0,1,0,1.60,0a0.80,0.80,0,1,0,-1.60,0zM234.50,235.21a0.80,0.80,0,1,0,1.60,0a0.80,0.80,0,1,0,-1.60,0zM235.51,237.08a0.80,0.80,0,1,0,1.60,0a0.80,0.80,0,1,0,-1.60,0zM236.51,238.96a0.80,0.80,0,1,0,1.60,0a0.80,0.80,0,1,0,-1.60,0zM237.52,240.85a0.80,0.80,0,1,0,1.60,0a0.80,0.80,0,1,0,-1.60,0zM238.52,242.74a0.80,0.80,0,1,0,1.60,0a0.80,0.80,0,1,0,-1.60,0zM239.53,244.64a0.80,0.80,0,1,0,1.60,0a0.80,0.80,0,1,0,-1.60,0zM240.53,246.54a0.80,0.80,0,1,0,1.60,0a0.80,0.80,0,1,0,-1.60,0zM241.54,248.46a0.80,0.80,0,1,0,1.60,0a0.80,0.80,0,1,0,-1.60,0zM242.54,250.37a0.80,0.80,0,1,0,1.60,0a0.80,0.80,0,1,0,-1.60,0zM243.55,252.30a0.80,0.80,0,1,0,1.60,0a0.80,0.80,0,1,0,-1.60,0zM244.56,254.23a0.80,0.80,0,1,0,1.60,0a0.80,0.80,0,1,0,-1.60,0zM245.56,256.17a0.80,0.80,0,1,0,1.60,0a0.80,0.80,0,1,0,-1.60,0zM246.57,258.11a0.80,0.80,0,1,0,1.60,0a0.80,0.80,0,1,0,-1.60,0zM247.57,260.07a0.80,0.80,0,1,0,1.60,0a0.80,0.80,0,1,0,-1.60,0zM248.58,262.02a0.80,0.80,0,1,0,1.60,0a0.80,0.80,0,1,0,-1.60,0zM249.58,263.99a0.80,0.80,0,1,0,1.60,0a0.80,0.80,0,1,0,-1.60,0zM250.59,265.96a0.80,0.80,0,1,0,1.60,0a0.80,0.80,0,1,0,-1.60,0zM251.59,267.94a0.80,0.80,0,1,0,1.60,0a0.80,0.80,0,1,0,-1.60,0zM252.60,269.92a0.80,0.80,0,1,0,1.60,0a0.80,0.80,0,1,0,-1.60,0zM253.61,271.91a0.80,0.80,0,1,0,1.60,0a0.80,0.80,0,1,0,-1.60,0zM254.61,273.91a0.80,0.80,0,1,0,1.60,0a0.80,0.80,0,1,0,-1.60,0zM255.62,275.91a0.80,0.80,0,1,0,1.60,0a0.80,0.80,0,1,0,-1.60,0zM256.62,277.83a0.80,0.80,0,1,0,1.60,0a0.80,0.80,0,1,0,-1.60,0zM257.63,279.94a0.80,0.80,0,1,0,1.60,0a0.80,0.80,0,1,0,-1.60,0zM258.63,281.96a0.80,0.80,0,1,0,1.60,0a0.80,0.80,0,1,0,-1.60,0zM259.64,283.99a0.80,0.80,0,1,0,1.60,0a0.80,0.80,0,1,0,-1.60,0zM260.64,286.03a0.80,0.80,0,1,0,1.60,0a0.80,0.80,0,1,0,-1.60,0zM261.65,288.07a0.80,0.80,0,1,0,1.60,0a0.80,0.80,0,1,0,-1.60,0zM262.66,290.12a0.80,0.80,0,1,0,1.60,0a0.80,0.80,0,1,0,-1.60,0zM263.66,292.18a0.80,0.80,0,1,0,1.60,0a0.80,0.80,0,1,0,-1.60,0zM264.67,294.24a0.80,0.80,0,1,0,1.60,0a0.80,0.80,0,1,0,-1.60,0zM265.67,296.31a0.80,0.80,0,1,0,1.60,0a0.80,0.80,0,1,0,-1.60,0zM266.68,298.39a0.80,0.80,0,1,0,1.60,0a0.80,0.80,0,1,0,-1.60,0zM267.68,300.47a0.80,0.80,0,1,0,1.60,0a0.80,0.80,0,1,0,-1.60,0zM268.69,302.56a0.80,0.80,0,1,0,1.60,0a0.80,0.80,0,1,0,-1.60,0zM269.69,304.66a0.80,0.80,0,1,0,1.60,0a0.80,0.80,0,1,0,-1.60,0zM270.70,306.76a0.80,0.80,0,1,0,1.60,0a0.80,0.80,0,1,0,-1.60,0zM271.71,308.87a0.80,0.80,0,1,0,1.60,0a0.80,0.80,0,1,0,-1.60,0zM272.71,310.99a0.80,0.80,0,1,0,1.60,0a0.80,0.80,0,1,0,-1.60,0zM273.72,313.11a0.80,0.80,0,1,0,1.60,0a0.80,0.80,0,1,0,-1.60,0zM274.72,315.24a0.80,0.80,0,1,0,1.60,0a0.80,0.80,0,1,0,-1.60,0zM275.73,317.37a0.80,0.80,0,1,0,1.60,0a0.80,0.80,0,1,0,-1.60,0zM276.73,319.52a0.80,0.80,0,1,0,1.60,0a0.80,0.80,0,1,0,-1.60,0zM277.74,321.67a0.80,0.80,0,1,0,1.60,0a0.80,0.80,0,1,0,-1.60,0zM278.74,323.82a0.80,0.80,0,1,0,1.60,0a0.80,0.80,0,1,0,-1.60,0zM279.75,325.99a0.80,0.80,0,1,0,1.60,0a0.80,0.80,0,1,0,-1.60,0zM280.76,328.16a0.80,0.80,0,1,0,1.60,0a0.80,0.80,0,1,0,-1.60,0zM281.76,330.33a0.80,0.80,0,1,0,1.60,0a0.80,0.80,0,1,0,-1.60,0zM282.77,332.52a0.80,0.80,0,1,0,1.60,0a0.80,0.80,0,1,0,-1.60,0zM283.77,334.71a0.80,0.80,0,1,0,1.60,0a0.80,0.80,0,1,0,-1.60,0zM284.78,336.90a0.80,0.80,0,1,0,1.60,0a0.80,0.80,0,1,0,-1.60,0zM285.78,339.11a0.80,0.80,0,1,0,1.60,0a0.80,0.80,0,1,0,-1.60,0zM286.79,341.32a0.80,0.80,0,1,0,1.60,0a0.80,0.80,0,1,0,-1.60,0zM287.79,343.54a0.80,0.80,0,1,0,1.60,0a0.80,0.80,0,1,0,-1.60,0zM288.80,345.76a0.80,0.80,0,1,0,1.60,0a0.80,0.80,0,1,0,-1.60,0zM289.81,347.99a0.80,0.80,0,1,0,1.60,0a0.80,0.80,0,1,0,-1.60,0zM290.81,350.23a0.80,0.80,0,1,0,1.60,0a0.80,0.80,0,1,0,-1.60,0zM291.82,352.47a0.80,0.80,0,1,0,1.60,0a0.80,0.80,0,1,0,-1.60,0zM292.82,354.73a0.80,0.80,0,1,0,1.60,0a0.80,0.80,0,1,0,-1.60,0zM293.83,356.98a0.80,0.80,0,1,0,1.60,0a0.80,0.80,0,1,0,-1.60,0zM294.83,359.25a0.80,0.80,0,1,0,1.60,0a0.80,0.80,0,1,0,-1.60,0zM295.84,361.52a0.80,0.80,0,1,0,1.60,0a0.80,0.80,0,1,0,-1.60,0zM296.84,363.80a0.80,0.80,0,1,0,1.60,0a0.80,0.80,0,1,0,-1.60,0zM297.85,366.09a0.80,0.80,0,1,0,1.60,0a0.80,0.80,0,1,0,-1.60,0zM298.86,368.38a0.80,0.80,0,1,0,1.60,0a0.80,0.80,0,1,0,-1.60,0zM299.86,370.68a0.80,0.80,0,1,0,1.60,0a0.80,0.80,0,1,0,-1.60,0zM300.87,372.99a0.80,0.80,0,1,0,1.60,0a0.80,0.80,0,1,0,-1.60,0zM301.87,375.30a0.80,0.80,0,1,0,1.60,0a0.80,0.80,0,1,0,-1.60,0zM302.88,377.62a0.80,0.80,0,1,0,1.60,0a0.80,0.80,0,1,0,-1.60,0zM303.88,379.95a0.80,0.80,0,1,0,1.60,0a0.80,0.80,0,1,0,-1.60,0zM304.89,382.29a0.80,0.80,0,1,0,1.60,0a0.80,0.80,0,1,0,-1.60,0zM305.89,384.63a0.80,0.80,0,1,0,1.60,0a0.80,0.80,0,1,0,-1.60,0zM306.90,386.98a0.80,0.80,0,1,0,1.60,0a0.80,0.80,0,1,0,-1.60,0zM307.91,389.33a0.80,0.80,0,1,0,1.60,0a0.80,0.80,0,1,0,-1.60,0zM308.91,391.70a0.80,0.80,0,1,0,1.60,0a0.80,0.80,0,1,0,-1.60,0zM309.92,394.07a0.80,0.80,0,1,0,1.60,0a0.80,0.80,0,1,0,-1.60,0zM310.92,396.45a0.80,0.80,0,1,0,1.60,0a0.80,0.80,0,1,0,-1.60,0zM311.93,398.83a0.80,0.80,0,1,0,1.60,0a0.80,0.80,0,1,0,-1.60,0zM312.93,401.22a0.80,0.80,0,1,0,1.60,0a0.80,0.80,0,1,0,-1.60,0zM313.94,403.62a0.80,0.80,0,1,0,1.60,0a0.80,0.80,0,1,0,-1.60,0zM314.94,406.01a0.80,0.80,0,1,0,1.60,0a0.80,0.80,0,1,0,-1.60,0zM315.95,408.44a0.80,0.80,0,1,0,1.60,0a0.80,0.80,0,1,0,-1.60,0zM316.96,410.86a0.80,0.80,0,1,0,1.60,0a0.80,0.80,0,1,0,-1.60,0zM317.96,413.29a0.80,0.80,0,1,0,1.60,0a0.80,0.80,0,1,0,-1.60,0zM318.97,415.72a0.80,0.80,0,1,0,1.60,0a0.80,0.80,0,1,0,-1.60,0zM319.97,418.16a0.80,0.80,0,1,0,1.60,0a0.80,0.80,0,1,0,-1.60,0zM320.98,420.61a0.80,0.80,0,1,0,1.60,0a0.80,0.80,0,1,0,-1.60,0zM321.98,423.07a0.80,0.80,0,1,0,1.60,0a0.80,0.80,0,1,0,-1.60,0zM322.99,425.53a0.80,0.80,0,1,0,1.60,0a0.80,0.80,0,1,0,-1.60,0zM323.99,428.00a0.80,0.80,0,1,0,1.60,0a0.80,0.80,0,1,0,-1.60,0zM325.00,430.48a0.80,0.80,0,1,0,1.60,0a0.80,0.80,0,1,0,-1.60,0zM326.01,432.96a0.80,0.80,0,1,0,1.60,0a0.80,0.80,0,1,0,-1.60,0zM327.01,435.46a0.80,0.80,0,1,0,1.60,0a0.80,0.80,0,1,0,-1.60,0zM328.02,437.96a0.80,0.80,0,1,0,1.60,0a0.80,0.80,0,1,0,-1.60,0zM329.02,440.46a0.80,0.80,0,1,0,1.60,0a0.80,0.80,0,1,0,-1.60,0zM330.03,442.98a0.80,0.80,0,1,0,1.60,0a0.80,0.80,0,1,0,-1.60,0zM331.03,445.50a0.80,0.80,0,1,0,1.60,0a0.80,0.80,0,1,0,-1.60,0z" style="stroke: black; fill: black;"></path><path d="M25.16666666666667,218.88278175310026h10v10h-10zM26.172222222222228,215.23140032506305h10v10h-10zM27.177777777777784,211.5800188970258h10v10h-10zM28.183333333333344,207.92863746898854h10v10h-10zM29.188888888888897,204.27725604095127h10v10h-10zM30.19444444444445,200.62587461291403h10v10h-10zM31.20000000000001,196.97449318487682h10v10h-10zM32.20555555555556,193.32311175683955h10v10h-10zM33.21111111111112,189.6717303288023h10v10h-10zM34.216666666666676,186.02034890076504h10v10h-10zM35.222222222222236,182.36896747272777h10v10h-10zM36.22777777777779,178.7175860446906h10v10h-10zM37.23333333333335,175.06620461665332h10v10h-10zM38.23888888888888,171.4148231886161h10v10h-10zM39.24444444444444,167.76344176057893h10v10h-10zM40.24999999999999,164.11206033254166h10v10h-10zM41.25555555555555,160.4606789045044h10v10h-10zM42.261111111111106,156.80929747646715h10v10h-10zM43.266666666666666,153.15791604842988h10v10h-10zM44.27222222222222,149.50653462039267h10v10h-10zM45.27777777777778,145.85515319235543h10v10h-10zM46.28333333333333,142.20368047978243h10v10h-10zM47.28888888888889,138.5523903362809h10v10h-10zM48.294444444444444,134.90091762370795h10v10h-10zM49.3,131.24953619567071h10v10h-10zM50.30555555555556,127.59806348309775h10v10h-10zM51.31111111111111,123.94677333959618h10v10h-10zM52.31666666666668,120.29520934248761h10v10h-10zM53.32222222222222,116.64391919898598h10v10h-10zM54.32777777777779,112.9924464864131h10v10h-10zM55.33333333333334,109.34088248930442h10v10h-10zM56.3388888888889,105.6890446385887h10v10h-10zM57.344444444444456,102.03821091776564h10v10h-10zM58.35000000000001,98.38591664437145h10v10h-10zM59.35555555555557,94.73462650086982h10v10h-10zM60.361111111111114,91.08114552851148h10v10h-10zM61.36666666666669,87.43012923861701h10v10h-10zM62.372222222222234,83.77783496522277h10v10h-10zM63.377777777777766,80.12581454543563h10v10h-10zM64.38333333333333,76.47406797925558h10v10h-10zM65.38888888888889,72.7033776630573h10v10h-10zM66.39444444444445,69.1263931316162h10v10h-10zM67.39999999999999,65.51818928896557h10v10h-10zM68.40555555555555,61.82262614564901h10v10h-10zM69.41111111111111,58.15636533829255h10v10h-10zM70.41666666666666,54.39014796434357h10v10h-10zM71.42222222222222,50.78942945362035h10v10h-10zM72.42777777777778,47.08628969384065h10v10h-10zM73.43333333333334,43.39748160616599h10v10h-10zM74.43888888888888,39.36389182714893h10v10h-10zM75.44444444444446,36.280482780243005h10v10h-10zM76.45,35.499999999999964h10v10h-10zM77.45555555555556,36.060121911060875h10v10h-10zM78.46111111111112,35.85053261709149h10v10h-10zM79.46666666666667,36.59112405523322h10v10h-10zM80.47222222222223,37.26325209159917h10v10h-10zM81.47777777777779,37.25220666277933h10v10h-10zM82.48333333333333,38.16368275175318h10v10h-10zM83.48888888888888,38.532928698663376h10v10h-10zM84.49444444444445,39.157862630072025h10v10h-10zM85.5,39.49205531527305h10v10h-10zM86.50555555555555,39.86988200853923h10v10h-10zM87.5111111111111,40.73443784616276h10v10h-10zM88.51666666666668,41.31920658186289h10v10h-10zM89.52222222222223,41.60876112910626h10v10h-10zM90.52777777777779,42.87076983517169h10v10h-10zM91.53333333333333,42.8943212453825h10v10h-10zM92.5388888888889,44.469892331580574h10v10h-10zM93.54444444444445,44.59805581970469h10v10h-10zM94.54999999999998,44.50029008196897h10v10h-10zM95.55555555555556,45.506519519000314h10v10h-10zM96.56111111111112,46.06846712077531h10v10h-10zM97.56666666666666,47.70355572425035h10v10h-10zM98.57222222222222,48.146742145078406h10v10h-10zM99.57777777777778,49.00992871466639h10v10h-10zM100.58333333333334,49.99863152084315h10v10h-10zM101.58888888888889,49.761017874413646h10v10h-10zM102.59444444444445,50.800292313368715h10v10h-10zM103.6,50.8794360058214h10v10h-10zM104.60555555555557,52.56966046885983h10v10h-10zM105.61111111111111,53.83942836045978h10v10h-10zM106.61666666666667,55.02731402353603h10v10h-10zM107.62222222222222,55.41645999922915h10v10h-10zM108.62777777777775,56.95131818250455h10v10h-10zM109.63333333333335,56.86204190658903h10v10h-10zM110.63888888888889,57.51290064613666h10v10h-10zM111.64444444444445,59.45424886688835h10v10h-10zM112.64999999999998,60.62433404550292h10v10h-10zM113.65555555555558,59.14452043725511h10v10h-10zM114.66111111111111,62.11336739185653h10v10h-10zM115.66666666666669,63.31558472703777h10v10h-10zM116.67222222222222,64.32829536610387h10v10h-10zM117.6777777777778,64.88759571634348h10v10h-10zM118.68333333333334,66.71602496643315h10v10h-10zM119.68888888888888,65.87164301119958h10v10h-10zM120.69444444444444,67.98935295492547h10v10h-10zM121.69999999999999,66.62145418744701h10v10h-10zM122.70555555555556,70.27438745259114h10v10h-10zM123.71111111111111,71.58888476668459h10v10h-10zM124.71666666666667,72.21728751044982h10v10h-10zM125.72222222222223,70.2696406567347h10v10h-10zM126.72777777777776,75.12816878488108h10v10h-10zM127.73333333333335,75.61453279109566h10v10h-10zM128.7388888888889,77.28449208720849h10v10h-10zM129.74444444444444,78.28433160674078h10v10h-10zM130.75,79.23907656563678h10v10h-10zM131.75555555555556,80.62276755779146h10v10h-10zM132.76111111111112,77.38828260430044h10v10h-10zM133.76666666666668,82.78338123329688h10v10h-10zM134.77222222222224,83.94817190884068h10v10h-10zM135.77777777777777,85.15194108112891h10v10h-10zM136.78333333333336,86.46862922407911h10v10h-10zM137.7888888888889,87.67486307883131h10v10h-10zM138.79444444444445,88.87771940576245h10v10h-10zM139.79999999999998,89.97139942799524h10v10h-10zM140.80555555555557,91.33327341611741h10v10h-10zM141.8111111111111,92.55338252029614h10v10h-10zM142.81666666666666,93.7875494429727h10v10h-10zM143.82222222222222,94.99953422347397h10v10h-10zM144.82777777777775,96.27094523671653h10v10h-10zM145.83333333333331,97.55623149938566h10v10h-10zM146.8388888888889,98.81960947348654h10v10h-10zM147.84444444444443,100.10097050112053h10v10h-10zM148.85,101.33632412276118h10v10h-10zM149.85555555555555,102.65036501417616h10v10h-10zM150.86111111111111,103.98038069933868h10v10h-10zM151.86666666666667,105.28647983614762h10v10h-10zM152.87222222222223,106.60663679145445h10v10h-10zM153.87777777777777,107.91063638394226h10v10h-10zM154.88333333333333,109.26356448756572h10v10h-10zM155.8888888888889,110.59111549026444h10v10h-10zM156.89444444444445,111.9614789402068h10v10h-10zM157.9,113.31897127061535h10v10h-10zM158.90555555555557,114.68568333912965h10v10h-10zM159.91111111111113,116.05595550453633h10v10h-10zM160.91666666666669,117.4351735544417h10v10h-10zM161.92222222222225,118.82954483727339h10v10h-10zM162.92777777777778,120.22738493246177h10v10h-10zM163.93333333333334,121.63033696164943h10v10h-10zM164.9388888888889,123.04479084233529h10v10h-10zM165.94444444444443,124.46609106319886h10v10h-10zM166.95,125.8831921954201h10v10h-10zM167.95555555555555,127.32804382649442h10v10h-10zM168.9611111111111,128.76787480810523h10v10h-10zM169.96666666666667,130.22358929892795h10v10h-10zM170.97222222222223,131.68185975675033h10v10h-10zM171.97777777777776,133.14305131971514h10v10h-10zM172.98333333333332,134.62067409910608h10v10h-10zM173.9888888888889,136.10130926817524h10v10h-10zM174.99444444444444,137.58924720010035h10v10h-10zM176,139.08448789488165h10v10h-10zM177.00555555555556,140.5873052061261h10v10h-10zM178.0111111111111,142.09724271115516h10v10h-10zM179.01666666666665,143.61439169450466h10v10h-10zM180.0222222222222,145.13911729431726h10v10h-10zM181.0277777777778,146.67087180337887h10v10h-10zM182.03333333333336,148.20983779076087h10v10h-10zM183.0388888888889,149.7556501183205h10v10h-10zM184.04444444444445,151.3090390623432h10v10h-10zM185.05,152.8698220537577h10v10h-10zM186.05555555555557,154.43745138534985h10v10h-10zM187.0611111111111,156.01220091072662h10v10h-10zM188.06666666666666,157.59334035360243h10v10h-10zM189.07222222222222,159.18287797376277h10v10h-10zM190.07777777777775,160.7787142268864h10v10h-10zM191.08333333333331,162.38157938925906h10v10h-10zM192.08888888888887,163.99156474541638h10v10h-10zM193.09444444444443,165.60839644175127h10v10h-10zM194.09999999999997,167.23234833187084h10v10h-10zM195.10555555555555,168.8630552776323h10v10h-10zM196.11111111111111,170.5007911326427h10v10h-10zM197.11666666666667,172.14455176700932h10v10h-10zM198.12222222222223,173.79707571680328h10v10h-10zM199.12777777777782,175.45544187688208h10v10h-10zM200.13333333333333,177.1207456616742h10v10h-10zM201.13888888888889,178.79271321757247h10v10h-10zM202.14444444444445,180.47034041468422h10v10h-10zM203.15000000000003,182.1576437725802h10v10h-10zM204.15555555555557,183.8502416335469h10v10h-10zM205.1611111111111,185.54950326561965h10v10h-10zM206.16666666666669,187.25579380694143h10v10h-10zM207.1722222222222,188.96874811936945h10v10h-10zM208.17777777777778,190.68845748743922h10v10h-10zM209.18333333333334,192.4148306266153h10v10h-10zM210.1888888888889,194.14750239875468h10v10h-10zM211.19444444444443,195.88784207189298h10v10h-10zM212.2,197.6343890934589h10v10h-10zM213.20555555555555,199.38723474798815h10v10h-10zM214.21111111111114,201.14783958805197h10v10h-10zM215.21666666666664,202.91446920747214h10v10h-10zM216.22222222222223,204.68776259799836h10v10h-10zM217.22777777777776,206.46781104416658h10v10h-10zM218.23333333333335,208.25443197690512h10v10h-10zM219.2388888888889,210.04780796528567h10v10h-10zM220.24444444444444,211.8477564402366h10v10h-10zM221.25,213.65427740175807h10v10h-10zM222.2555555555556,215.46755341892137h10v10h-10zM223.2611111111111,217.28731063811944h10v10h-10zM224.2666666666667,219.11373162842366h10v10h-10zM225.2722222222222,220.94672510529836h10v10h-10zM226.27777777777777,222.78638235327918h10v10h-10zM227.28333333333336,224.63261208783052h10v10h-10zM228.2888888888889,226.48395375638108h10v10h-10zM229.29444444444445,228.34424130943037h10v10h-10zM230.29999999999995,230.21073621090727h10v10h-10zM231.30555555555557,232.08316460720482h10v10h-10zM232.31111111111116,233.9623480591442h10v10h-10zM233.31666666666666,235.8481039976541h10v10h-10zM234.32222222222222,237.74043242273436h10v10h-10zM235.32777777777775,239.63915076531373h10v10h-10zM236.33333333333331,241.54453287899926h10v10h-10zM237.3388888888889,243.45648747925526h10v10h-10zM238.34444444444443,245.37492328154605h10v10h-10zM239.35000000000002,247.29974900133587h10v10h-10zM240.35555555555553,249.23169491491032h10v10h-10zM241.36111111111111,251.16975689237682h10v10h-10zM242.36666666666667,253.11457392548516h10v10h-10zM243.37222222222223,255.06587216062826h10v10h-10zM244.37777777777777,257.0234690287347h10v10h-10zM245.38333333333335,258.98800352155445h10v10h-10zM246.38888888888889,260.95774123290914h10v10h-10zM247.39444444444445,262.9361509751554h10v10h-10zM248.39999999999998,264.92049421222225h10v10h-10zM249.40555555555557,266.9111360822524h10v10h-10zM250.41111111111113,268.9083504388531h10v10h-10zM251.41666666666663,270.9120459974886h10v10h-10zM252.42222222222222,272.8271955564941h10v10h-10zM253.4277777777778,274.9392458590066h10v10h-10zM254.43333333333334,276.9628414464248h10v10h-10zM255.43888888888887,278.99273566680637h10v10h-10zM256.44444444444446,281.029658796437h10v10h-10zM257.45000000000005,283.0729718435667h10v10h-10zM258.4555555555555,285.122766092731h10v10h-10zM259.4611111111111,287.17922411300157h10v10h-10zM260.4666666666667,289.2423459043784h10v10h-10zM261.4722222222222,291.3121314668613h10v10h-10zM262.4777777777778,293.3883069468433h10v10h-10zM263.4833333333333,295.4714200515385h10v10h-10zM264.4888888888889,297.5608317891971h10v10h-10zM265.49444444444447,299.657181151569h10v10h-10zM266.5,301.7601030005113h10v10h-10zM267.50555555555553,303.8695060514885h10v10h-10zM268.5111111111111,305.98584672717885h10v10h-10zM269.51666666666665,308.1087598894397h10v10h-10zM270.52222222222224,310.23824553827103h10v10h-10zM271.52777777777777,312.37457752727994h10v10h-10zM272.5333333333333,314.51702558018076h10v10h-10zM273.5388888888889,316.6672328186162h10v10h-10zM274.5444444444445,318.823738690015h10v10h-10zM275.55,320.98690833252h10v10h-10zM276.55555555555554,323.1567417461311h10v10h-10zM277.56111111111113,325.3332389308484h10v10h-10zM278.5666666666667,327.5167650248146h10v10h-10zM279.5722222222222,329.7064071826729h10v10h-10zM280.5777777777778,331.90389981060144h10v10h-10zM281.5833333333333,334.10769107149326h10v10h-10zM282.5888888888889,336.3183286725627h10v10h-10zM283.5944444444445,338.53572132927405h10v10h-10zM284.59999999999997,340.75996032616297h10v10h-10zM285.60555555555555,342.99095437869374h10v10h-10zM286.61111111111114,345.2289773404734h10v10h-10zM287.6166666666667,347.473481504288h10v10h-10zM288.6222222222222,349.72537971549417h10v10h-10zM289.62777777777774,351.9840329823423h10v10h-10zM290.6333333333333,354.24752432958263h10v10h-10zM291.63888888888886,356.5218785365713h10v10h-10zM292.64444444444445,358.80107082395216h10v10h-10zM293.65,361.0869268824392h10v10h-10zM294.6555555555555,363.38072469553214h10v10h-10zM295.66111111111115,365.68100371066h10v10h-10zM296.66666666666663,367.98812906596527h10v10h-10zM297.6722222222222,370.3022833305195h10v10h-10zM298.6777777777778,372.6221885208231h10v10h-10zM299.68333333333334,374.9494877585183h10v10h-10zM300.68888888888887,377.2866457260692h10v10h-10zM301.6944444444444,379.62645094515545h10v10h-10zM302.7,381.9757497559546h10v10h-10zM303.7055555555556,384.33372059764537h10v10h-10zM304.7111111111111,386.69762493415675h10v10h-10zM305.71666666666664,389.06819304177424h10v10h-10zM306.72222222222223,391.4453336359621h10v10h-10zM307.7277777777778,393.8307811228989h10v10h-10zM308.73333333333335,396.2222533891919h10v10h-10zM309.7388888888889,398.6214848410195h10v10h-10zM310.74444444444447,401.0110401320627h10v10h-10zM311.75000000000006,403.44021291160016h10v10h-10zM312.75555555555553,405.8590705386035h10v10h-10zM313.7611111111111,408.2885171717481h10v10h-10zM314.7666666666666,410.72316702342766h10v10h-10zM315.7722222222222,413.1648457843561h10v10h-10zM316.7777777777778,415.6110887720696h10v10h-10zM317.7833333333333,418.0701115947812h10v10h-10zM318.7888888888889,420.5331509370638h10v10h-10zM319.7944444444444,423.0037668958095h10v10h-10zM320.8,425.48186818648264h10v10h-10zM321.80555555555554,427.9604258998344h10v10h-10zM322.8111111111111,430.45915749557594h10v10h-10zM323.81666666666666,432.95861936760315h10v10h-10zM324.82222222222225,435.4649275798079h10v10h-10zM325.8277777777778,437.97881240847585h10v10h-10zM326.8333333333333,440.49999999999994h10v10h-10z" style="fill: none; pointer-events: visiblefill;"></path></g></svg><g><g transform="translate(0,486)"><path d="M0,0h362M0,-8V0M10,-8V0M20,-8V0M30,-15V0M40,-8V0M50,-8V0M60,-8V0M70,-8V0M80,-15V0M91,-8V0M101,-8V0M111,-8V0M121,-8V0M131,-15V0M141,-8V0M151,-8V0M161,-8V0M171,-8V0M181,-15V0M191,-8V0M201,-8V0M211,-8V0M221,-8V0M231,-15V0M241,-8V0M251,-8V0M261,-8V0M272,-8V0M282,-15V0M292,-8V0M302,-8V0M312,-8V0M322,-8V0M332,-15V0M342,-8V0M352,-8V0M362,-8V0" style="stroke: black; stroke-width: 1;"></path><g font-family="Arial" font-size="16" xml:space="preserve" fill="black" text-anchor="middle"><text dy=".8em" transform="translate(30,3)">-1.5</text><text dy=".8em" transform="translate(80,3)">-1</text><text dy=".8em" transform="translate(131,3)">-0.5</text><text dy=".8em" transform="translate(181,3)">0</text><text dy=".8em" transform="translate(231,3)">0.5</text><text dy=".8em" transform="translate(282,3)">1</text><text dy=".8em" transform="translate(332,3)">1.5</text></g><rect x="0" y="0" width="362" height="19" style="opacity: 0; cursor: crosshair;"></rect><g font-family="Arial" font-size="16" xml:space="preserve" transform="translate(362,34)" style="cursor: move;"><text fill="black" text-anchor="end" dominant-baseline="middle">Delta</text></g></g><g><path d="M0,0v486M6,479H0M6,470H0M6,461H0M11,452H0M6,443H0M6,434H0M6,425H0M6,416H0M11,406H0M6,397H0M6,388H0M6,379H0M6,370H0M11,361H0M6,352H0M6,343H0M6,333H0M6,324H0M11,315H0M6,306H0M6,297H0M6,288H0M6,279H0M11,270H0M6,260H0M6,251H0M6,242H0M6,233H0M11,224H0M6,215H0M6,206H0M6,196H0M6,187H0M11,178H0M6,169H0M6,160H0M6,151H0M6,142H0M11,133H0M6,123H0M6,114H0M6,105H0M6,96H0M11,87H0M6,78H0M6,69H0M6,60H0M6,50H0M11,41H0M6,32H0M6,23H0M6,14H0M6,5H0" style="stroke: black; stroke-width: 1;"></path><g font-family="Arial" font-size="16" xml:space="preserve" fill="black" text-anchor="end"><text dominant-baseline="middle" transform="translate(-3,452)">-8.5</text><text dominant-baseline="middle" transform="translate(-3,406)">-8</text><text dominant-baseline="middle" transform="translate(-3,361)">-7.5</text><text dominant-baseline="middle" transform="translate(-3,315)">-7</text><text dominant-baseline="middle" transform="translate(-3,270)">-6.5</text><text dominant-baseline="middle" transform="translate(-3,224)">-6</text><text dominant-baseline="middle" transform="translate(-3,178)">-5.5</text><text dominant-baseline="middle" transform="translate(-3,133)">-5</text><text dominant-baseline="middle" transform="translate(-3,87)">-4.5</text><text dominant-baseline="middle" transform="translate(-3,41)">-4</text></g><rect x="-30" y="0" width="30" height="486" style="opacity: 0; cursor: crosshair;"></rect><g font-family="Arial" font-size="16" xml:space="preserve" transform="translate(-38)" style="cursor: move;"><text fill="black" text-anchor="end" dominant-baseline="middle" transform="rotate(270)">Total Ground Energy</text></g></g><path d="M30,0v486M80,0v486M131,0v486M181,0v486M231,0v486M282,0v486M332,0v486" style="stroke: black; stroke-width: 1; stroke-dasharray: 1, 2;"></path><path d="M0,452h362M0,406h362M0,361h362M0,315h362M0,270h362M0,224h362M0,178h362M0,133h362M0,87h362M0,41h362" style="stroke: black; stroke-width: 1; stroke-dasharray: 1, 2;"></path></g><path d="M2,2h15v-5h-20v20h5Z" style="opacity: 0; cursor: nw-resize;"></path><path d="M360,2h-15v-5h20v20h-5 Z" style="opacity: 0; cursor: ne-resize;"></path><path d="M2,484h15v5h-20v-20h5Z" style="opacity: 0; cursor: sw-resize;"></path><path d="M360,484h-15v5h20v-20h-5Z" style="opacity: 0; cursor: se-resize;"></path><path d="M-3,18h5v450h-5Z" style="opacity: 0; cursor: w-resize;"></path><path d="M365,18h-5v450h5Z" style="opacity: 0; cursor: e-resize;"></path><path d="M18,-3v5h326v-5Z" style="opacity: 0; cursor: n-resize;"></path><path d="M18,489v-5h326v5Z" style="opacity: 0; cursor: s-resize;"></path></g><g transform="translate(45,3)" font-family="Arial" font-size="16" xml:space="preserve" style="cursor: move;"><path d="M0,0H362V40H0Z" style="fill: none; pointer-events: visiblefill;"></path><text fill="black" text-anchor="middle" dy=".8em" transform="translate(181)">Lanczos alogrithm, num = 16, error = 1e-13</text><path d="M2,2h15v-5h-20v20h5Z" style="opacity: 0; cursor: nw-resize;"></path><path d="M360,2h-15v-5h20v20h-5 Z" style="opacity: 0; cursor: ne-resize;"></path><path d="M2,38h15v5h-20v-20h5Z" style="opacity: 0; cursor: sw-resize;"></path><path d="M360,38h-15v5h20v-20h-5Z" style="opacity: 0; cursor: se-resize;"></path><path d="M-3,18h5v4h-5Z" style="opacity: 0; cursor: w-resize;"></path><path d="M365,18h-5v4h5Z" style="opacity: 0; cursor: e-resize;"></path><path d="M18,-3v5h326v-5Z" style="opacity: 0; cursor: n-resize;"></path><path d="M18,43v-5h326v5Z" style="opacity: 0; cursor: s-resize;"></path></g></g></svg>